<?xml version="1.0" encoding="UTF-8"?>
<svg xmlns="http://www.w3.org/2000/svg" version="1.1" viewBox="0 0 595.3 841.9">
  <defs>
    <style>
      .cls-1 {
        fill: none;
        stroke: #004647;
        stroke-miterlimit: 10;
        stroke-width: 4px;
      }

      .cls-2 {
        font-size: 50px;
      }

      .cls-2, .cls-3 {
        font-family: SofiaProSoftBold, 'Sofia Pro Soft';
      }

      .cls-2, .cls-3, .cls-4 {
        fill: #004647;
      }

      .cls-3 {
        font-size: 34px;
      }
    </style>
  </defs>
  <!-- Generator: Adobe Illustrator 28.7.2, SVG Export Plug-In . SVG Version: 1.2.0 Build 154)  -->
  <g>
    <g id="Layer_1">
      <g>
        <path class="cls-4" d="M187.4,207.6h-11.6c0,0-.1,0-.2,0,1.2-1.8,1.9-3.9,1.9-6.2,0-6.2-5-11.2-11.2-11.2s-11.2,5-11.2,11.2.7,4.4,1.9,6.2c0,0-.1,0-.2,0h-11.6c-7.4,0-13.5,6-13.5,13.5v54.8c0,7.4,6,13.5,13.5,13.5h42.2c7.4,0,13.5-6,13.5-13.5v-54.8c0-7.4-6-13.5-13.5-13.5ZM166.3,195.5c3.2,0,5.8,2.6,5.8,5.8s-2.6,5.8-5.8,5.8-5.8-2.6-5.8-5.8,2.6-5.8,5.8-5.8ZM195.5,275.8c0,4.5-3.6,8.1-8.1,8.1h-42.2c-4.5,0-8.1-3.6-8.1-8.1v-54.8c0-4.5,3.6-8.1,8.1-8.1h8.5v4.3c0,2.8,2.3,5.1,5.1,5.1h14.8c2.8,0,5.1-2.3,5.1-5.1v-4.3h8.5c4.5,0,8.1,3.6,8.1,8.1v54.8Z"/>
        <path class="cls-4" d="M178.3,238.9l-16.1,16.1-6.2-6.2c-1.1-1.1-2.8-1.1-3.8,0-1.1,1.1-1.1,2.8,0,3.8l10,10,19.9-19.9c1.1-1.1,1.1-2.8,0-3.8-1.1-1.1-2.8-1.1-3.8,0Z"/>
      </g>
      <path class="cls-1" d="M206.7,239.7h280.6c6.7,0,12.1,5.4,12.1,12.1v386.9c0,6.7-5.4,12.1-12.1,12.1H100.4c-6.7,0-12.1-5.4-12.1-12.1V251.8c0-6.7,5.4-12.1,12.1-12.1h25.9"/>
      <text class="cls-2" transform="translate(204.4 309.1)"><tspan x="0" y="0">CHECK-LIST</tspan></text>
      <text class="cls-3" transform="translate(125.7 383.1)"><tspan x="0" y="0">Make sure to prepare </tspan><tspan x="18" y="40.8">all necessary travel </tspan><tspan x="17.1" y="81.6">documents, such as </tspan><tspan x="5.8" y="122.4">passports, visas, and </tspan><tspan x="-10.6" y="163.2">insurance, to avoid any </tspan><tspan x="-11.9" y="204">disruptions during your </tspan><tspan x="136.1" y="244.8">trip.</tspan></text>
    </g>
  </g>
</svg>