<?xml version="1.0" encoding="UTF-8"?>
<svg xmlns="http://www.w3.org/2000/svg" version="1.1" viewBox="0 0 1417.3 1984.3">
  <defs>
    <style>
      .cls-1 {
        fill: #004647;
      }
    </style>
  </defs>
  <!-- Generator: Adobe Illustrator 28.7.2, SVG Export Plug-In . SVG Version: 1.2.0 Build 154)  -->
  <g>
    <g id="Layer_1">
      <g id="lRF6SK">
        <g>
          <path class="cls-1" d="M970.6,762c-15.4,40.4-40.9,60.7-75.8,61.4-34.8.7-61-19.5-78.4-61.3-4.8,0-10.1,0-15.5,0-137.2,0-274.4,0-411.6,0-4.5,0-10.1,1.5-13.1-.6-5.5-4-12.9-10-13.2-15.5-.3-5.4,6.1-13,11.6-16.4,4.6-2.9,12.1-1.6,18.3-1.6,136.3,0,272.6-.2,409,.2,10.6,0,15.8-2.6,20.3-13.3,13.2-30.6,37.4-47,71.3-47.4,32.1-.4,60.5,18.3,72,48.4,3.7,9.6,8.1,13.3,18.2,12.3,8.8-.9,17.9-.5,26.8.1,10.8.7,17.9,6.3,17.3,17.9-.5,10.8-7.5,15.7-17.8,15.9-12.9.2-25.9,0-39.4,0ZM893,788.8c24.9.2,44.4-19,44.4-43.8,0-24.1-19.1-43.6-43.1-44.2-24.1-.5-44.3,19.5-44.3,44.2,0,24.3,18.9,43.6,43,43.8Z"/>
          <path class="cls-1" d="M830.4,1131.9c55.2,0,110.2,0,165.1,0,4.5,0,8.9,0,13.4,0,10.8,0,18.2,4.6,19,16.2.7,10.5-6.2,17.4-18.9,17.7-20.5.5-41.1.2-61.7.2-35.3,0-70.6.2-105.9-.1-8.1,0-12.3,1.8-15.6,10.3-12,31.8-40.2,50.6-73.4,50.4-32.6-.2-60.4-19-71.9-50.4-3.5-9.6-8.9-10.2-17-10.2-91.2.2-182.3.1-273.5,0-20.1,0-27.9-4.8-28.1-16.9-.2-12.4,7.5-17.2,27.4-17.2,91.6,0,183.2-.1,274.8.2,8.8,0,13.1-2.1,16.4-10.9,12-31.5,41.3-51,73.5-50.6,31.6.4,60,20.5,72.1,51,1.3,3.3,2.6,6.5,4.1,10.3ZM752.9,1105.1c-24.5.1-44.4,20.2-44,44.3.5,23.4,20.4,43.3,43.8,43.6,24,.4,44.2-19.8,44.3-44.1,0-24.5-19.5-44-44.1-43.8Z"/>
          <path class="cls-1" d="M798.3,963.8c-68.4,0-136.8.2-205.2-.2-8.8,0-13.2,2-16.4,10.9-11.2,30.7-40.1,50.3-72.2,50.4-32.3.1-61.2-18.9-72.5-49.7-3.5-9.4-8-12.3-17.4-11.7-11.6.7-23.2.3-34.9.1-10.5-.1-17.3-5.2-17.6-16-.3-11.5,6.4-17.1,17.6-17.3,12.5-.2,25.1-.5,37.5.1,7.4.3,10.8-2.1,13.6-9.2,12.6-33,40.4-52.3,73.6-52.2,32.6.1,60.7,19.5,72.6,51.7,3.3,8.8,8.2,9.6,16,9.6,136.4-.1,272.7,0,409.1,0,4.5,0,10.4-1.4,13.1.9,5.2,4.3,11.5,10.7,11.8,16.5.2,5-6.7,11.1-11.7,15.1-2.5,2-7.8.8-11.8.8-68.4,0-136.8,0-205.2,0h0ZM504.5,903.3c-24.7-.2-44.6,19.5-44.4,44,.2,24,19.6,43.2,43.7,43.4,24.5.2,43.6-18.3,44.1-42.6.4-25.1-18.4-44.5-43.3-44.7Z"/>
        </g>
      </g>
    </g>
  </g>
</svg>