<?xml version="1.0" encoding="UTF-8"?>
<svg xmlns="http://www.w3.org/2000/svg" version="1.1" viewBox="0 0 841.9 595.3">
  <defs>
    <style>
      .cls-1 {
        fill: none;
        stroke: #004647;
        stroke-miterlimit: 10;
        stroke-width: 4px;
      }

      .cls-2 {
        font-size: 50px;
      }

      .cls-2, .cls-3 {
        font-family: SofiaProSoftBold, 'Sofia Pro Soft';
      }

      .cls-2, .cls-3, .cls-4 {
        fill: #004647;
      }

      .cls-3 {
        font-size: 39px;
      }
    </style>
  </defs>
  <!-- Generator: Adobe Illustrator 28.7.2, SVG Export Plug-In . SVG Version: 1.2.0 Build 154)  -->
  <g>
    <g id="Layer_1">
      <g>
        <path class="cls-4" d="M368.1,159h-16.8c2.5-2.7,4.6-6.6,5.3-12.2,1.9-16.5,5.7-42.4,6.2-45.5.4-1.2,1.1-4.2-.7-7-1.8-2.8-5.4-4.2-10.7-4.2h-35.8c-5.2,0-8.8,1.4-10.7,4.2-1.9,2.8-1.1,5.8-.7,7,.5,3.1,4.3,29,6.2,45.5.6,5.4,2.6,9.3,5.2,12.2h-8.1c-6.2-6.2-6.2-28.4-6.9-35.9-.2-2.1-2-3.6-4-3.6,0,0,0,0,0,0l-36.3.7c0-1,0-2,.3-2.5,0-.1.2-.3.7-.4,1.4-.3,2.5-1.6,2.5-3,0-.5.2-1.8.8-2.3.4-.3,1.3-.3,2.5,0,.9.3,1.9,0,2.7-.5.8-.6,1.2-1.5,1.3-2.5,0,0,.1-4,2.5-5.5,2-1.3,5.3-.9,9.8,1,.8.4,1.8.3,2.6,0,.8-.4,1.4-1.1,1.7-2,0,0,.6-2.1,2.4-3.1,1.3-.7,3-.7,5.1,0,1.6.5,3.4-.3,4-2,.5-1.6-.3-3.4-2-4-3.9-1.3-7.3-1.1-10.1.4-1.9,1-3.1,2.5-4,3.8-5.3-1.8-9.6-1.6-12.9.6-2.9,1.9-4.2,4.9-4.8,7.2-2.1,0-3.5.8-4.5,1.5-1.9,1.4-2.7,3.4-3,5-1.1.6-1.9,1.4-2.6,2.5-1.1,1.9-1.3,4.1-1.2,5.9h-1.4s0,0,0,0c-.2,0-.3,0-.5,0-.2,0-.5,0-.9,0-1.5,0-4.1.4-4.1,3.4s1.3,2.9,2.6,3.1c1.6.3,2.9,1.5,3.2,3,4.4,17.9,17.4,25.9,29.8,29.3h-32.6v6.3h79c.8,0,1.6.1,2.4.1s1.3,0,1.9,0c.4,0,.9,0,1.5,0s1.2,0,2,0h31.1v-6.3Z"/>
        <path class="cls-4" d="M333.4,86.2c1.7,0,3.1-1.4,3.1-3.1v-13.8c0-1.7-1.4-3.1-3.1-3.1s-3.1,1.4-3.1,3.1v13.8c0,1.7,1.4,3.1,3.1,3.1Z"/>
        <path class="cls-4" d="M349.6,86.2s0,0,0,0c1.7,0,3.1-1.5,3.1-3.2l-.2-9.6c0-1.7-1.5-3.1-3.2-3.1-1.7,0-3.1,1.5-3.1,3.2l.2,9.6c0,1.7,1.4,3.1,3.1,3.1Z"/>
        <path class="cls-4" d="M317.2,86s0,0,0,0c1.7,0,3.1-1.4,3.1-3.1l.2-9.4c0-1.7-1.3-3.2-3.1-3.2-1.7,0-3.2,1.3-3.2,3.1l-.2,9.4c0,1.7,1.3,3.2,3.1,3.2Z"/>
      </g>
      <path class="cls-1" d="M368.1,115.8h246.3c6.7,0,12.1,5.4,12.1,12.1v386.9c0,6.7-5.4,12.1-12.1,12.1H227.6c-6.7,0-12.1-5.4-12.1-12.1V127.9c0-6.7,5.4-12.1,12.1-12.1h17.9"/>
      <text class="cls-2" transform="translate(422.9 185.2)"><tspan x="0" y="0">FOOD</tspan></text>
      <text class="cls-3" transform="translate(281.6 263.1)"><tspan x="0" y="0">When traveling, </tspan><tspan x="-3.5" y="46.8">prioritize eating </tspan><tspan x="-1.8" y="93.6">balanced meals </tspan><tspan x="1.1" y="140.4">with safe, clean </tspan><tspan x="23.5" y="187.2">water to stay </tspan><tspan x="-42.8" y="234">energized and avoid </tspan></text>
    </g>
  </g>
</svg>