<?xml version="1.0" encoding="UTF-8"?>
<svg xmlns="http://www.w3.org/2000/svg" version="1.1" viewBox="0 0 841.9 595.3">
  <defs>
    <style>
      .cls-1 {
        fill: #f8f6f3;
      }

      .cls-2 {
        fill: none;
        stroke: #004647;
        stroke-miterlimit: 10;
        stroke-width: 4px;
      }

      .cls-3 {
        font-size: 50px;
      }

      .cls-3, .cls-4 {
        font-family: SofiaProSoftBold, 'Sofia Pro Soft';
      }

      .cls-3, .cls-4, .cls-5 {
        fill: #004647;
      }

      .cls-4 {
        font-size: 34px;
      }
    </style>
  </defs>
  <!-- Generator: Adobe Illustrator 28.7.2, SVG Export Plug-In . SVG Version: 1.2.0 Build 154)  -->
  <g>
    <g id="Layer_1">
      <g>
        <path class="cls-1" d="M271.7,162.3c-10.9,0-20.2-6.2-20.2-13.4s9.2-13.4,20.2-13.4,20.2,6.2,20.2,13.4-9.2,13.4-20.2,13.4Z"/>
        <path class="cls-5" d="M271.7,138.5c8.1,0,17.1,4.2,17.1,10.3s-9,10.3-17.1,10.3-17.1-4.2-17.1-10.3,9-10.3,17.1-10.3M271.7,132.3c-12.8,0-23.3,7.4-23.3,16.5s10.4,16.5,23.3,16.5,23.3-7.4,23.3-16.5-10.4-16.5-23.3-16.5h0Z"/>
      </g>
      <g>
        <path class="cls-1" d="M271.7,145.8c-10.9,0-20.2-6.2-20.2-13.4s9.2-13.4,20.2-13.4,20.2,6.2,20.2,13.4-9.2,13.4-20.2,13.4Z"/>
        <path class="cls-5" d="M271.7,122c8.1,0,17.1,4.2,17.1,10.3s-9,10.3-17.1,10.3-17.1-4.2-17.1-10.3,9-10.3,17.1-10.3M271.7,115.8c-12.8,0-23.3,7.4-23.3,16.5s10.4,16.5,23.3,16.5,23.3-7.4,23.3-16.5-10.4-16.5-23.3-16.5h0Z"/>
      </g>
      <g>
        <path class="cls-1" d="M271.7,129.2c-10.9,0-20.2-6.2-20.2-13.4s9.2-13.4,20.2-13.4,20.2,6.2,20.2,13.4-9.2,13.4-20.2,13.4Z"/>
        <path class="cls-5" d="M271.7,105.5c8.1,0,17.1,4.2,17.1,10.3s-9,10.3-17.1,10.3-17.1-4.2-17.1-10.3,9-10.3,17.1-10.3M271.7,99.3c-12.8,0-23.3,7.4-23.3,16.5s10.4,16.5,23.3,16.5,23.3-7.4,23.3-16.5-10.4-16.5-23.3-16.5h0Z"/>
      </g>
      <g>
        <path class="cls-1" d="M271.7,112.7c-10.9,0-20.2-6.2-20.2-13.4s9.2-13.4,20.2-13.4,20.2,6.2,20.2,13.4-9.2,13.4-20.2,13.4Z"/>
        <path class="cls-5" d="M271.7,88.9c8.1,0,17.1,4.2,17.1,10.3s-9,10.3-17.1,10.3-17.1-4.2-17.1-10.3,9-10.3,17.1-10.3M271.7,82.7c-12.8,0-23.3,7.4-23.3,16.5s10.4,16.5,23.3,16.5,23.3-7.4,23.3-16.5-10.4-16.5-23.3-16.5h0Z"/>
      </g>
      <g>
        <path class="cls-1" d="M271.7,96.2c-10.9,0-20.2-6.2-20.2-13.4s9.2-13.4,20.2-13.4,20.2,6.2,20.2,13.4-9.2,13.4-20.2,13.4Z"/>
        <path class="cls-5" d="M271.7,72.4c8.1,0,17.1,4.2,17.1,10.3s-9,10.3-17.1,10.3-17.1-4.2-17.1-10.3,9-10.3,17.1-10.3M271.7,66.2c-12.8,0-23.3,7.4-23.3,16.5s10.4,16.5,23.3,16.5,23.3-7.4,23.3-16.5-10.4-16.5-23.3-16.5h0Z"/>
      </g>
      <g>
        <path class="cls-1" d="M315.1,162.3c-10.9,0-20.2-6.2-20.2-13.4s9.2-13.4,20.2-13.4,20.2,6.2,20.2,13.4-9.2,13.4-20.2,13.4Z"/>
        <path class="cls-5" d="M315.1,138.5c8.1,0,17.1,4.2,17.1,10.3s-9,10.3-17.1,10.3-17.1-4.2-17.1-10.3,9-10.3,17.1-10.3M315.1,132.3c-12.8,0-23.3,7.4-23.3,16.5s10.4,16.5,23.3,16.5,23.3-7.4,23.3-16.5-10.4-16.5-23.3-16.5h0Z"/>
      </g>
      <g>
        <path class="cls-1" d="M315.1,145.8c-10.9,0-20.2-6.2-20.2-13.4s9.2-13.4,20.2-13.4,20.2,6.2,20.2,13.4-9.2,13.4-20.2,13.4Z"/>
        <path class="cls-5" d="M315.1,122c8.1,0,17.1,4.2,17.1,10.3s-9,10.3-17.1,10.3-17.1-4.2-17.1-10.3,9-10.3,17.1-10.3M315.1,115.8c-12.8,0-23.3,7.4-23.3,16.5s10.4,16.5,23.3,16.5,23.3-7.4,23.3-16.5-10.4-16.5-23.3-16.5h0Z"/>
      </g>
      <g>
        <path class="cls-1" d="M315.1,129.2c-10.9,0-20.2-6.2-20.2-13.4s9.2-13.4,20.2-13.4,20.2,6.2,20.2,13.4-9.2,13.4-20.2,13.4Z"/>
        <path class="cls-5" d="M315.1,105.5c8.1,0,17.1,4.2,17.1,10.3s-9,10.3-17.1,10.3-17.1-4.2-17.1-10.3,9-10.3,17.1-10.3M315.1,99.3c-12.8,0-23.3,7.4-23.3,16.5s10.4,16.5,23.3,16.5,23.3-7.4,23.3-16.5-10.4-16.5-23.3-16.5h0Z"/>
      </g>
      <path class="cls-2" d="M343.1,115.8h271.3c6.7,0,12.1,5.4,12.1,12.1v386.9c0,6.7-5.4,12.1-12.1,12.1H227.6c-6.7,0-12.1-5.4-12.1-12.1V127.9c0-6.7,5.4-12.1,12.1-12.1h15"/>
      <text class="cls-3" transform="translate(392.6 185.2)"><tspan x="0" y="0">MONE</tspan></text>
      <text class="cls-4" transform="translate(251.4 259.5)"><tspan x="0" y="0">It’s important to carry </tspan><tspan x="36.5" y="40.8">a mix of payment </tspan><tspan x="1.5" y="81.6">methods, be aware of </tspan><tspan x="15.9" y="122.4">exchange rates and </tspan><tspan x="19.2" y="163.2">fees, and keep your </tspan><tspan x="-3.3" y="204">money secure to avoid </tspan><tspan x="73.7" y="244.8">loss or theft.</tspan></text>
    </g>
  </g>
</svg>