<?xml version="1.0" encoding="UTF-8"?>
<svg xmlns="http://www.w3.org/2000/svg" version="1.1" viewBox="0 0 841.9 595.3">
  <defs>
    <style>
      .cls-1 {
        isolation: isolate;
      }

      .cls-2 {
        fill: #014748;
      }

      .cls-3 {
        fill: #004647;
      }
    </style>
  </defs>
  <!-- Generator: Adobe Illustrator 28.7.2, SVG Export Plug-In . SVG Version: 1.2.0 Build 154)  -->
  <g>
    <g id="Layer_1">
      <g id="Layer_1-2" data-name="Layer_1">
        <g>
          <path class="cls-2" d="M314.5,83.6h-11.8c1.2-1.8,1.9-3.9,1.9-6.2,0-6.2-5-11.2-11.2-11.2s-11.2,5-11.2,11.2.7,4.4,1.9,6.2h-11.8c-7.4,0-13.5,6-13.5,13.5v54.8c0,7.4,6,13.5,13.5,13.5h42.2c7.4,0,13.5-6,13.5-13.5v-54.8c0-7.4-6-13.5-13.5-13.5h0ZM293.5,71.5c3.2,0,5.8,2.6,5.8,5.8s-2.6,5.8-5.8,5.8-5.8-2.6-5.8-5.8,2.6-5.8,5.8-5.8ZM322.7,151.8c0,4.5-3.6,8.1-8.1,8.1h-42.2c-4.5,0-8.1-3.6-8.1-8.1v-54.8c0-4.5,3.6-8.1,8.1-8.1h8.5v4.3c0,2.8,2.3,5.1,5.1,5.1h14.8c2.8,0,5.1-2.3,5.1-5.1v-4.3h8.5c4.5,0,8.1,3.6,8.1,8.1v54.8h.2Z"/>
          <path class="cls-2" d="M305.5,114.9l-16.1,16.1-6.2-6.2c-1.1-1.1-2.8-1.1-3.8,0-1.1,1.1-1.1,2.8,0,3.8l10,10,19.9-19.9c1.1-1.1,1.1-2.8,0-3.8-1.1-1.1-2.8-1.1-3.8,0h0Z"/>
        </g>
        <path class="cls-2" d="M614.5,528.8H227.5c-7.8,0-14.1-6.3-14.1-14.1V127.8c0-7.8,6.3-14.1,14.1-14.1h25.9v4h-25.9c-5.6,0-10.1,4.5-10.1,10.1v386.9c0,5.6,4.5,10.1,10.1,10.1h386.9c5.6,0,10.1-4.5,10.1-10.1V127.8c0-5.6-4.5-10.1-10.1-10.1h-280.6v-4h280.6c7.8,0,14.1,6.3,14.1,14.1v386.9c0,7.8-6.3,14.1-14.1,14.1Z"/>
        <g class="cls-1">
          <g class="cls-1">
            <path class="cls-3" d="M259.5,233.2c-1.7,0-3.2-.3-4.4-.9-1.3-.6-2.4-1.5-3.2-2.6-.9-1.2-1.5-2.6-2-4.2-.4-1.6-.7-3.5-.7-5.7s.2-4,.7-5.6c.5-1.6,1.1-3,2-4.1.9-1.1,1.9-2,3.2-2.6s2.7-.9,4.3-.9,3.5.4,4.9,1.2c1.4.8,2.6,2,3.4,3.6.9,1.6,1.4,3.6,1.5,6h-4.6c-.2-1.6-.5-2.9-1-3.8-.5-1-1.1-1.7-1.8-2.1-.7-.5-1.5-.7-2.4-.7s-2.2.4-3,1.1c-.8.7-1.5,1.8-1.9,3.1-.4,1.4-.6,3-.6,5s.1,2.8.3,4c.2,1.2.6,2.2,1,2.9.5.8,1.1,1.4,1.8,1.8s1.5.6,2.4.6,1.8-.2,2.5-.7c.7-.5,1.3-1.1,1.7-2.1.4-.9.7-2.1.9-3.5h4.5c-.1,1.7-.4,3.2-.9,4.4-.5,1.3-1.2,2.4-2,3.2-.8.9-1.8,1.5-2.9,1.9-1.1.4-2.4.6-3.8.6Z"/>
            <path class="cls-3" d="M272.7,232.9v-25.9h4.7v25.9h-4.7ZM275.5,221.9v-3.9h11.5v3.9h-11.5ZM285.3,232.9v-25.9h4.6v25.9h-4.6Z"/>
            <path class="cls-3" d="M294.3,232.9v-25.9h13.5v3.9h-9v7.1h8.1v3.6h-8.1v7.4h9v3.9h-13.5Z"/>
            <path class="cls-3" d="M320.9,233.2c-1.7,0-3.2-.3-4.4-.9-1.3-.6-2.4-1.5-3.2-2.6-.9-1.2-1.5-2.6-2-4.2-.4-1.6-.7-3.5-.7-5.7s.2-4,.7-5.6c.5-1.6,1.1-3,2-4.1.9-1.1,1.9-2,3.2-2.6s2.7-.9,4.3-.9,3.5.4,4.9,1.2c1.4.8,2.6,2,3.4,3.6.9,1.6,1.4,3.6,1.5,6h-4.6c-.2-1.6-.5-2.9-1-3.8-.5-1-1.1-1.7-1.8-2.1-.7-.5-1.5-.7-2.4-.7s-2.2.4-3,1.1c-.8.7-1.5,1.8-1.9,3.1-.4,1.4-.6,3-.6,5s.1,2.8.3,4c.2,1.2.6,2.2,1,2.9.5.8,1.1,1.4,1.8,1.8s1.5.6,2.4.6,1.8-.2,2.5-.7c.7-.5,1.3-1.1,1.7-2.1.4-.9.7-2.1.9-3.5h4.5c-.1,1.7-.4,3.2-.9,4.4-.5,1.3-1.2,2.4-2,3.2-.8.9-1.8,1.5-2.9,1.9-1.1.4-2.4.6-3.8.6Z"/>
            <path class="cls-3" d="M334.1,232.9v-25.9h4.7v25.9h-4.7ZM346.1,232.9l-7.6-12.3v-.3l7.2-13.3h5l-8,14.6-.2-3.4,9.1,14.7h-5.5Z"/>
            <path class="cls-3" d="M353.2,223.9v-4.1h9.8v4.1h-9.8Z"/>
            <path class="cls-3" d="M366.8,232.9v-25.9h4.7v22.6l-.6-.7h8.6v4h-12.7Z"/>
            <path class="cls-3" d="M382.5,232.9v-25.9h4.7v25.9h-4.7Z"/>
            <path class="cls-3" d="M398.8,233.2c-1.8,0-3.3-.3-4.6-1-1.2-.6-2.2-1.6-2.8-2.8-.6-1.2-.9-2.7-.9-4.5h4.3c0,1,.1,1.9.4,2.6.3.7.7,1.3,1.3,1.6.6.4,1.3.6,2.1.6s1.3-.1,1.8-.4c.5-.3.9-.7,1.1-1.2.3-.5.4-1.2.4-1.9s-.2-1.4-.5-1.9c-.3-.5-.7-.9-1.3-1.3-.5-.3-1.1-.6-1.8-.9-.7-.3-1.3-.5-2.1-.8s-1.4-.6-2.1-1c-.7-.4-1.2-.8-1.8-1.4-.5-.5-.9-1.2-1.2-2-.3-.8-.5-1.8-.5-3s.3-2.8.9-4,1.4-2,2.6-2.5c1.1-.6,2.5-.9,4.1-.9s3.1.3,4.3.9,2.1,1.5,2.7,2.7c.6,1.2.9,2.7.9,4.4h-4.2c0-1,0-1.8-.4-2.5-.3-.7-.7-1.2-1.2-1.5-.5-.4-1.2-.5-1.9-.5s-1.2.1-1.7.4c-.5.3-.9.7-1.1,1.2-.2.5-.4,1.2-.4,1.9s.2,1.5.5,2c.3.5.7.9,1.3,1.3.5.4,1.1.6,1.8.9.7.2,1.3.5,2.1.7.7.3,1.4.6,2.1.9.7.3,1.2.8,1.8,1.3.5.5.9,1.2,1.3,2,.3.8.5,1.8.5,3s-.3,3-.9,4.1c-.6,1.1-1.5,2-2.7,2.6-1.2.6-2.6.9-4.3.9Z"/>
            <path class="cls-3" d="M414.3,232.9v-21.9h-5.4v-4h15.6v4h-5.4v21.9h-4.7Z"/>
          </g>
        </g>
      </g>
      <g>
        <path class="cls-3" d="M250,299.4l1.2-20.3h2.1l8.2,18.6h-.7l8-18.6h2l1.2,20.3h-1.8l-1.1-17.8h.4c0,.1-7.7,17.8-7.7,17.8h-1.4l-7.8-17.7h.3c0,0-1,17.7-1,17.7h-1.8Z"/>
        <path class="cls-3" d="M282.1,299.6c-1,0-1.9-.2-2.7-.5s-1.5-.9-2.1-1.5-1-1.5-1.3-2.4c-.3-.9-.5-1.9-.5-3s.3-2.8.8-3.9,1.3-2,2.3-2.6c1-.6,2.2-.9,3.5-.9s1.8.2,2.6.5c.8.3,1.5.9,2,1.5.6.7,1,1.4,1.3,2.4.3.9.5,1.9.5,3.1s-.3,2.9-.8,4c-.5,1.1-1.3,2-2.3,2.6-1,.6-2.1.9-3.4.9ZM282.4,298.2c1,0,1.9-.3,2.7-.8.8-.5,1.4-1.2,1.8-2.1.4-.9.6-2,.6-3.2s-.1-1.7-.4-2.5c-.2-.7-.6-1.4-1.1-1.9-.5-.5-1-.9-1.6-1.2-.6-.3-1.3-.4-2.1-.4s-2,.3-2.7.8c-.8.5-1.4,1.2-1.8,2.1-.4.9-.6,2-.6,3.2s.2,2.2.6,3.1c.4.9,1,1.6,1.8,2.1.8.5,1.7.8,2.7.8ZM287.6,299.4v-6l.4-1.3-.4-2.2v-5h1.7v14.6h-1.7Z"/>
        <path class="cls-3" d="M294,299.4v-21.9h1.7v14.6h0v7.3h-1.7ZM303.3,299.4l-7.7-7v-.3c-.1,0,6.9-7.2,6.9-7.2h2.3l-7.5,7.7-.3-1.1,8.7,8h-2.5Z"/>
        <path class="cls-3" d="M314.5,299.6c-1.5,0-2.7-.3-3.8-1-1.1-.6-1.9-1.5-2.5-2.6-.6-1.1-.8-2.4-.8-3.9s.3-2.7.8-3.9c.6-1.1,1.3-2,2.4-2.7,1-.6,2.3-1,3.7-1s2.6.3,3.6,1c1,.6,1.8,1.5,2.3,2.6.5,1.1.8,2.4.8,3.8v.6h-12.6v-1.4h11.4l-.4.6c0-1.1-.2-2.1-.6-3-.4-.9-1-1.6-1.8-2s-1.7-.7-2.7-.7-1.9.2-2.7.7c-.8.5-1.4,1.2-1.8,2-.4.9-.7,2-.7,3.2s.2,2.3.7,3.2c.4.9,1.1,1.6,1.9,2.1.8.5,1.7.7,2.8.7s1.5-.1,2.2-.4c.6-.3,1.2-.6,1.6-1.1.4-.5.7-1,.9-1.6h1.7c-.2.9-.5,1.6-1.1,2.3-.6.7-1.3,1.2-2.2,1.6-.9.4-1.9.6-3,.6Z"/>
        <path class="cls-3" d="M336.1,299.6c-1.2,0-2.2-.2-3-.6-.8-.4-1.5-.9-1.9-1.5-.4-.7-.7-1.4-.7-2.3h1.7c0,.6.1,1.1.4,1.5s.7.8,1.3,1c.6.3,1.3.4,2.1.4s2-.2,2.6-.7c.6-.5.9-1.1.9-1.9s-.2-1-.5-1.4c-.3-.3-.7-.6-1.2-.8-.5-.2-1.1-.4-1.7-.5-.6-.1-1.2-.3-1.9-.4s-1.2-.4-1.7-.7c-.5-.3-.9-.7-1.2-1.2-.3-.5-.5-1.1-.5-1.9,0-1.2.4-2.2,1.3-2.9.9-.7,2.1-1.1,3.6-1.1s1.9.2,2.7.5c.8.3,1.4.8,1.8,1.5.4.6.7,1.4.7,2.2h-1.7c0-.8-.3-1.5-1-2-.6-.5-1.5-.8-2.4-.8s-1.8.2-2.4.7c-.6.4-.9,1.1-.9,1.8s.2,1,.5,1.4c.3.3.7.6,1.2.8.5.2,1.1.3,1.7.4.6.1,1.2.3,1.9.4.6.2,1.2.4,1.7.7.5.3.9.7,1.2,1.2s.5,1.2.5,2c0,1.3-.5,2.3-1.4,3-.9.8-2.2,1.1-3.8,1.1Z"/>
        <path class="cls-3" d="M350.1,299.6c-.9,0-1.7-.1-2.3-.4-.7-.2-1.2-.6-1.7-1.1-.4-.5-.8-1.1-1-1.9-.2-.8-.3-1.7-.3-2.8v-8.6h1.7v8c0,1,0,1.9.3,2.6s.5,1.2.8,1.6c.4.4.8.7,1.3.8.5.2,1.1.2,1.8.2s1.6-.2,2.3-.7c.7-.4,1.2-1.2,1.7-2.1.4-1,.6-2.2.6-3.8v-6.6h1.7v14.6h-1.7v-6.7h.6c0,1.4-.2,2.7-.7,3.7-.5,1-1.1,1.8-2,2.4-.9.6-1.9.8-3.1.8Z"/>
        <path class="cls-3" d="M361.6,299.4v-14.6h1.7v7.3h-.5c0-1.6.3-2.9.7-4,.4-1.1,1.1-1.9,1.9-2.5.8-.6,1.8-.9,3-.9h.4c.1,0,.3,0,.4,0v1.7c-.9,0-1.7,0-2.5.3-.7.2-1.4.5-1.9,1-.5.5-.9,1.2-1.2,2.1-.3.9-.4,2-.4,3.4v6.2h-1.7Z"/>
        <path class="cls-3" d="M378.2,299.6c-1.5,0-2.7-.3-3.8-1-1.1-.6-1.9-1.5-2.5-2.6-.6-1.1-.8-2.4-.8-3.9s.3-2.7.8-3.9c.6-1.1,1.3-2,2.4-2.7,1-.6,2.3-1,3.7-1s2.6.3,3.6,1c1,.6,1.8,1.5,2.3,2.6.5,1.1.8,2.4.8,3.8v.6h-12.6v-1.4h11.4l-.4.6c0-1.1-.2-2.1-.6-3-.4-.9-1-1.6-1.8-2s-1.7-.7-2.7-.7-1.9.2-2.7.7c-.8.5-1.4,1.2-1.8,2-.4.9-.7,2-.7,3.2s.2,2.3.7,3.2c.4.9,1.1,1.6,1.9,2.1.8.5,1.7.7,2.8.7s1.5-.1,2.2-.4c.6-.3,1.2-.6,1.6-1.1.4-.5.7-1,.9-1.6h1.7c-.2.9-.5,1.6-1.1,2.3-.6.7-1.3,1.2-2.2,1.6-.9.4-1.9.6-3,.6Z"/>
        <path class="cls-3" d="M393.2,286.2v-1.4h10.2v1.4h-10.2ZM400.6,299.7c-.8,0-1.4,0-2-.2-.6-.1-1-.4-1.4-.8-.4-.4-.6-.9-.8-1.5-.2-.6-.3-1.4-.3-2.4v-15.5h1.7v15.5c0,.9.1,1.6.3,2.1.2.5.5.8.9,1,.4.2,1,.2,1.7.2s.8,0,1.3-.1c.5,0,.9-.3,1.3-.5v1.7c-.3.1-.6.2-.9.3-.3,0-.7.1-1,.2-.3,0-.6,0-.9,0Z"/>
        <path class="cls-3" d="M413,299.6c-1.4,0-2.7-.3-3.8-1-1.1-.6-2-1.5-2.6-2.6-.6-1.1-.9-2.4-.9-3.9s.3-2.8.9-3.9c.6-1.1,1.5-2,2.6-2.6,1.1-.6,2.4-1,3.8-1s2.8.3,3.8,1c1.1.6,1.9,1.5,2.5,2.6.6,1.1.9,2.4.9,3.9s-.3,2.8-.9,3.9c-.6,1.1-1.4,2-2.5,2.6-1.1.6-2.4,1-3.8,1ZM413,298.1c1.1,0,2.1-.3,2.9-.8.8-.5,1.4-1.2,1.9-2.1.4-.9.7-1.9.7-3.1s-.1-1.6-.4-2.4c-.2-.7-.6-1.4-1.1-1.9-.5-.5-1.1-1-1.7-1.2s-1.4-.4-2.3-.4-2.1.3-2.9.8c-.8.5-1.5,1.2-1.9,2.1-.4.9-.7,1.9-.7,3.1s.2,2.2.7,3.1c.4.9,1.1,1.6,1.9,2.1.8.5,1.8.8,2.9.8Z"/>
        <path class="cls-3" d="M430.7,305.7v-20.9h1.7v4.7l-.4,2.5.5,2v11.6h-1.7ZM437.9,299.6c-1.3,0-2.4-.3-3.4-.9-1-.6-1.7-1.5-2.3-2.6-.5-1.1-.8-2.4-.8-4s.3-2.9.8-4c.5-1.1,1.3-2,2.3-2.6,1-.6,2.1-.9,3.4-.9s1.9.2,2.7.5c.8.4,1.5.9,2.1,1.5s1,1.5,1.4,2.4c.3.9.5,1.9.5,3s-.3,2.8-.8,3.9-1.3,2-2.3,2.6-2.2.9-3.5.9ZM437.6,298.2c1,0,2-.3,2.7-.8.8-.5,1.4-1.2,1.8-2.1.4-.9.7-2,.7-3.1s-.2-2.3-.7-3.2c-.4-.9-1-1.6-1.8-2.1-.8-.5-1.7-.8-2.7-.8s-1.9.3-2.7.8c-.8.5-1.4,1.2-1.8,2.1-.4.9-.7,2-.7,3.2s.1,1.7.4,2.5c.3.7.6,1.4,1.1,1.9.5.5,1,.9,1.6,1.2.6.3,1.3.4,2.1.4Z"/>
        <path class="cls-3" d="M448.3,299.4v-14.6h1.7v7.3h-.5c0-1.6.3-2.9.7-4,.4-1.1,1.1-1.9,1.9-2.5.8-.6,1.8-.9,3-.9h.4c.1,0,.3,0,.4,0v1.7c-.9,0-1.7,0-2.5.3-.7.2-1.4.5-1.9,1-.5.5-.9,1.2-1.2,2.1-.3.9-.4,2-.4,3.4v6.2h-1.7Z"/>
        <path class="cls-3" d="M464.8,299.6c-1.5,0-2.7-.3-3.8-1-1.1-.6-1.9-1.5-2.5-2.6-.6-1.1-.8-2.4-.8-3.9s.3-2.7.8-3.9c.6-1.1,1.3-2,2.4-2.7,1-.6,2.3-1,3.7-1s2.6.3,3.6,1c1,.6,1.8,1.5,2.3,2.6.5,1.1.8,2.4.8,3.8v.6h-12.6v-1.4h11.4l-.4.6c0-1.1-.2-2.1-.6-3-.4-.9-1-1.6-1.8-2s-1.7-.7-2.7-.7-1.9.2-2.7.7c-.8.5-1.4,1.2-1.8,2-.4.9-.7,2-.7,3.2s.2,2.3.7,3.2c.4.9,1.1,1.6,1.9,2.1.8.5,1.7.7,2.8.7s1.5-.1,2.2-.4c.6-.3,1.2-.6,1.6-1.1.4-.5.7-1,.9-1.6h1.7c-.2.9-.5,1.6-1.1,2.3-.6.7-1.3,1.2-2.2,1.6-.9.4-1.9.6-3,.6Z"/>
        <path class="cls-3" d="M475.2,305.7v-20.9h1.7v4.7l-.4,2.5.5,2v11.6h-1.7ZM482.4,299.6c-1.3,0-2.4-.3-3.4-.9-1-.6-1.7-1.5-2.3-2.6-.5-1.1-.8-2.4-.8-4s.3-2.9.8-4c.5-1.1,1.3-2,2.3-2.6,1-.6,2.1-.9,3.4-.9s1.9.2,2.7.5c.8.4,1.5.9,2.1,1.5s1,1.5,1.4,2.4c.3.9.5,1.9.5,3s-.3,2.8-.8,3.9-1.3,2-2.3,2.6-2.2.9-3.5.9ZM482.1,298.2c1,0,2-.3,2.7-.8.8-.5,1.4-1.2,1.8-2.1.4-.9.7-2,.7-3.1s-.2-2.3-.7-3.2c-.4-.9-1-1.6-1.8-2.1-.8-.5-1.7-.8-2.7-.8s-1.9.3-2.7.8c-.8.5-1.4,1.2-1.8,2.1-.4.9-.7,2-.7,3.2s.1,1.7.4,2.5c.3.7.6,1.4,1.1,1.9.5.5,1,.9,1.6,1.2.6.3,1.3.4,2.1.4Z"/>
        <path class="cls-3" d="M498.4,299.6c-1,0-1.9-.2-2.7-.5s-1.5-.9-2.1-1.5-1-1.5-1.3-2.4c-.3-.9-.5-1.9-.5-3s.3-2.8.8-3.9,1.3-2,2.3-2.6c1-.6,2.2-.9,3.5-.9s1.8.2,2.6.5c.8.3,1.5.9,2,1.5.6.7,1,1.4,1.3,2.4.3.9.5,1.9.5,3.1s-.3,2.9-.8,4c-.5,1.1-1.3,2-2.3,2.6-1,.6-2.1.9-3.4.9ZM498.7,298.2c1,0,1.9-.3,2.7-.8.8-.5,1.4-1.2,1.8-2.1.4-.9.6-2,.6-3.2s-.1-1.7-.4-2.5c-.2-.7-.6-1.4-1.1-1.9-.5-.5-1-.9-1.6-1.2-.6-.3-1.3-.4-2.1-.4s-2,.3-2.7.8c-.8.5-1.4,1.2-1.8,2.1-.4.9-.6,2-.6,3.2s.2,2.2.6,3.1c.4.9,1,1.6,1.8,2.1.8.5,1.7.8,2.7.8ZM503.9,299.4v-6l.4-1.3-.4-2.2v-5h1.7v14.6h-1.7Z"/>
        <path class="cls-3" d="M510.3,299.4v-14.6h1.7v7.3h-.5c0-1.6.3-2.9.7-4,.4-1.1,1.1-1.9,1.9-2.5.8-.6,1.8-.9,3-.9h.4c.1,0,.3,0,.4,0v1.7c-.9,0-1.7,0-2.5.3-.7.2-1.4.5-1.9,1-.5.5-.9,1.2-1.2,2.1-.3.9-.4,2-.4,3.4v6.2h-1.7Z"/>
        <path class="cls-3" d="M526.9,299.6c-1.5,0-2.7-.3-3.8-1-1.1-.6-1.9-1.5-2.5-2.6-.6-1.1-.8-2.4-.8-3.9s.3-2.7.8-3.9c.6-1.1,1.3-2,2.4-2.7,1-.6,2.3-1,3.7-1s2.6.3,3.6,1c1,.6,1.8,1.5,2.3,2.6.5,1.1.8,2.4.8,3.8v.6h-12.6v-1.4h11.4l-.4.6c0-1.1-.2-2.1-.6-3-.4-.9-1-1.6-1.8-2s-1.7-.7-2.7-.7-1.9.2-2.7.7c-.8.5-1.4,1.2-1.8,2-.4.9-.7,2-.7,3.2s.2,2.3.7,3.2c.4.9,1.1,1.6,1.9,2.1.8.5,1.7.7,2.8.7s1.5-.1,2.2-.4c.6-.3,1.2-.6,1.6-1.1.4-.5.7-1,.9-1.6h1.7c-.2.9-.5,1.6-1.1,2.3-.6.7-1.3,1.2-2.2,1.6-.9.4-1.9.6-3,.6Z"/>
        <path class="cls-3" d="M250.3,334.2v-14.6h1.7v6.7h-.6c0-1.4.2-2.7.7-3.7s1.1-1.8,2-2.4c.9-.6,1.9-.8,3.1-.8s1.7.1,2.3.4c.7.2,1.2.6,1.7,1.1.5.5.8,1.2,1,1.9.2.8.3,1.7.3,2.7v8.6h-1.7v-8c0-1,0-1.9-.3-2.5-.2-.7-.5-1.2-.8-1.6-.4-.4-.8-.7-1.3-.8-.5-.2-1.1-.2-1.8-.2s-1.6.2-2.3.7-1.3,1.2-1.7,2.1c-.4,1-.6,2.2-.6,3.8v6.6h-1.7Z"/>
        <path class="cls-3" d="M273.1,334.4c-1.5,0-2.7-.3-3.8-1s-1.9-1.5-2.5-2.6c-.6-1.1-.8-2.4-.8-3.9s.3-2.7.8-3.9c.6-1.1,1.3-2,2.4-2.7,1-.6,2.3-1,3.7-1s2.6.3,3.6,1c1,.6,1.8,1.5,2.3,2.6.5,1.1.8,2.4.8,3.8v.6h-12.6v-1.4h11.4l-.4.6c0-1.1-.2-2.1-.6-3-.4-.9-1-1.6-1.8-2s-1.7-.7-2.7-.7-1.9.2-2.7.7c-.8.5-1.4,1.2-1.8,2-.4.9-.7,2-.7,3.2s.2,2.3.7,3.2c.4.9,1.1,1.6,1.9,2.1.8.5,1.7.7,2.8.7s1.5-.1,2.2-.4c.6-.3,1.2-.6,1.6-1.1.4-.5.7-1,.9-1.6h1.7c-.2.9-.5,1.6-1.1,2.3s-1.3,1.2-2.2,1.6c-.9.4-1.9.6-3,.6Z"/>
        <path class="cls-3" d="M289.3,334.4c-1.5,0-2.7-.3-3.8-1-1-.6-1.8-1.5-2.3-2.6-.5-1.1-.8-2.4-.8-3.9s.3-2.7.8-3.9c.5-1.1,1.3-2,2.3-2.7,1-.6,2.3-1,3.7-1s2.1.2,2.9.6c.9.4,1.6,1,2.2,1.7s1,1.5,1.1,2.5h-1.7c-.2-.7-.5-1.2-.9-1.7-.4-.5-.9-.9-1.6-1.1-.6-.3-1.3-.4-2.1-.4-1.1,0-2,.3-2.8.8-.8.5-1.3,1.2-1.7,2.1-.4.9-.6,1.9-.6,3.1s.2,2.2.6,3.1.9,1.6,1.7,2.1c.7.5,1.7.8,2.8.8s2.2-.3,3-.9c.8-.6,1.3-1.5,1.6-2.7h1.7c-.2,1.1-.5,2-1.1,2.7-.6.8-1.3,1.3-2.1,1.7-.9.4-1.9.6-3,.6Z"/>
        <path class="cls-3" d="M305.2,334.4c-1.5,0-2.7-.3-3.8-1s-1.9-1.5-2.5-2.6c-.6-1.1-.8-2.4-.8-3.9s.3-2.7.8-3.9c.6-1.1,1.3-2,2.4-2.7,1-.6,2.3-1,3.7-1s2.6.3,3.6,1c1,.6,1.8,1.5,2.3,2.6.5,1.1.8,2.4.8,3.8v.6h-12.6v-1.4h11.4l-.4.6c0-1.1-.2-2.1-.6-3-.4-.9-1-1.6-1.8-2s-1.7-.7-2.7-.7-1.9.2-2.7.7c-.8.5-1.4,1.2-1.8,2-.4.9-.7,2-.7,3.2s.2,2.3.7,3.2c.4.9,1.1,1.6,1.9,2.1.8.5,1.7.7,2.8.7s1.5-.1,2.2-.4c.6-.3,1.2-.6,1.6-1.1.4-.5.7-1,.9-1.6h1.7c-.2.9-.5,1.6-1.1,2.3s-1.3,1.2-2.2,1.6c-.9.4-1.9.6-3,.6Z"/>
        <path class="cls-3" d="M320.1,334.4c-1.2,0-2.2-.2-3-.6-.8-.4-1.5-.9-1.9-1.5-.4-.7-.7-1.4-.7-2.3h1.7c0,.6.1,1.1.4,1.5.3.4.7.8,1.3,1,.6.3,1.3.4,2.1.4s2-.2,2.6-.7c.6-.5.9-1.1.9-1.9s-.2-1-.5-1.4-.7-.6-1.2-.8c-.5-.2-1.1-.4-1.7-.5-.6-.1-1.2-.3-1.9-.4-.6-.2-1.2-.4-1.7-.7-.5-.3-.9-.7-1.2-1.2-.3-.5-.5-1.1-.5-1.9,0-1.2.4-2.2,1.3-2.9.9-.7,2.1-1.1,3.6-1.1s1.9.2,2.7.5,1.4.8,1.8,1.5c.4.6.7,1.4.7,2.2h-1.7c0-.8-.3-1.5-1-2-.6-.5-1.5-.8-2.4-.8s-1.8.2-2.4.7c-.6.4-.9,1.1-.9,1.8s.2,1,.5,1.4c.3.3.7.6,1.2.8.5.2,1.1.3,1.7.4s1.2.3,1.9.4c.6.2,1.2.4,1.7.7.5.3.9.7,1.2,1.2s.5,1.2.5,2c0,1.3-.5,2.3-1.4,3-.9.8-2.2,1.1-3.8,1.1Z"/>
        <path class="cls-3" d="M333.6,334.4c-1.2,0-2.2-.2-3-.6-.8-.4-1.5-.9-1.9-1.5-.4-.7-.7-1.4-.7-2.3h1.7c0,.6.1,1.1.4,1.5.3.4.7.8,1.3,1,.6.3,1.3.4,2.1.4s2-.2,2.6-.7c.6-.5.9-1.1.9-1.9s-.2-1-.5-1.4-.7-.6-1.2-.8c-.5-.2-1.1-.4-1.7-.5-.6-.1-1.2-.3-1.9-.4-.6-.2-1.2-.4-1.7-.7-.5-.3-.9-.7-1.2-1.2-.3-.5-.5-1.1-.5-1.9,0-1.2.4-2.2,1.3-2.9.9-.7,2.1-1.1,3.6-1.1s1.9.2,2.7.5,1.4.8,1.8,1.5c.4.6.7,1.4.7,2.2h-1.7c0-.8-.3-1.5-1-2-.6-.5-1.5-.8-2.4-.8s-1.8.2-2.4.7c-.6.4-.9,1.1-.9,1.8s.2,1,.5,1.4c.3.3.7.6,1.2.8.5.2,1.1.3,1.7.4s1.2.3,1.9.4c.6.2,1.2.4,1.7.7.5.3.9.7,1.2,1.2s.5,1.2.5,2c0,1.3-.5,2.3-1.4,3-.9.8-2.2,1.1-3.8,1.1Z"/>
        <path class="cls-3" d="M348.3,334.4c-1,0-1.9-.2-2.7-.5-.8-.4-1.5-.9-2.1-1.5s-1-1.5-1.3-2.4c-.3-.9-.5-1.9-.5-3s.3-2.8.8-3.9,1.3-2,2.3-2.6c1-.6,2.2-.9,3.5-.9s1.8.2,2.6.5,1.5.9,2,1.5c.6.7,1,1.4,1.3,2.4.3.9.5,1.9.5,3.1s-.3,2.9-.8,4c-.5,1.1-1.3,2-2.3,2.6-1,.6-2.1.9-3.4.9ZM348.6,333c1,0,1.9-.3,2.7-.8.8-.5,1.4-1.2,1.8-2.1.4-.9.6-2,.6-3.2s-.1-1.7-.4-2.5c-.2-.7-.6-1.4-1.1-1.9-.5-.5-1-.9-1.6-1.2-.6-.3-1.3-.4-2.1-.4s-2,.3-2.7.8c-.8.5-1.4,1.2-1.8,2.1-.4.9-.6,2-.6,3.2s.2,2.2.6,3.1c.4.9,1,1.6,1.8,2.1.8.5,1.7.8,2.7.8ZM353.8,334.2v-6l.4-1.3-.4-2.2v-5h1.7v14.6h-1.7Z"/>
        <path class="cls-3" d="M360.2,334.2v-14.6h1.7v7.3h-.5c0-1.6.3-2.9.7-4,.4-1.1,1.1-1.9,1.9-2.5.8-.6,1.8-.9,3-.9h.4c.1,0,.3,0,.4,0v1.7c-.9,0-1.7,0-2.5.3-.7.2-1.4.5-1.9,1-.5.5-.9,1.2-1.2,2.1-.3.9-.4,2-.4,3.4v6.2h-1.7Z"/>
        <path class="cls-3" d="M374.9,334.7l-6.2-15h1.9l5.2,13-.9,2.1ZM371.7,340.6l3.2-7.9v-.4c.1,0,5.3-12.6,5.3-12.6h1.9l-8.6,20.9h-1.8Z"/>
        <path class="cls-3" d="M389.4,321v-1.4h10.2v1.4h-10.2ZM396.8,334.5c-.8,0-1.4,0-2-.2-.6-.1-1-.4-1.4-.8-.4-.4-.6-.9-.8-1.5s-.3-1.4-.3-2.4v-15.5h1.7v15.5c0,.9.1,1.6.3,2.1.2.5.5.8.9,1,.4.2,1,.2,1.7.2s.8,0,1.3-.1c.5,0,.9-.3,1.3-.5v1.7c-.3.1-.6.2-.9.3-.3,0-.7.1-1,.2-.3,0-.6,0-.9,0Z"/>
        <path class="cls-3" d="M402.9,334.2v-14.6h1.7v7.3h-.5c0-1.6.3-2.9.7-4,.4-1.1,1.1-1.9,1.9-2.5.8-.6,1.8-.9,3-.9h.4c.1,0,.3,0,.4,0v1.7c-.9,0-1.7,0-2.5.3-.7.2-1.4.5-1.9,1-.5.5-.9,1.2-1.2,2.1-.3.9-.4,2-.4,3.4v6.2h-1.7Z"/>
        <path class="cls-3" d="M419,334.4c-1,0-1.9-.2-2.7-.5-.8-.4-1.5-.9-2.1-1.5s-1-1.5-1.3-2.4c-.3-.9-.5-1.9-.5-3s.3-2.8.8-3.9,1.3-2,2.3-2.6c1-.6,2.2-.9,3.5-.9s1.8.2,2.6.5c.8.3,1.5.9,2,1.5.6.7,1,1.4,1.3,2.4.3.9.5,1.9.5,3.1s-.3,2.9-.8,4c-.5,1.1-1.3,2-2.3,2.6-1,.6-2.1.9-3.4.9ZM419.3,333c1,0,1.9-.3,2.7-.8.8-.5,1.4-1.2,1.8-2.1.4-.9.6-2,.6-3.2s-.1-1.7-.4-2.5c-.2-.7-.6-1.4-1.1-1.9-.5-.5-1-.9-1.6-1.2-.6-.3-1.3-.4-2.1-.4s-2,.3-2.7.8c-.8.5-1.4,1.2-1.8,2.1-.4.9-.6,2-.6,3.2s.2,2.2.6,3.1c.4.9,1,1.6,1.8,2.1.8.5,1.7.8,2.7.8ZM424.5,334.2v-6l.4-1.3-.4-2.2v-5h1.7v14.6h-1.7Z"/>
        <path class="cls-3" d="M435,334.3l-6.2-14.6h1.9l5,12.1,5-12.1h1.9l-6.3,14.6h-1.2Z"/>
        <path class="cls-3" d="M451.2,334.4c-1.5,0-2.7-.3-3.8-1s-1.9-1.5-2.5-2.6c-.6-1.1-.8-2.4-.8-3.9s.3-2.7.8-3.9c.6-1.1,1.3-2,2.4-2.7,1-.6,2.3-1,3.7-1s2.6.3,3.6,1c1,.6,1.8,1.5,2.3,2.6.5,1.1.8,2.4.8,3.8v.6h-12.6v-1.4h11.4l-.4.6c0-1.1-.2-2.1-.6-3-.4-.9-1-1.6-1.8-2s-1.7-.7-2.7-.7-1.9.2-2.7.7c-.8.5-1.4,1.2-1.8,2-.4.9-.7,2-.7,3.2s.2,2.3.7,3.2c.4.9,1.1,1.6,1.9,2.1.8.5,1.7.7,2.8.7s1.5-.1,2.2-.4c.6-.3,1.2-.6,1.6-1.1.4-.5.7-1,.9-1.6h1.7c-.2.9-.5,1.6-1.1,2.3s-1.3,1.2-2.2,1.6c-.9.4-1.9.6-3,.6Z"/>
        <path class="cls-3" d="M461.5,334.2v-21.9h1.7v21.9h-1.7Z"/>
        <path class="cls-3" d="M256,369.2c-1,0-1.9-.2-2.7-.5-.8-.4-1.5-.9-2.1-1.5s-1-1.5-1.3-2.4c-.3-.9-.5-1.9-.5-3s.3-2.8.8-3.9c.6-1.1,1.3-2,2.3-2.6,1-.6,2.2-.9,3.5-.9s1.8.2,2.6.5c.8.3,1.5.9,2,1.5.6.7,1,1.4,1.3,2.4s.5,1.9.5,3.1-.3,2.9-.8,4c-.5,1.1-1.3,2-2.3,2.6-1,.6-2.1.9-3.4.9ZM256.3,367.8c1,0,1.9-.3,2.7-.8.8-.5,1.4-1.2,1.8-2.1.4-.9.6-2,.6-3.2s-.1-1.7-.4-2.5c-.2-.7-.6-1.4-1.1-1.9-.5-.5-1-.9-1.6-1.2-.6-.3-1.3-.4-2.1-.4s-2,.3-2.7.8-1.4,1.2-1.8,2.1c-.4.9-.6,2-.6,3.2s.2,2.2.6,3.1c.4.9,1,1.6,1.8,2.1.8.5,1.7.8,2.7.8ZM261.5,369v-5l.5-2.4-.5-1.9v-12.6h1.7v21.9h-1.7Z"/>
        <path class="cls-3" d="M274.2,369.2c-1.4,0-2.7-.3-3.8-1-1.1-.6-2-1.5-2.6-2.6-.6-1.1-.9-2.4-.9-3.9s.3-2.8.9-3.9c.6-1.1,1.5-2,2.6-2.6,1.1-.6,2.4-1,3.8-1s2.8.3,3.8,1c1.1.6,1.9,1.5,2.5,2.6.6,1.1.9,2.4.9,3.9s-.3,2.8-.9,3.9c-.6,1.1-1.4,2-2.5,2.6-1.1.6-2.4,1-3.8,1ZM274.2,367.7c1.1,0,2.1-.3,2.9-.8.8-.5,1.4-1.2,1.9-2.1.4-.9.7-1.9.7-3.1s-.1-1.6-.4-2.4c-.2-.7-.6-1.4-1.1-1.9s-1.1-1-1.7-1.2-1.4-.4-2.3-.4-2.1.3-2.9.8c-.8.5-1.5,1.2-1.9,2.1-.4.9-.7,1.9-.7,3.1s.2,2.2.7,3.1c.4.9,1.1,1.6,1.9,2.1.8.5,1.8.8,2.9.8Z"/>
        <path class="cls-3" d="M291.1,369.2c-1.5,0-2.7-.3-3.8-1-1-.6-1.8-1.5-2.3-2.6-.5-1.1-.8-2.4-.8-3.9s.3-2.7.8-3.9c.5-1.1,1.3-2,2.3-2.7,1-.6,2.3-1,3.7-1s2.1.2,2.9.6c.9.4,1.6,1,2.2,1.7.6.7,1,1.5,1.1,2.5h-1.7c-.2-.7-.5-1.2-.9-1.7-.4-.5-.9-.9-1.6-1.1-.6-.3-1.3-.4-2.1-.4-1.1,0-2,.3-2.8.8s-1.3,1.2-1.7,2.1c-.4.9-.6,1.9-.6,3.1s.2,2.2.6,3.1.9,1.6,1.7,2.1c.7.5,1.7.8,2.8.8s2.2-.3,3-.9c.8-.6,1.3-1.5,1.6-2.7h1.7c-.2,1.1-.5,2-1.1,2.7-.6.8-1.3,1.3-2.1,1.7-.9.4-1.9.6-3,.6Z"/>
        <path class="cls-3" d="M305.8,369.2c-.9,0-1.7-.1-2.3-.4-.7-.2-1.2-.6-1.7-1.1-.4-.5-.8-1.1-1-1.9-.2-.8-.3-1.7-.3-2.8v-8.6h1.7v8c0,1,0,1.9.3,2.6s.5,1.2.8,1.6c.4.4.8.7,1.3.8.5.2,1.1.2,1.8.2s1.6-.2,2.3-.7c.7-.4,1.2-1.2,1.7-2.1.4-1,.6-2.2.6-3.8v-6.6h1.7v14.6h-1.7v-6.7h.6c0,1.4-.2,2.7-.7,3.7s-1.1,1.8-2,2.4c-.9.6-1.9.8-3.1.8Z"/>
        <path class="cls-3" d="M317.4,369v-14.6h1.7v6.7h-.6c0-1.4.2-2.7.6-3.7.4-1,1-1.8,1.8-2.4.8-.6,1.7-.8,2.8-.8s1.5.1,2.1.4c.6.2,1.1.6,1.6,1.1.4.5.7,1.1,1,1.9.2.8.3,1.6.3,2.7h-.9c.1-1.3.4-2.4.9-3.3.5-.9,1.1-1.6,2-2,.8-.5,1.7-.7,2.7-.7s1.6.1,2.2.4c.6.3,1.2.6,1.6,1.1s.8,1.2,1,1.9c.2.8.3,1.7.3,2.7v8.6h-1.7v-8c0-1,0-1.9-.3-2.6-.2-.7-.4-1.2-.8-1.6s-.7-.7-1.2-.8c-.5-.2-1-.2-1.5-.2s-1.4.2-2.1.7c-.6.4-1.2,1.2-1.6,2.1s-.6,2.2-.6,3.8v6.6h-1.7v-8c0-1,0-1.9-.3-2.5-.2-.7-.4-1.2-.7-1.6-.3-.4-.7-.7-1.2-.8-.5-.2-1-.2-1.5-.2s-1.4.2-2.1.7c-.6.4-1.2,1.2-1.6,2.1-.4,1-.6,2.2-.6,3.8v6.6h-1.7Z"/>
        <path class="cls-3" d="M349,369.2c-1.5,0-2.7-.3-3.8-1s-1.9-1.5-2.5-2.6c-.6-1.1-.8-2.4-.8-3.9s.3-2.7.8-3.9,1.3-2,2.4-2.7c1-.6,2.3-1,3.7-1s2.6.3,3.6,1c1,.6,1.8,1.5,2.3,2.6.5,1.1.8,2.4.8,3.8v.6h-12.6v-1.4h11.4l-.4.6c0-1.1-.2-2.1-.6-3-.4-.9-1-1.6-1.8-2-.8-.5-1.7-.7-2.7-.7s-1.9.2-2.7.7c-.8.5-1.4,1.2-1.8,2-.4.9-.7,2-.7,3.2s.2,2.3.7,3.2c.4.9,1.1,1.6,1.9,2.1.8.5,1.7.7,2.8.7s1.5-.1,2.2-.4c.6-.3,1.2-.6,1.6-1.1.4-.5.7-1,.9-1.6h1.7c-.2.9-.5,1.6-1.1,2.3s-1.3,1.2-2.2,1.6c-.9.4-1.9.6-3,.6Z"/>
        <path class="cls-3" d="M359.4,369v-14.6h1.7v6.7h-.6c0-1.4.2-2.7.7-3.7.5-1,1.1-1.8,2-2.4.9-.6,1.9-.8,3.1-.8s1.7.1,2.3.4c.7.2,1.2.6,1.7,1.1.5.5.8,1.2,1,1.9.2.8.3,1.7.3,2.7v8.6h-1.7v-8c0-1,0-1.9-.3-2.5-.2-.7-.5-1.2-.8-1.6-.4-.4-.8-.7-1.3-.8-.5-.2-1.1-.2-1.8-.2s-1.6.2-2.3.7c-.7.4-1.3,1.2-1.7,2.1-.4,1-.6,2.2-.6,3.8v6.6h-1.7Z"/>
        <path class="cls-3" d="M374,355.8v-1.4h10.2v1.4h-10.2ZM381.4,369.3c-.8,0-1.4,0-2-.2-.6-.1-1-.4-1.4-.8-.4-.4-.6-.9-.8-1.5s-.3-1.4-.3-2.4v-15.5h1.7v15.5c0,.9.1,1.6.3,2.1.2.5.5.8.9,1,.4.2,1,.2,1.7.2s.8,0,1.3-.1c.5,0,.9-.3,1.3-.5v1.7c-.3.1-.6.2-.9.3-.3,0-.7.1-1,.2-.3,0-.6,0-.9,0Z"/>
        <path class="cls-3" d="M392.1,369.2c-1.2,0-2.2-.2-3-.6-.8-.4-1.5-.9-1.9-1.5-.4-.7-.7-1.4-.7-2.3h1.7c0,.6.1,1.1.4,1.5.3.4.7.8,1.3,1,.6.3,1.3.4,2.1.4s2-.2,2.6-.7c.6-.5.9-1.1.9-1.9s-.2-1-.5-1.4c-.3-.3-.7-.6-1.2-.8-.5-.2-1.1-.4-1.7-.5-.6-.1-1.2-.3-1.9-.4-.6-.2-1.2-.4-1.7-.7-.5-.3-.9-.7-1.2-1.2-.3-.5-.5-1.1-.5-1.9,0-1.2.4-2.2,1.3-2.9.9-.7,2.1-1.1,3.6-1.1s1.9.2,2.7.5c.8.3,1.4.8,1.8,1.5.4.6.7,1.4.7,2.2h-1.7c0-.8-.3-1.5-1-2-.6-.5-1.5-.8-2.4-.8s-1.8.2-2.4.7c-.6.4-.9,1.1-.9,1.8s.2,1,.5,1.4c.3.3.7.6,1.2.8.5.2,1.1.3,1.7.4.6.1,1.2.3,1.9.4.6.2,1.2.4,1.7.7.5.3.9.7,1.2,1.2.3.5.5,1.2.5,2,0,1.3-.5,2.3-1.4,3-.9.8-2.2,1.1-3.8,1.1Z"/>
        <path class="cls-3" d="M400.6,374l.9-5h-1v-2.5h2.4v2.3l-1.4,5.1h-1Z"/>
        <path class="cls-3" d="M418.5,369.2c-1.2,0-2.2-.2-3-.6-.8-.4-1.5-.9-1.9-1.5-.4-.7-.7-1.4-.7-2.3h1.7c0,.6.1,1.1.4,1.5.3.4.7.8,1.3,1,.6.3,1.3.4,2.1.4s2-.2,2.6-.7c.6-.5.9-1.1.9-1.9s-.2-1-.5-1.4c-.3-.3-.7-.6-1.2-.8-.5-.2-1.1-.4-1.7-.5-.6-.1-1.2-.3-1.9-.4-.6-.2-1.2-.4-1.7-.7-.5-.3-.9-.7-1.2-1.2-.3-.5-.5-1.1-.5-1.9,0-1.2.4-2.2,1.3-2.9.9-.7,2.1-1.1,3.6-1.1s1.9.2,2.7.5c.8.3,1.4.8,1.8,1.5.4.6.7,1.4.7,2.2h-1.7c0-.8-.3-1.5-1-2-.6-.5-1.5-.8-2.4-.8s-1.8.2-2.4.7c-.6.4-.9,1.1-.9,1.8s.2,1,.5,1.4c.3.3.7.6,1.2.8.5.2,1.1.3,1.7.4.6.1,1.2.3,1.9.4.6.2,1.2.4,1.7.7.5.3.9.7,1.2,1.2.3.5.5,1.2.5,2,0,1.3-.5,2.3-1.4,3-.9.8-2.2,1.1-3.8,1.1Z"/>
        <path class="cls-3" d="M432.5,369.2c-.9,0-1.7-.1-2.3-.4-.7-.2-1.2-.6-1.7-1.1-.4-.5-.8-1.1-1-1.9-.2-.8-.3-1.7-.3-2.8v-8.6h1.7v8c0,1,0,1.9.3,2.6s.5,1.2.8,1.6c.4.4.8.7,1.3.8.5.2,1.1.2,1.8.2s1.6-.2,2.3-.7c.7-.4,1.2-1.2,1.7-2.1.4-1,.6-2.2.6-3.8v-6.6h1.7v14.6h-1.7v-6.7h.6c0,1.4-.2,2.7-.7,3.7s-1.1,1.8-2,2.4c-.9.6-1.9.8-3.1.8Z"/>
        <path class="cls-3" d="M450,369.2c-1.5,0-2.7-.3-3.8-1-1-.6-1.8-1.5-2.3-2.6-.5-1.1-.8-2.4-.8-3.9s.3-2.7.8-3.9c.5-1.1,1.3-2,2.3-2.7,1-.6,2.3-1,3.7-1s2.1.2,2.9.6c.9.4,1.6,1,2.2,1.7.6.7,1,1.5,1.1,2.5h-1.7c-.2-.7-.5-1.2-.9-1.7-.4-.5-.9-.9-1.6-1.1-.6-.3-1.3-.4-2.1-.4-1.1,0-2,.3-2.8.8s-1.3,1.2-1.7,2.1c-.4.9-.6,1.9-.6,3.1s.2,2.2.6,3.1.9,1.6,1.7,2.1c.7.5,1.7.8,2.8.8s2.2-.3,3-.9c.8-.6,1.3-1.5,1.6-2.7h1.7c-.2,1.1-.5,2-1.1,2.7-.6.8-1.3,1.3-2.1,1.7-.9.4-1.9.6-3,.6Z"/>
        <path class="cls-3" d="M459.7,369v-21.9h1.7v14.1h-.6c0-1.4.2-2.7.7-3.7.5-1,1.1-1.8,2-2.4.9-.6,1.9-.8,3.1-.8s1.7.1,2.3.4c.7.2,1.2.6,1.7,1.1.5.5.8,1.2,1,1.9.2.8.3,1.7.3,2.7v8.6h-1.7v-8c0-1,0-1.9-.3-2.5-.2-.7-.5-1.2-.8-1.6-.4-.4-.8-.7-1.3-.8-.5-.2-1.1-.2-1.8-.2s-1.6.2-2.3.7c-.7.4-1.3,1.2-1.7,2.1-.4,1-.6,2.2-.6,3.8v6.6h-1.7Z"/>
        <path class="cls-3" d="M488.6,369.2c-1,0-1.9-.2-2.7-.5-.8-.4-1.5-.9-2.1-1.5s-1-1.5-1.3-2.4c-.3-.9-.5-1.9-.5-3s.3-2.8.8-3.9c.6-1.1,1.3-2,2.3-2.6,1-.6,2.2-.9,3.5-.9s1.8.2,2.6.5c.8.3,1.5.9,2,1.5.6.7,1,1.4,1.3,2.4s.5,1.9.5,3.1-.3,2.9-.8,4c-.5,1.1-1.3,2-2.3,2.6-1,.6-2.1.9-3.4.9ZM488.9,367.8c1,0,1.9-.3,2.7-.8.8-.5,1.4-1.2,1.8-2.1.4-.9.6-2,.6-3.2s-.1-1.7-.4-2.5c-.2-.7-.6-1.4-1.1-1.9-.5-.5-1-.9-1.6-1.2-.6-.3-1.3-.4-2.1-.4s-2,.3-2.7.8-1.4,1.2-1.8,2.1c-.4.9-.6,2-.6,3.2s.2,2.2.6,3.1c.4.9,1,1.6,1.8,2.1.8.5,1.7.8,2.7.8ZM494.1,369v-6l.4-1.3-.4-2.2v-5h1.7v14.6h-1.7Z"/>
        <path class="cls-3" d="M505.1,369.2c-1.2,0-2.2-.2-3-.6-.8-.4-1.5-.9-1.9-1.5-.4-.7-.7-1.4-.7-2.3h1.7c0,.6.1,1.1.4,1.5.3.4.7.8,1.3,1,.6.3,1.3.4,2.1.4s2-.2,2.6-.7c.6-.5.9-1.1.9-1.9s-.2-1-.5-1.4c-.3-.3-.7-.6-1.2-.8-.5-.2-1.1-.4-1.7-.5-.6-.1-1.2-.3-1.9-.4-.6-.2-1.2-.4-1.7-.7-.5-.3-.9-.7-1.2-1.2-.3-.5-.5-1.1-.5-1.9,0-1.2.4-2.2,1.3-2.9.9-.7,2.1-1.1,3.6-1.1s1.9.2,2.7.5c.8.3,1.4.8,1.8,1.5.4.6.7,1.4.7,2.2h-1.7c0-.8-.3-1.5-1-2-.6-.5-1.5-.8-2.4-.8s-1.8.2-2.4.7c-.6.4-.9,1.1-.9,1.8s.2,1,.5,1.4c.3.3.7.6,1.2.8.5.2,1.1.3,1.7.4.6.1,1.2.3,1.9.4.6.2,1.2.4,1.7.7.5.3.9.7,1.2,1.2.3.5.5,1.2.5,2,0,1.3-.5,2.3-1.4,3-.9.8-2.2,1.1-3.8,1.1Z"/>
        <path class="cls-3" d="M524.9,369.1l-6.2-14.6h1.9l5,12.1,5-12.1h1.9l-6.3,14.6h-1.2Z"/>
        <path class="cls-3" d="M534.6,350.7v-2.5h2.5v2.5h-2.5ZM535,369v-14.6h1.7v14.6h-1.7Z"/>
        <path class="cls-3" d="M546,369.2c-1.2,0-2.2-.2-3-.6-.8-.4-1.5-.9-1.9-1.5-.4-.7-.7-1.4-.7-2.3h1.7c0,.6.1,1.1.4,1.5.3.4.7.8,1.3,1,.6.3,1.3.4,2.1.4s2-.2,2.6-.7c.6-.5.9-1.1.9-1.9s-.2-1-.5-1.4c-.3-.3-.7-.6-1.2-.8-.5-.2-1.1-.4-1.7-.5-.6-.1-1.2-.3-1.9-.4-.6-.2-1.2-.4-1.7-.7-.5-.3-.9-.7-1.2-1.2-.3-.5-.5-1.1-.5-1.9,0-1.2.4-2.2,1.3-2.9.9-.7,2.1-1.1,3.6-1.1s1.9.2,2.7.5c.8.3,1.4.8,1.8,1.5.4.6.7,1.4.7,2.2h-1.7c0-.8-.3-1.5-1-2-.6-.5-1.5-.8-2.4-.8s-1.8.2-2.4.7c-.6.4-.9,1.1-.9,1.8s.2,1,.5,1.4c.3.3.7.6,1.2.8.5.2,1.1.3,1.7.4.6.1,1.2.3,1.9.4.6.2,1.2.4,1.7.7.5.3.9.7,1.2,1.2.3.5.5,1.2.5,2,0,1.3-.5,2.3-1.4,3-.9.8-2.2,1.1-3.8,1.1Z"/>
        <path class="cls-3" d="M560.7,369.2c-1,0-1.9-.2-2.7-.5-.8-.4-1.5-.9-2.1-1.5s-1-1.5-1.3-2.4c-.3-.9-.5-1.9-.5-3s.3-2.8.8-3.9c.6-1.1,1.3-2,2.3-2.6,1-.6,2.2-.9,3.5-.9s1.8.2,2.6.5c.8.3,1.5.9,2,1.5.6.7,1,1.4,1.3,2.4s.5,1.9.5,3.1-.3,2.9-.8,4c-.5,1.1-1.3,2-2.3,2.6-1,.6-2.1.9-3.4.9ZM561,367.8c1,0,1.9-.3,2.7-.8.8-.5,1.4-1.2,1.8-2.1.4-.9.6-2,.6-3.2s-.1-1.7-.4-2.5c-.2-.7-.6-1.4-1.1-1.9-.5-.5-1-.9-1.6-1.2-.6-.3-1.3-.4-2.1-.4s-2,.3-2.7.8-1.4,1.2-1.8,2.1c-.4.9-.6,2-.6,3.2s.2,2.2.6,3.1c.4.9,1,1.6,1.8,2.1.8.5,1.7.8,2.7.8ZM566.2,369v-6l.4-1.3-.4-2.2v-5h1.7v14.6h-1.7Z"/>
        <path class="cls-3" d="M577.2,369.2c-1.2,0-2.2-.2-3-.6-.8-.4-1.5-.9-1.9-1.5-.4-.7-.7-1.4-.7-2.3h1.7c0,.6.1,1.1.4,1.5.3.4.7.8,1.3,1,.6.3,1.3.4,2.1.4s2-.2,2.6-.7c.6-.5.9-1.1.9-1.9s-.2-1-.5-1.4c-.3-.3-.7-.6-1.2-.8-.5-.2-1.1-.4-1.7-.5-.6-.1-1.2-.3-1.9-.4-.6-.2-1.2-.4-1.7-.7-.5-.3-.9-.7-1.2-1.2-.3-.5-.5-1.1-.5-1.9,0-1.2.4-2.2,1.3-2.9.9-.7,2.1-1.1,3.6-1.1s1.9.2,2.7.5c.8.3,1.4.8,1.8,1.5.4.6.7,1.4.7,2.2h-1.7c0-.8-.3-1.5-1-2-.6-.5-1.5-.8-2.4-.8s-1.8.2-2.4.7c-.6.4-.9,1.1-.9,1.8s.2,1,.5,1.4c.3.3.7.6,1.2.8.5.2,1.1.3,1.7.4.6.1,1.2.3,1.9.4.6.2,1.2.4,1.7.7.5.3.9.7,1.2,1.2.3.5.5,1.2.5,2,0,1.3-.5,2.3-1.4,3-.9.8-2.2,1.1-3.8,1.1Z"/>
        <path class="cls-3" d="M585.7,374l.9-5h-1v-2.5h2.4v2.3l-1.4,5.1h-1Z"/>
        <path class="cls-3" d="M250,385.5v-2.5h2.5v2.5h-2.5ZM250.3,403.8v-14.6h1.7v14.6h-1.7Z"/>
        <path class="cls-3" d="M256.8,403.8v-14.6h1.7v6.7h-.6c0-1.4.2-2.7.7-3.7.5-1,1.1-1.8,2-2.4.9-.6,1.9-.8,3.1-.8s1.7.1,2.3.4c.7.2,1.2.6,1.7,1.1.5.5.8,1.2,1,1.9.2.8.3,1.7.3,2.7v8.6h-1.7v-8c0-1,0-1.9-.3-2.5-.2-.7-.5-1.2-.8-1.6-.4-.4-.8-.7-1.3-.8-.5-.2-1.1-.2-1.8-.2s-1.6.2-2.3.7c-.7.4-1.3,1.2-1.7,2.1-.4,1-.6,2.2-.6,3.8v6.6h-1.7Z"/>
        <path class="cls-3" d="M278,404c-1.2,0-2.2-.2-3-.6-.8-.4-1.5-.9-1.9-1.5-.4-.7-.7-1.4-.7-2.3h1.7c0,.6.1,1.1.4,1.5.3.4.7.8,1.3,1,.6.3,1.3.4,2.1.4s2-.2,2.6-.7c.6-.5.9-1.1.9-1.9s-.2-1-.5-1.4c-.3-.3-.7-.6-1.2-.8-.5-.2-1.1-.4-1.7-.5-.6-.1-1.2-.3-1.9-.4-.6-.2-1.2-.4-1.7-.7-.5-.3-.9-.7-1.2-1.2-.3-.5-.5-1.1-.5-1.9,0-1.2.4-2.2,1.3-2.9.9-.7,2.1-1.1,3.6-1.1s1.9.2,2.7.5c.8.3,1.4.8,1.8,1.5.4.6.7,1.4.7,2.2h-1.7c0-.8-.3-1.5-1-2-.6-.5-1.5-.8-2.4-.8s-1.8.2-2.4.7c-.6.4-.9,1.1-.9,1.8s.2,1,.5,1.4c.3.3.7.6,1.2.8.5.2,1.1.3,1.7.4.6.1,1.2.3,1.9.4.6.2,1.2.4,1.7.7.5.3.9.7,1.2,1.2.3.5.5,1.2.5,2,0,1.3-.5,2.3-1.4,3-.9.8-2.2,1.1-3.8,1.1Z"/>
        <path class="cls-3" d="M292,404c-.9,0-1.7-.1-2.3-.4-.7-.2-1.2-.6-1.7-1.1-.4-.5-.8-1.1-1-1.9-.2-.8-.3-1.7-.3-2.8v-8.6h1.7v8c0,1,0,1.9.3,2.6s.5,1.2.8,1.6c.4.4.8.7,1.3.8.5.2,1.1.2,1.8.2s1.6-.2,2.3-.7c.7-.4,1.2-1.2,1.7-2.1.4-1,.6-2.2.6-3.8v-6.6h1.7v14.6h-1.7v-6.7h.6c0,1.4-.2,2.7-.7,3.7s-1.1,1.8-2,2.4c-.9.6-1.9.8-3.1.8Z"/>
        <path class="cls-3" d="M303.5,403.8v-14.6h1.7v7.3h-.5c0-1.6.3-2.9.7-4,.4-1.1,1.1-1.9,1.9-2.5.8-.6,1.8-.9,3-.9h.4c.1,0,.3,0,.4,0v1.7c-.9,0-1.7,0-2.5.3-.7.2-1.4.5-1.9,1-.5.5-.9,1.2-1.2,2.1-.3.9-.4,2-.4,3.4v6.2h-1.7Z"/>
        <path class="cls-3" d="M319.6,404c-1,0-1.9-.2-2.7-.5-.8-.4-1.5-.9-2.1-1.5s-1-1.5-1.3-2.4c-.3-.9-.5-1.9-.5-3s.3-2.8.8-3.9c.6-1.1,1.3-2,2.3-2.6,1-.6,2.2-.9,3.5-.9s1.8.2,2.6.5c.8.3,1.5.9,2,1.5.6.7,1,1.4,1.3,2.4s.5,1.9.5,3.1-.3,2.9-.8,4c-.5,1.1-1.3,2-2.3,2.6-1,.6-2.1.9-3.4.9ZM319.9,402.6c1,0,1.9-.3,2.7-.8.8-.5,1.4-1.2,1.8-2.1.4-.9.6-2,.6-3.2s-.1-1.7-.4-2.5c-.2-.7-.6-1.4-1.1-1.9-.5-.5-1-.9-1.6-1.2-.6-.3-1.3-.4-2.1-.4s-2,.3-2.7.8-1.4,1.2-1.8,2.1c-.4.9-.6,2-.6,3.2s.2,2.2.6,3.1c.4.9,1,1.6,1.8,2.1.8.5,1.7.8,2.7.8ZM325.1,403.8v-6l.4-1.3-.4-2.2v-5h1.7v14.6h-1.7Z"/>
        <path class="cls-3" d="M331.5,403.8v-14.6h1.7v6.7h-.6c0-1.4.2-2.7.7-3.7.5-1,1.1-1.8,2-2.4.9-.6,1.9-.8,3.1-.8s1.7.1,2.3.4c.7.2,1.2.6,1.7,1.1.5.5.8,1.2,1,1.9.2.8.3,1.7.3,2.7v8.6h-1.7v-8c0-1,0-1.9-.3-2.5-.2-.7-.5-1.2-.8-1.6-.4-.4-.8-.7-1.3-.8-.5-.2-1.1-.2-1.8-.2s-1.6.2-2.3.7c-.7.4-1.3,1.2-1.7,2.1-.4,1-.6,2.2-.6,3.8v6.6h-1.7Z"/>
        <path class="cls-3" d="M354,404c-1.5,0-2.7-.3-3.8-1-1-.6-1.8-1.5-2.3-2.6-.5-1.1-.8-2.4-.8-3.9s.3-2.7.8-3.9c.5-1.1,1.3-2,2.3-2.7,1-.6,2.3-1,3.7-1s2.1.2,2.9.6c.9.4,1.6,1,2.2,1.7.6.7,1,1.5,1.1,2.5h-1.7c-.2-.7-.5-1.2-.9-1.7-.4-.5-.9-.9-1.6-1.1-.6-.3-1.3-.4-2.1-.4-1.1,0-2,.3-2.8.8s-1.3,1.2-1.7,2.1c-.4.9-.6,1.9-.6,3.1s.2,2.2.6,3.1.9,1.6,1.7,2.1c.7.5,1.7.8,2.8.8s2.2-.3,3-.9c.8-.6,1.3-1.5,1.6-2.7h1.7c-.2,1.1-.5,2-1.1,2.7-.6.8-1.3,1.3-2.1,1.7-.9.4-1.9.6-3,.6Z"/>
        <path class="cls-3" d="M369.9,404c-1.5,0-2.7-.3-3.8-1s-1.9-1.5-2.5-2.6c-.6-1.1-.8-2.4-.8-3.9s.3-2.7.8-3.9,1.3-2,2.4-2.7c1-.6,2.3-1,3.7-1s2.6.3,3.6,1c1,.6,1.8,1.5,2.3,2.6.5,1.1.8,2.4.8,3.8v.6h-12.6v-1.4h11.4l-.4.6c0-1.1-.2-2.1-.6-3-.4-.9-1-1.6-1.8-2-.8-.5-1.7-.7-2.7-.7s-1.9.2-2.7.7c-.8.5-1.4,1.2-1.8,2-.4.9-.7,2-.7,3.2s.2,2.3.7,3.2c.4.9,1.1,1.6,1.9,2.1.8.5,1.7.7,2.8.7s1.5-.1,2.2-.4c.6-.3,1.2-.6,1.6-1.1.4-.5.7-1,.9-1.6h1.7c-.2.9-.5,1.6-1.1,2.3s-1.3,1.2-2.2,1.6c-.9.4-1.9.6-3,.6Z"/>
        <path class="cls-3" d="M384.8,404c-1.2,0-2.2-.2-3-.6-.8-.4-1.5-.9-1.9-1.5-.4-.7-.7-1.4-.7-2.3h1.7c0,.6.1,1.1.4,1.5.3.4.7.8,1.3,1,.6.3,1.3.4,2.1.4s2-.2,2.6-.7c.6-.5.9-1.1.9-1.9s-.2-1-.5-1.4c-.3-.3-.7-.6-1.2-.8-.5-.2-1.1-.4-1.7-.5-.6-.1-1.2-.3-1.9-.4-.6-.2-1.2-.4-1.7-.7-.5-.3-.9-.7-1.2-1.2-.3-.5-.5-1.1-.5-1.9,0-1.2.4-2.2,1.3-2.9.9-.7,2.1-1.1,3.6-1.1s1.9.2,2.7.5c.8.3,1.4.8,1.8,1.5.4.6.7,1.4.7,2.2h-1.7c0-.8-.3-1.5-1-2-.6-.5-1.5-.8-2.4-.8s-1.8.2-2.4.7c-.6.4-.9,1.1-.9,1.8s.2,1,.5,1.4c.3.3.7.6,1.2.8.5.2,1.1.3,1.7.4.6.1,1.2.3,1.9.4.6.2,1.2.4,1.7.7.5.3.9.7,1.2,1.2.3.5.5,1.2.5,2,0,1.3-.5,2.3-1.4,3-.9.8-2.2,1.1-3.8,1.1Z"/>
        <path class="cls-3" d="M406.1,404c-1,0-1.9-.2-2.7-.5-.8-.4-1.5-.9-2.1-1.5s-1-1.5-1.3-2.4c-.3-.9-.5-1.9-.5-3s.3-2.8.8-3.9c.6-1.1,1.3-2,2.3-2.6,1-.6,2.2-.9,3.5-.9s1.8.2,2.6.5c.8.3,1.5.9,2,1.5.6.7,1,1.4,1.3,2.4s.5,1.9.5,3.1-.3,2.9-.8,4c-.5,1.1-1.3,2-2.3,2.6-1,.6-2.1.9-3.4.9ZM406.4,402.6c1,0,1.9-.3,2.7-.8.8-.5,1.4-1.2,1.8-2.1.4-.9.6-2,.6-3.2s-.1-1.7-.4-2.5c-.2-.7-.6-1.4-1.1-1.9-.5-.5-1-.9-1.6-1.2-.6-.3-1.3-.4-2.1-.4s-2,.3-2.7.8-1.4,1.2-1.8,2.1c-.4.9-.6,2-.6,3.2s.2,2.2.6,3.1c.4.9,1,1.6,1.8,2.1.8.5,1.7.8,2.7.8ZM411.6,403.8v-6l.4-1.3-.4-2.2v-5h1.7v14.6h-1.7Z"/>
        <path class="cls-3" d="M418,403.8v-14.6h1.7v6.7h-.6c0-1.4.2-2.7.7-3.7.5-1,1.1-1.8,2-2.4.9-.6,1.9-.8,3.1-.8s1.7.1,2.3.4c.7.2,1.2.6,1.7,1.1.5.5.8,1.2,1,1.9.2.8.3,1.7.3,2.7v8.6h-1.7v-8c0-1,0-1.9-.3-2.5-.2-.7-.5-1.2-.8-1.6-.4-.4-.8-.7-1.3-.8-.5-.2-1.1-.2-1.8-.2s-1.6.2-2.3.7c-.7.4-1.3,1.2-1.7,2.1-.4,1-.6,2.2-.6,3.8v6.6h-1.7Z"/>
        <path class="cls-3" d="M440.3,404c-1,0-1.9-.2-2.7-.5-.8-.4-1.5-.9-2.1-1.5s-1-1.5-1.3-2.4c-.3-.9-.5-1.9-.5-3s.3-2.8.8-3.9c.6-1.1,1.3-2,2.3-2.6,1-.6,2.2-.9,3.5-.9s1.8.2,2.6.5c.8.3,1.5.9,2,1.5.6.7,1,1.4,1.3,2.4s.5,1.9.5,3.1-.3,2.9-.8,4c-.5,1.1-1.3,2-2.3,2.6-1,.6-2.1.9-3.4.9ZM440.6,402.6c1,0,1.9-.3,2.7-.8.8-.5,1.4-1.2,1.8-2.1.4-.9.6-2,.6-3.2s-.1-1.7-.4-2.5c-.2-.7-.6-1.4-1.1-1.9-.5-.5-1-.9-1.6-1.2-.6-.3-1.3-.4-2.1-.4s-2,.3-2.7.8-1.4,1.2-1.8,2.1c-.4.9-.6,2-.6,3.2s.2,2.2.6,3.1c.4.9,1,1.6,1.8,2.1.8.5,1.7.8,2.7.8ZM445.8,403.8v-5l.5-2.4-.5-1.9v-12.6h1.7v21.9h-1.7Z"/>
        <path class="cls-3" d="M458.9,410.1v-20.9h1.7v4.7l-.4,2.5.5,2v11.6h-1.7ZM466.1,404c-1.3,0-2.4-.3-3.4-.9-1-.6-1.7-1.5-2.3-2.6-.5-1.1-.8-2.4-.8-4s.3-2.9.8-4c.5-1.1,1.3-2,2.3-2.6,1-.6,2.1-.9,3.4-.9s1.9.2,2.7.5c.8.4,1.5.9,2.1,1.5s1,1.5,1.4,2.4c.3.9.5,1.9.5,3s-.3,2.8-.8,3.9c-.6,1.1-1.3,2-2.3,2.6s-2.2.9-3.5.9ZM465.8,402.6c1,0,2-.3,2.7-.8.8-.5,1.4-1.2,1.8-2.1.4-.9.7-2,.7-3.1s-.2-2.3-.7-3.2c-.4-.9-1-1.6-1.8-2.1s-1.7-.8-2.7-.8-1.9.3-2.7.8-1.4,1.2-1.8,2.1c-.4.9-.7,2-.7,3.2s.1,1.7.4,2.5c.3.7.6,1.4,1.1,1.9.5.5,1,.9,1.6,1.2.6.3,1.3.4,2.1.4Z"/>
        <path class="cls-3" d="M482.1,404c-1,0-1.9-.2-2.7-.5-.8-.4-1.5-.9-2.1-1.5s-1-1.5-1.3-2.4c-.3-.9-.5-1.9-.5-3s.3-2.8.8-3.9c.6-1.1,1.3-2,2.3-2.6,1-.6,2.2-.9,3.5-.9s1.8.2,2.6.5c.8.3,1.5.9,2,1.5.6.7,1,1.4,1.3,2.4s.5,1.9.5,3.1-.3,2.9-.8,4c-.5,1.1-1.3,2-2.3,2.6-1,.6-2.1.9-3.4.9ZM482.4,402.6c1,0,1.9-.3,2.7-.8.8-.5,1.4-1.2,1.8-2.1.4-.9.6-2,.6-3.2s-.1-1.7-.4-2.5c-.2-.7-.6-1.4-1.1-1.9-.5-.5-1-.9-1.6-1.2-.6-.3-1.3-.4-2.1-.4s-2,.3-2.7.8-1.4,1.2-1.8,2.1c-.4.9-.6,2-.6,3.2s.2,2.2.6,3.1c.4.9,1,1.6,1.8,2.1.8.5,1.7.8,2.7.8ZM487.6,403.8v-6l.4-1.3-.4-2.2v-5h1.7v14.6h-1.7Z"/>
        <path class="cls-3" d="M498.6,404c-1.2,0-2.2-.2-3-.6-.8-.4-1.5-.9-1.9-1.5-.4-.7-.7-1.4-.7-2.3h1.7c0,.6.1,1.1.4,1.5.3.4.7.8,1.3,1,.6.3,1.3.4,2.1.4s2-.2,2.6-.7c.6-.5.9-1.1.9-1.9s-.2-1-.5-1.4c-.3-.3-.7-.6-1.2-.8-.5-.2-1.1-.4-1.7-.5-.6-.1-1.2-.3-1.9-.4-.6-.2-1.2-.4-1.7-.7-.5-.3-.9-.7-1.2-1.2-.3-.5-.5-1.1-.5-1.9,0-1.2.4-2.2,1.3-2.9.9-.7,2.1-1.1,3.6-1.1s1.9.2,2.7.5c.8.3,1.4.8,1.8,1.5.4.6.7,1.4.7,2.2h-1.7c0-.8-.3-1.5-1-2-.6-.5-1.5-.8-2.4-.8s-1.8.2-2.4.7c-.6.4-.9,1.1-.9,1.8s.2,1,.5,1.4c.3.3.7.6,1.2.8.5.2,1.1.3,1.7.4.6.1,1.2.3,1.9.4.6.2,1.2.4,1.7.7.5.3.9.7,1.2,1.2.3.5.5,1.2.5,2,0,1.3-.5,2.3-1.4,3-.9.8-2.2,1.1-3.8,1.1Z"/>
        <path class="cls-3" d="M512.2,404c-1.2,0-2.2-.2-3-.6-.8-.4-1.5-.9-1.9-1.5-.4-.7-.7-1.4-.7-2.3h1.7c0,.6.1,1.1.4,1.5.3.4.7.8,1.3,1,.6.3,1.3.4,2.1.4s2-.2,2.6-.7c.6-.5.9-1.1.9-1.9s-.2-1-.5-1.4c-.3-.3-.7-.6-1.2-.8-.5-.2-1.1-.4-1.7-.5-.6-.1-1.2-.3-1.9-.4-.6-.2-1.2-.4-1.7-.7-.5-.3-.9-.7-1.2-1.2-.3-.5-.5-1.1-.5-1.9,0-1.2.4-2.2,1.3-2.9.9-.7,2.1-1.1,3.6-1.1s1.9.2,2.7.5c.8.3,1.4.8,1.8,1.5.4.6.7,1.4.7,2.2h-1.7c0-.8-.3-1.5-1-2-.6-.5-1.5-.8-2.4-.8s-1.8.2-2.4.7c-.6.4-.9,1.1-.9,1.8s.2,1,.5,1.4c.3.3.7.6,1.2.8.5.2,1.1.3,1.7.4.6.1,1.2.3,1.9.4.6.2,1.2.4,1.7.7.5.3.9.7,1.2,1.2.3.5.5,1.2.5,2,0,1.3-.5,2.3-1.4,3-.9.8-2.2,1.1-3.8,1.1Z"/>
        <path class="cls-3" d="M521.1,410.1v-20.9h1.7v4.7l-.4,2.5.5,2v11.6h-1.7ZM528.4,404c-1.3,0-2.4-.3-3.4-.9-1-.6-1.7-1.5-2.3-2.6-.5-1.1-.8-2.4-.8-4s.3-2.9.8-4c.5-1.1,1.3-2,2.3-2.6,1-.6,2.1-.9,3.4-.9s1.9.2,2.7.5c.8.4,1.5.9,2.1,1.5s1,1.5,1.4,2.4c.3.9.5,1.9.5,3s-.3,2.8-.8,3.9c-.6,1.1-1.3,2-2.3,2.6s-2.2.9-3.5.9ZM528,402.6c1,0,2-.3,2.7-.8.8-.5,1.4-1.2,1.8-2.1.4-.9.7-2,.7-3.1s-.2-2.3-.7-3.2c-.4-.9-1-1.6-1.8-2.1s-1.7-.8-2.7-.8-1.9.3-2.7.8-1.4,1.2-1.8,2.1c-.4.9-.7,2-.7,3.2s.1,1.7.4,2.5c.3.7.6,1.4,1.1,1.9.5.5,1,.9,1.6,1.2.6.3,1.3.4,2.1.4Z"/>
        <path class="cls-3" d="M545,404c-1.4,0-2.7-.3-3.8-1-1.1-.6-2-1.5-2.6-2.6-.6-1.1-.9-2.4-.9-3.9s.3-2.8.9-3.9c.6-1.1,1.5-2,2.6-2.6,1.1-.6,2.4-1,3.8-1s2.8.3,3.8,1c1.1.6,1.9,1.5,2.5,2.6.6,1.1.9,2.4.9,3.9s-.3,2.8-.9,3.9c-.6,1.1-1.4,2-2.5,2.6-1.1.6-2.4,1-3.8,1ZM545,402.5c1.1,0,2.1-.3,2.9-.8.8-.5,1.4-1.2,1.9-2.1.4-.9.7-1.9.7-3.1s-.1-1.6-.4-2.4c-.2-.7-.6-1.4-1.1-1.9s-1.1-1-1.7-1.2-1.4-.4-2.3-.4-2.1.3-2.9.8c-.8.5-1.5,1.2-1.9,2.1-.4.9-.7,1.9-.7,3.1s.2,2.2.7,3.1c.4.9,1.1,1.6,1.9,2.1.8.5,1.8.8,2.9.8Z"/>
        <path class="cls-3" d="M556,403.8v-14.6h1.7v7.3h-.5c0-1.6.3-2.9.7-4,.4-1.1,1.1-1.9,1.9-2.5.8-.6,1.8-.9,3-.9h.4c.1,0,.3,0,.4,0v1.7c-.9,0-1.7,0-2.5.3-.7.2-1.4.5-1.9,1-.5.5-.9,1.2-1.2,2.1-.3.9-.4,2-.4,3.4v6.2h-1.7Z"/>
        <path class="cls-3" d="M564.7,390.6v-1.4h10.2v1.4h-10.2ZM572.1,404.1c-.8,0-1.4,0-2-.2-.6-.1-1-.4-1.4-.8-.4-.4-.6-.9-.8-1.5s-.3-1.4-.3-2.4v-15.5h1.7v15.5c0,.9.1,1.6.3,2.1.2.5.5.8.9,1,.4.2,1,.2,1.7.2s.8,0,1.3-.1c.5,0,.9-.3,1.3-.5v1.7c-.3.1-.6.2-.9.3-.3,0-.7.1-1,.2-.3,0-.6,0-.9,0Z"/>
        <path class="cls-3" d="M582.8,404c-1.2,0-2.2-.2-3-.6-.8-.4-1.5-.9-1.9-1.5-.4-.7-.7-1.4-.7-2.3h1.7c0,.6.1,1.1.4,1.5.3.4.7.8,1.3,1,.6.3,1.3.4,2.1.4s2-.2,2.6-.7c.6-.5.9-1.1.9-1.9s-.2-1-.5-1.4c-.3-.3-.7-.6-1.2-.8-.5-.2-1.1-.4-1.7-.5-.6-.1-1.2-.3-1.9-.4-.6-.2-1.2-.4-1.7-.7-.5-.3-.9-.7-1.2-1.2-.3-.5-.5-1.1-.5-1.9,0-1.2.4-2.2,1.3-2.9.9-.7,2.1-1.1,3.6-1.1s1.9.2,2.7.5c.8.3,1.4.8,1.8,1.5.4.6.7,1.4.7,2.2h-1.7c0-.8-.3-1.5-1-2-.6-.5-1.5-.8-2.4-.8s-1.8.2-2.4.7c-.6.4-.9,1.1-.9,1.8s.2,1,.5,1.4c.3.3.7.6,1.2.8.5.2,1.1.3,1.7.4.6.1,1.2.3,1.9.4.6.2,1.2.4,1.7.7.5.3.9.7,1.2,1.2.3.5.5,1.2.5,2,0,1.3-.5,2.3-1.4,3-.9.8-2.2,1.1-3.8,1.1Z"/>
        <path class="cls-3" d="M591.2,403.8v-2.5h2.4v2.5h-2.4Z"/>
        <path class="cls-3" d="M254.8,438.6v-18.8h-6v-1.5h13.9v1.5h-6v18.8h-1.8Z"/>
        <path class="cls-3" d="M265.8,438.6v-21.9h1.7v14.1h-.6c0-1.4.2-2.7.7-3.7.5-1,1.1-1.8,2-2.4.9-.6,1.9-.8,3.1-.8s1.7.1,2.3.4c.7.2,1.2.6,1.7,1.1.5.5.8,1.2,1,1.9.2.8.3,1.7.3,2.7v8.6h-1.7v-8c0-1,0-1.9-.3-2.5-.2-.7-.5-1.2-.8-1.6-.4-.4-.8-.7-1.3-.8-.5-.2-1.1-.2-1.8-.2s-1.6.2-2.3.7c-.7.4-1.3,1.2-1.7,2.1-.4,1-.6,2.2-.6,3.8v6.6h-1.7Z"/>
        <path class="cls-3" d="M282.1,420.3v-2.5h2.5v2.5h-2.5ZM282.5,438.6v-14.6h1.7v14.6h-1.7Z"/>
        <path class="cls-3" d="M293.5,438.8c-1.2,0-2.2-.2-3-.6-.8-.4-1.5-.9-1.9-1.5-.4-.7-.7-1.4-.7-2.3h1.7c0,.6.1,1.1.4,1.5.3.4.7.8,1.3,1,.6.3,1.3.4,2.1.4s2-.2,2.6-.7c.6-.5.9-1.1.9-1.9s-.2-1-.5-1.4c-.3-.3-.7-.6-1.2-.8-.5-.2-1.1-.4-1.7-.5-.6-.1-1.2-.3-1.9-.4-.6-.2-1.2-.4-1.7-.7-.5-.3-.9-.7-1.2-1.2-.3-.5-.5-1.1-.5-1.9,0-1.2.4-2.2,1.3-2.9.9-.7,2.1-1.1,3.6-1.1s1.9.2,2.7.5c.8.3,1.4.8,1.8,1.5.4.6.7,1.4.7,2.2h-1.7c0-.8-.3-1.5-1-2-.6-.5-1.5-.8-2.4-.8s-1.8.2-2.4.7c-.6.4-.9,1.1-.9,1.8s.2,1,.5,1.4c.3.3.7.6,1.2.8.5.2,1.1.3,1.7.4.6.1,1.2.3,1.9.4.6.2,1.2.4,1.7.7.5.3.9.7,1.2,1.2.3.5.5,1.2.5,2,0,1.3-.5,2.3-1.4,3-.9.8-2.2,1.1-3.8,1.1Z"/>
        <path class="cls-3" d="M307.2,425.4v-1.4h10.2v1.4h-10.2ZM314.5,438.9c-.8,0-1.4,0-2-.2-.6-.1-1-.4-1.4-.8-.4-.4-.6-.9-.8-1.5s-.3-1.4-.3-2.4v-15.5h1.7v15.5c0,.9.1,1.6.3,2.1.2.5.5.8.9,1,.4.2,1,.2,1.7.2s.8,0,1.3-.1c.5,0,.9-.3,1.3-.5v1.7c-.3.1-.6.2-.9.3-.3,0-.7.1-1,.2-.3,0-.6,0-.9,0Z"/>
        <path class="cls-3" d="M327,438.8c-1.4,0-2.7-.3-3.8-1-1.1-.6-2-1.5-2.6-2.6-.6-1.1-.9-2.4-.9-3.9s.3-2.8.9-3.9c.6-1.1,1.5-2,2.6-2.6,1.1-.6,2.4-1,3.8-1s2.8.3,3.8,1c1.1.6,1.9,1.5,2.5,2.6.6,1.1.9,2.4.9,3.9s-.3,2.8-.9,3.9c-.6,1.1-1.4,2-2.5,2.6-1.1.6-2.4,1-3.8,1ZM327,437.3c1.1,0,2.1-.3,2.9-.8.8-.5,1.4-1.2,1.9-2.1.4-.9.7-1.9.7-3.1s-.1-1.6-.4-2.4c-.2-.7-.6-1.4-1.1-1.9s-1.1-1-1.7-1.2-1.4-.4-2.3-.4-2.1.3-2.9.8c-.8.5-1.5,1.2-1.9,2.1-.4.9-.7,1.9-.7,3.1s.2,2.2.7,3.1c.4.9,1.1,1.6,1.9,2.1.8.5,1.8.8,2.9.8Z"/>
        <path class="cls-3" d="M350.3,438.8c-1,0-1.9-.2-2.7-.5-.8-.4-1.5-.9-2.1-1.5s-1-1.5-1.3-2.4c-.3-.9-.5-1.9-.5-3s.3-2.8.8-3.9c.6-1.1,1.3-2,2.3-2.6,1-.6,2.2-.9,3.5-.9s1.8.2,2.6.5c.8.3,1.5.9,2,1.5.6.7,1,1.4,1.3,2.4s.5,1.9.5,3.1-.3,2.9-.8,4c-.5,1.1-1.3,2-2.3,2.6-1,.6-2.1.9-3.4.9ZM350.6,437.4c1,0,1.9-.3,2.7-.8.8-.5,1.4-1.2,1.8-2.1.4-.9.6-2,.6-3.2s-.1-1.7-.4-2.5c-.2-.7-.6-1.4-1.1-1.9-.5-.5-1-.9-1.6-1.2-.6-.3-1.3-.4-2.1-.4s-2,.3-2.7.8-1.4,1.2-1.8,2.1c-.4.9-.6,2-.6,3.2s.2,2.2.6,3.1c.4.9,1,1.6,1.8,2.1.8.5,1.7.8,2.7.8ZM355.8,438.6v-6l.4-1.3-.4-2.2v-5h1.7v14.6h-1.7Z"/>
        <path class="cls-3" d="M366.3,438.7l-6.2-14.6h1.9l5,12.1,5-12.1h1.9l-6.3,14.6h-1.2Z"/>
        <path class="cls-3" d="M382.6,438.8c-1.4,0-2.7-.3-3.8-1-1.1-.6-2-1.5-2.6-2.6-.6-1.1-.9-2.4-.9-3.9s.3-2.8.9-3.9c.6-1.1,1.5-2,2.6-2.6,1.1-.6,2.4-1,3.8-1s2.8.3,3.8,1c1.1.6,1.9,1.5,2.5,2.6.6,1.1.9,2.4.9,3.9s-.3,2.8-.9,3.9c-.6,1.1-1.4,2-2.5,2.6-1.1.6-2.4,1-3.8,1ZM382.6,437.3c1.1,0,2.1-.3,2.9-.8.8-.5,1.4-1.2,1.9-2.1.4-.9.7-1.9.7-3.1s-.1-1.6-.4-2.4c-.2-.7-.6-1.4-1.1-1.9s-1.1-1-1.7-1.2-1.4-.4-2.3-.4-2.1.3-2.9.8c-.8.5-1.5,1.2-1.9,2.1-.4.9-.7,1.9-.7,3.1s.2,2.2.7,3.1c.4.9,1.1,1.6,1.9,2.1.8.5,1.8.8,2.9.8Z"/>
        <path class="cls-3" d="M393.3,420.3v-2.5h2.5v2.5h-2.5ZM393.7,438.6v-14.6h1.7v14.6h-1.7Z"/>
        <path class="cls-3" d="M405.8,438.8c-1,0-1.9-.2-2.7-.5-.8-.4-1.5-.9-2.1-1.5s-1-1.5-1.3-2.4c-.3-.9-.5-1.9-.5-3s.3-2.8.8-3.9c.6-1.1,1.3-2,2.3-2.6,1-.6,2.2-.9,3.5-.9s1.8.2,2.6.5c.8.3,1.5.9,2,1.5.6.7,1,1.4,1.3,2.4s.5,1.9.5,3.1-.3,2.9-.8,4c-.5,1.1-1.3,2-2.3,2.6-1,.6-2.1.9-3.4.9ZM406.1,437.4c1,0,1.9-.3,2.7-.8.8-.5,1.4-1.2,1.8-2.1.4-.9.6-2,.6-3.2s-.1-1.7-.4-2.5c-.2-.7-.6-1.4-1.1-1.9-.5-.5-1-.9-1.6-1.2-.6-.3-1.3-.4-2.1-.4s-2,.3-2.7.8-1.4,1.2-1.8,2.1c-.4.9-.6,2-.6,3.2s.2,2.2.6,3.1c.4.9,1,1.6,1.8,2.1.8.5,1.7.8,2.7.8ZM411.3,438.6v-5l.5-2.4-.5-1.9v-12.6h1.7v21.9h-1.7Z"/>
        <path class="cls-3" d="M430,438.8c-1,0-1.9-.2-2.7-.5-.8-.4-1.5-.9-2.1-1.5s-1-1.5-1.3-2.4c-.3-.9-.5-1.9-.5-3s.3-2.8.8-3.9c.6-1.1,1.3-2,2.3-2.6,1-.6,2.2-.9,3.5-.9s1.8.2,2.6.5c.8.3,1.5.9,2,1.5.6.7,1,1.4,1.3,2.4s.5,1.9.5,3.1-.3,2.9-.8,4c-.5,1.1-1.3,2-2.3,2.6-1,.6-2.1.9-3.4.9ZM430.3,437.4c1,0,1.9-.3,2.7-.8.8-.5,1.4-1.2,1.8-2.1.4-.9.6-2,.6-3.2s-.1-1.7-.4-2.5c-.2-.7-.6-1.4-1.1-1.9-.5-.5-1-.9-1.6-1.2-.6-.3-1.3-.4-2.1-.4s-2,.3-2.7.8-1.4,1.2-1.8,2.1c-.4.9-.6,2-.6,3.2s.2,2.2.6,3.1c.4.9,1,1.6,1.8,2.1.8.5,1.7.8,2.7.8ZM435.5,438.6v-6l.4-1.3-.4-2.2v-5h1.7v14.6h-1.7Z"/>
        <path class="cls-3" d="M441.9,438.6v-14.6h1.7v6.7h-.6c0-1.4.2-2.7.7-3.7.5-1,1.1-1.8,2-2.4.9-.6,1.9-.8,3.1-.8s1.7.1,2.3.4c.7.2,1.2.6,1.7,1.1.5.5.8,1.2,1,1.9.2.8.3,1.7.3,2.7v8.6h-1.7v-8c0-1,0-1.9-.3-2.5-.2-.7-.5-1.2-.8-1.6-.4-.4-.8-.7-1.3-.8-.5-.2-1.1-.2-1.8-.2s-1.6.2-2.3.7c-.7.4-1.3,1.2-1.7,2.1-.4,1-.6,2.2-.6,3.8v6.6h-1.7Z"/>
        <path class="cls-3" d="M462.5,439.1l-6.2-15h1.9l5.2,13-.9,2.1ZM459.3,445l3.2-7.9v-.4c.1,0,5.3-12.6,5.3-12.6h1.9l-8.6,20.9h-1.8Z"/>
        <path class="cls-3" d="M256,473.6c-1,0-1.9-.2-2.7-.5-.8-.4-1.5-.9-2.1-1.5s-1-1.5-1.3-2.4c-.3-.9-.5-1.9-.5-3s.3-2.8.8-3.9c.6-1.1,1.3-2,2.3-2.6,1-.6,2.2-.9,3.5-.9s1.8.2,2.6.5c.8.3,1.5.9,2,1.5.6.7,1,1.4,1.3,2.4s.5,1.9.5,3.1-.3,2.9-.8,4c-.5,1.1-1.3,2-2.3,2.6-1,.6-2.1.9-3.4.9ZM256.3,472.2c1,0,1.9-.3,2.7-.8.8-.5,1.4-1.2,1.8-2.1.4-.9.6-2,.6-3.2s-.1-1.7-.4-2.5c-.2-.7-.6-1.4-1.1-1.9-.5-.5-1-.9-1.6-1.2-.6-.3-1.3-.4-2.1-.4s-2,.3-2.7.8-1.4,1.2-1.8,2.1c-.4.9-.6,2-.6,3.2s.2,2.2.6,3.1c.4.9,1,1.6,1.8,2.1.8.5,1.7.8,2.7.8ZM261.5,473.4v-5l.5-2.4-.5-1.9v-12.6h1.7v21.9h-1.7Z"/>
        <path class="cls-3" d="M267.5,455.1v-2.5h2.5v2.5h-2.5ZM267.9,473.4v-14.6h1.7v14.6h-1.7Z"/>
        <path class="cls-3" d="M278.9,473.6c-1.2,0-2.2-.2-3-.6-.8-.4-1.5-.9-1.9-1.5-.4-.7-.7-1.4-.7-2.3h1.7c0,.6.1,1.1.4,1.5.3.4.7.8,1.3,1,.6.3,1.3.4,2.1.4s2-.2,2.6-.7c.6-.5.9-1.1.9-1.9s-.2-1-.5-1.4c-.3-.3-.7-.6-1.2-.8-.5-.2-1.1-.4-1.7-.5-.6-.1-1.2-.3-1.9-.4-.6-.2-1.2-.4-1.7-.7-.5-.3-.9-.7-1.2-1.2-.3-.5-.5-1.1-.5-1.9,0-1.2.4-2.2,1.3-2.9.9-.7,2.1-1.1,3.6-1.1s1.9.2,2.7.5c.8.3,1.4.8,1.8,1.5.4.6.7,1.4.7,2.2h-1.7c0-.8-.3-1.5-1-2-.6-.5-1.5-.8-2.4-.8s-1.8.2-2.4.7c-.6.4-.9,1.1-.9,1.8s.2,1,.5,1.4c.3.3.7.6,1.2.8.5.2,1.1.3,1.7.4.6.1,1.2.3,1.9.4.6.2,1.2.4,1.7.7.5.3.9.7,1.2,1.2.3.5.5,1.2.5,2,0,1.3-.5,2.3-1.4,3-.9.8-2.2,1.1-3.8,1.1Z"/>
        <path class="cls-3" d="M287.9,473.4v-14.6h1.7v7.3h-.5c0-1.6.3-2.9.7-4,.4-1.1,1.1-1.9,1.9-2.5.8-.6,1.8-.9,3-.9h.4c.1,0,.3,0,.4,0v1.7c-.9,0-1.7,0-2.5.3-.7.2-1.4.5-1.9,1-.5.5-.9,1.2-1.2,2.1-.3.9-.4,2-.4,3.4v6.2h-1.7Z"/>
        <path class="cls-3" d="M303.6,473.6c-.9,0-1.7-.1-2.3-.4-.7-.2-1.2-.6-1.7-1.1-.4-.5-.8-1.1-1-1.9-.2-.8-.3-1.7-.3-2.8v-8.6h1.7v8c0,1,0,1.9.3,2.6s.5,1.2.8,1.6c.4.4.8.7,1.3.8.5.2,1.1.2,1.8.2s1.6-.2,2.3-.7c.7-.4,1.2-1.2,1.7-2.1.4-1,.6-2.2.6-3.8v-6.6h1.7v14.6h-1.7v-6.7h.6c0,1.4-.2,2.7-.7,3.7s-1.1,1.8-2,2.4c-.9.6-1.9.8-3.1.8Z"/>
        <path class="cls-3" d="M315.1,479.7v-20.9h1.7v4.7l-.4,2.5.5,2v11.6h-1.7ZM322.4,473.6c-1.3,0-2.4-.3-3.4-.9-1-.6-1.7-1.5-2.3-2.6-.5-1.1-.8-2.4-.8-4s.3-2.9.8-4c.5-1.1,1.3-2,2.3-2.6,1-.6,2.1-.9,3.4-.9s1.9.2,2.7.5c.8.4,1.5.9,2.1,1.5s1,1.5,1.4,2.4c.3.9.5,1.9.5,3s-.3,2.8-.8,3.9c-.6,1.1-1.3,2-2.3,2.6s-2.2.9-3.5.9ZM322,472.2c1,0,2-.3,2.7-.8.8-.5,1.4-1.2,1.8-2.1.4-.9.7-2,.7-3.1s-.2-2.3-.7-3.2c-.4-.9-1-1.6-1.8-2.1s-1.7-.8-2.7-.8-1.9.3-2.7.8-1.4,1.2-1.8,2.1c-.4.9-.7,2-.7,3.2s.1,1.7.4,2.5c.3.7.6,1.4,1.1,1.9.5.5,1,.9,1.6,1.2.6.3,1.3.4,2.1.4Z"/>
        <path class="cls-3" d="M330.7,460.2v-1.4h10.2v1.4h-10.2ZM338.1,473.7c-.8,0-1.4,0-2-.2-.6-.1-1-.4-1.4-.8-.4-.4-.6-.9-.8-1.5s-.3-1.4-.3-2.4v-15.5h1.7v15.5c0,.9.1,1.6.3,2.1.2.5.5.8.9,1,.4.2,1,.2,1.7.2s.8,0,1.3-.1c.5,0,.9-.3,1.3-.5v1.7c-.3.1-.6.2-.9.3-.3,0-.7.1-1,.2-.3,0-.6,0-.9,0Z"/>
        <path class="cls-3" d="M343.9,455.1v-2.5h2.5v2.5h-2.5ZM344.2,473.4v-14.6h1.7v14.6h-1.7Z"/>
        <path class="cls-3" d="M357,473.6c-1.4,0-2.7-.3-3.8-1-1.1-.6-2-1.5-2.6-2.6-.6-1.1-.9-2.4-.9-3.9s.3-2.8.9-3.9c.6-1.1,1.5-2,2.6-2.6,1.1-.6,2.4-1,3.8-1s2.8.3,3.8,1c1.1.6,1.9,1.5,2.5,2.6.6,1.1.9,2.4.9,3.9s-.3,2.8-.9,3.9c-.6,1.1-1.4,2-2.5,2.6-1.1.6-2.4,1-3.8,1ZM357,472.1c1.1,0,2.1-.3,2.9-.8.8-.5,1.4-1.2,1.9-2.1.4-.9.7-1.9.7-3.1s-.1-1.6-.4-2.4c-.2-.7-.6-1.4-1.1-1.9s-1.1-1-1.7-1.2-1.4-.4-2.3-.4-2.1.3-2.9.8c-.8.5-1.5,1.2-1.9,2.1-.4.9-.7,1.9-.7,3.1s.2,2.2.7,3.1c.4.9,1.1,1.6,1.9,2.1.8.5,1.8.8,2.9.8Z"/>
        <path class="cls-3" d="M368,473.4v-14.6h1.7v6.7h-.6c0-1.4.2-2.7.7-3.7.5-1,1.1-1.8,2-2.4.9-.6,1.9-.8,3.1-.8s1.7.1,2.3.4c.7.2,1.2.6,1.7,1.1.5.5.8,1.2,1,1.9.2.8.3,1.7.3,2.7v8.6h-1.7v-8c0-1,0-1.9-.3-2.5-.2-.7-.5-1.2-.8-1.6-.4-.4-.8-.7-1.3-.8-.5-.2-1.1-.2-1.8-.2s-1.6.2-2.3.7c-.7.4-1.3,1.2-1.7,2.1-.4,1-.6,2.2-.6,3.8v6.6h-1.7Z"/>
        <path class="cls-3" d="M389.2,473.6c-1.2,0-2.2-.2-3-.6-.8-.4-1.5-.9-1.9-1.5-.4-.7-.7-1.4-.7-2.3h1.7c0,.6.1,1.1.4,1.5.3.4.7.8,1.3,1,.6.3,1.3.4,2.1.4s2-.2,2.6-.7c.6-.5.9-1.1.9-1.9s-.2-1-.5-1.4c-.3-.3-.7-.6-1.2-.8-.5-.2-1.1-.4-1.7-.5-.6-.1-1.2-.3-1.9-.4-.6-.2-1.2-.4-1.7-.7-.5-.3-.9-.7-1.2-1.2-.3-.5-.5-1.1-.5-1.9,0-1.2.4-2.2,1.3-2.9.9-.7,2.1-1.1,3.6-1.1s1.9.2,2.7.5c.8.3,1.4.8,1.8,1.5.4.6.7,1.4.7,2.2h-1.7c0-.8-.3-1.5-1-2-.6-.5-1.5-.8-2.4-.8s-1.8.2-2.4.7c-.6.4-.9,1.1-.9,1.8s.2,1,.5,1.4c.3.3.7.6,1.2.8.5.2,1.1.3,1.7.4.6.1,1.2.3,1.9.4.6.2,1.2.4,1.7.7.5.3.9.7,1.2,1.2.3.5.5,1.2.5,2,0,1.3-.5,2.3-1.4,3-.9.8-2.2,1.1-3.8,1.1Z"/>
        <path class="cls-3" d="M410.5,473.6c-1,0-1.9-.2-2.7-.5-.8-.4-1.5-.9-2.1-1.5s-1-1.5-1.3-2.4c-.3-.9-.5-1.9-.5-3s.3-2.8.8-3.9c.6-1.1,1.3-2,2.3-2.6,1-.6,2.2-.9,3.5-.9s1.8.2,2.6.5c.8.3,1.5.9,2,1.5.6.7,1,1.4,1.3,2.4s.5,1.9.5,3.1-.3,2.9-.8,4c-.5,1.1-1.3,2-2.3,2.6-1,.6-2.1.9-3.4.9ZM410.8,472.2c1,0,1.9-.3,2.7-.8.8-.5,1.4-1.2,1.8-2.1.4-.9.6-2,.6-3.2s-.1-1.7-.4-2.5c-.2-.7-.6-1.4-1.1-1.9-.5-.5-1-.9-1.6-1.2-.6-.3-1.3-.4-2.1-.4s-2,.3-2.7.8-1.4,1.2-1.8,2.1c-.4.9-.6,2-.6,3.2s.2,2.2.6,3.1c.4.9,1,1.6,1.8,2.1.8.5,1.7.8,2.7.8ZM416,473.4v-5l.5-2.4-.5-1.9v-12.6h1.7v21.9h-1.7Z"/>
        <path class="cls-3" d="M427.4,473.6c-.9,0-1.7-.1-2.3-.4-.7-.2-1.2-.6-1.7-1.1-.4-.5-.8-1.1-1-1.9-.2-.8-.3-1.7-.3-2.8v-8.6h1.7v8c0,1,0,1.9.3,2.6s.5,1.2.8,1.6c.4.4.8.7,1.3.8.5.2,1.1.2,1.8.2s1.6-.2,2.3-.7c.7-.4,1.2-1.2,1.7-2.1.4-1,.6-2.2.6-3.8v-6.6h1.7v14.6h-1.7v-6.7h.6c0,1.4-.2,2.7-.7,3.7s-1.1,1.8-2,2.4c-.9.6-1.9.8-3.1.8Z"/>
        <path class="cls-3" d="M439,473.4v-14.6h1.7v7.3h-.5c0-1.6.3-2.9.7-4,.4-1.1,1.1-1.9,1.9-2.5.8-.6,1.8-.9,3-.9h.4c.1,0,.3,0,.4,0v1.7c-.9,0-1.7,0-2.5.3-.7.2-1.4.5-1.9,1-.5.5-.9,1.2-1.2,2.1-.3.9-.4,2-.4,3.4v6.2h-1.7Z"/>
        <path class="cls-3" d="M449.3,455.1v-2.5h2.5v2.5h-2.5ZM449.6,473.4v-14.6h1.7v14.6h-1.7Z"/>
        <path class="cls-3" d="M456.1,473.4v-14.6h1.7v6.7h-.6c0-1.4.2-2.7.7-3.7.5-1,1.1-1.8,2-2.4.9-.6,1.9-.8,3.1-.8s1.7.1,2.3.4c.7.2,1.2.6,1.7,1.1.5.5.8,1.2,1,1.9.2.8.3,1.7.3,2.7v8.6h-1.7v-8c0-1,0-1.9-.3-2.5-.2-.7-.5-1.2-.8-1.6-.4-.4-.8-.7-1.3-.8-.5-.2-1.1-.2-1.8-.2s-1.6.2-2.3.7c-.7.4-1.3,1.2-1.7,2.1-.4,1-.6,2.2-.6,3.8v6.6h-1.7Z"/>
        <path class="cls-3" d="M478.4,473.6c-1,0-1.9-.2-2.7-.5-.8-.4-1.5-.9-2.1-1.5s-1-1.5-1.4-2.4c-.3-.9-.5-1.9-.5-3s.3-2.8.8-3.9c.6-1.1,1.3-2,2.3-2.6,1-.6,2.2-.9,3.5-.9s2.4.3,3.3.9c1,.6,1.7,1.5,2.2,2.6.5,1.1.8,2.4.8,4s-.3,2.9-.8,4c-.5,1.1-1.3,2-2.2,2.6-1,.6-2.1.9-3.3.9ZM479.1,479.9c-1.4,0-2.5-.2-3.4-.6s-1.6-.9-2.1-1.6c-.5-.7-.8-1.5-.9-2.4h1.7c.1.6.3,1.1.7,1.6.3.5.8.9,1.5,1.1s1.5.4,2.6.4,1.9-.2,2.6-.5c.7-.3,1.2-.8,1.6-1.5.3-.7.5-1.5.5-2.5v-5.5l.5-2.3-.4-2.2v-5h1.7v15c0,1.3-.3,2.4-.8,3.3-.5.9-1.2,1.6-2.2,2.1s-2.1.7-3.5.7ZM478.7,472.2c1,0,1.9-.3,2.7-.8.8-.5,1.4-1.2,1.8-2.1.4-.9.6-2,.6-3.2s-.1-1.7-.4-2.5c-.2-.7-.6-1.4-1.1-1.9-.5-.5-1-.9-1.6-1.2-.6-.3-1.3-.4-2.1-.4s-2,.3-2.7.8-1.4,1.2-1.8,2.1c-.4.9-.6,2-.6,3.2s.2,2.2.6,3.1c.4.9,1,1.6,1.8,2.1.8.5,1.7.8,2.7.8Z"/>
        <path class="cls-3" d="M495,460.2v-1.4h10.2v1.4h-10.2ZM502.3,473.7c-.8,0-1.4,0-2-.2-.6-.1-1-.4-1.4-.8-.4-.4-.6-.9-.8-1.5s-.3-1.4-.3-2.4v-15.5h1.7v15.5c0,.9.1,1.6.3,2.1.2.5.5.8.9,1,.4.2,1,.2,1.7.2s.8,0,1.3-.1c.5,0,.9-.3,1.3-.5v1.7c-.3.1-.6.2-.9.3-.3,0-.7.1-1,.2-.3,0-.6,0-.9,0Z"/>
        <path class="cls-3" d="M508.5,473.4v-21.9h1.7v14.1h-.6c0-1.4.2-2.7.7-3.7.5-1,1.1-1.8,2-2.4.9-.6,1.9-.8,3.1-.8s1.7.1,2.3.4c.7.2,1.2.6,1.7,1.1.5.5.8,1.2,1,1.9.2.8.3,1.7.3,2.7v8.6h-1.7v-8c0-1,0-1.9-.3-2.5-.2-.7-.5-1.2-.8-1.6-.4-.4-.8-.7-1.3-.8-.5-.2-1.1-.2-1.8-.2s-1.6.2-2.3.7c-.7.4-1.3,1.2-1.7,2.1-.4,1-.6,2.2-.6,3.8v6.6h-1.7Z"/>
        <path class="cls-3" d="M531.2,473.6c-1.5,0-2.7-.3-3.8-1s-1.9-1.5-2.5-2.6c-.6-1.1-.8-2.4-.8-3.9s.3-2.7.8-3.9,1.3-2,2.4-2.7c1-.6,2.3-1,3.7-1s2.6.3,3.6,1c1,.6,1.8,1.5,2.3,2.6.5,1.1.8,2.4.8,3.8v.6h-12.6v-1.4h11.4l-.4.6c0-1.1-.2-2.1-.6-3-.4-.9-1-1.6-1.8-2-.8-.5-1.7-.7-2.7-.7s-1.9.2-2.7.7c-.8.5-1.4,1.2-1.8,2-.4.9-.7,2-.7,3.2s.2,2.3.7,3.2c.4.9,1.1,1.6,1.9,2.1.8.5,1.7.7,2.8.7s1.5-.1,2.2-.4c.6-.3,1.2-.6,1.6-1.1.4-.5.7-1,.9-1.6h1.7c-.2.9-.5,1.6-1.1,2.3s-1.3,1.2-2.2,1.6c-.9.4-1.9.6-3,.6Z"/>
        <path class="cls-3" d="M546.3,460.2v-1.4h10.2v1.4h-10.2ZM553.6,473.7c-.8,0-1.4,0-2-.2-.6-.1-1-.4-1.4-.8-.4-.4-.6-.9-.8-1.5s-.3-1.4-.3-2.4v-15.5h1.7v15.5c0,.9.1,1.6.3,2.1.2.5.5.8.9,1,.4.2,1,.2,1.7.2s.8,0,1.3-.1c.5,0,.9-.3,1.3-.5v1.7c-.3.1-.6.2-.9.3-.3,0-.7.1-1,.2-.3,0-.6,0-.9,0Z"/>
        <path class="cls-3" d="M559.8,473.4v-14.6h1.7v7.3h-.5c0-1.6.3-2.9.7-4,.4-1.1,1.1-1.9,1.9-2.5.8-.6,1.8-.9,3-.9h.4c.1,0,.3,0,.4,0v1.7c-.9,0-1.7,0-2.5.3-.7.2-1.4.5-1.9,1-.5.5-.9,1.2-1.2,2.1-.3.9-.4,2-.4,3.4v6.2h-1.7Z"/>
        <path class="cls-3" d="M570,455.1v-2.5h2.5v2.5h-2.5ZM570.4,473.4v-14.6h1.7v14.6h-1.7Z"/>
        <path class="cls-3" d="M576.9,479.7v-20.9h1.7v4.7l-.4,2.5.5,2v11.6h-1.7ZM584.1,473.6c-1.3,0-2.4-.3-3.4-.9-1-.6-1.7-1.5-2.3-2.6-.5-1.1-.8-2.4-.8-4s.3-2.9.8-4c.5-1.1,1.3-2,2.3-2.6,1-.6,2.1-.9,3.4-.9s1.9.2,2.7.5c.8.4,1.5.9,2.1,1.5s1,1.5,1.4,2.4c.3.9.5,1.9.5,3s-.3,2.8-.8,3.9c-.6,1.1-1.3,2-2.3,2.6s-2.2.9-3.5.9ZM583.8,472.2c1,0,2-.3,2.7-.8.8-.5,1.4-1.2,1.8-2.1.4-.9.7-2,.7-3.1s-.2-2.3-.7-3.2c-.4-.9-1-1.6-1.8-2.1s-1.7-.8-2.7-.8-1.9.3-2.7.8-1.4,1.2-1.8,2.1c-.4.9-.7,2-.7,3.2s.1,1.7.4,2.5c.3.7.6,1.4,1.1,1.9.5.5,1,.9,1.6,1.2.6.3,1.3.4,2.1.4Z"/>
        <path class="cls-3" d="M593.4,473.4v-2.5h2.4v2.5h-2.4Z"/>
      </g>
    </g>
  </g>
</svg>