<?xml version="1.0" encoding="utf-8"?>
<!-- Generator: Adobe Illustrator 28.7.2, SVG Export Plug-In . SVG Version: 9.03 Build 54978)  -->
<svg version="1.1" id="Layer_1" xmlns="http://www.w3.org/2000/svg" xmlns:xlink="http://www.w3.org/1999/xlink" x="0px" y="0px"
	 viewBox="0 0 415 462.7" style="enable-background:new 0 0 415 462.7;" xml:space="preserve">
<style type="text/css">
	.st0{fill:#004647;}
	.st1{enable-background:new    ;}
</style>
<g>
	<g>
		<path class="st0" d="M154.6,92.8h-16.8c2.5-2.7,4.6-6.6,5.3-12.2c1.9-16.5,5.7-42.4,6.2-45.5c0.4-1.2,1.1-4.2-0.7-7
			c-1.8-2.8-5.4-4.2-10.7-4.2h-35.8c-5.2,0-8.8,1.4-10.7,4.2c-1.9,2.8-1.1,5.8-0.7,7c0.5,3.1,4.3,29,6.2,45.5
			c0.6,5.4,2.6,9.3,5.2,12.2H94c-6.2-6.2-6.2-28.4-6.9-35.9c-0.2-2.1-2-3.6-4-3.6l0,0L46.8,54c0-1,0-2,0.3-2.5
			c0-0.1,0.2-0.3,0.7-0.4c1.4-0.3,2.5-1.6,2.5-3c0-0.5,0.2-1.8,0.8-2.3c0.4-0.3,1.3-0.3,2.5,0c0.9,0.3,1.9,0,2.7-0.5
			c0.8-0.6,1.2-1.5,1.3-2.5c0,0,0.1-4,2.5-5.5c2-1.3,5.3-0.9,9.8,1c0.8,0.4,1.8,0.3,2.6,0c0.8-0.4,1.4-1.1,1.7-2
			c0,0,0.6-2.1,2.4-3.1c1.3-0.7,3-0.7,5.1,0c1.6,0.5,3.4-0.3,4-2c0.5-1.6-0.3-3.4-2-4c-3.9-1.3-7.3-1.1-10.1,0.4
			c-1.9,1-3.1,2.5-4,3.8c-5.3-1.8-9.6-1.6-12.9,0.6c-2.9,1.9-4.2,4.9-4.8,7.2c-2.1,0-3.5,0.8-4.5,1.5c-1.9,1.4-2.7,3.4-3,5
			c-1.1,0.6-1.9,1.4-2.6,2.5c-1.1,1.9-1.3,4.1-1.2,5.9h-1.4l0,0c-0.2,0-0.3,0-0.5,0s-0.5,0-0.9,0c-1.5,0-4.1,0.4-4.1,3.4
			s1.3,2.9,2.6,3.1c1.6,0.3,2.9,1.5,3.2,3c4.4,17.9,17.4,25.9,29.8,29.3H36.7v6.3h79c0.8,0,1.6,0.1,2.4,0.1s1.3,0,1.9,0
			c0.4,0,0.9,0,1.5,0s1.2,0,2,0h31.1V93V92.8z"/>
	</g>
	<g>
		<path class="st0" d="M119.9,20c1.7,0,3.1-1.4,3.1-3.1V3.1c0-1.7-1.4-3.1-3.1-3.1s-3.1,1.4-3.1,3.1v13.8
			C116.8,18.6,118.2,20,119.9,20z"/>
	</g>
	<g>
		<path class="st0" d="M136.1,20L136.1,20c1.7,0,3.1-1.5,3.1-3.2L139,7.2c0-1.7-1.5-3.1-3.2-3.1s-3.1,1.5-3.1,3.2l0.2,9.6
			c0,1.7,1.4,3.1,3.1,3.1H136.1z"/>
	</g>
	<g>
		<path class="st0" d="M103.7,19.8L103.7,19.8c1.7,0,3.1-1.4,3.1-3.1l0.2-9.4c0-1.7-1.3-3.2-3.1-3.2c-1.7,0-3.2,1.3-3.2,3.1
			l-0.2,9.4c0,1.7,1.3,3.2,3.1,3.2H103.7z"/>
	</g>
</g>
<g>
	<path class="st0" d="M400.9,462.7H14.1c-7.8,0-14.1-6.3-14.1-14.1V61.7c0-7.8,6.3-14.1,14.1-14.1H32v4H14.1C8.5,51.6,4,56.1,4,61.7
		v386.9c0,5.6,4.5,10.1,10.1,10.1h386.8c5.6,0,10.1-4.5,10.1-10.1V61.7c0-5.6-4.5-10.1-10.1-10.1H154.6v-4h246.3
		c7.8,0,14.1,6.3,14.1,14.1v386.9C415,456.4,408.7,462.7,400.9,462.7z"/>
</g>
<g class="st1">
	<path class="st0" d="M35.9,166.7v-25.9h13.4v4h-8.8v7.7h7.9v3.9h-7.9v10.3H35.9z"/>
	<path class="st0" d="M62.3,167c-1.6,0-3.1-0.3-4.4-0.9c-1.3-0.6-2.4-1.5-3.3-2.6c-0.9-1.2-1.6-2.6-2.1-4.2
		c-0.5-1.7-0.7-3.5-0.7-5.6c0-2.8,0.4-5.2,1.3-7.1c0.8-2,2-3.5,3.6-4.5c1.6-1,3.4-1.6,5.6-1.6c1.7,0,3.1,0.3,4.4,0.9
		s2.4,1.5,3.3,2.6c0.9,1.1,1.6,2.5,2.1,4.2c0.5,1.6,0.7,3.5,0.7,5.6c0,2.8-0.4,5.2-1.3,7.2c-0.8,2-2,3.5-3.6,4.6
		C66.3,166.5,64.4,167,62.3,167z M62.2,163c1.2,0,2.3-0.4,3.1-1.1c0.9-0.7,1.5-1.8,1.9-3.2s0.7-3.1,0.7-5.1c0-1.5-0.1-2.8-0.4-3.9
		c-0.3-1.1-0.6-2.1-1.1-2.9c-0.5-0.8-1.1-1.4-1.8-1.8c-0.7-0.4-1.5-0.6-2.4-0.6c-1.2,0-2.2,0.4-3.1,1.1c-0.8,0.7-1.5,1.7-1.9,3.1
		c-0.4,1.4-0.7,3-0.7,5c0,1.5,0.1,2.8,0.4,4c0.2,1.2,0.6,2.1,1.1,2.9c0.5,0.8,1.1,1.4,1.8,1.8S61.3,163,62.2,163z"/>
	<path class="st0" d="M85.8,167c-1.6,0-3.1-0.3-4.4-0.9c-1.3-0.6-2.4-1.5-3.3-2.6c-0.9-1.2-1.6-2.6-2.1-4.2
		c-0.5-1.7-0.7-3.5-0.7-5.6c0-2.8,0.4-5.2,1.3-7.1c0.8-2,2-3.5,3.6-4.5c1.6-1,3.4-1.6,5.6-1.6c1.7,0,3.1,0.3,4.4,0.9
		s2.4,1.5,3.3,2.6c0.9,1.1,1.6,2.5,2.1,4.2c0.5,1.6,0.7,3.5,0.7,5.6c0,2.8-0.4,5.2-1.3,7.2c-0.8,2-2,3.5-3.6,4.6
		C89.9,166.5,88,167,85.8,167z M85.8,163c1.2,0,2.3-0.4,3.1-1.1c0.9-0.7,1.5-1.8,1.9-3.2s0.7-3.1,0.7-5.1c0-1.5-0.1-2.8-0.4-3.9
		c-0.3-1.1-0.6-2.1-1.1-2.9c-0.5-0.8-1.1-1.4-1.8-1.8c-0.7-0.4-1.5-0.6-2.4-0.6c-1.2,0-2.2,0.4-3.1,1.1c-0.8,0.7-1.5,1.7-1.9,3.1
		c-0.4,1.4-0.7,3-0.7,5c0,1.5,0.1,2.8,0.4,4c0.2,1.2,0.6,2.1,1.1,2.9c0.5,0.8,1.1,1.4,1.8,1.8S84.9,163,85.8,163z"/>
	<path class="st0" d="M99.8,166.7v-25.9h7c1.8,0,3.3,0.3,4.6,0.9c1.3,0.6,2.5,1.4,3.3,2.5c0.9,1.1,1.6,2.5,2,4.1
		c0.5,1.6,0.7,3.4,0.7,5.4c0,2.7-0.4,5-1.2,6.9c-0.8,1.9-2.1,3.4-3.7,4.5s-3.7,1.6-6.1,1.6H99.8z M104.4,162.7h2.2
		c1.4,0,2.6-0.4,3.5-1.1c0.9-0.7,1.6-1.8,2.1-3.1c0.5-1.4,0.7-3,0.7-4.9c0-1.9-0.2-3.5-0.7-4.8c-0.5-1.3-1.1-2.3-2-3.1
		c-0.9-0.7-2-1.1-3.3-1.1h-2.5V162.7z"/>
</g>
<g>
	<path class="st0" d="M40.9,248.7l-7-20.4h1.9l6.1,18.4h-0.6l6.6-18.5h1.5l6.3,18.5h-0.6l6.3-18.4h1.9l-7.2,20.4h-1.5l-6.4-18.4H49
		l-6.6,18.4H40.9z"/>
	<path class="st0" d="M65.9,248.6v-21.9h1.7v14.1h-0.6c0-1.4,0.2-2.7,0.7-3.7c0.5-1,1.1-1.8,2-2.4c0.9-0.6,1.9-0.8,3.1-0.8
		c0.9,0,1.7,0.1,2.3,0.4c0.7,0.2,1.2,0.6,1.7,1.1c0.5,0.5,0.8,1.2,1,1.9c0.2,0.8,0.3,1.7,0.3,2.7v8.6h-1.7v-8c0-1-0.1-1.9-0.3-2.5
		s-0.5-1.2-0.8-1.6c-0.4-0.4-0.8-0.7-1.3-0.8c-0.5-0.2-1.1-0.2-1.8-0.2c-0.8,0-1.6,0.2-2.3,0.7c-0.7,0.4-1.3,1.2-1.7,2.1
		c-0.4,1-0.6,2.2-0.6,3.8v6.6H65.9z"/>
	<path class="st0" d="M88.7,248.8c-1.5,0-2.7-0.3-3.8-1s-1.9-1.5-2.5-2.6c-0.6-1.1-0.8-2.4-0.8-3.9c0-1.5,0.3-2.7,0.8-3.9
		s1.3-2,2.4-2.7s2.3-1,3.7-1c1.4,0,2.6,0.3,3.6,1s1.8,1.5,2.3,2.6c0.5,1.1,0.8,2.4,0.8,3.8v0.6H82.7v-1.4H94l-0.4,0.6
		c0-1.1-0.2-2.1-0.6-3c-0.4-0.9-1-1.6-1.8-2s-1.7-0.7-2.7-0.7c-1,0-1.9,0.2-2.7,0.7c-0.8,0.5-1.4,1.2-1.8,2c-0.4,0.9-0.7,2-0.7,3.2
		c0,1.2,0.2,2.3,0.7,3.2c0.4,0.9,1.1,1.6,1.9,2.1c0.8,0.5,1.7,0.7,2.8,0.7c0.8,0,1.5-0.1,2.2-0.4s1.2-0.6,1.6-1.1
		c0.4-0.5,0.7-1,0.9-1.6H95c-0.2,0.9-0.5,1.6-1.1,2.3c-0.6,0.7-1.3,1.2-2.2,1.6C90.8,248.6,89.8,248.8,88.7,248.8z"/>
	<path class="st0" d="M99,248.6V234h1.7v6.7h-0.6c0-1.4,0.2-2.7,0.7-3.7c0.5-1,1.1-1.8,2-2.4c0.9-0.6,1.9-0.8,3.1-0.8
		c0.9,0,1.7,0.1,2.3,0.4c0.7,0.2,1.2,0.6,1.7,1.1c0.5,0.5,0.8,1.2,1,1.9c0.2,0.8,0.3,1.7,0.3,2.7v8.6h-1.7v-8c0-1-0.1-1.9-0.3-2.5
		s-0.5-1.2-0.8-1.6c-0.4-0.4-0.8-0.7-1.3-0.8c-0.5-0.2-1.1-0.2-1.8-0.2c-0.8,0-1.6,0.2-2.3,0.7c-0.7,0.4-1.3,1.2-1.7,2.1
		c-0.4,1-0.6,2.2-0.6,3.8v6.6H99z"/>
	<path class="st0" d="M120.3,235.4V234h10.2v1.4H120.3z M127.7,248.9c-0.8,0-1.4-0.1-2-0.2c-0.6-0.1-1-0.4-1.4-0.8
		c-0.4-0.4-0.6-0.9-0.8-1.5s-0.3-1.4-0.3-2.4v-15.5h1.7V244c0,0.9,0.1,1.6,0.3,2.1c0.2,0.5,0.5,0.8,0.9,1c0.4,0.2,1,0.2,1.7,0.2
		c0.4,0,0.8,0,1.3-0.1c0.5-0.1,0.9-0.3,1.3-0.5v1.7c-0.3,0.1-0.6,0.2-0.9,0.3c-0.3,0.1-0.7,0.1-1,0.2
		C128.2,248.8,127.9,248.9,127.7,248.9z"/>
	<path class="st0" d="M133.8,248.6V234h1.7v7.3H135c0-1.6,0.3-2.9,0.7-4c0.4-1.1,1.1-1.9,1.9-2.5c0.8-0.6,1.8-0.9,3-0.9
		c0.2,0,0.3,0,0.4,0c0.1,0,0.3,0,0.4,0.1v1.7c-0.9,0-1.7,0.1-2.5,0.3s-1.4,0.5-1.9,1c-0.5,0.5-0.9,1.2-1.2,2.1
		c-0.3,0.9-0.4,2-0.4,3.4v6.2H133.8z"/>
	<path class="st0" d="M149.9,248.8c-1,0-1.9-0.2-2.7-0.5s-1.5-0.9-2.1-1.5s-1-1.5-1.3-2.4c-0.3-0.9-0.5-1.9-0.5-3
		c0-1.5,0.3-2.8,0.8-3.9s1.3-2,2.3-2.6c1-0.6,2.2-0.9,3.5-0.9c1,0,1.8,0.2,2.6,0.5c0.8,0.3,1.5,0.9,2,1.5c0.6,0.7,1,1.4,1.3,2.4
		s0.5,1.9,0.5,3.1c0,1.5-0.3,2.9-0.8,4c-0.5,1.1-1.3,2-2.3,2.6C152.4,248.5,151.2,248.8,149.9,248.8z M150.2,247.3
		c1,0,1.9-0.3,2.7-0.8c0.8-0.5,1.4-1.2,1.8-2.1c0.4-0.9,0.6-2,0.6-3.2c0-0.9-0.1-1.7-0.4-2.5c-0.2-0.7-0.6-1.4-1.1-1.9
		c-0.5-0.5-1-0.9-1.6-1.2c-0.6-0.3-1.3-0.4-2.1-0.4c-1,0-2,0.3-2.7,0.8s-1.4,1.2-1.8,2.1c-0.4,0.9-0.6,2-0.6,3.2
		c0,1.2,0.2,2.2,0.6,3.1c0.4,0.9,1,1.6,1.8,2.1C148.3,247.1,149.2,247.3,150.2,247.3z M155.4,248.6v-6l0.4-1.3l-0.4-2.2v-5h1.7v14.6
		H155.4z"/>
	<path class="st0" d="M165.9,248.7l-6.2-14.6h1.9l5,12.1l5-12.1h1.9l-6.3,14.6H165.9z"/>
	<path class="st0" d="M182.1,248.8c-1.5,0-2.7-0.3-3.8-1s-1.9-1.5-2.5-2.6c-0.6-1.1-0.8-2.4-0.8-3.9c0-1.5,0.3-2.7,0.8-3.9
		s1.3-2,2.4-2.7s2.3-1,3.7-1c1.4,0,2.6,0.3,3.6,1s1.8,1.5,2.3,2.6c0.5,1.1,0.8,2.4,0.8,3.8v0.6h-12.6v-1.4h11.4l-0.4,0.6
		c0-1.1-0.2-2.1-0.6-3c-0.4-0.9-1-1.6-1.8-2s-1.7-0.7-2.7-0.7c-1,0-1.9,0.2-2.7,0.7c-0.8,0.5-1.4,1.2-1.8,2c-0.4,0.9-0.7,2-0.7,3.2
		c0,1.2,0.2,2.3,0.7,3.2c0.4,0.9,1.1,1.6,1.9,2.1c0.8,0.5,1.7,0.7,2.8,0.7c0.8,0,1.5-0.1,2.2-0.4s1.2-0.6,1.6-1.1
		c0.4-0.5,0.7-1,0.9-1.6h1.7c-0.2,0.9-0.5,1.6-1.1,2.3c-0.6,0.7-1.3,1.2-2.2,1.6C184.2,248.6,183.2,248.8,182.1,248.8z"/>
	<path class="st0" d="M192.4,248.6v-21.9h1.7v21.9H192.4z"/>
	<path class="st0" d="M198.5,230.2v-2.5h2.5v2.5H198.5z M198.9,248.6V234h1.7v14.6H198.9z"/>
	<path class="st0" d="M205.3,248.6V234h1.7v6.7h-0.6c0-1.4,0.2-2.7,0.7-3.7c0.5-1,1.1-1.8,2-2.4c0.9-0.6,1.9-0.8,3.1-0.8
		c0.9,0,1.7,0.1,2.3,0.4c0.7,0.2,1.2,0.6,1.7,1.1c0.5,0.5,0.8,1.2,1,1.9c0.2,0.8,0.3,1.7,0.3,2.7v8.6h-1.7v-8c0-1-0.1-1.9-0.3-2.5
		s-0.5-1.2-0.8-1.6c-0.4-0.4-0.8-0.7-1.3-0.8c-0.5-0.2-1.1-0.2-1.8-0.2c-0.8,0-1.6,0.2-2.3,0.7c-0.7,0.4-1.3,1.2-1.7,2.1
		c-0.4,1-0.6,2.2-0.6,3.8v6.6H205.3z"/>
	<path class="st0" d="M227.7,248.8c-1,0-1.9-0.2-2.7-0.5c-0.8-0.4-1.5-0.9-2.1-1.5s-1-1.5-1.4-2.4c-0.3-0.9-0.5-1.9-0.5-3
		c0-1.5,0.3-2.8,0.8-3.9c0.6-1.1,1.3-2,2.3-2.6c1-0.6,2.2-0.9,3.5-0.9c1.3,0,2.4,0.3,3.3,0.9c1,0.6,1.7,1.5,2.2,2.6
		c0.5,1.1,0.8,2.4,0.8,4s-0.3,2.9-0.8,4c-0.5,1.1-1.3,2-2.2,2.6C230,248.5,228.9,248.8,227.7,248.8z M228.3,255.1
		c-1.4,0-2.5-0.2-3.4-0.6s-1.6-0.9-2.1-1.6c-0.5-0.7-0.8-1.5-0.9-2.4h1.7c0.1,0.6,0.3,1.1,0.7,1.6c0.3,0.5,0.8,0.9,1.5,1.1
		s1.5,0.4,2.6,0.4c1,0,1.9-0.2,2.6-0.5c0.7-0.3,1.2-0.8,1.6-1.5s0.5-1.5,0.5-2.5v-5.5l0.5-2.3l-0.4-2.2v-5h1.7v15
		c0,1.3-0.3,2.4-0.8,3.3c-0.5,0.9-1.2,1.6-2.2,2.1C230.9,254.8,229.7,255.1,228.3,255.1z M227.9,247.3c1,0,1.9-0.3,2.7-0.8
		c0.8-0.5,1.4-1.2,1.8-2.1c0.4-0.9,0.6-2,0.6-3.2c0-0.9-0.1-1.7-0.4-2.5c-0.2-0.7-0.6-1.4-1.1-1.9c-0.5-0.5-1-0.9-1.6-1.2
		c-0.6-0.3-1.3-0.4-2.1-0.4c-1,0-2,0.3-2.7,0.8s-1.4,1.2-1.8,2.1c-0.4,0.9-0.6,2-0.6,3.2c0,1.2,0.2,2.2,0.6,3.1
		c0.4,0.9,1,1.6,1.8,2.1C225.9,247.1,226.8,247.3,227.9,247.3z"/>
	<path class="st0" d="M245.8,230.2v-2.5h2.5v2.5H245.8z M246.2,248.6V234h1.7v14.6H246.2z"/>
	<path class="st0" d="M250.6,235.4V234h10.2v1.4H250.6z M258,248.9c-0.8,0-1.4-0.1-2-0.2c-0.6-0.1-1-0.4-1.4-0.8
		c-0.4-0.4-0.6-0.9-0.8-1.5s-0.3-1.4-0.3-2.4v-15.5h1.7V244c0,0.9,0.1,1.6,0.3,2.1c0.2,0.5,0.5,0.8,0.9,1c0.4,0.2,1,0.2,1.7,0.2
		c0.4,0,0.8,0,1.3-0.1c0.5-0.1,0.9-0.3,1.3-0.5v1.7c-0.3,0.1-0.6,0.2-0.9,0.3c-0.3,0.1-0.7,0.1-1,0.2
		C258.5,248.8,258.2,248.9,258,248.9z"/>
	<path class="st0" d="M270.4,230.2v-2.5h2.5v2.5H270.4z M270.8,248.6V234h1.7v14.6H270.8z"/>
	<path class="st0" d="M281.8,248.8c-1.2,0-2.2-0.2-3-0.6s-1.5-0.9-1.9-1.5c-0.4-0.7-0.7-1.4-0.7-2.3h1.7c0,0.6,0.1,1.1,0.4,1.5
		c0.3,0.4,0.7,0.8,1.3,1s1.3,0.4,2.1,0.4c1.1,0,2-0.2,2.6-0.7c0.6-0.5,0.9-1.1,0.9-1.9c0-0.6-0.2-1-0.5-1.4
		c-0.3-0.3-0.7-0.6-1.2-0.8c-0.5-0.2-1.1-0.4-1.7-0.5c-0.6-0.1-1.2-0.3-1.9-0.4c-0.6-0.2-1.2-0.4-1.7-0.7c-0.5-0.3-0.9-0.7-1.2-1.2
		s-0.5-1.2-0.5-1.9c0-1.2,0.4-2.2,1.3-2.9s2.1-1.1,3.6-1.1c1,0,1.9,0.2,2.7,0.5c0.8,0.3,1.4,0.8,1.8,1.5c0.4,0.6,0.7,1.4,0.7,2.2
		H285c0-0.8-0.3-1.5-1-2c-0.6-0.5-1.5-0.8-2.4-0.8c-1,0-1.8,0.2-2.4,0.7c-0.6,0.4-0.9,1.1-0.9,1.8c0,0.6,0.2,1,0.5,1.4
		c0.3,0.3,0.7,0.6,1.2,0.8c0.5,0.2,1.1,0.3,1.7,0.4c0.6,0.1,1.2,0.3,1.9,0.4c0.6,0.2,1.2,0.4,1.7,0.7c0.5,0.3,0.9,0.7,1.2,1.2
		s0.5,1.2,0.5,2c0,1.3-0.5,2.3-1.4,3C284.7,248.4,283.4,248.8,281.8,248.8z"/>
	<path class="st0" d="M303.2,248.8c-1,0-1.9-0.2-2.7-0.5c-0.8-0.4-1.5-0.9-2.1-1.5s-1-1.5-1.4-2.4c-0.3-0.9-0.5-1.9-0.5-3
		c0-1.5,0.3-2.8,0.8-3.9c0.6-1.1,1.3-2,2.3-2.6c1-0.6,2.2-0.9,3.5-0.9c1.3,0,2.4,0.3,3.3,0.9c1,0.6,1.7,1.5,2.2,2.6
		c0.5,1.1,0.8,2.4,0.8,4s-0.3,2.9-0.8,4c-0.5,1.1-1.3,2-2.2,2.6C305.6,248.5,304.5,248.8,303.2,248.8z M303.9,255.1
		c-1.4,0-2.5-0.2-3.4-0.6s-1.6-0.9-2.1-1.6c-0.5-0.7-0.8-1.5-0.9-2.4h1.7c0.1,0.6,0.3,1.1,0.7,1.6c0.3,0.5,0.8,0.9,1.5,1.1
		s1.5,0.4,2.6,0.4c1,0,1.9-0.2,2.6-0.5c0.7-0.3,1.2-0.8,1.6-1.5s0.5-1.5,0.5-2.5v-5.5l0.5-2.3l-0.4-2.2v-5h1.7v15
		c0,1.3-0.3,2.4-0.8,3.3c-0.5,0.9-1.2,1.6-2.2,2.1C306.5,254.8,305.3,255.1,303.9,255.1z M303.5,247.3c1,0,1.9-0.3,2.7-0.8
		c0.8-0.5,1.4-1.2,1.8-2.1c0.4-0.9,0.6-2,0.6-3.2c0-0.9-0.1-1.7-0.4-2.5c-0.2-0.7-0.6-1.4-1.1-1.9c-0.5-0.5-1-0.9-1.6-1.2
		c-0.6-0.3-1.3-0.4-2.1-0.4c-1,0-2,0.3-2.7,0.8s-1.4,1.2-1.8,2.1c-0.4,0.9-0.6,2-0.6,3.2c0,1.2,0.2,2.2,0.6,3.1
		c0.4,0.9,1,1.6,1.8,2.1C301.5,247.1,302.4,247.3,303.5,247.3z"/>
	<path class="st0" d="M321.3,248.8c-1.4,0-2.7-0.3-3.8-1c-1.1-0.6-2-1.5-2.6-2.6c-0.6-1.1-0.9-2.4-0.9-3.9c0-1.5,0.3-2.8,0.9-3.9
		c0.6-1.1,1.5-2,2.6-2.6c1.1-0.6,2.4-1,3.8-1c1.5,0,2.8,0.3,3.8,1c1.1,0.6,1.9,1.5,2.5,2.6c0.6,1.1,0.9,2.4,0.9,3.9
		c0,1.5-0.3,2.8-0.9,3.9c-0.6,1.1-1.4,2-2.5,2.6C324.1,248.5,322.8,248.8,321.3,248.8z M321.3,247.3c1.1,0,2.1-0.3,2.9-0.8
		c0.8-0.5,1.4-1.2,1.9-2.1c0.4-0.9,0.7-1.9,0.7-3.1c0-0.9-0.1-1.6-0.4-2.4c-0.2-0.7-0.6-1.4-1.1-1.9s-1.1-1-1.7-1.2
		s-1.4-0.4-2.3-0.4c-1.1,0-2.1,0.3-2.9,0.8c-0.8,0.5-1.5,1.2-1.9,2.1c-0.4,0.9-0.7,1.9-0.7,3.1c0,1.2,0.2,2.2,0.7,3.1
		c0.4,0.9,1.1,1.6,1.9,2.1C319.3,247,320.2,247.3,321.3,247.3z"/>
	<path class="st0" d="M338.7,248.8c-1.4,0-2.7-0.3-3.8-1c-1.1-0.6-2-1.5-2.6-2.6c-0.6-1.1-0.9-2.4-0.9-3.9c0-1.5,0.3-2.8,0.9-3.9
		c0.6-1.1,1.5-2,2.6-2.6c1.1-0.6,2.4-1,3.8-1c1.5,0,2.8,0.3,3.8,1c1.1,0.6,1.9,1.5,2.5,2.6c0.6,1.1,0.9,2.4,0.9,3.9
		c0,1.5-0.3,2.8-0.9,3.9c-0.6,1.1-1.4,2-2.5,2.6C341.4,248.5,340.1,248.8,338.7,248.8z M338.7,247.3c1.1,0,2.1-0.3,2.9-0.8
		c0.8-0.5,1.4-1.2,1.9-2.1c0.4-0.9,0.7-1.9,0.7-3.1c0-0.9-0.1-1.6-0.4-2.4c-0.2-0.7-0.6-1.4-1.1-1.9s-1.1-1-1.7-1.2
		s-1.4-0.4-2.3-0.4c-1.1,0-2.1,0.3-2.9,0.8c-0.8,0.5-1.5,1.2-1.9,2.1c-0.4,0.9-0.7,1.9-0.7,3.1c0,1.2,0.2,2.2,0.7,3.1
		c0.4,0.9,1.1,1.6,1.9,2.1C336.6,247,337.5,247.3,338.7,247.3z"/>
	<path class="st0" d="M355.3,248.8c-1,0-1.9-0.2-2.7-0.5c-0.8-0.4-1.5-0.9-2.1-1.5s-1-1.5-1.3-2.4c-0.3-0.9-0.5-1.9-0.5-3
		c0-1.5,0.3-2.8,0.8-3.9s1.3-2,2.3-2.6c1-0.6,2.2-0.9,3.5-0.9c1,0,1.8,0.2,2.6,0.5c0.8,0.3,1.5,0.9,2,1.5c0.6,0.7,1,1.4,1.3,2.4
		s0.5,1.9,0.5,3.1c0,1.5-0.3,2.9-0.8,4c-0.5,1.1-1.3,2-2.3,2.6C357.8,248.5,356.6,248.8,355.3,248.8z M355.7,247.3
		c1,0,1.9-0.3,2.7-0.8c0.8-0.5,1.4-1.2,1.8-2.1c0.4-0.9,0.6-2,0.6-3.2c0-0.9-0.1-1.7-0.4-2.5c-0.2-0.7-0.6-1.4-1.1-1.9
		c-0.5-0.5-1-0.9-1.6-1.2c-0.6-0.3-1.3-0.4-2.1-0.4c-1,0-2,0.3-2.7,0.8s-1.4,1.2-1.8,2.1c-0.4,0.9-0.6,2-0.6,3.2
		c0,1.2,0.2,2.2,0.6,3.1c0.4,0.9,1,1.6,1.8,2.1C353.7,247.1,354.6,247.3,355.7,247.3z M360.8,248.6v-5l0.5-2.4l-0.5-1.9v-12.6h1.7
		v21.9H360.8z"/>
	<path class="st0" d="M34.1,270.2v-1.4h10.2v1.4H34.1z M41.4,283.7c-0.8,0-1.4-0.1-2-0.2c-0.6-0.1-1-0.4-1.4-0.8
		c-0.4-0.4-0.6-0.9-0.8-1.5c-0.2-0.6-0.3-1.4-0.3-2.4v-15.5h1.7v15.5c0,0.9,0.1,1.6,0.3,2.1c0.2,0.5,0.5,0.8,0.9,1
		c0.4,0.2,1,0.2,1.7,0.2c0.4,0,0.8,0,1.3-0.1c0.5-0.1,0.9-0.3,1.3-0.5v1.7c-0.3,0.1-0.6,0.2-0.9,0.3c-0.3,0.1-0.7,0.1-1,0.2
		C42,283.6,41.7,283.7,41.4,283.7z"/>
	<path class="st0" d="M53.9,283.6c-1.4,0-2.7-0.3-3.8-1c-1.1-0.6-2-1.5-2.6-2.6c-0.6-1.1-0.9-2.4-0.9-3.9c0-1.5,0.3-2.8,0.9-3.9
		c0.6-1.1,1.5-2,2.6-2.6c1.1-0.6,2.4-1,3.8-1c1.5,0,2.8,0.3,3.8,1c1.1,0.6,1.9,1.5,2.5,2.6c0.6,1.1,0.9,2.4,0.9,3.9
		c0,1.5-0.3,2.8-0.9,3.9c-0.6,1.1-1.4,2-2.5,2.6C56.6,283.3,55.4,283.6,53.9,283.6z M53.9,282.1c1.1,0,2.1-0.3,2.9-0.8
		c0.8-0.5,1.4-1.2,1.9-2.1c0.4-0.9,0.7-1.9,0.7-3.1c0-0.9-0.1-1.6-0.4-2.4c-0.2-0.7-0.6-1.4-1.1-1.9c-0.5-0.5-1.1-1-1.7-1.2
		s-1.4-0.4-2.3-0.4c-1.1,0-2.1,0.3-2.9,0.8c-0.8,0.5-1.5,1.2-1.9,2.1c-0.4,0.9-0.7,1.9-0.7,3.1s0.2,2.2,0.7,3.1
		c0.4,0.9,1.1,1.6,1.9,2.1C51.8,281.8,52.8,282.1,53.9,282.1z"/>
	<path class="st0" d="M71.6,289.7v-20.9h1.7v4.7l-0.4,2.5l0.5,2v11.6H71.6z M78.8,283.6c-1.3,0-2.4-0.3-3.4-0.9
		c-1-0.6-1.7-1.5-2.3-2.6c-0.5-1.1-0.8-2.4-0.8-4s0.3-2.9,0.8-4c0.5-1.1,1.3-2,2.3-2.6s2.1-0.9,3.4-0.9c1,0,1.9,0.2,2.7,0.5
		c0.8,0.4,1.5,0.9,2.1,1.5s1,1.5,1.4,2.4s0.5,1.9,0.5,3c0,1.5-0.3,2.8-0.8,3.9s-1.3,2-2.3,2.6C81.3,283.3,80.1,283.6,78.8,283.6z
		 M78.5,282.1c1,0,2-0.3,2.7-0.8c0.8-0.5,1.4-1.2,1.8-2.1c0.4-0.9,0.7-2,0.7-3.1c0-1.2-0.2-2.3-0.7-3.2c-0.4-0.9-1-1.6-1.8-2.1
		c-0.8-0.5-1.7-0.8-2.7-0.8c-1,0-1.9,0.3-2.7,0.8c-0.8,0.5-1.4,1.2-1.8,2.1c-0.4,0.9-0.7,2-0.7,3.2c0,0.9,0.1,1.7,0.4,2.5
		c0.3,0.7,0.6,1.4,1.1,1.9c0.5,0.5,1,0.9,1.6,1.2C77,282,77.7,282.1,78.5,282.1z"/>
	<path class="st0" d="M89.1,283.4v-14.6h1.7v7.3h-0.5c0-1.6,0.3-2.9,0.7-4c0.4-1.1,1.1-1.9,1.9-2.5c0.8-0.6,1.8-0.9,3-0.9
		c0.2,0,0.3,0,0.4,0c0.1,0,0.3,0,0.4,0.1v1.7c-0.9,0-1.7,0.1-2.5,0.3c-0.7,0.2-1.4,0.5-1.9,1c-0.5,0.5-0.9,1.2-1.2,2.1
		c-0.3,0.9-0.4,2-0.4,3.4v6.2H89.1z"/>
	<path class="st0" d="M99.4,265v-2.5h2.5v2.5H99.4z M99.8,283.4v-14.6h1.7v14.6H99.8z"/>
	<path class="st0" d="M112.5,283.6c-1.4,0-2.7-0.3-3.8-1c-1.1-0.6-2-1.5-2.6-2.6c-0.6-1.1-0.9-2.4-0.9-3.9c0-1.5,0.3-2.8,0.9-3.9
		c0.6-1.1,1.5-2,2.6-2.6c1.1-0.6,2.4-1,3.8-1c1.5,0,2.8,0.3,3.8,1c1.1,0.6,1.9,1.5,2.5,2.6c0.6,1.1,0.9,2.4,0.9,3.9
		c0,1.5-0.3,2.8-0.9,3.9c-0.6,1.1-1.4,2-2.5,2.6C115.3,283.3,114,283.6,112.5,283.6z M112.5,282.1c1.1,0,2.1-0.3,2.9-0.8
		c0.8-0.5,1.4-1.2,1.9-2.1c0.4-0.9,0.7-1.9,0.7-3.1c0-0.9-0.1-1.6-0.4-2.4c-0.2-0.7-0.6-1.4-1.1-1.9c-0.5-0.5-1.1-1-1.7-1.2
		s-1.4-0.4-2.3-0.4c-1.1,0-2.1,0.3-2.9,0.8c-0.8,0.5-1.5,1.2-1.9,2.1c-0.4,0.9-0.7,1.9-0.7,3.1s0.2,2.2,0.7,3.1
		c0.4,0.9,1.1,1.6,1.9,2.1C110.4,281.8,111.4,282.1,112.5,282.1z"/>
	<path class="st0" d="M123.5,283.4v-14.6h1.7v7.3h-0.5c0-1.6,0.3-2.9,0.7-4c0.4-1.1,1.1-1.9,1.9-2.5c0.8-0.6,1.8-0.9,3-0.9
		c0.2,0,0.3,0,0.4,0c0.1,0,0.3,0,0.4,0.1v1.7c-0.9,0-1.7,0.1-2.5,0.3c-0.7,0.2-1.4,0.5-1.9,1c-0.5,0.5-0.9,1.2-1.2,2.1
		c-0.3,0.9-0.4,2-0.4,3.4v6.2H123.5z"/>
	<path class="st0" d="M133.8,265v-2.5h2.5v2.5H133.8z M134.2,283.4v-14.6h1.7v14.6H134.2z"/>
	<path class="st0" d="M138.6,270.2v-1.4h10.2v1.4H138.6z M146,283.7c-0.8,0-1.4-0.1-2-0.2c-0.6-0.1-1-0.4-1.4-0.8
		c-0.4-0.4-0.6-0.9-0.8-1.5c-0.2-0.6-0.3-1.4-0.3-2.4v-15.5h1.7v15.5c0,0.9,0.1,1.6,0.3,2.1c0.2,0.5,0.5,0.8,0.9,1
		c0.4,0.2,1,0.2,1.7,0.2c0.4,0,0.8,0,1.3-0.1c0.5-0.1,0.9-0.3,1.3-0.5v1.7c-0.3,0.1-0.6,0.2-0.9,0.3c-0.3,0.1-0.7,0.1-1,0.2
		C146.6,283.6,146.3,283.7,146,283.7z"/>
	<path class="st0" d="M151.8,265v-2.5h2.5v2.5H151.8z M152.2,283.4v-14.6h1.7v14.6H152.2z"/>
	<path class="st0" d="M157.7,283.4v-1.2l9.7-13l0.2,1h-9.5v-1.4H169v1.2l-9.7,13l-0.2-1h10.1v1.4H157.7z"/>
	<path class="st0" d="M178.8,283.6c-1.5,0-2.7-0.3-3.8-1c-1.1-0.6-1.9-1.5-2.5-2.6c-0.6-1.1-0.8-2.4-0.8-3.9c0-1.5,0.3-2.7,0.8-3.9
		c0.6-1.1,1.3-2,2.4-2.7c1-0.6,2.3-1,3.7-1c1.4,0,2.6,0.3,3.6,1c1,0.6,1.8,1.5,2.3,2.6c0.5,1.1,0.8,2.4,0.8,3.8v0.6h-12.6v-1.4h11.4
		l-0.4,0.6c0-1.1-0.2-2.1-0.6-3c-0.4-0.9-1-1.6-1.8-2s-1.7-0.7-2.7-0.7c-1,0-1.9,0.2-2.7,0.7c-0.8,0.5-1.4,1.2-1.8,2
		c-0.4,0.9-0.7,2-0.7,3.2c0,1.2,0.2,2.3,0.7,3.2c0.4,0.9,1.1,1.6,1.9,2.1c0.8,0.5,1.7,0.7,2.8,0.7c0.8,0,1.5-0.1,2.2-0.4
		c0.6-0.3,1.2-0.6,1.6-1.1c0.4-0.5,0.7-1,0.9-1.6h1.7c-0.2,0.9-0.5,1.6-1.1,2.3s-1.3,1.2-2.2,1.6C181,283.4,180,283.6,178.8,283.6z"
		/>
	<path class="st0" d="M202,283.6c-1.5,0-2.7-0.3-3.8-1c-1.1-0.6-1.9-1.5-2.5-2.6c-0.6-1.1-0.8-2.4-0.8-3.9c0-1.5,0.3-2.7,0.8-3.9
		c0.6-1.1,1.3-2,2.4-2.7c1-0.6,2.3-1,3.7-1c1.4,0,2.6,0.3,3.6,1c1,0.6,1.8,1.5,2.3,2.6c0.5,1.1,0.8,2.4,0.8,3.8v0.6H196v-1.4h11.4
		l-0.4,0.6c0-1.1-0.2-2.1-0.6-3c-0.4-0.9-1-1.6-1.8-2s-1.7-0.7-2.7-0.7c-1,0-1.9,0.2-2.7,0.7c-0.8,0.5-1.4,1.2-1.8,2
		c-0.4,0.9-0.7,2-0.7,3.2c0,1.2,0.2,2.3,0.7,3.2c0.4,0.9,1.1,1.6,1.9,2.1c0.8,0.5,1.7,0.7,2.8,0.7c0.8,0,1.5-0.1,2.2-0.4
		c0.6-0.3,1.2-0.6,1.6-1.1c0.4-0.5,0.7-1,0.9-1.6h1.7c-0.2,0.9-0.5,1.6-1.1,2.3s-1.3,1.2-2.2,1.6C204.1,283.4,203.1,283.6,202,283.6
		z"/>
	<path class="st0" d="M218,283.6c-1,0-1.9-0.2-2.7-0.5s-1.5-0.9-2.1-1.5s-1-1.5-1.3-2.4c-0.3-0.9-0.5-1.9-0.5-3
		c0-1.5,0.3-2.8,0.8-3.9s1.3-2,2.3-2.6c1-0.6,2.2-0.9,3.5-0.9c1,0,1.8,0.2,2.6,0.5s1.5,0.9,2,1.5c0.6,0.7,1,1.4,1.3,2.4
		c0.3,0.9,0.5,1.9,0.5,3.1c0,1.5-0.3,2.9-0.8,4c-0.5,1.1-1.3,2-2.3,2.6C220.4,283.3,219.3,283.6,218,283.6z M218.3,282.1
		c1,0,1.9-0.3,2.7-0.8c0.8-0.5,1.4-1.2,1.8-2.1c0.4-0.9,0.6-2,0.6-3.2c0-0.9-0.1-1.7-0.4-2.5c-0.2-0.7-0.6-1.4-1.1-1.9
		c-0.5-0.5-1-0.9-1.6-1.2c-0.6-0.3-1.3-0.4-2.1-0.4c-1,0-2,0.3-2.7,0.8c-0.8,0.5-1.4,1.2-1.8,2.1c-0.4,0.9-0.6,2-0.6,3.2
		c0,1.2,0.2,2.2,0.6,3.1c0.4,0.9,1,1.6,1.8,2.1C216.3,281.9,217.2,282.1,218.3,282.1z M223.5,283.4v-6l0.4-1.3l-0.4-2.2v-5h1.7v14.6
		H223.5z"/>
	<path class="st0" d="M227.9,270.2v-1.4h10.2v1.4H227.9z M235.3,283.7c-0.8,0-1.4-0.1-2-0.2c-0.6-0.1-1-0.4-1.4-0.8
		c-0.4-0.4-0.6-0.9-0.8-1.5c-0.2-0.6-0.3-1.4-0.3-2.4v-15.5h1.7v15.5c0,0.9,0.1,1.6,0.3,2.1c0.2,0.5,0.5,0.8,0.9,1
		c0.4,0.2,1,0.2,1.7,0.2c0.4,0,0.8,0,1.3-0.1c0.5-0.1,0.9-0.3,1.3-0.5v1.7c-0.3,0.1-0.6,0.2-0.9,0.3c-0.3,0.1-0.7,0.1-1,0.2
		C235.8,283.6,235.5,283.7,235.3,283.7z"/>
	<path class="st0" d="M241,265v-2.5h2.5v2.5H241z M241.4,283.4v-14.6h1.7v14.6H241.4z"/>
	<path class="st0" d="M247.9,283.4v-14.6h1.7v6.7H249c0-1.4,0.2-2.7,0.7-3.7s1.1-1.8,2-2.4c0.9-0.6,1.9-0.8,3.1-0.8
		c0.9,0,1.7,0.1,2.3,0.4c0.7,0.2,1.2,0.6,1.7,1.1c0.5,0.5,0.8,1.2,1,1.9c0.2,0.8,0.3,1.7,0.3,2.7v8.6h-1.7v-8c0-1-0.1-1.9-0.3-2.5
		c-0.2-0.7-0.5-1.2-0.8-1.6c-0.4-0.4-0.8-0.7-1.3-0.8c-0.5-0.2-1.1-0.2-1.8-0.2c-0.8,0-1.6,0.2-2.3,0.7s-1.3,1.2-1.7,2.1
		c-0.4,1-0.6,2.2-0.6,3.8v6.6H247.9z"/>
	<path class="st0" d="M270.2,283.6c-1,0-1.9-0.2-2.7-0.5c-0.8-0.4-1.5-0.9-2.1-1.5s-1-1.5-1.4-2.4c-0.3-0.9-0.5-1.9-0.5-3
		c0-1.5,0.3-2.8,0.8-3.9c0.6-1.1,1.3-2,2.3-2.6c1-0.6,2.2-0.9,3.5-0.9c1.3,0,2.4,0.3,3.3,0.9s1.7,1.5,2.2,2.6c0.5,1.1,0.8,2.4,0.8,4
		s-0.3,2.9-0.8,4c-0.5,1.1-1.3,2-2.2,2.6C272.6,283.3,271.5,283.6,270.2,283.6z M270.9,289.9c-1.4,0-2.5-0.2-3.4-0.6
		c-0.9-0.4-1.6-0.9-2.1-1.6s-0.8-1.5-0.9-2.4h1.7c0.1,0.6,0.3,1.1,0.7,1.6s0.8,0.9,1.5,1.1c0.6,0.3,1.5,0.4,2.6,0.4
		c1,0,1.9-0.2,2.6-0.5c0.7-0.3,1.2-0.8,1.6-1.5s0.5-1.5,0.5-2.5v-5.5l0.5-2.3l-0.4-2.2v-5h1.7v15c0,1.3-0.3,2.4-0.8,3.3
		c-0.5,0.9-1.2,1.6-2.2,2.1S272.3,289.9,270.9,289.9z M270.5,282.1c1,0,1.9-0.3,2.7-0.8c0.8-0.5,1.4-1.2,1.8-2.1
		c0.4-0.9,0.6-2,0.6-3.2c0-0.9-0.1-1.7-0.4-2.5c-0.2-0.7-0.6-1.4-1.1-1.9c-0.5-0.5-1-0.9-1.6-1.2c-0.6-0.3-1.3-0.4-2.1-0.4
		c-1,0-2,0.3-2.7,0.8c-0.8,0.5-1.4,1.2-1.8,2.1c-0.4,0.9-0.6,2-0.6,3.2c0,1.2,0.2,2.2,0.6,3.1c0.4,0.9,1,1.6,1.8,2.1
		C268.5,281.9,269.4,282.1,270.5,282.1z"/>
	<path class="st0" d="M36,318.2v-21.9h1.7v12.6l-0.6,2l0.5,2.4v4.9H36z M43.3,318.4c-1,0-1.9-0.2-2.7-0.5c-0.8-0.3-1.5-0.9-2-1.5
		c-0.6-0.7-1-1.4-1.3-2.4c-0.3-0.9-0.5-1.9-0.5-3.1c0-1.5,0.3-2.9,0.8-4c0.5-1.1,1.3-2,2.3-2.6c1-0.6,2.1-0.9,3.4-0.9
		c1,0,1.9,0.2,2.7,0.5c0.8,0.4,1.5,0.9,2.1,1.5s1,1.5,1.4,2.4c0.3,0.9,0.5,1.9,0.5,3c0,1.5-0.3,2.8-0.8,3.9c-0.6,1.1-1.3,2-2.3,2.6
		C45.8,318.1,44.6,318.4,43.3,318.4z M43,316.9c1,0,2-0.3,2.7-0.8c0.8-0.5,1.4-1.2,1.8-2.1c0.4-0.9,0.7-2,0.7-3.1
		c0-1.2-0.2-2.3-0.7-3.2c-0.4-0.9-1-1.6-1.8-2.1s-1.7-0.8-2.7-0.8c-1,0-1.9,0.3-2.7,0.8s-1.4,1.2-1.8,2.1c-0.4,0.9-0.7,2-0.7,3.2
		c0,0.9,0.1,1.7,0.4,2.5c0.3,0.7,0.6,1.4,1.1,1.9c0.5,0.5,1,0.9,1.6,1.2C41.5,316.8,42.2,316.9,43,316.9z"/>
	<path class="st0" d="M59.3,318.4c-1,0-1.9-0.2-2.7-0.5c-0.8-0.4-1.5-0.9-2.1-1.5s-1-1.5-1.3-2.4c-0.3-0.9-0.5-1.9-0.5-3
		c0-1.5,0.3-2.8,0.8-3.9c0.6-1.1,1.3-2,2.3-2.6c1-0.6,2.2-0.9,3.5-0.9c1,0,1.8,0.2,2.6,0.5c0.8,0.3,1.5,0.9,2,1.5
		c0.6,0.7,1,1.4,1.3,2.4s0.5,1.9,0.5,3.1c0,1.5-0.3,2.9-0.8,4c-0.5,1.1-1.3,2-2.3,2.6C61.7,318.1,60.6,318.4,59.3,318.4z
		 M59.6,316.9c1,0,1.9-0.3,2.7-0.8c0.8-0.5,1.4-1.2,1.8-2.1c0.4-0.9,0.6-2,0.6-3.2c0-0.9-0.1-1.7-0.4-2.5c-0.2-0.7-0.6-1.4-1.1-1.9
		c-0.5-0.5-1-0.9-1.6-1.2c-0.6-0.3-1.3-0.4-2.1-0.4c-1,0-2,0.3-2.7,0.8s-1.4,1.2-1.8,2.1c-0.4,0.9-0.6,2-0.6,3.2
		c0,1.2,0.2,2.2,0.6,3.1c0.4,0.9,1,1.6,1.8,2.1C57.6,316.7,58.6,316.9,59.6,316.9z M64.8,318.2v-6l0.4-1.3l-0.4-2.2v-5h1.7v14.6
		H64.8z"/>
	<path class="st0" d="M71.2,318.2v-21.9h1.7v21.9H71.2z"/>
	<path class="st0" d="M83.3,318.4c-1,0-1.9-0.2-2.7-0.5c-0.8-0.4-1.5-0.9-2.1-1.5s-1-1.5-1.3-2.4c-0.3-0.9-0.5-1.9-0.5-3
		c0-1.5,0.3-2.8,0.8-3.9c0.6-1.1,1.3-2,2.3-2.6c1-0.6,2.2-0.9,3.5-0.9c1,0,1.8,0.2,2.6,0.5c0.8,0.3,1.5,0.9,2,1.5
		c0.6,0.7,1,1.4,1.3,2.4s0.5,1.9,0.5,3.1c0,1.5-0.3,2.9-0.8,4c-0.5,1.1-1.3,2-2.3,2.6C85.7,318.1,84.6,318.4,83.3,318.4z
		 M83.6,316.9c1,0,1.9-0.3,2.7-0.8c0.8-0.5,1.4-1.2,1.8-2.1c0.4-0.9,0.6-2,0.6-3.2c0-0.9-0.1-1.7-0.4-2.5c-0.2-0.7-0.6-1.4-1.1-1.9
		c-0.5-0.5-1-0.9-1.6-1.2c-0.6-0.3-1.3-0.4-2.1-0.4c-1,0-2,0.3-2.7,0.8s-1.4,1.2-1.8,2.1c-0.4,0.9-0.6,2-0.6,3.2
		c0,1.2,0.2,2.2,0.6,3.1c0.4,0.9,1,1.6,1.8,2.1C81.7,316.7,82.6,316.9,83.6,316.9z M88.8,318.2v-6l0.4-1.3l-0.4-2.2v-5h1.7v14.6
		H88.8z"/>
	<path class="st0" d="M95.2,318.2v-14.6h1.7v6.7h-0.6c0-1.4,0.2-2.7,0.7-3.7c0.5-1,1.1-1.8,2-2.4c0.9-0.6,1.9-0.8,3.1-0.8
		c0.9,0,1.7,0.1,2.3,0.4c0.7,0.2,1.2,0.6,1.7,1.1c0.5,0.5,0.8,1.2,1,1.9c0.2,0.8,0.3,1.7,0.3,2.7v8.6h-1.7v-8c0-1-0.1-1.9-0.3-2.5
		c-0.2-0.7-0.5-1.2-0.8-1.6c-0.4-0.4-0.8-0.7-1.3-0.8c-0.5-0.2-1.1-0.2-1.8-0.2c-0.8,0-1.6,0.2-2.3,0.7c-0.7,0.4-1.3,1.2-1.7,2.1
		c-0.4,1-0.6,2.2-0.6,3.8v6.6H95.2z"/>
	<path class="st0" d="M117.7,318.4c-1.5,0-2.7-0.3-3.8-1c-1-0.6-1.8-1.5-2.3-2.6c-0.5-1.1-0.8-2.4-0.8-3.9c0-1.4,0.3-2.7,0.8-3.9
		c0.5-1.1,1.3-2,2.3-2.7c1-0.6,2.3-1,3.7-1c1.1,0,2.1,0.2,2.9,0.6c0.9,0.4,1.6,1,2.2,1.7c0.6,0.7,1,1.5,1.1,2.5h-1.7
		c-0.2-0.7-0.5-1.2-0.9-1.7c-0.4-0.5-0.9-0.9-1.6-1.1c-0.6-0.3-1.3-0.4-2.1-0.4c-1.1,0-2,0.3-2.8,0.8s-1.3,1.2-1.7,2.1
		c-0.4,0.9-0.6,1.9-0.6,3.1s0.2,2.2,0.6,3.1s0.9,1.6,1.7,2.1c0.7,0.5,1.7,0.8,2.8,0.8c1.2,0,2.2-0.3,3-0.9c0.8-0.6,1.3-1.5,1.6-2.7
		h1.7c-0.2,1.1-0.5,2-1.1,2.7c-0.6,0.8-1.3,1.3-2.1,1.7C119.8,318.2,118.8,318.4,117.7,318.4z"/>
	<path class="st0" d="M133.5,318.4c-1.5,0-2.7-0.3-3.8-1s-1.9-1.5-2.5-2.6c-0.6-1.1-0.8-2.4-0.8-3.9c0-1.4,0.3-2.7,0.8-3.9
		s1.3-2,2.4-2.7c1-0.6,2.3-1,3.7-1c1.4,0,2.6,0.3,3.6,1c1,0.6,1.8,1.5,2.3,2.6c0.5,1.1,0.8,2.4,0.8,3.8v0.6h-12.6V310h11.4l-0.4,0.6
		c0-1.1-0.2-2.1-0.6-3c-0.4-0.9-1-1.6-1.8-2c-0.8-0.5-1.7-0.7-2.7-0.7c-1,0-1.9,0.2-2.7,0.7c-0.8,0.5-1.4,1.2-1.8,2
		c-0.4,0.9-0.7,2-0.7,3.2c0,1.2,0.2,2.3,0.7,3.2c0.4,0.9,1.1,1.6,1.9,2.1c0.8,0.5,1.7,0.7,2.8,0.7c0.8,0,1.5-0.1,2.2-0.4
		c0.6-0.3,1.2-0.6,1.6-1.1c0.4-0.5,0.7-1,0.9-1.6h1.7c-0.2,0.9-0.5,1.6-1.1,2.3s-1.3,1.2-2.2,1.6
		C135.7,318.2,134.7,318.4,133.5,318.4z"/>
	<path class="st0" d="M149.5,318.4c-1,0-1.9-0.2-2.7-0.5c-0.8-0.4-1.5-0.9-2.1-1.5s-1-1.5-1.3-2.4c-0.3-0.9-0.5-1.9-0.5-3
		c0-1.5,0.3-2.8,0.8-3.9c0.6-1.1,1.3-2,2.3-2.6c1-0.6,2.2-0.9,3.5-0.9c1,0,1.8,0.2,2.6,0.5c0.8,0.3,1.5,0.9,2,1.5
		c0.6,0.7,1,1.4,1.3,2.4s0.5,1.9,0.5,3.1c0,1.5-0.3,2.9-0.8,4c-0.5,1.1-1.3,2-2.3,2.6C152,318.1,150.8,318.4,149.5,318.4z
		 M149.8,316.9c1,0,1.9-0.3,2.7-0.8c0.8-0.5,1.4-1.2,1.8-2.1c0.4-0.9,0.6-2,0.6-3.2c0-0.9-0.1-1.7-0.4-2.5c-0.2-0.7-0.6-1.4-1.1-1.9
		c-0.5-0.5-1-0.9-1.6-1.2c-0.6-0.3-1.3-0.4-2.1-0.4c-1,0-2,0.3-2.7,0.8s-1.4,1.2-1.8,2.1c-0.4,0.9-0.6,2-0.6,3.2
		c0,1.2,0.2,2.2,0.6,3.1c0.4,0.9,1,1.6,1.8,2.1C147.9,316.7,148.8,316.9,149.8,316.9z M155,318.2v-5l0.5-2.4l-0.5-1.9v-12.6h1.7
		v21.9H155z"/>
	<path class="st0" d="M168.1,318.2v-14.6h1.7v6.7h-0.6c0-1.4,0.2-2.7,0.6-3.7c0.4-1,1-1.8,1.8-2.4c0.8-0.6,1.7-0.8,2.8-0.8
		c0.8,0,1.5,0.1,2.1,0.4c0.6,0.2,1.1,0.6,1.6,1.1c0.4,0.5,0.7,1.1,1,1.9c0.2,0.8,0.3,1.6,0.3,2.7h-0.9c0.1-1.3,0.4-2.4,0.9-3.3
		c0.5-0.9,1.1-1.6,2-2c0.8-0.5,1.7-0.7,2.7-0.7c0.8,0,1.6,0.1,2.2,0.4c0.6,0.3,1.2,0.6,1.6,1.1s0.8,1.2,1,1.9
		c0.2,0.8,0.3,1.7,0.3,2.7v8.6h-1.7v-8c0-1-0.1-1.9-0.3-2.6c-0.2-0.7-0.4-1.2-0.8-1.6s-0.7-0.7-1.2-0.8c-0.5-0.2-1-0.2-1.5-0.2
		c-0.7,0-1.4,0.2-2.1,0.7c-0.6,0.4-1.2,1.2-1.6,2.1s-0.6,2.2-0.6,3.8v6.6h-1.7v-8c0-1-0.1-1.9-0.3-2.5c-0.2-0.7-0.4-1.2-0.7-1.6
		c-0.3-0.4-0.7-0.7-1.2-0.8c-0.5-0.2-1-0.2-1.5-0.2c-0.7,0-1.4,0.2-2.1,0.7c-0.6,0.4-1.2,1.2-1.6,2.1c-0.4,1-0.6,2.2-0.6,3.8v6.6
		H168.1z"/>
	<path class="st0" d="M199.8,318.4c-1.5,0-2.7-0.3-3.8-1s-1.9-1.5-2.5-2.6c-0.6-1.1-0.8-2.4-0.8-3.9c0-1.4,0.3-2.7,0.8-3.9
		s1.3-2,2.4-2.7c1-0.6,2.3-1,3.7-1c1.4,0,2.6,0.3,3.6,1c1,0.6,1.8,1.5,2.3,2.6c0.5,1.1,0.8,2.4,0.8,3.8v0.6h-12.6V310h11.4l-0.4,0.6
		c0-1.1-0.2-2.1-0.6-3c-0.4-0.9-1-1.6-1.8-2c-0.8-0.5-1.7-0.7-2.7-0.7c-1,0-1.9,0.2-2.7,0.7c-0.8,0.5-1.4,1.2-1.8,2
		c-0.4,0.9-0.7,2-0.7,3.2c0,1.2,0.2,2.3,0.7,3.2c0.4,0.9,1.1,1.6,1.9,2.1c0.8,0.5,1.7,0.7,2.8,0.7c0.8,0,1.5-0.1,2.2-0.4
		c0.6-0.3,1.2-0.6,1.6-1.1c0.4-0.5,0.7-1,0.9-1.6h1.7c-0.2,0.9-0.5,1.6-1.1,2.3s-1.3,1.2-2.2,1.6
		C201.9,318.2,200.9,318.4,199.8,318.4z"/>
	<path class="st0" d="M215.8,318.4c-1,0-1.9-0.2-2.7-0.5c-0.8-0.4-1.5-0.9-2.1-1.5s-1-1.5-1.3-2.4c-0.3-0.9-0.5-1.9-0.5-3
		c0-1.5,0.3-2.8,0.8-3.9c0.6-1.1,1.3-2,2.3-2.6c1-0.6,2.2-0.9,3.5-0.9c1,0,1.8,0.2,2.6,0.5c0.8,0.3,1.5,0.9,2,1.5
		c0.6,0.7,1,1.4,1.3,2.4s0.5,1.9,0.5,3.1c0,1.5-0.3,2.9-0.8,4c-0.5,1.1-1.3,2-2.3,2.6C218.2,318.1,217.1,318.4,215.8,318.4z
		 M216.1,316.9c1,0,1.9-0.3,2.7-0.8c0.8-0.5,1.4-1.2,1.8-2.1c0.4-0.9,0.6-2,0.6-3.2c0-0.9-0.1-1.7-0.4-2.5c-0.2-0.7-0.6-1.4-1.1-1.9
		c-0.5-0.5-1-0.9-1.6-1.2c-0.6-0.3-1.3-0.4-2.1-0.4c-1,0-2,0.3-2.7,0.8s-1.4,1.2-1.8,2.1c-0.4,0.9-0.6,2-0.6,3.2
		c0,1.2,0.2,2.2,0.6,3.1c0.4,0.9,1,1.6,1.8,2.1C214.1,316.7,215,316.9,216.1,316.9z M221.3,318.2v-6l0.4-1.3l-0.4-2.2v-5h1.7v14.6
		H221.3z"/>
	<path class="st0" d="M227.7,318.2v-21.9h1.7v21.9H227.7z"/>
	<path class="st0" d="M238.7,318.4c-1.2,0-2.2-0.2-3-0.6c-0.8-0.4-1.5-0.9-1.9-1.5c-0.4-0.7-0.7-1.4-0.7-2.3h1.7
		c0,0.6,0.1,1.1,0.4,1.5c0.3,0.4,0.7,0.8,1.3,1c0.6,0.3,1.3,0.4,2.1,0.4c1.1,0,2-0.2,2.6-0.7c0.6-0.5,0.9-1.1,0.9-1.9
		c0-0.6-0.2-1-0.5-1.4c-0.3-0.3-0.7-0.6-1.2-0.8c-0.5-0.2-1.1-0.4-1.7-0.5c-0.6-0.1-1.2-0.3-1.9-0.4c-0.6-0.2-1.2-0.4-1.7-0.7
		c-0.5-0.3-0.9-0.7-1.2-1.2c-0.3-0.5-0.5-1.1-0.5-1.9c0-1.2,0.4-2.2,1.3-2.9c0.9-0.7,2.1-1.1,3.6-1.1c1,0,1.9,0.2,2.7,0.5
		c0.8,0.3,1.4,0.8,1.8,1.5c0.4,0.6,0.7,1.4,0.7,2.2h-1.7c0-0.8-0.3-1.5-1-2c-0.6-0.5-1.5-0.8-2.4-0.8c-1,0-1.8,0.2-2.4,0.7
		c-0.6,0.4-0.9,1.1-0.9,1.8c0,0.6,0.2,1,0.5,1.4c0.3,0.3,0.7,0.6,1.2,0.8c0.5,0.2,1.1,0.3,1.7,0.4c0.6,0.1,1.2,0.3,1.9,0.4
		c0.6,0.2,1.2,0.4,1.7,0.7c0.5,0.3,0.9,0.7,1.2,1.2c0.3,0.5,0.5,1.2,0.5,2c0,1.3-0.5,2.3-1.4,3C241.6,318,240.3,318.4,238.7,318.4z"
		/>
	<path class="st0" d="M257,318.3l-4.8-14.6h1.8l3.7,11.8l4.3-11.9h1.3l4.3,11.7l3.7-11.7h1.8l-4.8,14.6H267l-4.4-11.9l-4.3,11.9H257
		z"/>
	<path class="st0" d="M275.3,299.8v-2.5h2.5v2.5H275.3z M275.6,318.2v-14.6h1.7v14.6H275.6z"/>
	<path class="st0" d="M280.1,305v-1.4h10.2v1.4H280.1z M287.5,318.5c-0.8,0-1.4-0.1-2-0.2c-0.6-0.1-1-0.4-1.4-0.8
		c-0.4-0.4-0.6-0.9-0.8-1.5s-0.3-1.4-0.3-2.4v-15.5h1.7v15.5c0,0.9,0.1,1.6,0.3,2.1c0.2,0.5,0.5,0.8,0.9,1c0.4,0.2,1,0.2,1.7,0.2
		c0.4,0,0.8,0,1.3-0.1c0.5-0.1,0.9-0.3,1.3-0.5v1.7c-0.3,0.1-0.6,0.2-0.9,0.3c-0.3,0.1-0.7,0.1-1,0.2
		C288,318.4,287.7,318.5,287.5,318.5z"/>
	<path class="st0" d="M293.6,318.2v-21.9h1.7v14.1h-0.6c0-1.4,0.2-2.7,0.7-3.7c0.5-1,1.1-1.8,2-2.4c0.9-0.6,1.9-0.8,3.1-0.8
		c0.9,0,1.7,0.1,2.3,0.4c0.7,0.2,1.2,0.6,1.7,1.1c0.5,0.5,0.8,1.2,1,1.9c0.2,0.8,0.3,1.7,0.3,2.7v8.6h-1.7v-8c0-1-0.1-1.9-0.3-2.5
		c-0.2-0.7-0.5-1.2-0.8-1.6c-0.4-0.4-0.8-0.7-1.3-0.8c-0.5-0.2-1.1-0.2-1.8-0.2c-0.8,0-1.6,0.2-2.3,0.7c-0.7,0.4-1.3,1.2-1.7,2.1
		c-0.4,1-0.6,2.2-0.6,3.8v6.6H293.6z"/>
	<path class="st0" d="M321.5,318.4c-1.2,0-2.2-0.2-3-0.6c-0.8-0.4-1.5-0.9-1.9-1.5c-0.4-0.7-0.7-1.4-0.7-2.3h1.7
		c0,0.6,0.1,1.1,0.4,1.5c0.3,0.4,0.7,0.8,1.3,1c0.6,0.3,1.3,0.4,2.1,0.4c1.1,0,2-0.2,2.6-0.7c0.6-0.5,0.9-1.1,0.9-1.9
		c0-0.6-0.2-1-0.5-1.4c-0.3-0.3-0.7-0.6-1.2-0.8c-0.5-0.2-1.1-0.4-1.7-0.5c-0.6-0.1-1.2-0.3-1.9-0.4c-0.6-0.2-1.2-0.4-1.7-0.7
		c-0.5-0.3-0.9-0.7-1.2-1.2c-0.3-0.5-0.5-1.1-0.5-1.9c0-1.2,0.4-2.2,1.3-2.9c0.9-0.7,2.1-1.1,3.6-1.1c1,0,1.9,0.2,2.7,0.5
		c0.8,0.3,1.4,0.8,1.8,1.5c0.4,0.6,0.7,1.4,0.7,2.2h-1.7c0-0.8-0.3-1.5-1-2c-0.6-0.5-1.5-0.8-2.4-0.8c-1,0-1.8,0.2-2.4,0.7
		c-0.6,0.4-0.9,1.1-0.9,1.8c0,0.6,0.2,1,0.5,1.4c0.3,0.3,0.7,0.6,1.2,0.8c0.5,0.2,1.1,0.3,1.7,0.4c0.6,0.1,1.2,0.3,1.9,0.4
		c0.6,0.2,1.2,0.4,1.7,0.7c0.5,0.3,0.9,0.7,1.2,1.2c0.3,0.5,0.5,1.2,0.5,2c0,1.3-0.5,2.3-1.4,3C324.4,318,323.1,318.4,321.5,318.4z"
		/>
	<path class="st0" d="M336.2,318.4c-1,0-1.9-0.2-2.7-0.5c-0.8-0.4-1.5-0.9-2.1-1.5s-1-1.5-1.3-2.4c-0.3-0.9-0.5-1.9-0.5-3
		c0-1.5,0.3-2.8,0.8-3.9c0.6-1.1,1.3-2,2.3-2.6c1-0.6,2.2-0.9,3.5-0.9c1,0,1.8,0.2,2.6,0.5c0.8,0.3,1.5,0.9,2,1.5
		c0.6,0.7,1,1.4,1.3,2.4s0.5,1.9,0.5,3.1c0,1.5-0.3,2.9-0.8,4c-0.5,1.1-1.3,2-2.3,2.6C338.6,318.1,337.5,318.4,336.2,318.4z
		 M336.5,316.9c1,0,1.9-0.3,2.7-0.8c0.8-0.5,1.4-1.2,1.8-2.1c0.4-0.9,0.6-2,0.6-3.2c0-0.9-0.1-1.7-0.4-2.5c-0.2-0.7-0.6-1.4-1.1-1.9
		c-0.5-0.5-1-0.9-1.6-1.2c-0.6-0.3-1.3-0.4-2.1-0.4c-1,0-2,0.3-2.7,0.8s-1.4,1.2-1.8,2.1c-0.4,0.9-0.6,2-0.6,3.2
		c0,1.2,0.2,2.2,0.6,3.1c0.4,0.9,1,1.6,1.8,2.1C334.5,316.7,335.4,316.9,336.5,316.9z M341.6,318.2v-6l0.4-1.3l-0.4-2.2v-5h1.7v14.6
		H341.6z"/>
	<path class="st0" d="M346.2,305v-1.4h9.3v1.4H346.2z M348.8,318.2v-16.7c0-1.3,0.2-2.3,0.5-3.1c0.3-0.8,0.9-1.4,1.5-1.8
		c0.7-0.4,1.5-0.6,2.6-0.6c0.3,0,0.6,0,0.8,0.1c0.3,0,0.5,0.1,0.7,0.1c0.2,0.1,0.4,0.1,0.5,0.2v1.6c-0.3-0.2-0.6-0.3-1-0.4
		c-0.4-0.1-0.7-0.1-1.1-0.1c-1,0-1.7,0.3-2.2,1c-0.5,0.7-0.7,1.7-0.7,3v16.6H348.8z"/>
	<path class="st0" d="M363.9,318.4c-1.5,0-2.7-0.3-3.8-1s-1.9-1.5-2.5-2.6c-0.6-1.1-0.8-2.4-0.8-3.9c0-1.4,0.3-2.7,0.8-3.9
		s1.3-2,2.4-2.7c1-0.6,2.3-1,3.7-1c1.4,0,2.6,0.3,3.6,1c1,0.6,1.8,1.5,2.3,2.6c0.5,1.1,0.8,2.4,0.8,3.8v0.6h-12.6V310h11.4l-0.4,0.6
		c0-1.1-0.2-2.1-0.6-3c-0.4-0.9-1-1.6-1.8-2c-0.8-0.5-1.7-0.7-2.7-0.7c-1,0-1.9,0.2-2.7,0.7c-0.8,0.5-1.4,1.2-1.8,2
		c-0.4,0.9-0.7,2-0.7,3.2c0,1.2,0.2,2.3,0.7,3.2c0.4,0.9,1.1,1.6,1.9,2.1c0.8,0.5,1.7,0.7,2.8,0.7c0.8,0,1.5-0.1,2.2-0.4
		c0.6-0.3,1.2-0.6,1.6-1.1c0.4-0.5,0.7-1,0.9-1.6h1.7c-0.2,0.9-0.5,1.6-1.1,2.3s-1.3,1.2-2.2,1.6C366,318.2,365,318.4,363.9,318.4z"
		/>
	<path class="st0" d="M373.2,323.1l0.9-5h-1v-2.5h2.4v2.3l-1.4,5.1H373.2z"/>
	<path class="st0" d="M41.9,353.2c-1.5,0-2.7-0.3-3.8-1c-1-0.6-1.8-1.5-2.3-2.6c-0.5-1.1-0.8-2.4-0.8-3.9c0-1.4,0.3-2.7,0.8-3.9
		c0.5-1.1,1.3-2,2.3-2.7c1-0.6,2.3-1,3.7-1c1.1,0,2.1,0.2,2.9,0.6c0.9,0.4,1.6,1,2.2,1.7c0.6,0.7,1,1.5,1.1,2.5h-1.7
		c-0.2-0.7-0.5-1.2-0.9-1.7c-0.4-0.5-0.9-0.9-1.6-1.1c-0.6-0.3-1.3-0.4-2.1-0.4c-1.1,0-2,0.3-2.8,0.8s-1.3,1.2-1.7,2.1
		c-0.4,0.9-0.6,1.9-0.6,3.1s0.2,2.2,0.6,3.1s0.9,1.6,1.7,2.1c0.7,0.5,1.7,0.8,2.8,0.8c1.2,0,2.2-0.3,3-0.9c0.8-0.6,1.3-1.5,1.6-2.7
		h1.7c-0.2,1.1-0.5,2-1.1,2.7c-0.6,0.8-1.3,1.3-2.1,1.7C44.1,353,43,353.2,41.9,353.2z"/>
	<path class="st0" d="M51.6,353V331h1.7V353H51.6z"/>
	<path class="st0" d="M64.2,353.2c-1.5,0-2.7-0.3-3.8-1s-1.9-1.5-2.5-2.6c-0.6-1.1-0.8-2.4-0.8-3.9c0-1.4,0.3-2.7,0.8-3.9
		s1.3-2,2.4-2.7c1-0.6,2.3-1,3.7-1c1.4,0,2.6,0.3,3.6,1c1,0.6,1.8,1.5,2.3,2.6c0.5,1.1,0.8,2.4,0.8,3.8v0.6H58.2v-1.4h11.4l-0.4,0.6
		c0-1.1-0.2-2.1-0.6-3c-0.4-0.9-1-1.6-1.8-2c-0.8-0.5-1.7-0.7-2.7-0.7c-1,0-1.9,0.2-2.7,0.7c-0.8,0.5-1.4,1.2-1.8,2
		c-0.4,0.9-0.7,2-0.7,3.2c0,1.2,0.2,2.3,0.7,3.2c0.4,0.9,1.1,1.6,1.9,2.1c0.8,0.5,1.7,0.7,2.8,0.7c0.8,0,1.5-0.1,2.2-0.4
		c0.6-0.3,1.2-0.6,1.6-1.1c0.4-0.5,0.7-1,0.9-1.6h1.7c-0.2,0.9-0.5,1.6-1.1,2.3s-1.3,1.2-2.2,1.6C66.4,353,65.3,353.2,64.2,353.2z"
		/>
	<path class="st0" d="M80.2,353.2c-1,0-1.9-0.2-2.7-0.5c-0.8-0.4-1.5-0.9-2.1-1.5s-1-1.5-1.3-2.4c-0.3-0.9-0.5-1.9-0.5-3
		c0-1.5,0.3-2.8,0.8-3.9c0.6-1.1,1.3-2,2.3-2.6c1-0.6,2.2-0.9,3.5-0.9c1,0,1.8,0.2,2.6,0.5c0.8,0.3,1.5,0.9,2,1.5
		c0.6,0.7,1,1.4,1.3,2.4s0.5,1.9,0.5,3.1c0,1.5-0.3,2.9-0.8,4c-0.5,1.1-1.3,2-2.3,2.6C82.6,352.9,81.5,353.2,80.2,353.2z
		 M80.5,351.7c1,0,1.9-0.3,2.7-0.8c0.8-0.5,1.4-1.2,1.8-2.1c0.4-0.9,0.6-2,0.6-3.2c0-0.9-0.1-1.7-0.4-2.5c-0.2-0.7-0.6-1.4-1.1-1.9
		c-0.5-0.5-1-0.9-1.6-1.2c-0.6-0.3-1.3-0.4-2.1-0.4c-1,0-2,0.3-2.7,0.8s-1.4,1.2-1.8,2.1c-0.4,0.9-0.6,2-0.6,3.2
		c0,1.2,0.2,2.2,0.6,3.1c0.4,0.9,1,1.6,1.8,2.1C78.6,351.5,79.5,351.7,80.5,351.7z M85.7,353v-6l0.4-1.3l-0.4-2.2v-5h1.7V353H85.7z"
		/>
	<path class="st0" d="M92.1,353v-14.6h1.7v6.7h-0.6c0-1.4,0.2-2.7,0.7-3.7c0.5-1,1.1-1.8,2-2.4c0.9-0.6,1.9-0.8,3.1-0.8
		c0.9,0,1.7,0.1,2.3,0.4c0.7,0.2,1.2,0.6,1.7,1.1c0.5,0.5,0.8,1.2,1,1.9c0.2,0.8,0.3,1.7,0.3,2.7v8.6h-1.7v-8c0-1-0.1-1.9-0.3-2.5
		c-0.2-0.7-0.5-1.2-0.8-1.6c-0.4-0.4-0.8-0.7-1.3-0.8c-0.5-0.2-1.1-0.2-1.8-0.2c-0.8,0-1.6,0.2-2.3,0.7c-0.7,0.4-1.3,1.2-1.7,2.1
		c-0.4,1-0.6,2.2-0.6,3.8v6.6H92.1z"/>
	<path class="st0" d="M118.1,353.1l-4.8-14.6h1.8l3.7,11.8l4.3-11.9h1.3l4.3,11.7l3.7-11.7h1.8l-4.8,14.6h-1.2l-4.4-11.9l-4.3,11.9
		H118.1z"/>
	<path class="st0" d="M142.2,353.2c-1,0-1.9-0.2-2.7-0.5c-0.8-0.4-1.5-0.9-2.1-1.5s-1-1.5-1.3-2.4c-0.3-0.9-0.5-1.9-0.5-3
		c0-1.5,0.3-2.8,0.8-3.9c0.6-1.1,1.3-2,2.3-2.6c1-0.6,2.2-0.9,3.5-0.9c1,0,1.8,0.2,2.6,0.5c0.8,0.3,1.5,0.9,2,1.5
		c0.6,0.7,1,1.4,1.3,2.4s0.5,1.9,0.5,3.1c0,1.5-0.3,2.9-0.8,4c-0.5,1.1-1.3,2-2.3,2.6C144.7,352.9,143.5,353.2,142.2,353.2z
		 M142.5,351.7c1,0,1.9-0.3,2.7-0.8c0.8-0.5,1.4-1.2,1.8-2.1c0.4-0.9,0.6-2,0.6-3.2c0-0.9-0.1-1.7-0.4-2.5c-0.2-0.7-0.6-1.4-1.1-1.9
		c-0.5-0.5-1-0.9-1.6-1.2c-0.6-0.3-1.3-0.4-2.1-0.4c-1,0-2,0.3-2.7,0.8s-1.4,1.2-1.8,2.1c-0.4,0.9-0.6,2-0.6,3.2
		c0,1.2,0.2,2.2,0.6,3.1c0.4,0.9,1,1.6,1.8,2.1C140.6,351.5,141.5,351.7,142.5,351.7z M147.7,353v-6l0.4-1.3l-0.4-2.2v-5h1.7V353
		H147.7z"/>
	<path class="st0" d="M152.2,339.8v-1.4h10.2v1.4H152.2z M159.5,353.3c-0.8,0-1.4-0.1-2-0.2c-0.6-0.1-1-0.4-1.4-0.8
		c-0.4-0.4-0.6-0.9-0.8-1.5s-0.3-1.4-0.3-2.4v-15.5h1.7v15.5c0,0.9,0.1,1.6,0.3,2.1c0.2,0.5,0.5,0.8,0.9,1c0.4,0.2,1,0.2,1.7,0.2
		c0.4,0,0.8,0,1.3-0.1c0.5-0.1,0.9-0.3,1.3-0.5v1.7c-0.3,0.1-0.6,0.2-0.9,0.3c-0.3,0.1-0.7,0.1-1,0.2
		C160.1,353.2,159.8,353.3,159.5,353.3z"/>
	<path class="st0" d="M171.8,353.2c-1.5,0-2.7-0.3-3.8-1s-1.9-1.5-2.5-2.6c-0.6-1.1-0.8-2.4-0.8-3.9c0-1.4,0.3-2.7,0.8-3.9
		s1.3-2,2.4-2.7c1-0.6,2.3-1,3.7-1c1.4,0,2.6,0.3,3.6,1c1,0.6,1.8,1.5,2.3,2.6c0.5,1.1,0.8,2.4,0.8,3.8v0.6h-12.6v-1.4h11.4
		l-0.4,0.6c0-1.1-0.2-2.1-0.6-3c-0.4-0.9-1-1.6-1.8-2c-0.8-0.5-1.7-0.7-2.7-0.7c-1,0-1.9,0.2-2.7,0.7c-0.8,0.5-1.4,1.2-1.8,2
		c-0.4,0.9-0.7,2-0.7,3.2c0,1.2,0.2,2.3,0.7,3.2c0.4,0.9,1.1,1.6,1.9,2.1c0.8,0.5,1.7,0.7,2.8,0.7c0.8,0,1.5-0.1,2.2-0.4
		c0.6-0.3,1.2-0.6,1.6-1.1c0.4-0.5,0.7-1,0.9-1.6h1.7c-0.2,0.9-0.5,1.6-1.1,2.3s-1.3,1.2-2.2,1.6C174,353,173,353.2,171.8,353.2z"/>
	<path class="st0" d="M182.1,353v-14.6h1.7v7.3h-0.5c0-1.6,0.3-2.9,0.7-4c0.4-1.1,1.1-1.9,1.9-2.5c0.8-0.6,1.8-0.9,3-0.9
		c0.2,0,0.3,0,0.4,0c0.1,0,0.3,0,0.4,0.1v1.7c-0.9,0-1.7,0.1-2.5,0.3c-0.7,0.2-1.4,0.5-1.9,1c-0.5,0.5-0.9,1.2-1.2,2.1
		c-0.3,0.9-0.4,2-0.4,3.4v6.2H182.1z"/>
	<path class="st0" d="M197.5,339.8v-1.4h10.2v1.4H197.5z M204.9,353.3c-0.8,0-1.4-0.1-2-0.2c-0.6-0.1-1-0.4-1.4-0.8
		c-0.4-0.4-0.6-0.9-0.8-1.5s-0.3-1.4-0.3-2.4v-15.5h1.7v15.5c0,0.9,0.1,1.6,0.3,2.1c0.2,0.5,0.5,0.8,0.9,1c0.4,0.2,1,0.2,1.7,0.2
		c0.4,0,0.8,0,1.3-0.1c0.5-0.1,0.9-0.3,1.3-0.5v1.7c-0.3,0.1-0.6,0.2-0.9,0.3c-0.3,0.1-0.7,0.1-1,0.2
		C205.4,353.2,205.1,353.3,204.9,353.3z"/>
	<path class="st0" d="M217.3,353.2c-1.4,0-2.7-0.3-3.8-1c-1.1-0.6-2-1.5-2.6-2.6c-0.6-1.1-0.9-2.4-0.9-3.9c0-1.5,0.3-2.8,0.9-3.9
		c0.6-1.1,1.5-2,2.6-2.6c1.1-0.6,2.4-1,3.8-1c1.5,0,2.8,0.3,3.8,1c1.1,0.6,1.9,1.5,2.5,2.6c0.6,1.1,0.9,2.4,0.9,3.9
		c0,1.5-0.3,2.8-0.9,3.9c-0.6,1.1-1.4,2-2.5,2.6C220,352.9,218.8,353.2,217.3,353.2z M217.3,351.7c1.1,0,2.1-0.3,2.9-0.8
		c0.8-0.5,1.4-1.2,1.9-2.1c0.4-0.9,0.7-1.9,0.7-3.1c0-0.9-0.1-1.6-0.4-2.4c-0.2-0.7-0.6-1.4-1.1-1.9s-1.1-1-1.7-1.2
		s-1.4-0.4-2.3-0.4c-1.1,0-2.1,0.3-2.9,0.8c-0.8,0.5-1.5,1.2-1.9,2.1c-0.4,0.9-0.7,1.9-0.7,3.1s0.2,2.2,0.7,3.1
		c0.4,0.9,1.1,1.6,1.9,2.1C215.2,351.4,216.2,351.7,217.3,351.7z"/>
	<path class="st0" d="M239.6,353.2c-1.2,0-2.2-0.2-3-0.6c-0.8-0.4-1.5-0.9-1.9-1.5c-0.4-0.7-0.7-1.4-0.7-2.3h1.7
		c0,0.6,0.1,1.1,0.4,1.5c0.3,0.4,0.7,0.8,1.3,1c0.6,0.3,1.3,0.4,2.1,0.4c1.1,0,2-0.2,2.6-0.7c0.6-0.5,0.9-1.1,0.9-1.9
		c0-0.6-0.2-1-0.5-1.4c-0.3-0.3-0.7-0.6-1.2-0.8c-0.5-0.2-1.1-0.4-1.7-0.5c-0.6-0.1-1.2-0.3-1.9-0.4c-0.6-0.2-1.2-0.4-1.7-0.7
		c-0.5-0.3-0.9-0.7-1.2-1.2c-0.3-0.5-0.5-1.1-0.5-1.9c0-1.2,0.4-2.2,1.3-2.9c0.9-0.7,2.1-1.1,3.6-1.1c1,0,1.9,0.2,2.7,0.5
		c0.8,0.3,1.4,0.8,1.8,1.5c0.4,0.6,0.7,1.4,0.7,2.2h-1.7c0-0.8-0.3-1.5-1-2c-0.6-0.5-1.5-0.8-2.4-0.8c-1,0-1.8,0.2-2.4,0.7
		c-0.6,0.4-0.9,1.1-0.9,1.8c0,0.6,0.2,1,0.5,1.4c0.3,0.3,0.7,0.6,1.2,0.8c0.5,0.2,1.1,0.3,1.7,0.4c0.6,0.1,1.2,0.3,1.9,0.4
		c0.6,0.2,1.2,0.4,1.7,0.7c0.5,0.3,0.9,0.7,1.2,1.2c0.3,0.5,0.5,1.2,0.5,2c0,1.3-0.5,2.3-1.4,3C242.4,352.8,241.2,353.2,239.6,353.2
		z"/>
	<path class="st0" d="M246.6,339.8v-1.4h10.2v1.4H246.6z M254,353.3c-0.8,0-1.4-0.1-2-0.2c-0.6-0.1-1-0.4-1.4-0.8
		c-0.4-0.4-0.6-0.9-0.8-1.5s-0.3-1.4-0.3-2.4v-15.5h1.7v15.5c0,0.9,0.1,1.6,0.3,2.1c0.2,0.5,0.5,0.8,0.9,1c0.4,0.2,1,0.2,1.7,0.2
		c0.4,0,0.8,0,1.3-0.1c0.5-0.1,0.9-0.3,1.3-0.5v1.7c-0.3,0.1-0.6,0.2-0.9,0.3c-0.3,0.1-0.7,0.1-1,0.2
		C254.5,353.2,254.2,353.3,254,353.3z"/>
	<path class="st0" d="M265.8,353.2c-1,0-1.9-0.2-2.7-0.5c-0.8-0.4-1.5-0.9-2.1-1.5s-1-1.5-1.3-2.4c-0.3-0.9-0.5-1.9-0.5-3
		c0-1.5,0.3-2.8,0.8-3.9c0.6-1.1,1.3-2,2.3-2.6c1-0.6,2.2-0.9,3.5-0.9c1,0,1.8,0.2,2.6,0.5c0.8,0.3,1.5,0.9,2,1.5
		c0.6,0.7,1,1.4,1.3,2.4s0.5,1.9,0.5,3.1c0,1.5-0.3,2.9-0.8,4c-0.5,1.1-1.3,2-2.3,2.6C268.2,352.9,267.1,353.2,265.8,353.2z
		 M266.1,351.7c1,0,1.9-0.3,2.7-0.8c0.8-0.5,1.4-1.2,1.8-2.1c0.4-0.9,0.6-2,0.6-3.2c0-0.9-0.1-1.7-0.4-2.5c-0.2-0.7-0.6-1.4-1.1-1.9
		c-0.5-0.5-1-0.9-1.6-1.2c-0.6-0.3-1.3-0.4-2.1-0.4c-1,0-2,0.3-2.7,0.8s-1.4,1.2-1.8,2.1c-0.4,0.9-0.6,2-0.6,3.2
		c0,1.2,0.2,2.2,0.6,3.1c0.4,0.9,1,1.6,1.8,2.1C264.1,351.5,265,351.7,266.1,351.7z M271.3,353v-6l0.4-1.3l-0.4-2.2v-5h1.7V353
		H271.3z"/>
	<path class="st0" d="M281.8,353.4l-6.2-15h1.9l5.2,13L281.8,353.4z M278.6,359.3l3.2-7.9l0.1-0.4l5.2-12.6h1.9l-8.6,20.9H278.6z"/>
	<path class="st0" d="M42.2,388c-1.5,0-2.7-0.3-3.8-1s-1.9-1.5-2.5-2.6c-0.6-1.1-0.8-2.4-0.8-3.9c0-1.4,0.3-2.7,0.8-3.9
		s1.3-2,2.4-2.7c1-0.6,2.3-1,3.7-1c1.4,0,2.6,0.3,3.6,1c1,0.6,1.8,1.5,2.3,2.6c0.5,1.1,0.8,2.4,0.8,3.8v0.6H36.2v-1.4h11.4l-0.4,0.6
		c0-1.1-0.2-2.1-0.6-3c-0.4-0.9-1-1.6-1.8-2c-0.8-0.5-1.7-0.7-2.7-0.7c-1,0-1.9,0.2-2.7,0.7c-0.8,0.5-1.4,1.2-1.8,2
		c-0.4,0.9-0.7,2-0.7,3.2c0,1.2,0.2,2.3,0.7,3.2c0.4,0.9,1.1,1.6,1.9,2.1c0.8,0.5,1.7,0.7,2.8,0.7c0.8,0,1.5-0.1,2.2-0.4
		c0.6-0.3,1.2-0.6,1.6-1.1c0.4-0.5,0.7-1,0.9-1.6h1.7c-0.2,0.9-0.5,1.6-1.1,2.3s-1.3,1.2-2.2,1.6C44.4,387.8,43.3,388,42.2,388z"/>
	<path class="st0" d="M52.5,387.8v-14.6h1.7v6.7h-0.6c0-1.4,0.2-2.7,0.7-3.7c0.5-1,1.1-1.8,2-2.4c0.9-0.6,1.9-0.8,3.1-0.8
		c0.9,0,1.7,0.1,2.3,0.4c0.7,0.2,1.2,0.6,1.7,1.1c0.5,0.5,0.8,1.2,1,1.9c0.2,0.8,0.3,1.7,0.3,2.7v8.6H63v-8c0-1-0.1-1.9-0.3-2.5
		c-0.2-0.7-0.5-1.2-0.8-1.6c-0.4-0.4-0.8-0.7-1.3-0.8c-0.5-0.2-1.1-0.2-1.8-0.2c-0.8,0-1.6,0.2-2.3,0.7c-0.7,0.4-1.3,1.2-1.7,2.1
		c-0.4,1-0.6,2.2-0.6,3.8v6.6H52.5z"/>
	<path class="st0" d="M75.3,388c-1.5,0-2.7-0.3-3.8-1s-1.9-1.5-2.5-2.6c-0.6-1.1-0.8-2.4-0.8-3.9c0-1.4,0.3-2.7,0.8-3.9
		s1.3-2,2.4-2.7c1-0.6,2.3-1,3.7-1c1.4,0,2.6,0.3,3.6,1c1,0.6,1.8,1.5,2.3,2.6c0.5,1.1,0.8,2.4,0.8,3.8v0.6H69.3v-1.4h11.4l-0.4,0.6
		c0-1.1-0.2-2.1-0.6-3c-0.4-0.9-1-1.6-1.8-2c-0.8-0.5-1.7-0.7-2.7-0.7c-1,0-1.9,0.2-2.7,0.7c-0.8,0.5-1.4,1.2-1.8,2
		c-0.4,0.9-0.7,2-0.7,3.2c0,1.2,0.2,2.3,0.7,3.2c0.4,0.9,1.1,1.6,1.9,2.1c0.8,0.5,1.7,0.7,2.8,0.7c0.8,0,1.5-0.1,2.2-0.4
		c0.6-0.3,1.2-0.6,1.6-1.1c0.4-0.5,0.7-1,0.9-1.6h1.7c-0.2,0.9-0.5,1.6-1.1,2.3s-1.3,1.2-2.2,1.6C77.4,387.8,76.4,388,75.3,388z"/>
	<path class="st0" d="M85.6,387.8v-14.6h1.7v7.3h-0.5c0-1.6,0.3-2.9,0.7-4c0.4-1.1,1.1-1.9,1.9-2.5c0.8-0.6,1.8-0.9,3-0.9
		c0.2,0,0.3,0,0.4,0c0.1,0,0.3,0,0.4,0.1v1.7c-0.9,0-1.7,0.1-2.5,0.3c-0.7,0.2-1.4,0.5-1.9,1c-0.5,0.5-0.9,1.2-1.2,2.1
		c-0.3,0.9-0.4,2-0.4,3.4v6.2H85.6z"/>
	<path class="st0" d="M101.8,388c-1,0-1.9-0.2-2.7-0.5c-0.8-0.4-1.5-0.9-2.1-1.5s-1-1.5-1.4-2.4c-0.3-0.9-0.5-1.9-0.5-3
		c0-1.5,0.3-2.8,0.8-3.9c0.6-1.1,1.3-2,2.3-2.6c1-0.6,2.2-0.9,3.5-0.9c1.3,0,2.4,0.3,3.3,0.9c1,0.6,1.7,1.5,2.2,2.6
		c0.5,1.1,0.8,2.4,0.8,4c0,1.5-0.3,2.9-0.8,4c-0.5,1.1-1.3,2-2.2,2.6C104.2,387.7,103,388,101.8,388z M102.4,394.3
		c-1.4,0-2.5-0.2-3.4-0.6s-1.6-0.9-2.1-1.6c-0.5-0.7-0.8-1.5-0.9-2.4h1.7c0.1,0.6,0.3,1.1,0.7,1.6c0.3,0.5,0.8,0.9,1.5,1.1
		s1.5,0.4,2.6,0.4c1,0,1.9-0.2,2.6-0.5c0.7-0.3,1.2-0.8,1.6-1.5c0.3-0.7,0.5-1.5,0.5-2.5v-5.5l0.5-2.3l-0.4-2.2v-5h1.7v15
		c0,1.3-0.3,2.4-0.8,3.3c-0.5,0.9-1.2,1.6-2.2,2.1S103.8,394.3,102.4,394.3z M102,386.5c1,0,1.9-0.3,2.7-0.8
		c0.8-0.5,1.4-1.2,1.8-2.1c0.4-0.9,0.6-2,0.6-3.2c0-0.9-0.1-1.7-0.4-2.5c-0.2-0.7-0.6-1.4-1.1-1.9c-0.5-0.5-1-0.9-1.6-1.2
		c-0.6-0.3-1.3-0.4-2.1-0.4c-1,0-2,0.3-2.7,0.8s-1.4,1.2-1.8,2.1c-0.4,0.9-0.6,2-0.6,3.2c0,1.2,0.2,2.2,0.6,3.1
		c0.4,0.9,1,1.6,1.8,2.1C100,386.3,101,386.5,102,386.5z"/>
	<path class="st0" d="M113.2,369.4v-2.5h2.5v2.5H113.2z M113.6,387.8v-14.6h1.7v14.6H113.6z"/>
	<path class="st0" d="M119.1,387.8v-1.2l9.7-13l0.2,1h-9.5v-1.4h10.8v1.2l-9.7,13l-0.2-1h10.1v1.4H119.1z"/>
	<path class="st0" d="M140.3,388c-1.5,0-2.7-0.3-3.8-1s-1.9-1.5-2.5-2.6c-0.6-1.1-0.8-2.4-0.8-3.9c0-1.4,0.3-2.7,0.8-3.9
		s1.3-2,2.4-2.7c1-0.6,2.3-1,3.7-1c1.4,0,2.6,0.3,3.6,1c1,0.6,1.8,1.5,2.3,2.6c0.5,1.1,0.8,2.4,0.8,3.8v0.6h-12.6v-1.4h11.4
		l-0.4,0.6c0-1.1-0.2-2.1-0.6-3c-0.4-0.9-1-1.6-1.8-2c-0.8-0.5-1.7-0.7-2.7-0.7c-1,0-1.9,0.2-2.7,0.7c-0.8,0.5-1.4,1.2-1.8,2
		c-0.4,0.9-0.7,2-0.7,3.2c0,1.2,0.2,2.3,0.7,3.2c0.4,0.9,1.1,1.6,1.9,2.1c0.8,0.5,1.7,0.7,2.8,0.7c0.8,0,1.5-0.1,2.2-0.4
		c0.6-0.3,1.2-0.6,1.6-1.1c0.4-0.5,0.7-1,0.9-1.6h1.7c-0.2,0.9-0.5,1.6-1.1,2.3s-1.3,1.2-2.2,1.6C142.4,387.8,141.4,388,140.3,388z"
		/>
	<path class="st0" d="M156.3,388c-1,0-1.9-0.2-2.7-0.5c-0.8-0.4-1.5-0.9-2.1-1.5s-1-1.5-1.3-2.4c-0.3-0.9-0.5-1.9-0.5-3
		c0-1.5,0.3-2.8,0.8-3.9c0.6-1.1,1.3-2,2.3-2.6c1-0.6,2.2-0.9,3.5-0.9c1,0,1.8,0.2,2.6,0.5c0.8,0.3,1.5,0.9,2,1.5
		c0.6,0.7,1,1.4,1.3,2.4s0.5,1.9,0.5,3.1c0,1.5-0.3,2.9-0.8,4c-0.5,1.1-1.3,2-2.3,2.6C158.7,387.7,157.5,388,156.3,388z
		 M156.6,386.5c1,0,1.9-0.3,2.7-0.8c0.8-0.5,1.4-1.2,1.8-2.1c0.4-0.9,0.6-2,0.6-3.2c0-0.9-0.1-1.7-0.4-2.5c-0.2-0.7-0.6-1.4-1.1-1.9
		c-0.5-0.5-1-0.9-1.6-1.2c-0.6-0.3-1.3-0.4-2.1-0.4c-1,0-2,0.3-2.7,0.8s-1.4,1.2-1.8,2.1c-0.4,0.9-0.6,2-0.6,3.2
		c0,1.2,0.2,2.2,0.6,3.1c0.4,0.9,1,1.6,1.8,2.1C154.6,386.3,155.5,386.5,156.6,386.5z M161.8,387.8v-5l0.5-2.4l-0.5-1.9v-12.6h1.7
		v21.9H161.8z"/>
	<path class="st0" d="M167.8,387.8v-2.5h2.4v2.5H167.8z"/>
</g>
</svg>
