<?xml version="1.0" encoding="utf-8"?>
<!-- Generator: Adobe Illustrator 28.7.2, SVG Export Plug-In . SVG Version: 9.03 Build 54978)  -->
<svg version="1.1" id="Layer_1" xmlns="http://www.w3.org/2000/svg" xmlns:xlink="http://www.w3.org/1999/xlink" x="0px" y="0px"
	 viewBox="0 0 841.9 595.3" style="enable-background:new 0 0 841.9 595.3;" xml:space="preserve">
<style type="text/css">
	.st0{fill:#004647;}
	.st1{enable-background:new    ;}
</style>
<g>
	<g>
		<path class="st0" d="M368.1,159h-16.8c2.5-2.7,4.6-6.6,5.3-12.2c1.9-16.5,5.7-42.4,6.2-45.5c0.4-1.2,1.1-4.2-0.7-7
			c-1.8-2.8-5.4-4.2-10.7-4.2h-35.8c-5.2,0-8.8,1.4-10.7,4.2c-1.9,2.8-1.1,5.8-0.7,7c0.5,3.1,4.3,29,6.2,45.5
			c0.6,5.4,2.6,9.3,5.2,12.2h-8.1c-6.2-6.2-6.2-28.4-6.9-35.9c-0.2-2.1-2-3.6-4-3.6l0,0l-36.3,0.7c0-1,0-2,0.3-2.5
			c0-0.1,0.2-0.3,0.7-0.4c1.4-0.3,2.5-1.6,2.5-3c0-0.5,0.2-1.8,0.8-2.3c0.4-0.3,1.3-0.3,2.5,0c0.9,0.3,1.9,0,2.7-0.5
			c0.8-0.6,1.2-1.5,1.3-2.5c0,0,0.1-4,2.5-5.5c2-1.3,5.3-0.9,9.8,1c0.8,0.4,1.8,0.3,2.6,0c0.8-0.4,1.4-1.1,1.7-2
			c0,0,0.6-2.1,2.4-3.1c1.3-0.7,3-0.7,5.1,0c1.6,0.5,3.4-0.3,4-2c0.5-1.6-0.3-3.4-2-4c-3.9-1.3-7.3-1.1-10.1,0.4
			c-1.9,1-3.1,2.5-4,3.8c-5.3-1.8-9.6-1.6-12.9,0.6c-2.9,1.9-4.2,4.9-4.8,7.2c-2.1,0-3.5,0.8-4.5,1.5c-1.9,1.4-2.7,3.4-3,5
			c-1.1,0.6-1.9,1.4-2.6,2.5c-1.1,1.9-1.3,4.1-1.2,5.9h-1.4l0,0c-0.2,0-0.3,0-0.5,0s-0.5,0-0.9,0c-1.5,0-4.1,0.4-4.1,3.4
			s1.3,2.9,2.6,3.1c1.6,0.3,2.9,1.5,3.2,3c4.4,17.9,17.4,25.9,29.8,29.3h-32.6v6.3h79c0.8,0,1.6,0.1,2.4,0.1s1.3,0,1.9,0
			c0.4,0,0.9,0,1.5,0s1.2,0,2,0h31.1v-6.3V159z"/>
	</g>
	<g>
		<path class="st0" d="M333.4,86.2c1.7,0,3.1-1.4,3.1-3.1V69.3c0-1.7-1.4-3.1-3.1-3.1s-3.1,1.4-3.1,3.1v13.8
			C330.3,84.8,331.7,86.2,333.4,86.2z"/>
	</g>
	<g>
		<path class="st0" d="M349.6,86.2L349.6,86.2c1.7,0,3.1-1.5,3.1-3.2l-0.2-9.6c0-1.7-1.5-3.1-3.2-3.1s-3.1,1.5-3.1,3.2l0.2,9.6
			c0,1.7,1.4,3.1,3.1,3.1H349.6z"/>
	</g>
	<g>
		<path class="st0" d="M317.2,86L317.2,86c1.7,0,3.1-1.4,3.1-3.1l0.2-9.4c0-1.7-1.3-3.2-3.1-3.2c-1.7,0-3.2,1.3-3.2,3.1l-0.2,9.4
			c0,1.7,1.3,3.2,3.1,3.2H317.2z"/>
	</g>
</g>
<g>
	<path class="st0" d="M614.4,528.9H227.6c-7.8,0-14.1-6.3-14.1-14.1V127.9c0-7.8,6.3-14.1,14.1-14.1h17.9v4h-17.9
		c-5.6,0-10.1,4.5-10.1,10.1v386.9c0,5.6,4.5,10.1,10.1,10.1h386.8c5.6,0,10.1-4.5,10.1-10.1V127.9c0-5.6-4.5-10.1-10.1-10.1H368.1
		v-4h246.3c7.8,0,14.1,6.3,14.1,14.1v386.9C628.5,522.6,622.2,528.9,614.4,528.9z"/>
</g>
<g class="st1">
	<path class="st0" d="M249.4,232.9V207h13.4v4H254v7.7h7.9v3.9H254v10.3H249.4z"/>
	<path class="st0" d="M275.8,233.2c-1.6,0-3.1-0.3-4.4-0.9c-1.3-0.6-2.4-1.5-3.3-2.6c-0.9-1.2-1.6-2.6-2.1-4.2
		c-0.5-1.7-0.7-3.5-0.7-5.6c0-2.8,0.4-5.2,1.3-7.1c0.8-2,2-3.5,3.6-4.5c1.6-1,3.4-1.6,5.6-1.6c1.7,0,3.1,0.3,4.4,0.9
		s2.4,1.5,3.3,2.6c0.9,1.1,1.6,2.5,2.1,4.2c0.5,1.6,0.7,3.5,0.7,5.6c0,2.8-0.4,5.2-1.3,7.2c-0.8,2-2,3.5-3.6,4.6
		C279.8,232.7,277.9,233.2,275.8,233.2z M275.7,229.2c1.2,0,2.3-0.4,3.1-1.1c0.9-0.7,1.5-1.8,1.9-3.2s0.7-3.1,0.7-5.1
		c0-1.5-0.1-2.8-0.4-3.9c-0.3-1.1-0.6-2.1-1.1-2.9c-0.5-0.8-1.1-1.4-1.8-1.8c-0.7-0.4-1.5-0.6-2.4-0.6c-1.2,0-2.2,0.4-3.1,1.1
		c-0.8,0.7-1.5,1.7-1.9,3.1c-0.4,1.4-0.7,3-0.7,5c0,1.5,0.1,2.8,0.4,4c0.2,1.2,0.6,2.1,1.1,2.9c0.5,0.8,1.1,1.4,1.8,1.8
		S274.8,229.2,275.7,229.2z"/>
	<path class="st0" d="M299.3,233.2c-1.6,0-3.1-0.3-4.4-0.9c-1.3-0.6-2.4-1.5-3.3-2.6c-0.9-1.2-1.6-2.6-2.1-4.2
		c-0.5-1.7-0.7-3.5-0.7-5.6c0-2.8,0.4-5.2,1.3-7.1c0.8-2,2-3.5,3.6-4.5c1.6-1,3.4-1.6,5.6-1.6c1.7,0,3.1,0.3,4.4,0.9
		s2.4,1.5,3.3,2.6c0.9,1.1,1.6,2.5,2.1,4.2c0.5,1.6,0.7,3.5,0.7,5.6c0,2.8-0.4,5.2-1.3,7.2c-0.8,2-2,3.5-3.6,4.6
		C303.4,232.7,301.5,233.2,299.3,233.2z M299.3,229.2c1.2,0,2.3-0.4,3.1-1.1c0.9-0.7,1.5-1.8,1.9-3.2s0.7-3.1,0.7-5.1
		c0-1.5-0.1-2.8-0.4-3.9c-0.3-1.1-0.6-2.1-1.1-2.9c-0.5-0.8-1.1-1.4-1.8-1.8c-0.7-0.4-1.5-0.6-2.4-0.6c-1.2,0-2.2,0.4-3.1,1.1
		c-0.8,0.7-1.5,1.7-1.9,3.1c-0.4,1.4-0.7,3-0.7,5c0,1.5,0.1,2.8,0.4,4c0.2,1.2,0.6,2.1,1.1,2.9c0.5,0.8,1.1,1.4,1.8,1.8
		S298.4,229.2,299.3,229.2z"/>
	<path class="st0" d="M313.3,232.9V207h7c1.8,0,3.3,0.3,4.6,0.9c1.3,0.6,2.5,1.4,3.3,2.5c0.9,1.1,1.6,2.5,2,4.1
		c0.5,1.6,0.7,3.4,0.7,5.4c0,2.7-0.4,5-1.2,6.9c-0.8,1.9-2.1,3.4-3.7,4.5s-3.7,1.6-6.1,1.6H313.3z M317.9,228.9h2.2
		c1.4,0,2.6-0.4,3.5-1.1c0.9-0.7,1.6-1.8,2.1-3.1c0.5-1.4,0.7-3,0.7-4.9c0-1.9-0.2-3.5-0.7-4.8c-0.5-1.3-1.1-2.3-2-3.1
		c-0.9-0.7-2-1.1-3.3-1.1h-2.5V228.9z"/>
</g>
<g>
	<path class="st0" d="M254.4,314.9l-7-20.4h1.9l6.1,18.4h-0.6l6.6-18.5h1.5l6.3,18.5h-0.6l6.3-18.4h1.9l-7.2,20.4h-1.5l-6.4-18.4
		h0.7l-6.6,18.4H254.4z"/>
	<path class="st0" d="M279.4,314.8v-21.9h1.7v14.1h-0.6c0-1.4,0.2-2.7,0.7-3.7c0.5-1,1.1-1.8,2-2.4c0.9-0.6,1.9-0.8,3.1-0.8
		c0.9,0,1.7,0.1,2.3,0.4c0.7,0.2,1.2,0.6,1.7,1.1c0.5,0.5,0.8,1.2,1,1.9c0.2,0.8,0.3,1.7,0.3,2.7v8.6h-1.7v-8c0-1-0.1-1.9-0.3-2.5
		s-0.5-1.2-0.8-1.6c-0.4-0.4-0.8-0.7-1.3-0.8c-0.5-0.2-1.1-0.2-1.8-0.2c-0.8,0-1.6,0.2-2.3,0.7c-0.7,0.4-1.3,1.2-1.7,2.1
		c-0.4,1-0.6,2.2-0.6,3.8v6.6H279.4z"/>
	<path class="st0" d="M302.2,315c-1.5,0-2.7-0.3-3.8-1s-1.9-1.5-2.5-2.6c-0.6-1.1-0.8-2.4-0.8-3.9c0-1.5,0.3-2.7,0.8-3.9
		s1.3-2,2.4-2.7s2.3-1,3.7-1c1.4,0,2.6,0.3,3.6,1s1.8,1.5,2.3,2.6c0.5,1.1,0.8,2.4,0.8,3.8v0.6h-12.6v-1.4h11.4l-0.4,0.6
		c0-1.1-0.2-2.1-0.6-3c-0.4-0.9-1-1.6-1.8-2s-1.7-0.7-2.7-0.7c-1,0-1.9,0.2-2.7,0.7c-0.8,0.5-1.4,1.2-1.8,2c-0.4,0.9-0.7,2-0.7,3.2
		c0,1.2,0.2,2.3,0.7,3.2c0.4,0.9,1.1,1.6,1.9,2.1c0.8,0.5,1.7,0.7,2.8,0.7c0.8,0,1.5-0.1,2.2-0.4s1.2-0.6,1.6-1.1
		c0.4-0.5,0.7-1,0.9-1.6h1.7c-0.2,0.9-0.5,1.6-1.1,2.3c-0.6,0.7-1.3,1.2-2.2,1.6C304.3,314.8,303.3,315,302.2,315z"/>
	<path class="st0" d="M312.5,314.8v-14.6h1.7v6.7h-0.6c0-1.4,0.2-2.7,0.7-3.7c0.5-1,1.1-1.8,2-2.4c0.9-0.6,1.9-0.8,3.1-0.8
		c0.9,0,1.7,0.1,2.3,0.4c0.7,0.2,1.2,0.6,1.7,1.1c0.5,0.5,0.8,1.2,1,1.9c0.2,0.8,0.3,1.7,0.3,2.7v8.6H323v-8c0-1-0.1-1.9-0.3-2.5
		s-0.5-1.2-0.8-1.6c-0.4-0.4-0.8-0.7-1.3-0.8c-0.5-0.2-1.1-0.2-1.8-0.2c-0.8,0-1.6,0.2-2.3,0.7c-0.7,0.4-1.3,1.2-1.7,2.1
		c-0.4,1-0.6,2.2-0.6,3.8v6.6H312.5z"/>
	<path class="st0" d="M333.8,301.6v-1.4H344v1.4H333.8z M341.2,315.1c-0.8,0-1.4-0.1-2-0.2c-0.6-0.1-1-0.4-1.4-0.8
		c-0.4-0.4-0.6-0.9-0.8-1.5s-0.3-1.4-0.3-2.4v-15.5h1.7v15.5c0,0.9,0.1,1.6,0.3,2.1c0.2,0.5,0.5,0.8,0.9,1c0.4,0.2,1,0.2,1.7,0.2
		c0.4,0,0.8,0,1.3-0.1c0.5-0.1,0.9-0.3,1.3-0.5v1.7c-0.3,0.1-0.6,0.2-0.9,0.3c-0.3,0.1-0.7,0.1-1,0.2
		C341.7,315,341.4,315.1,341.2,315.1z"/>
	<path class="st0" d="M347.3,314.8v-14.6h1.7v7.3h-0.5c0-1.6,0.3-2.9,0.7-4c0.4-1.1,1.1-1.9,1.9-2.5c0.8-0.6,1.8-0.9,3-0.9
		c0.2,0,0.3,0,0.4,0c0.1,0,0.3,0,0.4,0.1v1.7c-0.9,0-1.7,0.1-2.5,0.3s-1.4,0.5-1.9,1c-0.5,0.5-0.9,1.2-1.2,2.1
		c-0.3,0.9-0.4,2-0.4,3.4v6.2H347.3z"/>
	<path class="st0" d="M363.4,315c-1,0-1.9-0.2-2.7-0.5s-1.5-0.9-2.1-1.5s-1-1.5-1.3-2.4c-0.3-0.9-0.5-1.9-0.5-3
		c0-1.5,0.3-2.8,0.8-3.9s1.3-2,2.3-2.6c1-0.6,2.2-0.9,3.5-0.9c1,0,1.8,0.2,2.6,0.5c0.8,0.3,1.5,0.9,2,1.5c0.6,0.7,1,1.4,1.3,2.4
		s0.5,1.9,0.5,3.1c0,1.5-0.3,2.9-0.8,4c-0.5,1.1-1.3,2-2.3,2.6C365.9,314.7,364.7,315,363.4,315z M363.7,313.5c1,0,1.9-0.3,2.7-0.8
		c0.8-0.5,1.4-1.2,1.8-2.1c0.4-0.9,0.6-2,0.6-3.2c0-0.9-0.1-1.7-0.4-2.5c-0.2-0.7-0.6-1.4-1.1-1.9c-0.5-0.5-1-0.9-1.6-1.2
		c-0.6-0.3-1.3-0.4-2.1-0.4c-1,0-2,0.3-2.7,0.8s-1.4,1.2-1.8,2.1c-0.4,0.9-0.6,2-0.6,3.2c0,1.2,0.2,2.2,0.6,3.1
		c0.4,0.9,1,1.6,1.8,2.1C361.8,313.3,362.7,313.5,363.7,313.5z M368.9,314.8v-6l0.4-1.3l-0.4-2.2v-5h1.7v14.6H368.9z"/>
	<path class="st0" d="M379.4,314.9l-6.2-14.6h1.9l5,12.1l5-12.1h1.9l-6.3,14.6H379.4z"/>
	<path class="st0" d="M395.6,315c-1.5,0-2.7-0.3-3.8-1s-1.9-1.5-2.5-2.6c-0.6-1.1-0.8-2.4-0.8-3.9c0-1.5,0.3-2.7,0.8-3.9
		s1.3-2,2.4-2.7s2.3-1,3.7-1c1.4,0,2.6,0.3,3.6,1s1.8,1.5,2.3,2.6c0.5,1.1,0.8,2.4,0.8,3.8v0.6h-12.6v-1.4H401l-0.4,0.6
		c0-1.1-0.2-2.1-0.6-3c-0.4-0.9-1-1.6-1.8-2s-1.7-0.7-2.7-0.7c-1,0-1.9,0.2-2.7,0.7c-0.8,0.5-1.4,1.2-1.8,2c-0.4,0.9-0.7,2-0.7,3.2
		c0,1.2,0.2,2.3,0.7,3.2c0.4,0.9,1.1,1.6,1.9,2.1c0.8,0.5,1.7,0.7,2.8,0.7c0.8,0,1.5-0.1,2.2-0.4s1.2-0.6,1.6-1.1
		c0.4-0.5,0.7-1,0.9-1.6h1.7c-0.2,0.9-0.5,1.6-1.1,2.3c-0.6,0.7-1.3,1.2-2.2,1.6C397.7,314.8,396.7,315,395.6,315z"/>
	<path class="st0" d="M405.9,314.8v-21.9h1.7v21.9H405.9z"/>
	<path class="st0" d="M412,296.4v-2.5h2.5v2.5H412z M412.4,314.8v-14.6h1.7v14.6H412.4z"/>
	<path class="st0" d="M418.8,314.8v-14.6h1.7v6.7h-0.6c0-1.4,0.2-2.7,0.7-3.7c0.5-1,1.1-1.8,2-2.4c0.9-0.6,1.9-0.8,3.1-0.8
		c0.9,0,1.7,0.1,2.3,0.4c0.7,0.2,1.2,0.6,1.7,1.1c0.5,0.5,0.8,1.2,1,1.9c0.2,0.8,0.3,1.7,0.3,2.7v8.6h-1.7v-8c0-1-0.1-1.9-0.3-2.5
		s-0.5-1.2-0.8-1.6c-0.4-0.4-0.8-0.7-1.3-0.8c-0.5-0.2-1.1-0.2-1.8-0.2c-0.8,0-1.6,0.2-2.3,0.7c-0.7,0.4-1.3,1.2-1.7,2.1
		c-0.4,1-0.6,2.2-0.6,3.8v6.6H418.8z"/>
	<path class="st0" d="M441.2,315c-1,0-1.9-0.2-2.7-0.5c-0.8-0.4-1.5-0.9-2.1-1.5s-1-1.5-1.4-2.4c-0.3-0.9-0.5-1.9-0.5-3
		c0-1.5,0.3-2.8,0.8-3.9c0.6-1.1,1.3-2,2.3-2.6c1-0.6,2.2-0.9,3.5-0.9c1.3,0,2.4,0.3,3.3,0.9c1,0.6,1.7,1.5,2.2,2.6
		c0.5,1.1,0.8,2.4,0.8,4s-0.3,2.9-0.8,4c-0.5,1.1-1.3,2-2.2,2.6C443.5,314.7,442.4,315,441.2,315z M441.8,321.3
		c-1.4,0-2.5-0.2-3.4-0.6s-1.6-0.9-2.1-1.6c-0.5-0.7-0.8-1.5-0.9-2.4h1.7c0.1,0.6,0.3,1.1,0.7,1.6c0.3,0.5,0.8,0.9,1.5,1.1
		s1.5,0.4,2.6,0.4c1,0,1.9-0.2,2.6-0.5c0.7-0.3,1.2-0.8,1.6-1.5s0.5-1.5,0.5-2.5v-5.5l0.5-2.3l-0.4-2.2v-5h1.7v15
		c0,1.3-0.3,2.4-0.8,3.3c-0.5,0.9-1.2,1.6-2.2,2.1C444.4,321,443.2,321.3,441.8,321.3z M441.4,313.5c1,0,1.9-0.3,2.7-0.8
		c0.8-0.5,1.4-1.2,1.8-2.1c0.4-0.9,0.6-2,0.6-3.2c0-0.9-0.1-1.7-0.4-2.5c-0.2-0.7-0.6-1.4-1.1-1.9c-0.5-0.5-1-0.9-1.6-1.2
		c-0.6-0.3-1.3-0.4-2.1-0.4c-1,0-2,0.3-2.7,0.8s-1.4,1.2-1.8,2.1c-0.4,0.9-0.6,2-0.6,3.2c0,1.2,0.2,2.2,0.6,3.1
		c0.4,0.9,1,1.6,1.8,2.1C439.4,313.3,440.3,313.5,441.4,313.5z"/>
	<path class="st0" d="M459.3,296.4v-2.5h2.5v2.5H459.3z M459.7,314.8v-14.6h1.7v14.6H459.7z"/>
	<path class="st0" d="M464.1,301.6v-1.4h10.2v1.4H464.1z M471.5,315.1c-0.8,0-1.4-0.1-2-0.2c-0.6-0.1-1-0.4-1.4-0.8
		c-0.4-0.4-0.6-0.9-0.8-1.5s-0.3-1.4-0.3-2.4v-15.5h1.7v15.5c0,0.9,0.1,1.6,0.3,2.1c0.2,0.5,0.5,0.8,0.9,1c0.4,0.2,1,0.2,1.7,0.2
		c0.4,0,0.8,0,1.3-0.1c0.5-0.1,0.9-0.3,1.3-0.5v1.7c-0.3,0.1-0.6,0.2-0.9,0.3c-0.3,0.1-0.7,0.1-1,0.2
		C472,315,471.7,315.1,471.5,315.1z"/>
	<path class="st0" d="M483.9,296.4v-2.5h2.5v2.5H483.9z M484.3,314.8v-14.6h1.7v14.6H484.3z"/>
	<path class="st0" d="M495.3,315c-1.2,0-2.2-0.2-3-0.6s-1.5-0.9-1.9-1.5c-0.4-0.7-0.7-1.4-0.7-2.3h1.7c0,0.6,0.1,1.1,0.4,1.5
		c0.3,0.4,0.7,0.8,1.3,1s1.3,0.4,2.1,0.4c1.1,0,2-0.2,2.6-0.7c0.6-0.5,0.9-1.1,0.9-1.9c0-0.6-0.2-1-0.5-1.4
		c-0.3-0.3-0.7-0.6-1.2-0.8c-0.5-0.2-1.1-0.4-1.7-0.5c-0.6-0.1-1.2-0.3-1.9-0.4c-0.6-0.2-1.2-0.4-1.7-0.7c-0.5-0.3-0.9-0.7-1.2-1.2
		s-0.5-1.2-0.5-1.9c0-1.2,0.4-2.2,1.3-2.9s2.1-1.1,3.6-1.1c1,0,1.9,0.2,2.7,0.5c0.8,0.3,1.4,0.8,1.8,1.5c0.4,0.6,0.7,1.4,0.7,2.2
		h-1.7c0-0.8-0.3-1.5-1-2c-0.6-0.5-1.5-0.8-2.4-0.8c-1,0-1.8,0.2-2.4,0.7c-0.6,0.4-0.9,1.1-0.9,1.8c0,0.6,0.2,1,0.5,1.4
		c0.3,0.3,0.7,0.6,1.2,0.8c0.5,0.2,1.1,0.3,1.7,0.4c0.6,0.1,1.2,0.3,1.9,0.4c0.6,0.2,1.2,0.4,1.7,0.7c0.5,0.3,0.9,0.7,1.2,1.2
		s0.5,1.2,0.5,2c0,1.3-0.5,2.3-1.4,3C498.2,314.6,496.9,315,495.3,315z"/>
	<path class="st0" d="M516.7,315c-1,0-1.9-0.2-2.7-0.5c-0.8-0.4-1.5-0.9-2.1-1.5s-1-1.5-1.4-2.4c-0.3-0.9-0.5-1.9-0.5-3
		c0-1.5,0.3-2.8,0.8-3.9c0.6-1.1,1.3-2,2.3-2.6c1-0.6,2.2-0.9,3.5-0.9c1.3,0,2.4,0.3,3.3,0.9c1,0.6,1.7,1.5,2.2,2.6
		c0.5,1.1,0.8,2.4,0.8,4s-0.3,2.9-0.8,4c-0.5,1.1-1.3,2-2.2,2.6C519.1,314.7,518,315,516.7,315z M517.4,321.3
		c-1.4,0-2.5-0.2-3.4-0.6s-1.6-0.9-2.1-1.6c-0.5-0.7-0.8-1.5-0.9-2.4h1.7c0.1,0.6,0.3,1.1,0.7,1.6c0.3,0.5,0.8,0.9,1.5,1.1
		s1.5,0.4,2.6,0.4c1,0,1.9-0.2,2.6-0.5c0.7-0.3,1.2-0.8,1.6-1.5s0.5-1.5,0.5-2.5v-5.5l0.5-2.3l-0.4-2.2v-5h1.7v15
		c0,1.3-0.3,2.4-0.8,3.3c-0.5,0.9-1.2,1.6-2.2,2.1C520,321,518.8,321.3,517.4,321.3z M517,313.5c1,0,1.9-0.3,2.7-0.8
		c0.8-0.5,1.4-1.2,1.8-2.1c0.4-0.9,0.6-2,0.6-3.2c0-0.9-0.1-1.7-0.4-2.5c-0.2-0.7-0.6-1.4-1.1-1.9c-0.5-0.5-1-0.9-1.6-1.2
		c-0.6-0.3-1.3-0.4-2.1-0.4c-1,0-2,0.3-2.7,0.8s-1.4,1.2-1.8,2.1c-0.4,0.9-0.6,2-0.6,3.2c0,1.2,0.2,2.2,0.6,3.1
		c0.4,0.9,1,1.6,1.8,2.1C515,313.3,515.9,313.5,517,313.5z"/>
	<path class="st0" d="M534.8,315c-1.4,0-2.7-0.3-3.8-1c-1.1-0.6-2-1.5-2.6-2.6c-0.6-1.1-0.9-2.4-0.9-3.9c0-1.5,0.3-2.8,0.9-3.9
		c0.6-1.1,1.5-2,2.6-2.6c1.1-0.6,2.4-1,3.8-1c1.5,0,2.8,0.3,3.8,1c1.1,0.6,1.9,1.5,2.5,2.6c0.6,1.1,0.9,2.4,0.9,3.9
		c0,1.5-0.3,2.8-0.9,3.9c-0.6,1.1-1.4,2-2.5,2.6C537.6,314.7,536.3,315,534.8,315z M534.8,313.5c1.1,0,2.1-0.3,2.9-0.8
		c0.8-0.5,1.4-1.2,1.9-2.1c0.4-0.9,0.7-1.9,0.7-3.1c0-0.9-0.1-1.6-0.4-2.4c-0.2-0.7-0.6-1.4-1.1-1.9s-1.1-1-1.7-1.2
		s-1.4-0.4-2.3-0.4c-1.1,0-2.1,0.3-2.9,0.8c-0.8,0.5-1.5,1.2-1.9,2.1c-0.4,0.9-0.7,1.9-0.7,3.1c0,1.2,0.2,2.2,0.7,3.1
		c0.4,0.9,1.1,1.6,1.9,2.1C532.8,313.2,533.7,313.5,534.8,313.5z"/>
	<path class="st0" d="M552.2,315c-1.4,0-2.7-0.3-3.8-1c-1.1-0.6-2-1.5-2.6-2.6c-0.6-1.1-0.9-2.4-0.9-3.9c0-1.5,0.3-2.8,0.9-3.9
		c0.6-1.1,1.5-2,2.6-2.6c1.1-0.6,2.4-1,3.8-1c1.5,0,2.8,0.3,3.8,1c1.1,0.6,1.9,1.5,2.5,2.6c0.6,1.1,0.9,2.4,0.9,3.9
		c0,1.5-0.3,2.8-0.9,3.9c-0.6,1.1-1.4,2-2.5,2.6C554.9,314.7,553.6,315,552.2,315z M552.2,313.5c1.1,0,2.1-0.3,2.9-0.8
		c0.8-0.5,1.4-1.2,1.9-2.1c0.4-0.9,0.7-1.9,0.7-3.1c0-0.9-0.1-1.6-0.4-2.4c-0.2-0.7-0.6-1.4-1.1-1.9s-1.1-1-1.7-1.2
		s-1.4-0.4-2.3-0.4c-1.1,0-2.1,0.3-2.9,0.8c-0.8,0.5-1.5,1.2-1.9,2.1c-0.4,0.9-0.7,1.9-0.7,3.1c0,1.2,0.2,2.2,0.7,3.1
		c0.4,0.9,1.1,1.6,1.9,2.1C550.1,313.2,551,313.5,552.2,313.5z"/>
	<path class="st0" d="M568.8,315c-1,0-1.9-0.2-2.7-0.5c-0.8-0.4-1.5-0.9-2.1-1.5s-1-1.5-1.3-2.4c-0.3-0.9-0.5-1.9-0.5-3
		c0-1.5,0.3-2.8,0.8-3.9s1.3-2,2.3-2.6c1-0.6,2.2-0.9,3.5-0.9c1,0,1.8,0.2,2.6,0.5c0.8,0.3,1.5,0.9,2,1.5c0.6,0.7,1,1.4,1.3,2.4
		s0.5,1.9,0.5,3.1c0,1.5-0.3,2.9-0.8,4c-0.5,1.1-1.3,2-2.3,2.6C571.3,314.7,570.1,315,568.8,315z M569.2,313.5c1,0,1.9-0.3,2.7-0.8
		c0.8-0.5,1.4-1.2,1.8-2.1c0.4-0.9,0.6-2,0.6-3.2c0-0.9-0.1-1.7-0.4-2.5c-0.2-0.7-0.6-1.4-1.1-1.9c-0.5-0.5-1-0.9-1.6-1.2
		c-0.6-0.3-1.3-0.4-2.1-0.4c-1,0-2,0.3-2.7,0.8s-1.4,1.2-1.8,2.1c-0.4,0.9-0.6,2-0.6,3.2c0,1.2,0.2,2.2,0.6,3.1
		c0.4,0.9,1,1.6,1.8,2.1C567.2,313.3,568.1,313.5,569.2,313.5z M574.3,314.8v-5l0.5-2.4l-0.5-1.9v-12.6h1.7v21.9H574.3z"/>
	<path class="st0" d="M247.6,336.4V335h10.2v1.4H247.6z M254.9,349.9c-0.8,0-1.4-0.1-2-0.2c-0.6-0.1-1-0.4-1.4-0.8
		c-0.4-0.4-0.6-0.9-0.8-1.5c-0.2-0.6-0.3-1.4-0.3-2.4v-15.5h1.7V345c0,0.9,0.1,1.6,0.3,2.1c0.2,0.5,0.5,0.8,0.9,1
		c0.4,0.2,1,0.2,1.7,0.2c0.4,0,0.8,0,1.3-0.1c0.5-0.1,0.9-0.3,1.3-0.5v1.7c-0.3,0.1-0.6,0.2-0.9,0.3c-0.3,0.1-0.7,0.1-1,0.2
		C255.5,349.8,255.2,349.9,254.9,349.9z"/>
	<path class="st0" d="M267.4,349.8c-1.4,0-2.7-0.3-3.8-1c-1.1-0.6-2-1.5-2.6-2.6c-0.6-1.1-0.9-2.4-0.9-3.9c0-1.5,0.3-2.8,0.9-3.9
		c0.6-1.1,1.5-2,2.6-2.6c1.1-0.6,2.4-1,3.8-1c1.5,0,2.8,0.3,3.8,1c1.1,0.6,1.9,1.5,2.5,2.6c0.6,1.1,0.9,2.4,0.9,3.9
		c0,1.5-0.3,2.8-0.9,3.9c-0.6,1.1-1.4,2-2.5,2.6C270.1,349.5,268.9,349.8,267.4,349.8z M267.4,348.3c1.1,0,2.1-0.3,2.9-0.8
		c0.8-0.5,1.4-1.2,1.9-2.1c0.4-0.9,0.7-1.9,0.7-3.1c0-0.9-0.1-1.6-0.4-2.4c-0.2-0.7-0.6-1.4-1.1-1.9c-0.5-0.5-1.1-1-1.7-1.2
		s-1.4-0.4-2.3-0.4c-1.1,0-2.1,0.3-2.9,0.8c-0.8,0.5-1.5,1.2-1.9,2.1c-0.4,0.9-0.7,1.9-0.7,3.1s0.2,2.2,0.7,3.1
		c0.4,0.9,1.1,1.6,1.9,2.1C265.3,348,266.3,348.3,267.4,348.3z"/>
	<path class="st0" d="M285.1,355.9V335h1.7v4.7l-0.4,2.5l0.5,2v11.6H285.1z M292.3,349.8c-1.3,0-2.4-0.3-3.4-0.9
		c-1-0.6-1.7-1.5-2.3-2.6c-0.5-1.1-0.8-2.4-0.8-4s0.3-2.9,0.8-4c0.5-1.1,1.3-2,2.3-2.6s2.1-0.9,3.4-0.9c1,0,1.9,0.2,2.7,0.5
		c0.8,0.4,1.5,0.9,2.1,1.5s1,1.5,1.4,2.4s0.5,1.9,0.5,3c0,1.5-0.3,2.8-0.8,3.9s-1.3,2-2.3,2.6C294.8,349.5,293.6,349.8,292.3,349.8z
		 M292,348.3c1,0,2-0.3,2.7-0.8c0.8-0.5,1.4-1.2,1.8-2.1c0.4-0.9,0.7-2,0.7-3.1c0-1.2-0.2-2.3-0.7-3.2c-0.4-0.9-1-1.6-1.8-2.1
		c-0.8-0.5-1.7-0.8-2.7-0.8c-1,0-1.9,0.3-2.7,0.8c-0.8,0.5-1.4,1.2-1.8,2.1c-0.4,0.9-0.7,2-0.7,3.2c0,0.9,0.1,1.7,0.4,2.5
		c0.3,0.7,0.6,1.4,1.1,1.9c0.5,0.5,1,0.9,1.6,1.2C290.5,348.2,291.2,348.3,292,348.3z"/>
	<path class="st0" d="M302.6,349.6V335h1.7v7.3h-0.5c0-1.6,0.3-2.9,0.7-4c0.4-1.1,1.1-1.9,1.9-2.5c0.8-0.6,1.8-0.9,3-0.9
		c0.2,0,0.3,0,0.4,0c0.1,0,0.3,0,0.4,0.1v1.7c-0.9,0-1.7,0.1-2.5,0.3c-0.7,0.2-1.4,0.5-1.9,1c-0.5,0.5-0.9,1.2-1.2,2.1
		c-0.3,0.9-0.4,2-0.4,3.4v6.2H302.6z"/>
	<path class="st0" d="M312.9,331.2v-2.5h2.5v2.5H312.9z M313.3,349.6V335h1.7v14.6H313.3z"/>
	<path class="st0" d="M326,349.8c-1.4,0-2.7-0.3-3.8-1c-1.1-0.6-2-1.5-2.6-2.6c-0.6-1.1-0.9-2.4-0.9-3.9c0-1.5,0.3-2.8,0.9-3.9
		c0.6-1.1,1.5-2,2.6-2.6c1.1-0.6,2.4-1,3.8-1c1.5,0,2.8,0.3,3.8,1c1.1,0.6,1.9,1.5,2.5,2.6c0.6,1.1,0.9,2.4,0.9,3.9
		c0,1.5-0.3,2.8-0.9,3.9c-0.6,1.1-1.4,2-2.5,2.6C328.8,349.5,327.5,349.8,326,349.8z M326,348.3c1.1,0,2.1-0.3,2.9-0.8
		c0.8-0.5,1.4-1.2,1.9-2.1c0.4-0.9,0.7-1.9,0.7-3.1c0-0.9-0.1-1.6-0.4-2.4c-0.2-0.7-0.6-1.4-1.1-1.9c-0.5-0.5-1.1-1-1.7-1.2
		s-1.4-0.4-2.3-0.4c-1.1,0-2.1,0.3-2.9,0.8c-0.8,0.5-1.5,1.2-1.9,2.1c-0.4,0.9-0.7,1.9-0.7,3.1s0.2,2.2,0.7,3.1
		c0.4,0.9,1.1,1.6,1.9,2.1C323.9,348,324.9,348.3,326,348.3z"/>
	<path class="st0" d="M337,349.6V335h1.7v7.3h-0.5c0-1.6,0.3-2.9,0.7-4c0.4-1.1,1.1-1.9,1.9-2.5c0.8-0.6,1.8-0.9,3-0.9
		c0.2,0,0.3,0,0.4,0c0.1,0,0.3,0,0.4,0.1v1.7c-0.9,0-1.7,0.1-2.5,0.3c-0.7,0.2-1.4,0.5-1.9,1c-0.5,0.5-0.9,1.2-1.2,2.1
		c-0.3,0.9-0.4,2-0.4,3.4v6.2H337z"/>
	<path class="st0" d="M347.3,331.2v-2.5h2.5v2.5H347.3z M347.7,349.6V335h1.7v14.6H347.7z"/>
	<path class="st0" d="M352.1,336.4V335h10.2v1.4H352.1z M359.5,349.9c-0.8,0-1.4-0.1-2-0.2c-0.6-0.1-1-0.4-1.4-0.8
		c-0.4-0.4-0.6-0.9-0.8-1.5c-0.2-0.6-0.3-1.4-0.3-2.4v-15.5h1.7V345c0,0.9,0.1,1.6,0.3,2.1c0.2,0.5,0.5,0.8,0.9,1
		c0.4,0.2,1,0.2,1.7,0.2c0.4,0,0.8,0,1.3-0.1c0.5-0.1,0.9-0.3,1.3-0.5v1.7c-0.3,0.1-0.6,0.2-0.9,0.3c-0.3,0.1-0.7,0.1-1,0.2
		C360.1,349.8,359.8,349.9,359.5,349.9z"/>
	<path class="st0" d="M365.3,331.2v-2.5h2.5v2.5H365.3z M365.7,349.6V335h1.7v14.6H365.7z"/>
	<path class="st0" d="M371.2,349.6v-1.2l9.7-13l0.2,1h-9.5V335h10.8v1.2l-9.7,13l-0.2-1h10.1v1.4H371.2z"/>
	<path class="st0" d="M392.3,349.8c-1.5,0-2.7-0.3-3.8-1c-1.1-0.6-1.9-1.5-2.5-2.6c-0.6-1.1-0.8-2.4-0.8-3.9c0-1.5,0.3-2.7,0.8-3.9
		c0.6-1.1,1.3-2,2.4-2.7c1-0.6,2.3-1,3.7-1c1.4,0,2.6,0.3,3.6,1c1,0.6,1.8,1.5,2.3,2.6c0.5,1.1,0.8,2.4,0.8,3.8v0.6h-12.6v-1.4h11.4
		l-0.4,0.6c0-1.1-0.2-2.1-0.6-3c-0.4-0.9-1-1.6-1.8-2s-1.7-0.7-2.7-0.7c-1,0-1.9,0.2-2.7,0.7c-0.8,0.5-1.4,1.2-1.8,2
		c-0.4,0.9-0.7,2-0.7,3.2c0,1.2,0.2,2.3,0.7,3.2c0.4,0.9,1.1,1.6,1.9,2.1c0.8,0.5,1.7,0.7,2.8,0.7c0.8,0,1.5-0.1,2.2-0.4
		c0.6-0.3,1.2-0.6,1.6-1.1c0.4-0.5,0.7-1,0.9-1.6h1.7c-0.2,0.9-0.5,1.6-1.1,2.3s-1.3,1.2-2.2,1.6
		C394.5,349.6,393.5,349.8,392.3,349.8z"/>
	<path class="st0" d="M415.5,349.8c-1.5,0-2.7-0.3-3.8-1c-1.1-0.6-1.9-1.5-2.5-2.6c-0.6-1.1-0.8-2.4-0.8-3.9c0-1.5,0.3-2.7,0.8-3.9
		c0.6-1.1,1.3-2,2.4-2.7c1-0.6,2.3-1,3.7-1c1.4,0,2.6,0.3,3.6,1c1,0.6,1.8,1.5,2.3,2.6c0.5,1.1,0.8,2.4,0.8,3.8v0.6h-12.6v-1.4h11.4
		l-0.4,0.6c0-1.1-0.2-2.1-0.6-3c-0.4-0.9-1-1.6-1.8-2s-1.7-0.7-2.7-0.7c-1,0-1.9,0.2-2.7,0.7c-0.8,0.5-1.4,1.2-1.8,2
		c-0.4,0.9-0.7,2-0.7,3.2c0,1.2,0.2,2.3,0.7,3.2c0.4,0.9,1.1,1.6,1.9,2.1c0.8,0.5,1.7,0.7,2.8,0.7c0.8,0,1.5-0.1,2.2-0.4
		c0.6-0.3,1.2-0.6,1.6-1.1c0.4-0.5,0.7-1,0.9-1.6h1.7c-0.2,0.9-0.5,1.6-1.1,2.3s-1.3,1.2-2.2,1.6
		C417.6,349.6,416.6,349.8,415.5,349.8z"/>
	<path class="st0" d="M431.5,349.8c-1,0-1.9-0.2-2.7-0.5s-1.5-0.9-2.1-1.5s-1-1.5-1.3-2.4c-0.3-0.9-0.5-1.9-0.5-3
		c0-1.5,0.3-2.8,0.8-3.9s1.3-2,2.3-2.6c1-0.6,2.2-0.9,3.5-0.9c1,0,1.8,0.2,2.6,0.5s1.5,0.9,2,1.5c0.6,0.7,1,1.4,1.3,2.4
		c0.3,0.9,0.5,1.9,0.5,3.1c0,1.5-0.3,2.9-0.8,4c-0.5,1.1-1.3,2-2.3,2.6C433.9,349.5,432.8,349.8,431.5,349.8z M431.8,348.3
		c1,0,1.9-0.3,2.7-0.8c0.8-0.5,1.4-1.2,1.8-2.1c0.4-0.9,0.6-2,0.6-3.2c0-0.9-0.1-1.7-0.4-2.5c-0.2-0.7-0.6-1.4-1.1-1.9
		c-0.5-0.5-1-0.9-1.6-1.2c-0.6-0.3-1.3-0.4-2.1-0.4c-1,0-2,0.3-2.7,0.8c-0.8,0.5-1.4,1.2-1.8,2.1c-0.4,0.9-0.6,2-0.6,3.2
		c0,1.2,0.2,2.2,0.6,3.1c0.4,0.9,1,1.6,1.8,2.1C429.8,348.1,430.7,348.3,431.8,348.3z M437,349.6v-6l0.4-1.3L437,340v-5h1.7v14.6
		H437z"/>
	<path class="st0" d="M441.4,336.4V335h10.2v1.4H441.4z M448.8,349.9c-0.8,0-1.4-0.1-2-0.2c-0.6-0.1-1-0.4-1.4-0.8
		c-0.4-0.4-0.6-0.9-0.8-1.5c-0.2-0.6-0.3-1.4-0.3-2.4v-15.5h1.7V345c0,0.9,0.1,1.6,0.3,2.1c0.2,0.5,0.5,0.8,0.9,1
		c0.4,0.2,1,0.2,1.7,0.2c0.4,0,0.8,0,1.3-0.1c0.5-0.1,0.9-0.3,1.3-0.5v1.7c-0.3,0.1-0.6,0.2-0.9,0.3c-0.3,0.1-0.7,0.1-1,0.2
		C449.3,349.8,449,349.9,448.8,349.9z"/>
	<path class="st0" d="M454.5,331.2v-2.5h2.5v2.5H454.5z M454.9,349.6V335h1.7v14.6H454.9z"/>
	<path class="st0" d="M461.4,349.6V335h1.7v6.7h-0.6c0-1.4,0.2-2.7,0.7-3.7s1.1-1.8,2-2.4c0.9-0.6,1.9-0.8,3.1-0.8
		c0.9,0,1.7,0.1,2.3,0.4c0.7,0.2,1.2,0.6,1.7,1.1c0.5,0.5,0.8,1.2,1,1.9c0.2,0.8,0.3,1.7,0.3,2.7v8.6h-1.7v-8c0-1-0.1-1.9-0.3-2.5
		c-0.2-0.7-0.5-1.2-0.8-1.6c-0.4-0.4-0.8-0.7-1.3-0.8c-0.5-0.2-1.1-0.2-1.8-0.2c-0.8,0-1.6,0.2-2.3,0.7s-1.3,1.2-1.7,2.1
		c-0.4,1-0.6,2.2-0.6,3.8v6.6H461.4z"/>
	<path class="st0" d="M483.7,349.8c-1,0-1.9-0.2-2.7-0.5c-0.8-0.4-1.5-0.9-2.1-1.5s-1-1.5-1.4-2.4c-0.3-0.9-0.5-1.9-0.5-3
		c0-1.5,0.3-2.8,0.8-3.9c0.6-1.1,1.3-2,2.3-2.6c1-0.6,2.2-0.9,3.5-0.9c1.3,0,2.4,0.3,3.3,0.9s1.7,1.5,2.2,2.6c0.5,1.1,0.8,2.4,0.8,4
		s-0.3,2.9-0.8,4c-0.5,1.1-1.3,2-2.2,2.6C486.1,349.5,485,349.8,483.7,349.8z M484.4,356.1c-1.4,0-2.5-0.2-3.4-0.6
		c-0.9-0.4-1.6-0.9-2.1-1.6s-0.8-1.5-0.9-2.4h1.7c0.1,0.6,0.3,1.1,0.7,1.6s0.8,0.9,1.5,1.1c0.6,0.3,1.5,0.4,2.6,0.4
		c1,0,1.9-0.2,2.6-0.5c0.7-0.3,1.2-0.8,1.6-1.5s0.5-1.5,0.5-2.5v-5.5l0.5-2.3l-0.4-2.2v-5h1.7v15c0,1.3-0.3,2.4-0.8,3.3
		c-0.5,0.9-1.2,1.6-2.2,2.1S485.8,356.1,484.4,356.1z M484,348.3c1,0,1.9-0.3,2.7-0.8c0.8-0.5,1.4-1.2,1.8-2.1
		c0.4-0.9,0.6-2,0.6-3.2c0-0.9-0.1-1.7-0.4-2.5c-0.2-0.7-0.6-1.4-1.1-1.9c-0.5-0.5-1-0.9-1.6-1.2c-0.6-0.3-1.3-0.4-2.1-0.4
		c-1,0-2,0.3-2.7,0.8c-0.8,0.5-1.4,1.2-1.8,2.1c-0.4,0.9-0.6,2-0.6,3.2c0,1.2,0.2,2.2,0.6,3.1c0.4,0.9,1,1.6,1.8,2.1
		C482,348.1,482.9,348.3,484,348.3z"/>
	<path class="st0" d="M249.5,384.4v-21.9h1.7v12.6l-0.6,2l0.5,2.4v4.9H249.5z M256.8,384.6c-1,0-1.9-0.2-2.7-0.5
		c-0.8-0.3-1.5-0.9-2-1.5c-0.6-0.7-1-1.4-1.3-2.4c-0.3-0.9-0.5-1.9-0.5-3.1c0-1.5,0.3-2.9,0.8-4c0.5-1.1,1.3-2,2.3-2.6
		c1-0.6,2.1-0.9,3.4-0.9c1,0,1.9,0.2,2.7,0.5c0.8,0.4,1.5,0.9,2.1,1.5s1,1.5,1.4,2.4c0.3,0.9,0.5,1.9,0.5,3c0,1.5-0.3,2.8-0.8,3.9
		c-0.6,1.1-1.3,2-2.3,2.6C259.3,384.3,258.1,384.6,256.8,384.6z M256.5,383.1c1,0,2-0.3,2.7-0.8c0.8-0.5,1.4-1.2,1.8-2.1
		c0.4-0.9,0.7-2,0.7-3.1c0-1.2-0.2-2.3-0.7-3.2c-0.4-0.9-1-1.6-1.8-2.1s-1.7-0.8-2.7-0.8c-1,0-1.9,0.3-2.7,0.8s-1.4,1.2-1.8,2.1
		c-0.4,0.9-0.7,2-0.7,3.2c0,0.9,0.1,1.7,0.4,2.5c0.3,0.7,0.6,1.4,1.1,1.9c0.5,0.5,1,0.9,1.6,1.2C255,383,255.7,383.1,256.5,383.1z"
		/>
	<path class="st0" d="M272.8,384.6c-1,0-1.9-0.2-2.7-0.5c-0.8-0.4-1.5-0.9-2.1-1.5s-1-1.5-1.3-2.4c-0.3-0.9-0.5-1.9-0.5-3
		c0-1.5,0.3-2.8,0.8-3.9c0.6-1.1,1.3-2,2.3-2.6c1-0.6,2.2-0.9,3.5-0.9c1,0,1.8,0.2,2.6,0.5c0.8,0.3,1.5,0.9,2,1.5
		c0.6,0.7,1,1.4,1.3,2.4s0.5,1.9,0.5,3.1c0,1.5-0.3,2.9-0.8,4c-0.5,1.1-1.3,2-2.3,2.6C275.2,384.3,274.1,384.6,272.8,384.6z
		 M273.1,383.1c1,0,1.9-0.3,2.7-0.8c0.8-0.5,1.4-1.2,1.8-2.1c0.4-0.9,0.6-2,0.6-3.2c0-0.9-0.1-1.7-0.4-2.5c-0.2-0.7-0.6-1.4-1.1-1.9
		c-0.5-0.5-1-0.9-1.6-1.2c-0.6-0.3-1.3-0.4-2.1-0.4c-1,0-2,0.3-2.7,0.8s-1.4,1.2-1.8,2.1c-0.4,0.9-0.6,2-0.6,3.2
		c0,1.2,0.2,2.2,0.6,3.1c0.4,0.9,1,1.6,1.8,2.1C271.1,382.9,272.1,383.1,273.1,383.1z M278.3,384.4v-6l0.4-1.3l-0.4-2.2v-5h1.7v14.6
		H278.3z"/>
	<path class="st0" d="M284.7,384.4v-21.9h1.7v21.9H284.7z"/>
	<path class="st0" d="M296.8,384.6c-1,0-1.9-0.2-2.7-0.5c-0.8-0.4-1.5-0.9-2.1-1.5s-1-1.5-1.3-2.4c-0.3-0.9-0.5-1.9-0.5-3
		c0-1.5,0.3-2.8,0.8-3.9c0.6-1.1,1.3-2,2.3-2.6c1-0.6,2.2-0.9,3.5-0.9c1,0,1.8,0.2,2.6,0.5c0.8,0.3,1.5,0.9,2,1.5
		c0.6,0.7,1,1.4,1.3,2.4s0.5,1.9,0.5,3.1c0,1.5-0.3,2.9-0.8,4c-0.5,1.1-1.3,2-2.3,2.6C299.2,384.3,298.1,384.6,296.8,384.6z
		 M297.1,383.1c1,0,1.9-0.3,2.7-0.8c0.8-0.5,1.4-1.2,1.8-2.1c0.4-0.9,0.6-2,0.6-3.2c0-0.9-0.1-1.7-0.4-2.5c-0.2-0.7-0.6-1.4-1.1-1.9
		c-0.5-0.5-1-0.9-1.6-1.2c-0.6-0.3-1.3-0.4-2.1-0.4c-1,0-2,0.3-2.7,0.8s-1.4,1.2-1.8,2.1c-0.4,0.9-0.6,2-0.6,3.2
		c0,1.2,0.2,2.2,0.6,3.1c0.4,0.9,1,1.6,1.8,2.1C295.2,382.9,296.1,383.1,297.1,383.1z M302.3,384.4v-6l0.4-1.3l-0.4-2.2v-5h1.7v14.6
		H302.3z"/>
	<path class="st0" d="M308.7,384.4v-14.6h1.7v6.7h-0.6c0-1.4,0.2-2.7,0.7-3.7c0.5-1,1.1-1.8,2-2.4c0.9-0.6,1.9-0.8,3.1-0.8
		c0.9,0,1.7,0.1,2.3,0.4c0.7,0.2,1.2,0.6,1.7,1.1c0.5,0.5,0.8,1.2,1,1.9c0.2,0.8,0.3,1.7,0.3,2.7v8.6h-1.7v-8c0-1-0.1-1.9-0.3-2.5
		c-0.2-0.7-0.5-1.2-0.8-1.6c-0.4-0.4-0.8-0.7-1.3-0.8c-0.5-0.2-1.1-0.2-1.8-0.2c-0.8,0-1.6,0.2-2.3,0.7c-0.7,0.4-1.3,1.2-1.7,2.1
		c-0.4,1-0.6,2.2-0.6,3.8v6.6H308.7z"/>
	<path class="st0" d="M331.2,384.6c-1.5,0-2.7-0.3-3.8-1c-1-0.6-1.8-1.5-2.3-2.6c-0.5-1.1-0.8-2.4-0.8-3.9c0-1.4,0.3-2.7,0.8-3.9
		c0.5-1.1,1.3-2,2.3-2.7c1-0.6,2.3-1,3.7-1c1.1,0,2.1,0.2,2.9,0.6c0.9,0.4,1.6,1,2.2,1.7c0.6,0.7,1,1.5,1.1,2.5h-1.7
		c-0.2-0.7-0.5-1.2-0.9-1.7c-0.4-0.5-0.9-0.9-1.6-1.1c-0.6-0.3-1.3-0.4-2.1-0.4c-1.1,0-2,0.3-2.8,0.8s-1.3,1.2-1.7,2.1
		c-0.4,0.9-0.6,1.9-0.6,3.1s0.2,2.2,0.6,3.1s0.9,1.6,1.7,2.1c0.7,0.5,1.7,0.8,2.8,0.8c1.2,0,2.2-0.3,3-0.9c0.8-0.6,1.3-1.5,1.6-2.7
		h1.7c-0.2,1.1-0.5,2-1.1,2.7c-0.6,0.8-1.3,1.3-2.1,1.7C333.3,384.4,332.3,384.6,331.2,384.6z"/>
	<path class="st0" d="M347,384.6c-1.5,0-2.7-0.3-3.8-1s-1.9-1.5-2.5-2.6c-0.6-1.1-0.8-2.4-0.8-3.9c0-1.4,0.3-2.7,0.8-3.9
		s1.3-2,2.4-2.7c1-0.6,2.3-1,3.7-1c1.4,0,2.6,0.3,3.6,1c1,0.6,1.8,1.5,2.3,2.6c0.5,1.1,0.8,2.4,0.8,3.8v0.6H341v-1.4h11.4l-0.4,0.6
		c0-1.1-0.2-2.1-0.6-3c-0.4-0.9-1-1.6-1.8-2c-0.8-0.5-1.7-0.7-2.7-0.7c-1,0-1.9,0.2-2.7,0.7c-0.8,0.5-1.4,1.2-1.8,2
		c-0.4,0.9-0.7,2-0.7,3.2c0,1.2,0.2,2.3,0.7,3.2c0.4,0.9,1.1,1.6,1.9,2.1c0.8,0.5,1.7,0.7,2.8,0.7c0.8,0,1.5-0.1,2.2-0.4
		c0.6-0.3,1.2-0.6,1.6-1.1c0.4-0.5,0.7-1,0.9-1.6h1.7c-0.2,0.9-0.5,1.6-1.1,2.3s-1.3,1.2-2.2,1.6C349.2,384.4,348.2,384.6,347,384.6
		z"/>
	<path class="st0" d="M363,384.6c-1,0-1.9-0.2-2.7-0.5c-0.8-0.4-1.5-0.9-2.1-1.5s-1-1.5-1.3-2.4c-0.3-0.9-0.5-1.9-0.5-3
		c0-1.5,0.3-2.8,0.8-3.9c0.6-1.1,1.3-2,2.3-2.6c1-0.6,2.2-0.9,3.5-0.9c1,0,1.8,0.2,2.6,0.5c0.8,0.3,1.5,0.9,2,1.5
		c0.6,0.7,1,1.4,1.3,2.4s0.5,1.9,0.5,3.1c0,1.5-0.3,2.9-0.8,4c-0.5,1.1-1.3,2-2.3,2.6C365.5,384.3,364.3,384.6,363,384.6z
		 M363.3,383.1c1,0,1.9-0.3,2.7-0.8c0.8-0.5,1.4-1.2,1.8-2.1c0.4-0.9,0.6-2,0.6-3.2c0-0.9-0.1-1.7-0.4-2.5c-0.2-0.7-0.6-1.4-1.1-1.9
		c-0.5-0.5-1-0.9-1.6-1.2c-0.6-0.3-1.3-0.4-2.1-0.4c-1,0-2,0.3-2.7,0.8s-1.4,1.2-1.8,2.1c-0.4,0.9-0.6,2-0.6,3.2
		c0,1.2,0.2,2.2,0.6,3.1c0.4,0.9,1,1.6,1.8,2.1C361.4,382.9,362.3,383.1,363.3,383.1z M368.5,384.4v-5l0.5-2.4l-0.5-1.9v-12.6h1.7
		v21.9H368.5z"/>
	<path class="st0" d="M381.6,384.4v-14.6h1.7v6.7h-0.6c0-1.4,0.2-2.7,0.6-3.7c0.4-1,1-1.8,1.8-2.4c0.8-0.6,1.7-0.8,2.8-0.8
		c0.8,0,1.5,0.1,2.1,0.4c0.6,0.2,1.1,0.6,1.6,1.1c0.4,0.5,0.7,1.1,1,1.9c0.2,0.8,0.3,1.6,0.3,2.7h-0.9c0.1-1.3,0.4-2.4,0.9-3.3
		c0.5-0.9,1.1-1.6,2-2c0.8-0.5,1.7-0.7,2.7-0.7c0.8,0,1.6,0.1,2.2,0.4c0.6,0.3,1.2,0.6,1.6,1.1s0.8,1.2,1,1.9
		c0.2,0.8,0.3,1.7,0.3,2.7v8.6H401v-8c0-1-0.1-1.9-0.3-2.6c-0.2-0.7-0.4-1.2-0.8-1.6s-0.7-0.7-1.2-0.8c-0.5-0.2-1-0.2-1.5-0.2
		c-0.7,0-1.4,0.2-2.1,0.7c-0.6,0.4-1.2,1.2-1.6,2.1s-0.6,2.2-0.6,3.8v6.6h-1.7v-8c0-1-0.1-1.9-0.3-2.5c-0.2-0.7-0.4-1.2-0.7-1.6
		c-0.3-0.4-0.7-0.7-1.2-0.8c-0.5-0.2-1-0.2-1.5-0.2c-0.7,0-1.4,0.2-2.1,0.7c-0.6,0.4-1.2,1.2-1.6,2.1c-0.4,1-0.6,2.2-0.6,3.8v6.6
		H381.6z"/>
	<path class="st0" d="M413.3,384.6c-1.5,0-2.7-0.3-3.8-1s-1.9-1.5-2.5-2.6c-0.6-1.1-0.8-2.4-0.8-3.9c0-1.4,0.3-2.7,0.8-3.9
		s1.3-2,2.4-2.7c1-0.6,2.3-1,3.7-1c1.4,0,2.6,0.3,3.6,1c1,0.6,1.8,1.5,2.3,2.6c0.5,1.1,0.8,2.4,0.8,3.8v0.6h-12.6v-1.4h11.4
		l-0.4,0.6c0-1.1-0.2-2.1-0.6-3c-0.4-0.9-1-1.6-1.8-2c-0.8-0.5-1.7-0.7-2.7-0.7c-1,0-1.9,0.2-2.7,0.7c-0.8,0.5-1.4,1.2-1.8,2
		c-0.4,0.9-0.7,2-0.7,3.2c0,1.2,0.2,2.3,0.7,3.2c0.4,0.9,1.1,1.6,1.9,2.1c0.8,0.5,1.7,0.7,2.8,0.7c0.8,0,1.5-0.1,2.2-0.4
		c0.6-0.3,1.2-0.6,1.6-1.1c0.4-0.5,0.7-1,0.9-1.6h1.7c-0.2,0.9-0.5,1.6-1.1,2.3s-1.3,1.2-2.2,1.6
		C415.4,384.4,414.4,384.6,413.3,384.6z"/>
	<path class="st0" d="M429.3,384.6c-1,0-1.9-0.2-2.7-0.5c-0.8-0.4-1.5-0.9-2.1-1.5s-1-1.5-1.3-2.4c-0.3-0.9-0.5-1.9-0.5-3
		c0-1.5,0.3-2.8,0.8-3.9c0.6-1.1,1.3-2,2.3-2.6c1-0.6,2.2-0.9,3.5-0.9c1,0,1.8,0.2,2.6,0.5c0.8,0.3,1.5,0.9,2,1.5
		c0.6,0.7,1,1.4,1.3,2.4s0.5,1.9,0.5,3.1c0,1.5-0.3,2.9-0.8,4c-0.5,1.1-1.3,2-2.3,2.6C431.7,384.3,430.6,384.6,429.3,384.6z
		 M429.6,383.1c1,0,1.9-0.3,2.7-0.8c0.8-0.5,1.4-1.2,1.8-2.1c0.4-0.9,0.6-2,0.6-3.2c0-0.9-0.1-1.7-0.4-2.5c-0.2-0.7-0.6-1.4-1.1-1.9
		c-0.5-0.5-1-0.9-1.6-1.2c-0.6-0.3-1.3-0.4-2.1-0.4c-1,0-2,0.3-2.7,0.8s-1.4,1.2-1.8,2.1c-0.4,0.9-0.6,2-0.6,3.2
		c0,1.2,0.2,2.2,0.6,3.1c0.4,0.9,1,1.6,1.8,2.1C427.6,382.9,428.5,383.1,429.6,383.1z M434.8,384.4v-6l0.4-1.3l-0.4-2.2v-5h1.7v14.6
		H434.8z"/>
	<path class="st0" d="M441.2,384.4v-21.9h1.7v21.9H441.2z"/>
	<path class="st0" d="M452.2,384.6c-1.2,0-2.2-0.2-3-0.6c-0.8-0.4-1.5-0.9-1.9-1.5c-0.4-0.7-0.7-1.4-0.7-2.3h1.7
		c0,0.6,0.1,1.1,0.4,1.5c0.3,0.4,0.7,0.8,1.3,1c0.6,0.3,1.3,0.4,2.1,0.4c1.1,0,2-0.2,2.6-0.7c0.6-0.5,0.9-1.1,0.9-1.9
		c0-0.6-0.2-1-0.5-1.4c-0.3-0.3-0.7-0.6-1.2-0.8c-0.5-0.2-1.1-0.4-1.7-0.5c-0.6-0.1-1.2-0.3-1.9-0.4c-0.6-0.2-1.2-0.4-1.7-0.7
		c-0.5-0.3-0.9-0.7-1.2-1.2c-0.3-0.5-0.5-1.1-0.5-1.9c0-1.2,0.4-2.2,1.3-2.9c0.9-0.7,2.1-1.1,3.6-1.1c1,0,1.9,0.2,2.7,0.5
		c0.8,0.3,1.4,0.8,1.8,1.5c0.4,0.6,0.7,1.4,0.7,2.2h-1.7c0-0.8-0.3-1.5-1-2c-0.6-0.5-1.5-0.8-2.4-0.8c-1,0-1.8,0.2-2.4,0.7
		c-0.6,0.4-0.9,1.1-0.9,1.8c0,0.6,0.2,1,0.5,1.4c0.3,0.3,0.7,0.6,1.2,0.8c0.5,0.2,1.1,0.3,1.7,0.4c0.6,0.1,1.2,0.3,1.9,0.4
		c0.6,0.2,1.2,0.4,1.7,0.7c0.5,0.3,0.9,0.7,1.2,1.2c0.3,0.5,0.5,1.2,0.5,2c0,1.3-0.5,2.3-1.4,3C455.1,384.2,453.8,384.6,452.2,384.6
		z"/>
	<path class="st0" d="M470.5,384.5l-4.8-14.6h1.8l3.7,11.8l4.3-11.9h1.3l4.3,11.7l3.7-11.7h1.8l-4.8,14.6h-1.2l-4.4-11.9l-4.3,11.9
		H470.5z"/>
	<path class="st0" d="M488.8,366v-2.5h2.5v2.5H488.8z M489.1,384.4v-14.6h1.7v14.6H489.1z"/>
	<path class="st0" d="M493.6,371.2v-1.4h10.2v1.4H493.6z M501,384.7c-0.8,0-1.4-0.1-2-0.2c-0.6-0.1-1-0.4-1.4-0.8
		c-0.4-0.4-0.6-0.9-0.8-1.5s-0.3-1.4-0.3-2.4v-15.5h1.7v15.5c0,0.9,0.1,1.6,0.3,2.1c0.2,0.5,0.5,0.8,0.9,1c0.4,0.2,1,0.2,1.7,0.2
		c0.4,0,0.8,0,1.3-0.1c0.5-0.1,0.9-0.3,1.3-0.5v1.7c-0.3,0.1-0.6,0.2-0.9,0.3c-0.3,0.1-0.7,0.1-1,0.2
		C501.5,384.6,501.2,384.7,501,384.7z"/>
	<path class="st0" d="M507.1,384.4v-21.9h1.7v14.1h-0.6c0-1.4,0.2-2.7,0.7-3.7c0.5-1,1.1-1.8,2-2.4c0.9-0.6,1.9-0.8,3.1-0.8
		c0.9,0,1.7,0.1,2.3,0.4c0.7,0.2,1.2,0.6,1.7,1.1c0.5,0.5,0.8,1.2,1,1.9c0.2,0.8,0.3,1.7,0.3,2.7v8.6h-1.7v-8c0-1-0.1-1.9-0.3-2.5
		c-0.2-0.7-0.5-1.2-0.8-1.6c-0.4-0.4-0.8-0.7-1.3-0.8c-0.5-0.2-1.1-0.2-1.8-0.2c-0.8,0-1.6,0.2-2.3,0.7c-0.7,0.4-1.3,1.2-1.7,2.1
		c-0.4,1-0.6,2.2-0.6,3.8v6.6H507.1z"/>
	<path class="st0" d="M535,384.6c-1.2,0-2.2-0.2-3-0.6c-0.8-0.4-1.5-0.9-1.9-1.5c-0.4-0.7-0.7-1.4-0.7-2.3h1.7
		c0,0.6,0.1,1.1,0.4,1.5c0.3,0.4,0.7,0.8,1.3,1c0.6,0.3,1.3,0.4,2.1,0.4c1.1,0,2-0.2,2.6-0.7c0.6-0.5,0.9-1.1,0.9-1.9
		c0-0.6-0.2-1-0.5-1.4c-0.3-0.3-0.7-0.6-1.2-0.8c-0.5-0.2-1.1-0.4-1.7-0.5c-0.6-0.1-1.2-0.3-1.9-0.4c-0.6-0.2-1.2-0.4-1.7-0.7
		c-0.5-0.3-0.9-0.7-1.2-1.2c-0.3-0.5-0.5-1.1-0.5-1.9c0-1.2,0.4-2.2,1.3-2.9c0.9-0.7,2.1-1.1,3.6-1.1c1,0,1.9,0.2,2.7,0.5
		c0.8,0.3,1.4,0.8,1.8,1.5c0.4,0.6,0.7,1.4,0.7,2.2h-1.7c0-0.8-0.3-1.5-1-2c-0.6-0.5-1.5-0.8-2.4-0.8c-1,0-1.8,0.2-2.4,0.7
		c-0.6,0.4-0.9,1.1-0.9,1.8c0,0.6,0.2,1,0.5,1.4c0.3,0.3,0.7,0.6,1.2,0.8c0.5,0.2,1.1,0.3,1.7,0.4c0.6,0.1,1.2,0.3,1.9,0.4
		c0.6,0.2,1.2,0.4,1.7,0.7c0.5,0.3,0.9,0.7,1.2,1.2c0.3,0.5,0.5,1.2,0.5,2c0,1.3-0.5,2.3-1.4,3C537.9,384.2,536.6,384.6,535,384.6z"
		/>
	<path class="st0" d="M549.7,384.6c-1,0-1.9-0.2-2.7-0.5c-0.8-0.4-1.5-0.9-2.1-1.5s-1-1.5-1.3-2.4c-0.3-0.9-0.5-1.9-0.5-3
		c0-1.5,0.3-2.8,0.8-3.9c0.6-1.1,1.3-2,2.3-2.6c1-0.6,2.2-0.9,3.5-0.9c1,0,1.8,0.2,2.6,0.5c0.8,0.3,1.5,0.9,2,1.5
		c0.6,0.7,1,1.4,1.3,2.4s0.5,1.9,0.5,3.1c0,1.5-0.3,2.9-0.8,4c-0.5,1.1-1.3,2-2.3,2.6C552.1,384.3,551,384.6,549.7,384.6z
		 M550,383.1c1,0,1.9-0.3,2.7-0.8c0.8-0.5,1.4-1.2,1.8-2.1c0.4-0.9,0.6-2,0.6-3.2c0-0.9-0.1-1.7-0.4-2.5c-0.2-0.7-0.6-1.4-1.1-1.9
		c-0.5-0.5-1-0.9-1.6-1.2c-0.6-0.3-1.3-0.4-2.1-0.4c-1,0-2,0.3-2.7,0.8s-1.4,1.2-1.8,2.1c-0.4,0.9-0.6,2-0.6,3.2
		c0,1.2,0.2,2.2,0.6,3.1c0.4,0.9,1,1.6,1.8,2.1C548,382.9,548.9,383.1,550,383.1z M555.1,384.4v-6l0.4-1.3l-0.4-2.2v-5h1.7v14.6
		H555.1z"/>
	<path class="st0" d="M559.7,371.2v-1.4h9.3v1.4H559.7z M562.3,384.4v-16.7c0-1.3,0.2-2.3,0.5-3.1c0.3-0.8,0.9-1.4,1.5-1.8
		c0.7-0.4,1.5-0.6,2.6-0.6c0.3,0,0.6,0,0.8,0.1c0.3,0,0.5,0.1,0.7,0.1c0.2,0.1,0.4,0.1,0.5,0.2v1.6c-0.3-0.2-0.6-0.3-1-0.4
		c-0.4-0.1-0.7-0.1-1.1-0.1c-1,0-1.7,0.3-2.2,1c-0.5,0.7-0.7,1.7-0.7,3v16.6H562.3z"/>
	<path class="st0" d="M577.4,384.6c-1.5,0-2.7-0.3-3.8-1s-1.9-1.5-2.5-2.6c-0.6-1.1-0.8-2.4-0.8-3.9c0-1.4,0.3-2.7,0.8-3.9
		s1.3-2,2.4-2.7c1-0.6,2.3-1,3.7-1c1.4,0,2.6,0.3,3.6,1c1,0.6,1.8,1.5,2.3,2.6c0.5,1.1,0.8,2.4,0.8,3.8v0.6h-12.6v-1.4h11.4
		l-0.4,0.6c0-1.1-0.2-2.1-0.6-3c-0.4-0.9-1-1.6-1.8-2c-0.8-0.5-1.7-0.7-2.7-0.7c-1,0-1.9,0.2-2.7,0.7c-0.8,0.5-1.4,1.2-1.8,2
		c-0.4,0.9-0.7,2-0.7,3.2c0,1.2,0.2,2.3,0.7,3.2c0.4,0.9,1.1,1.6,1.9,2.1c0.8,0.5,1.7,0.7,2.8,0.7c0.8,0,1.5-0.1,2.2-0.4
		c0.6-0.3,1.2-0.6,1.6-1.1c0.4-0.5,0.7-1,0.9-1.6h1.7c-0.2,0.9-0.5,1.6-1.1,2.3s-1.3,1.2-2.2,1.6
		C579.5,384.4,578.5,384.6,577.4,384.6z"/>
	<path class="st0" d="M586.7,389.3l0.9-5h-1v-2.5h2.4v2.3l-1.4,5.1H586.7z"/>
	<path class="st0" d="M255.4,419.4c-1.5,0-2.7-0.3-3.8-1c-1-0.6-1.8-1.5-2.3-2.6c-0.5-1.1-0.8-2.4-0.8-3.9c0-1.4,0.3-2.7,0.8-3.9
		c0.5-1.1,1.3-2,2.3-2.7c1-0.6,2.3-1,3.7-1c1.1,0,2.1,0.2,2.9,0.6c0.9,0.4,1.6,1,2.2,1.7c0.6,0.7,1,1.5,1.1,2.5H260
		c-0.2-0.7-0.5-1.2-0.9-1.7c-0.4-0.5-0.9-0.9-1.6-1.1c-0.6-0.3-1.3-0.4-2.1-0.4c-1.1,0-2,0.3-2.8,0.8s-1.3,1.2-1.7,2.1
		c-0.4,0.9-0.6,1.9-0.6,3.1s0.2,2.2,0.6,3.1s0.9,1.6,1.7,2.1c0.7,0.5,1.7,0.8,2.8,0.8c1.2,0,2.2-0.3,3-0.9c0.8-0.6,1.3-1.5,1.6-2.7
		h1.7c-0.2,1.1-0.5,2-1.1,2.7c-0.6,0.8-1.3,1.3-2.1,1.7C257.6,419.2,256.5,419.4,255.4,419.4z"/>
	<path class="st0" d="M265.1,419.2v-21.9h1.7v21.9H265.1z"/>
	<path class="st0" d="M277.7,419.4c-1.5,0-2.7-0.3-3.8-1s-1.9-1.5-2.5-2.6c-0.6-1.1-0.8-2.4-0.8-3.9c0-1.4,0.3-2.7,0.8-3.9
		s1.3-2,2.4-2.7c1-0.6,2.3-1,3.7-1c1.4,0,2.6,0.3,3.6,1c1,0.6,1.8,1.5,2.3,2.6c0.5,1.1,0.8,2.4,0.8,3.8v0.6h-12.6V411h11.4l-0.4,0.6
		c0-1.1-0.2-2.1-0.6-3c-0.4-0.9-1-1.6-1.8-2c-0.8-0.5-1.7-0.7-2.7-0.7c-1,0-1.9,0.2-2.7,0.7c-0.8,0.5-1.4,1.2-1.8,2
		c-0.4,0.9-0.7,2-0.7,3.2c0,1.2,0.2,2.3,0.7,3.2c0.4,0.9,1.1,1.6,1.9,2.1c0.8,0.5,1.7,0.7,2.8,0.7c0.8,0,1.5-0.1,2.2-0.4
		c0.6-0.3,1.2-0.6,1.6-1.1c0.4-0.5,0.7-1,0.9-1.6h1.7c-0.2,0.9-0.5,1.6-1.1,2.3s-1.3,1.2-2.2,1.6
		C279.9,419.2,278.8,419.4,277.7,419.4z"/>
	<path class="st0" d="M293.7,419.4c-1,0-1.9-0.2-2.7-0.5c-0.8-0.4-1.5-0.9-2.1-1.5s-1-1.5-1.3-2.4c-0.3-0.9-0.5-1.9-0.5-3
		c0-1.5,0.3-2.8,0.8-3.9c0.6-1.1,1.3-2,2.3-2.6c1-0.6,2.2-0.9,3.5-0.9c1,0,1.8,0.2,2.6,0.5c0.8,0.3,1.5,0.9,2,1.5
		c0.6,0.7,1,1.4,1.3,2.4s0.5,1.9,0.5,3.1c0,1.5-0.3,2.9-0.8,4c-0.5,1.1-1.3,2-2.3,2.6C296.1,419.1,295,419.4,293.7,419.4z
		 M294,417.9c1,0,1.9-0.3,2.7-0.8c0.8-0.5,1.4-1.2,1.8-2.1c0.4-0.9,0.6-2,0.6-3.2c0-0.9-0.1-1.7-0.4-2.5c-0.2-0.7-0.6-1.4-1.1-1.9
		c-0.5-0.5-1-0.9-1.6-1.2c-0.6-0.3-1.3-0.4-2.1-0.4c-1,0-2,0.3-2.7,0.8s-1.4,1.2-1.8,2.1c-0.4,0.9-0.6,2-0.6,3.2
		c0,1.2,0.2,2.2,0.6,3.1c0.4,0.9,1,1.6,1.8,2.1C292.1,417.7,293,417.9,294,417.9z M299.2,419.2v-6l0.4-1.3l-0.4-2.2v-5h1.7v14.6
		H299.2z"/>
	<path class="st0" d="M305.6,419.2v-14.6h1.7v6.7h-0.6c0-1.4,0.2-2.7,0.7-3.7c0.5-1,1.1-1.8,2-2.4c0.9-0.6,1.9-0.8,3.1-0.8
		c0.9,0,1.7,0.1,2.3,0.4c0.7,0.2,1.2,0.6,1.7,1.1c0.5,0.5,0.8,1.2,1,1.9c0.2,0.8,0.3,1.7,0.3,2.7v8.6h-1.7v-8c0-1-0.1-1.9-0.3-2.5
		c-0.2-0.7-0.5-1.2-0.8-1.6c-0.4-0.4-0.8-0.7-1.3-0.8c-0.5-0.2-1.1-0.2-1.8-0.2c-0.8,0-1.6,0.2-2.3,0.7c-0.7,0.4-1.3,1.2-1.7,2.1
		c-0.4,1-0.6,2.2-0.6,3.8v6.6H305.6z"/>
	<path class="st0" d="M331.6,419.3l-4.8-14.6h1.8l3.7,11.8l4.3-11.9h1.3l4.3,11.7l3.7-11.7h1.8l-4.8,14.6h-1.2l-4.4-11.9l-4.3,11.9
		H331.6z"/>
	<path class="st0" d="M355.7,419.4c-1,0-1.9-0.2-2.7-0.5c-0.8-0.4-1.5-0.9-2.1-1.5s-1-1.5-1.3-2.4c-0.3-0.9-0.5-1.9-0.5-3
		c0-1.5,0.3-2.8,0.8-3.9c0.6-1.1,1.3-2,2.3-2.6c1-0.6,2.2-0.9,3.5-0.9c1,0,1.8,0.2,2.6,0.5c0.8,0.3,1.5,0.9,2,1.5
		c0.6,0.7,1,1.4,1.3,2.4s0.5,1.9,0.5,3.1c0,1.5-0.3,2.9-0.8,4c-0.5,1.1-1.3,2-2.3,2.6C358.2,419.1,357,419.4,355.7,419.4z
		 M356,417.9c1,0,1.9-0.3,2.7-0.8c0.8-0.5,1.4-1.2,1.8-2.1c0.4-0.9,0.6-2,0.6-3.2c0-0.9-0.1-1.7-0.4-2.5c-0.2-0.7-0.6-1.4-1.1-1.9
		c-0.5-0.5-1-0.9-1.6-1.2c-0.6-0.3-1.3-0.4-2.1-0.4c-1,0-2,0.3-2.7,0.8s-1.4,1.2-1.8,2.1c-0.4,0.9-0.6,2-0.6,3.2
		c0,1.2,0.2,2.2,0.6,3.1c0.4,0.9,1,1.6,1.8,2.1C354.1,417.7,355,417.9,356,417.9z M361.2,419.2v-6l0.4-1.3l-0.4-2.2v-5h1.7v14.6
		H361.2z"/>
	<path class="st0" d="M365.7,406v-1.4h10.2v1.4H365.7z M373,419.5c-0.8,0-1.4-0.1-2-0.2c-0.6-0.1-1-0.4-1.4-0.8
		c-0.4-0.4-0.6-0.9-0.8-1.5s-0.3-1.4-0.3-2.4v-15.5h1.7v15.5c0,0.9,0.1,1.6,0.3,2.1c0.2,0.5,0.5,0.8,0.9,1c0.4,0.2,1,0.2,1.7,0.2
		c0.4,0,0.8,0,1.3-0.1c0.5-0.1,0.9-0.3,1.3-0.5v1.7c-0.3,0.1-0.6,0.2-0.9,0.3c-0.3,0.1-0.7,0.1-1,0.2
		C373.6,419.4,373.3,419.5,373,419.5z"/>
	<path class="st0" d="M385.3,419.4c-1.5,0-2.7-0.3-3.8-1s-1.9-1.5-2.5-2.6c-0.6-1.1-0.8-2.4-0.8-3.9c0-1.4,0.3-2.7,0.8-3.9
		s1.3-2,2.4-2.7c1-0.6,2.3-1,3.7-1c1.4,0,2.6,0.3,3.6,1c1,0.6,1.8,1.5,2.3,2.6c0.5,1.1,0.8,2.4,0.8,3.8v0.6h-12.6V411h11.4l-0.4,0.6
		c0-1.1-0.2-2.1-0.6-3c-0.4-0.9-1-1.6-1.8-2c-0.8-0.5-1.7-0.7-2.7-0.7c-1,0-1.9,0.2-2.7,0.7c-0.8,0.5-1.4,1.2-1.8,2
		c-0.4,0.9-0.7,2-0.7,3.2c0,1.2,0.2,2.3,0.7,3.2c0.4,0.9,1.1,1.6,1.9,2.1c0.8,0.5,1.7,0.7,2.8,0.7c0.8,0,1.5-0.1,2.2-0.4
		c0.6-0.3,1.2-0.6,1.6-1.1c0.4-0.5,0.7-1,0.9-1.6h1.7c-0.2,0.9-0.5,1.6-1.1,2.3s-1.3,1.2-2.2,1.6
		C387.5,419.2,386.5,419.4,385.3,419.4z"/>
	<path class="st0" d="M395.6,419.2v-14.6h1.7v7.3h-0.5c0-1.6,0.3-2.9,0.7-4c0.4-1.1,1.1-1.9,1.9-2.5c0.8-0.6,1.8-0.9,3-0.9
		c0.2,0,0.3,0,0.4,0c0.1,0,0.3,0,0.4,0.1v1.7c-0.9,0-1.7,0.1-2.5,0.3c-0.7,0.2-1.4,0.5-1.9,1c-0.5,0.5-0.9,1.2-1.2,2.1
		c-0.3,0.9-0.4,2-0.4,3.4v6.2H395.6z"/>
	<path class="st0" d="M411,406v-1.4h10.2v1.4H411z M418.4,419.5c-0.8,0-1.4-0.1-2-0.2c-0.6-0.1-1-0.4-1.4-0.8
		c-0.4-0.4-0.6-0.9-0.8-1.5s-0.3-1.4-0.3-2.4v-15.5h1.7v15.5c0,0.9,0.1,1.6,0.3,2.1c0.2,0.5,0.5,0.8,0.9,1c0.4,0.2,1,0.2,1.7,0.2
		c0.4,0,0.8,0,1.3-0.1c0.5-0.1,0.9-0.3,1.3-0.5v1.7c-0.3,0.1-0.6,0.2-0.9,0.3c-0.3,0.1-0.7,0.1-1,0.2
		C418.9,419.4,418.6,419.5,418.4,419.5z"/>
	<path class="st0" d="M430.8,419.4c-1.4,0-2.7-0.3-3.8-1c-1.1-0.6-2-1.5-2.6-2.6c-0.6-1.1-0.9-2.4-0.9-3.9c0-1.5,0.3-2.8,0.9-3.9
		c0.6-1.1,1.5-2,2.6-2.6c1.1-0.6,2.4-1,3.8-1c1.5,0,2.8,0.3,3.8,1c1.1,0.6,1.9,1.5,2.5,2.6c0.6,1.1,0.9,2.4,0.9,3.9
		c0,1.5-0.3,2.8-0.9,3.9c-0.6,1.1-1.4,2-2.5,2.6C433.5,419.1,432.3,419.4,430.8,419.4z M430.8,417.9c1.1,0,2.1-0.3,2.9-0.8
		c0.8-0.5,1.4-1.2,1.9-2.1c0.4-0.9,0.7-1.9,0.7-3.1c0-0.9-0.1-1.6-0.4-2.4c-0.2-0.7-0.6-1.4-1.1-1.9s-1.1-1-1.7-1.2
		s-1.4-0.4-2.3-0.4c-1.1,0-2.1,0.3-2.9,0.8c-0.8,0.5-1.5,1.2-1.9,2.1c-0.4,0.9-0.7,1.9-0.7,3.1s0.2,2.2,0.7,3.1
		c0.4,0.9,1.1,1.6,1.9,2.1C428.7,417.6,429.7,417.9,430.8,417.9z"/>
	<path class="st0" d="M453.1,419.4c-1.2,0-2.2-0.2-3-0.6c-0.8-0.4-1.5-0.9-1.9-1.5c-0.4-0.7-0.7-1.4-0.7-2.3h1.7
		c0,0.6,0.1,1.1,0.4,1.5c0.3,0.4,0.7,0.8,1.3,1c0.6,0.3,1.3,0.4,2.1,0.4c1.1,0,2-0.2,2.6-0.7c0.6-0.5,0.9-1.1,0.9-1.9
		c0-0.6-0.2-1-0.5-1.4c-0.3-0.3-0.7-0.6-1.2-0.8c-0.5-0.2-1.1-0.4-1.7-0.5c-0.6-0.1-1.2-0.3-1.9-0.4c-0.6-0.2-1.2-0.4-1.7-0.7
		c-0.5-0.3-0.9-0.7-1.2-1.2c-0.3-0.5-0.5-1.1-0.5-1.9c0-1.2,0.4-2.2,1.3-2.9c0.9-0.7,2.1-1.1,3.6-1.1c1,0,1.9,0.2,2.7,0.5
		c0.8,0.3,1.4,0.8,1.8,1.5c0.4,0.6,0.7,1.4,0.7,2.2h-1.7c0-0.8-0.3-1.5-1-2c-0.6-0.5-1.5-0.8-2.4-0.8c-1,0-1.8,0.2-2.4,0.7
		c-0.6,0.4-0.9,1.1-0.9,1.8c0,0.6,0.2,1,0.5,1.4c0.3,0.3,0.7,0.6,1.2,0.8c0.5,0.2,1.1,0.3,1.7,0.4c0.6,0.1,1.2,0.3,1.9,0.4
		c0.6,0.2,1.2,0.4,1.7,0.7c0.5,0.3,0.9,0.7,1.2,1.2c0.3,0.5,0.5,1.2,0.5,2c0,1.3-0.5,2.3-1.4,3C455.9,419,454.7,419.4,453.1,419.4z"
		/>
	<path class="st0" d="M460.1,406v-1.4h10.2v1.4H460.1z M467.5,419.5c-0.8,0-1.4-0.1-2-0.2c-0.6-0.1-1-0.4-1.4-0.8
		c-0.4-0.4-0.6-0.9-0.8-1.5s-0.3-1.4-0.3-2.4v-15.5h1.7v15.5c0,0.9,0.1,1.6,0.3,2.1c0.2,0.5,0.5,0.8,0.9,1c0.4,0.2,1,0.2,1.7,0.2
		c0.4,0,0.8,0,1.3-0.1c0.5-0.1,0.9-0.3,1.3-0.5v1.7c-0.3,0.1-0.6,0.2-0.9,0.3c-0.3,0.1-0.7,0.1-1,0.2
		C468,419.4,467.7,419.5,467.5,419.5z"/>
	<path class="st0" d="M479.3,419.4c-1,0-1.9-0.2-2.7-0.5c-0.8-0.4-1.5-0.9-2.1-1.5s-1-1.5-1.3-2.4c-0.3-0.9-0.5-1.9-0.5-3
		c0-1.5,0.3-2.8,0.8-3.9c0.6-1.1,1.3-2,2.3-2.6c1-0.6,2.2-0.9,3.5-0.9c1,0,1.8,0.2,2.6,0.5c0.8,0.3,1.5,0.9,2,1.5
		c0.6,0.7,1,1.4,1.3,2.4s0.5,1.9,0.5,3.1c0,1.5-0.3,2.9-0.8,4c-0.5,1.1-1.3,2-2.3,2.6C481.7,419.1,480.6,419.4,479.3,419.4z
		 M479.6,417.9c1,0,1.9-0.3,2.7-0.8c0.8-0.5,1.4-1.2,1.8-2.1c0.4-0.9,0.6-2,0.6-3.2c0-0.9-0.1-1.7-0.4-2.5c-0.2-0.7-0.6-1.4-1.1-1.9
		c-0.5-0.5-1-0.9-1.6-1.2c-0.6-0.3-1.3-0.4-2.1-0.4c-1,0-2,0.3-2.7,0.8s-1.4,1.2-1.8,2.1c-0.4,0.9-0.6,2-0.6,3.2
		c0,1.2,0.2,2.2,0.6,3.1c0.4,0.9,1,1.6,1.8,2.1C477.6,417.7,478.5,417.9,479.6,417.9z M484.8,419.2v-6l0.4-1.3l-0.4-2.2v-5h1.7v14.6
		H484.8z"/>
	<path class="st0" d="M495.3,419.6l-6.2-15h1.9l5.2,13L495.3,419.6z M492.1,425.5l3.2-7.9l0.1-0.4l5.2-12.6h1.9l-8.6,20.9H492.1z"/>
	<path class="st0" d="M255.7,454.2c-1.5,0-2.7-0.3-3.8-1s-1.9-1.5-2.5-2.6c-0.6-1.1-0.8-2.4-0.8-3.9c0-1.4,0.3-2.7,0.8-3.9
		s1.3-2,2.4-2.7c1-0.6,2.3-1,3.7-1c1.4,0,2.6,0.3,3.6,1c1,0.6,1.8,1.5,2.3,2.6c0.5,1.1,0.8,2.4,0.8,3.8v0.6h-12.6v-1.4h11.4
		l-0.4,0.6c0-1.1-0.2-2.1-0.6-3c-0.4-0.9-1-1.6-1.8-2c-0.8-0.5-1.7-0.7-2.7-0.7c-1,0-1.9,0.2-2.7,0.7c-0.8,0.5-1.4,1.2-1.8,2
		c-0.4,0.9-0.7,2-0.7,3.2c0,1.2,0.2,2.3,0.7,3.2c0.4,0.9,1.1,1.6,1.9,2.1c0.8,0.5,1.7,0.7,2.8,0.7c0.8,0,1.5-0.1,2.2-0.4
		c0.6-0.3,1.2-0.6,1.6-1.1c0.4-0.5,0.7-1,0.9-1.6h1.7c-0.2,0.9-0.5,1.6-1.1,2.3s-1.3,1.2-2.2,1.6C257.9,454,256.8,454.2,255.7,454.2
		z"/>
	<path class="st0" d="M266,454v-14.6h1.7v6.7h-0.6c0-1.4,0.2-2.7,0.7-3.7c0.5-1,1.1-1.8,2-2.4c0.9-0.6,1.9-0.8,3.1-0.8
		c0.9,0,1.7,0.1,2.3,0.4c0.7,0.2,1.2,0.6,1.7,1.1c0.5,0.5,0.8,1.2,1,1.9c0.2,0.8,0.3,1.7,0.3,2.7v8.6h-1.7v-8c0-1-0.1-1.9-0.3-2.5
		c-0.2-0.7-0.5-1.2-0.8-1.6c-0.4-0.4-0.8-0.7-1.3-0.8c-0.5-0.2-1.1-0.2-1.8-0.2c-0.8,0-1.6,0.2-2.3,0.7c-0.7,0.4-1.3,1.2-1.7,2.1
		c-0.4,1-0.6,2.2-0.6,3.8v6.6H266z"/>
	<path class="st0" d="M288.8,454.2c-1.5,0-2.7-0.3-3.8-1s-1.9-1.5-2.5-2.6c-0.6-1.1-0.8-2.4-0.8-3.9c0-1.4,0.3-2.7,0.8-3.9
		s1.3-2,2.4-2.7c1-0.6,2.3-1,3.7-1c1.4,0,2.6,0.3,3.6,1c1,0.6,1.8,1.5,2.3,2.6c0.5,1.1,0.8,2.4,0.8,3.8v0.6h-12.6v-1.4h11.4
		l-0.4,0.6c0-1.1-0.2-2.1-0.6-3c-0.4-0.9-1-1.6-1.8-2c-0.8-0.5-1.7-0.7-2.7-0.7c-1,0-1.9,0.2-2.7,0.7c-0.8,0.5-1.4,1.2-1.8,2
		c-0.4,0.9-0.7,2-0.7,3.2c0,1.2,0.2,2.3,0.7,3.2c0.4,0.9,1.1,1.6,1.9,2.1c0.8,0.5,1.7,0.7,2.8,0.7c0.8,0,1.5-0.1,2.2-0.4
		c0.6-0.3,1.2-0.6,1.6-1.1c0.4-0.5,0.7-1,0.9-1.6h1.7c-0.2,0.9-0.5,1.6-1.1,2.3s-1.3,1.2-2.2,1.6C290.9,454,289.9,454.2,288.8,454.2
		z"/>
	<path class="st0" d="M299.1,454v-14.6h1.7v7.3h-0.5c0-1.6,0.3-2.9,0.7-4c0.4-1.1,1.1-1.9,1.9-2.5c0.8-0.6,1.8-0.9,3-0.9
		c0.2,0,0.3,0,0.4,0c0.1,0,0.3,0,0.4,0.1v1.7c-0.9,0-1.7,0.1-2.5,0.3c-0.7,0.2-1.4,0.5-1.9,1c-0.5,0.5-0.9,1.2-1.2,2.1
		c-0.3,0.9-0.4,2-0.4,3.4v6.2H299.1z"/>
	<path class="st0" d="M315.3,454.2c-1,0-1.9-0.2-2.7-0.5c-0.8-0.4-1.5-0.9-2.1-1.5s-1-1.5-1.4-2.4c-0.3-0.9-0.5-1.9-0.5-3
		c0-1.5,0.3-2.8,0.8-3.9c0.6-1.1,1.3-2,2.3-2.6c1-0.6,2.2-0.9,3.5-0.9c1.3,0,2.4,0.3,3.3,0.9c1,0.6,1.7,1.5,2.2,2.6
		c0.5,1.1,0.8,2.4,0.8,4c0,1.5-0.3,2.9-0.8,4c-0.5,1.1-1.3,2-2.2,2.6C317.7,453.9,316.5,454.2,315.3,454.2z M315.9,460.5
		c-1.4,0-2.5-0.2-3.4-0.6s-1.6-0.9-2.1-1.6c-0.5-0.7-0.8-1.5-0.9-2.4h1.7c0.1,0.6,0.3,1.1,0.7,1.6c0.3,0.5,0.8,0.9,1.5,1.1
		s1.5,0.4,2.6,0.4c1,0,1.9-0.2,2.6-0.5c0.7-0.3,1.2-0.8,1.6-1.5c0.3-0.7,0.5-1.5,0.5-2.5V449l0.5-2.3l-0.4-2.2v-5h1.7v15
		c0,1.3-0.3,2.4-0.8,3.3c-0.5,0.9-1.2,1.6-2.2,2.1S317.3,460.5,315.9,460.5z M315.5,452.7c1,0,1.9-0.3,2.7-0.8
		c0.8-0.5,1.4-1.2,1.8-2.1c0.4-0.9,0.6-2,0.6-3.2c0-0.9-0.1-1.7-0.4-2.5c-0.2-0.7-0.6-1.4-1.1-1.9c-0.5-0.5-1-0.9-1.6-1.2
		c-0.6-0.3-1.3-0.4-2.1-0.4c-1,0-2,0.3-2.7,0.8s-1.4,1.2-1.8,2.1c-0.4,0.9-0.6,2-0.6,3.2c0,1.2,0.2,2.2,0.6,3.1
		c0.4,0.9,1,1.6,1.8,2.1C313.5,452.5,314.5,452.7,315.5,452.7z"/>
	<path class="st0" d="M326.7,435.6v-2.5h2.5v2.5H326.7z M327.1,454v-14.6h1.7V454H327.1z"/>
	<path class="st0" d="M332.6,454v-1.2l9.7-13l0.2,1H333v-1.4h10.8v1.2l-9.7,13l-0.2-1h10.1v1.4H332.6z"/>
	<path class="st0" d="M353.8,454.2c-1.5,0-2.7-0.3-3.8-1s-1.9-1.5-2.5-2.6c-0.6-1.1-0.8-2.4-0.8-3.9c0-1.4,0.3-2.7,0.8-3.9
		s1.3-2,2.4-2.7c1-0.6,2.3-1,3.7-1c1.4,0,2.6,0.3,3.6,1c1,0.6,1.8,1.5,2.3,2.6c0.5,1.1,0.8,2.4,0.8,3.8v0.6h-12.6v-1.4h11.4
		l-0.4,0.6c0-1.1-0.2-2.1-0.6-3c-0.4-0.9-1-1.6-1.8-2c-0.8-0.5-1.7-0.7-2.7-0.7c-1,0-1.9,0.2-2.7,0.7c-0.8,0.5-1.4,1.2-1.8,2
		c-0.4,0.9-0.7,2-0.7,3.2c0,1.2,0.2,2.3,0.7,3.2c0.4,0.9,1.1,1.6,1.9,2.1c0.8,0.5,1.7,0.7,2.8,0.7c0.8,0,1.5-0.1,2.2-0.4
		c0.6-0.3,1.2-0.6,1.6-1.1c0.4-0.5,0.7-1,0.9-1.6h1.7c-0.2,0.9-0.5,1.6-1.1,2.3s-1.3,1.2-2.2,1.6C355.9,454,354.9,454.2,353.8,454.2
		z"/>
	<path class="st0" d="M369.8,454.2c-1,0-1.9-0.2-2.7-0.5c-0.8-0.4-1.5-0.9-2.1-1.5s-1-1.5-1.3-2.4c-0.3-0.9-0.5-1.9-0.5-3
		c0-1.5,0.3-2.8,0.8-3.9c0.6-1.1,1.3-2,2.3-2.6c1-0.6,2.2-0.9,3.5-0.9c1,0,1.8,0.2,2.6,0.5c0.8,0.3,1.5,0.9,2,1.5
		c0.6,0.7,1,1.4,1.3,2.4s0.5,1.9,0.5,3.1c0,1.5-0.3,2.9-0.8,4c-0.5,1.1-1.3,2-2.3,2.6C372.2,453.9,371,454.2,369.8,454.2z
		 M370.1,452.7c1,0,1.9-0.3,2.7-0.8c0.8-0.5,1.4-1.2,1.8-2.1c0.4-0.9,0.6-2,0.6-3.2c0-0.9-0.1-1.7-0.4-2.5c-0.2-0.7-0.6-1.4-1.1-1.9
		c-0.5-0.5-1-0.9-1.6-1.2c-0.6-0.3-1.3-0.4-2.1-0.4c-1,0-2,0.3-2.7,0.8s-1.4,1.2-1.8,2.1c-0.4,0.9-0.6,2-0.6,3.2
		c0,1.2,0.2,2.2,0.6,3.1c0.4,0.9,1,1.6,1.8,2.1C368.1,452.5,369,452.7,370.1,452.7z M375.3,454v-5l0.5-2.4l-0.5-1.9V432h1.7V454
		H375.3z"/>
	<path class="st0" d="M381.3,454v-2.5h2.4v2.5H381.3z"/>
</g>
</svg>
