<?xml version="1.0" encoding="UTF-8"?>
<svg xmlns="http://www.w3.org/2000/svg" version="1.1" viewBox="0 0 841.9 595.3">
  <defs>
    <style>
      .cls-1 {
        isolation: isolate;
      }

      .cls-2 {
        fill: #004647;
      }

      .cls-3 {
        fill: #004647;
      }
    </style>
  </defs>
  <!-- Generator: Adobe Illustrator 28.7.2, SVG Export Plug-In . SVG Version: 1.2.0 Build 154)  -->
  <g>
    <g id="Layer_1">
      <g>
        <path class="cls-2" d="M368.1,159h-16.8c2.5-2.7,4.6-6.6,5.3-12.2,1.9-16.5,5.7-42.4,6.2-45.5.4-1.2,1.1-4.2-.7-7-1.8-2.8-5.4-4.2-10.7-4.2h-35.8c-5.2,0-8.8,1.4-10.7,4.2-1.9,2.8-1.1,5.8-.7,7,.5,3.1,4.3,29,6.2,45.5.6,5.4,2.6,9.3,5.2,12.2h-8.1c-6.2-6.2-6.2-28.4-6.9-35.9-.2-2.1-2-3.6-4-3.6h0l-36.3.7c0-1,0-2,.3-2.5,0,0,.2-.3.7-.4,1.4-.3,2.5-1.6,2.5-3s.2-1.8.8-2.3c.4-.3,1.3-.3,2.5,0,.9.3,1.9,0,2.7-.5.8-.6,1.2-1.5,1.3-2.5,0,0,.1-4,2.5-5.5,2-1.3,5.3-.9,9.8,1,.8.4,1.8.3,2.6,0,.8-.4,1.4-1.1,1.7-2,0,0,.6-2.1,2.4-3.1,1.3-.7,3-.7,5.1,0,1.6.5,3.4-.3,4-2,.5-1.6-.3-3.4-2-4-3.9-1.3-7.3-1.1-10.1.4-1.9,1-3.1,2.5-4,3.8-5.3-1.8-9.6-1.6-12.9.6-2.9,1.9-4.2,4.9-4.8,7.2-2.1,0-3.5.8-4.5,1.5-1.9,1.4-2.7,3.4-3,5-1.1.6-1.9,1.4-2.6,2.5-1.1,1.9-1.3,4.1-1.2,5.9h-2.8c-1.5,0-4.1.4-4.1,3.4s1.3,2.9,2.6,3.1c1.6.3,2.9,1.5,3.2,3,4.4,17.9,17.4,25.9,29.8,29.3h-32.6v6.3h79c.8,0,1.6.1,2.4.1h36.5v-6.5Z"/>
        <path class="cls-2" d="M333.4,86.2c1.7,0,3.1-1.4,3.1-3.1v-13.8c0-1.7-1.4-3.1-3.1-3.1s-3.1,1.4-3.1,3.1v13.8c0,1.7,1.4,3.1,3.1,3.1Z"/>
        <path class="cls-2" d="M349.6,86.2h0c1.7,0,3.1-1.5,3.1-3.2l-.2-9.6c0-1.7-1.5-3.1-3.2-3.1s-3.1,1.5-3.1,3.2l.2,9.6c0,1.7,1.4,3.1,3.1,3.1h.1Z"/>
        <path class="cls-2" d="M317.2,86h0c1.7,0,3.1-1.4,3.1-3.1l.2-9.4c0-1.7-1.3-3.2-3.1-3.2s-3.2,1.3-3.2,3.1l-.2,9.4c0,1.7,1.3,3.2,3.1,3.2h.1Z"/>
      </g>
      <path class="cls-2" d="M614.4,528.9H227.6c-7.8,0-14.1-6.3-14.1-14.1V127.9c0-7.8,6.3-14.1,14.1-14.1h17.9v4h-17.9c-5.6,0-10.1,4.5-10.1,10.1v386.9c0,5.6,4.5,10.1,10.1,10.1h386.8c5.6,0,10.1-4.5,10.1-10.1V127.9c0-5.6-4.5-10.1-10.1-10.1h-246.3v-4h246.3c7.8,0,14.1,6.3,14.1,14.1v386.9c0,7.8-6.3,14.1-14.1,14.1Z"/>
      <g class="cls-1">
        <g class="cls-1">
          <path class="cls-2" d="M249.4,232.9v-25.9h13.4v4h-8.8v7.7h7.9v3.9h-7.9v10.3h-4.6Z"/>
          <path class="cls-2" d="M275.8,233.2c-1.6,0-3.1-.3-4.4-.9-1.3-.6-2.4-1.5-3.3-2.6-.9-1.2-1.6-2.6-2.1-4.2-.5-1.7-.7-3.5-.7-5.6s.4-5.2,1.3-7.1c.8-2,2-3.5,3.6-4.5,1.6-1,3.4-1.6,5.6-1.6s3.1.3,4.4.9,2.4,1.5,3.3,2.6c.9,1.1,1.6,2.5,2.1,4.2.5,1.6.7,3.5.7,5.6s-.4,5.2-1.3,7.2c-.8,2-2,3.5-3.6,4.6-1.6,1.1-3.4,1.6-5.6,1.6ZM275.7,229.2c1.2,0,2.3-.4,3.1-1.1.9-.7,1.5-1.8,1.9-3.2s.7-3.1.7-5.1-.1-2.8-.4-3.9c-.3-1.1-.6-2.1-1.1-2.9-.5-.8-1.1-1.4-1.8-1.8-.7-.4-1.5-.6-2.4-.6s-2.2.4-3.1,1.1c-.8.7-1.5,1.7-1.9,3.1-.4,1.4-.7,3-.7,5s.1,2.8.4,4c.2,1.2.6,2.1,1.1,2.9.5.8,1.1,1.4,1.8,1.8s1.5.6,2.4.6Z"/>
          <path class="cls-2" d="M299.3,233.2c-1.6,0-3.1-.3-4.4-.9-1.3-.6-2.4-1.5-3.3-2.6-.9-1.2-1.6-2.6-2.1-4.2-.5-1.7-.7-3.5-.7-5.6s.4-5.2,1.3-7.1c.8-2,2-3.5,3.6-4.5,1.6-1,3.4-1.6,5.6-1.6s3.1.3,4.4.9,2.4,1.5,3.3,2.6c.9,1.1,1.6,2.5,2.1,4.2.5,1.6.7,3.5.7,5.6s-.4,5.2-1.3,7.2c-.8,2-2,3.5-3.6,4.6-1.6,1.1-3.4,1.6-5.6,1.6ZM299.3,229.2c1.2,0,2.3-.4,3.1-1.1.9-.7,1.5-1.8,1.9-3.2s.7-3.1.7-5.1-.1-2.8-.4-3.9c-.3-1.1-.6-2.1-1.1-2.9-.5-.8-1.1-1.4-1.8-1.8-.7-.4-1.5-.6-2.4-.6s-2.2.4-3.1,1.1c-.8.7-1.5,1.7-1.9,3.1-.4,1.4-.7,3-.7,5s.1,2.8.4,4c.2,1.2.6,2.1,1.1,2.9.5.8,1.1,1.4,1.8,1.8s1.5.6,2.4.6Z"/>
          <path class="cls-2" d="M313.3,232.9v-25.9h7c1.8,0,3.3.3,4.6.9,1.3.6,2.5,1.4,3.3,2.5.9,1.1,1.6,2.5,2,4.1.5,1.6.7,3.4.7,5.4s-.4,5-1.2,6.9c-.8,1.9-2.1,3.4-3.7,4.5s-3.7,1.6-6.1,1.6h-6.8ZM317.9,228.9h2.2c1.4,0,2.6-.4,3.5-1.1.9-.7,1.6-1.8,2.1-3.1.5-1.4.7-3,.7-4.9s-.2-3.5-.7-4.8c-.5-1.3-1.1-2.3-2-3.1-.9-.7-2-1.1-3.3-1.1h-2.5v18.1Z"/>
        </g>
      </g>
      <g>
        <path class="cls-3" d="M254.4,314.9l-7-20.4h2.7l5.8,17.8h-.8l6.3-17.9h2.2l6.1,17.9h-.8l6-17.8h2.6l-7.2,20.4h-2.2l-6.2-17.8h1l-6.4,17.8h-2.2Z"/>
        <path class="cls-3" d="M279.9,314.8v-21.9h2.4v14h-.8c0-1.5.2-2.7.7-3.7s1.1-1.8,2-2.4c.9-.6,1.9-.8,3.2-.8s1.7.1,2.4.4c.7.3,1.2.7,1.7,1.2.4.5.8,1.2,1,1.9.2.8.3,1.6.3,2.6v8.7h-2.4v-7.8c0-1,0-1.8-.3-2.4-.2-.6-.4-1.1-.8-1.5-.3-.4-.7-.6-1.2-.8-.5-.2-1-.2-1.6-.2s-1.4.2-2.1.6c-.6.4-1.1,1-1.5,1.9-.4.9-.6,2.1-.6,3.6v6.6h-2.4Z"/>
        <path class="cls-3" d="M303.4,315c-1.5,0-2.9-.3-4-1-1.1-.6-1.9-1.5-2.5-2.7s-.9-2.4-.9-3.9.3-2.8.8-3.9c.6-1.1,1.4-2,2.5-2.7,1.1-.6,2.4-1,3.9-1s2.8.3,3.8,1c1,.6,1.8,1.5,2.3,2.7.5,1.1.8,2.4.8,3.9v.8h-12.5v-1.9h10.8l-.6.9c0-1-.2-2-.6-2.7-.4-.8-.9-1.4-1.6-1.8-.7-.4-1.5-.7-2.5-.7s-1.7.2-2.4.6c-.7.4-1.3,1-1.7,1.8-.4.8-.6,1.8-.6,3.1s.2,2.2.6,3c.4.8,1,1.5,1.7,1.9.7.4,1.6.6,2.5.6s1.4-.1,2-.4,1.1-.6,1.4-1c.4-.4.6-.9.8-1.4h2.4c-.2.9-.6,1.8-1.1,2.5-.6.7-1.3,1.3-2.3,1.7-.9.4-2,.6-3.2.6Z"/>
        <path class="cls-3" d="M313.8,314.8v-14.6h2.4v6.7h-.8c0-1.5.2-2.7.7-3.7s1.1-1.8,2-2.4c.9-.6,1.9-.8,3.2-.8s1.7.1,2.4.4c.7.3,1.2.7,1.7,1.2.4.5.8,1.2,1,1.9.2.8.3,1.6.3,2.6v8.7h-2.4v-7.8c0-1,0-1.8-.3-2.4-.2-.6-.4-1.1-.8-1.5-.3-.4-.7-.6-1.2-.8-.5-.2-1-.2-1.6-.2s-1.4.2-2.1.6c-.6.4-1.1,1-1.5,1.9-.4.9-.6,2.1-.6,3.6v6.6h-2.4Z"/>
        <path class="cls-3" d="M335.7,302.1v-1.9h10.4v1.9h-10.4ZM343.4,315.1c-.8,0-1.5,0-2.1-.2-.6-.2-1.1-.4-1.5-.8s-.7-.9-.8-1.6c-.2-.7-.3-1.5-.3-2.6v-15.2h2.4v15.3c0,.9,0,1.6.2,2,.2.5.4.8.8.9.4.2.9.2,1.5.2s.8,0,1.3-.1.9-.3,1.2-.6v2.3c-.2.1-.5.2-.9.3-.4,0-.7.1-1.1.1-.4,0-.7,0-.9,0Z"/>
        <path class="cls-3" d="M349.7,314.8v-14.6h2.4v7.4h-.7c0-1.6.3-2.9.7-4,.4-1.1,1.1-2,1.9-2.6s1.8-.9,3-.9.3,0,.5,0c.2,0,.3,0,.5,0v2.4c-.9,0-1.8,0-2.5.2-.7.2-1.4.4-1.9.9-.5.4-.9,1-1.1,1.8-.3.8-.4,1.7-.4,2.9v6.4h-2.4Z"/>
        <path class="cls-3" d="M366.6,315c-1,0-1.9-.2-2.7-.5-.8-.4-1.5-.9-2.1-1.5-.6-.7-1.1-1.5-1.4-2.4-.3-.9-.5-2-.5-3.1s.3-2.8.8-3.9c.6-1.1,1.3-2,2.3-2.6,1-.6,2.2-.9,3.5-.9s1.9.2,2.7.5c.8.4,1.5.9,2,1.5.6.7,1,1.5,1.3,2.4s.5,1.9.5,3.1-.3,2.8-.8,4c-.5,1.1-1.3,2-2.2,2.6s-2.1.9-3.4.9ZM367.1,313c.9,0,1.7-.2,2.5-.7.7-.5,1.3-1.1,1.6-1.9.4-.8.6-1.8.6-2.9s-.1-1.6-.3-2.3c-.2-.7-.5-1.3-1-1.7-.4-.5-.9-.9-1.5-1.1-.6-.3-1.2-.4-1.9-.4s-1.7.2-2.4.7c-.7.5-1.2,1.1-1.6,1.9-.4.8-.6,1.8-.6,2.9s.2,2.1.6,2.9c.4.8.9,1.5,1.6,1.9.7.5,1.5.7,2.4.7ZM371.8,314.8v-6.2l.5-1.2-.5-2.3v-4.9h2.4v14.6h-2.4Z"/>
        <path class="cls-3" d="M382.8,314.9l-6.2-14.7h2.7l4.5,11.3,4.6-11.3h2.6l-6.3,14.7h-1.8Z"/>
        <path class="cls-3" d="M399.8,315c-1.5,0-2.9-.3-4-1-1.1-.6-1.9-1.5-2.5-2.7s-.9-2.4-.9-3.9.3-2.8.8-3.9c.6-1.1,1.4-2,2.5-2.7,1.1-.6,2.4-1,3.9-1s2.8.3,3.8,1c1,.6,1.8,1.5,2.3,2.7.5,1.1.8,2.4.8,3.9v.8h-12.5v-1.9h10.8l-.6.9c0-1-.2-2-.6-2.7-.4-.8-.9-1.4-1.6-1.8-.7-.4-1.5-.7-2.5-.7s-1.7.2-2.4.6c-.7.4-1.3,1-1.7,1.8-.4.8-.6,1.8-.6,3.1s.2,2.2.6,3c.4.8,1,1.5,1.7,1.9.7.4,1.6.6,2.5.6s1.4-.1,2-.4,1.1-.6,1.4-1c.4-.4.6-.9.8-1.4h2.4c-.2.9-.6,1.8-1.1,2.5-.6.7-1.3,1.3-2.3,1.7-.9.4-2,.6-3.2.6Z"/>
        <path class="cls-3" d="M410.2,314.8v-21.9h2.4v21.9h-2.4Z"/>
        <path class="cls-3" d="M416.8,296.9v-3.2h3.2v3.2h-3.2ZM417.2,314.8v-14.6h2.4v14.6h-2.4Z"/>
        <path class="cls-3" d="M424.1,314.8v-14.6h2.4v6.7h-.8c0-1.5.2-2.7.7-3.7s1.1-1.8,2-2.4c.9-.6,1.9-.8,3.2-.8s1.7.1,2.4.4c.7.3,1.2.7,1.7,1.2.4.5.8,1.2,1,1.9.2.8.3,1.6.3,2.6v8.7h-2.4v-7.8c0-1,0-1.8-.3-2.4-.2-.6-.4-1.1-.8-1.5-.3-.4-.7-.6-1.2-.8-.5-.2-1-.2-1.6-.2s-1.4.2-2.1.6c-.6.4-1.1,1-1.5,1.9-.4.9-.6,2.1-.6,3.6v6.6h-2.4Z"/>
        <path class="cls-3" d="M447,315c-1,0-1.9-.2-2.8-.5-.8-.4-1.5-.9-2.1-1.5s-1.1-1.5-1.4-2.4c-.3-.9-.5-2-.5-3.1s.3-2.8.9-3.9c.6-1.1,1.4-2,2.4-2.6s2.2-.9,3.6-.9,2.4.3,3.3.9,1.7,1.5,2.2,2.6c.5,1.1.8,2.4.8,3.9s-.3,2.8-.8,4c-.5,1.1-1.3,2-2.2,2.6s-2.1.9-3.3.9ZM447.8,321.3c-1.5,0-2.6-.2-3.6-.6-.9-.4-1.7-.9-2.2-1.6-.5-.7-.8-1.5-.9-2.4h2.4c0,.5.3.9.6,1.3s.7.7,1.3.9c.6.2,1.3.3,2.3.3s1.8-.1,2.4-.4c.6-.3,1.1-.7,1.4-1.3s.4-1.3.4-2.1v-5.3l.6-2.6-.6-2.3v-4.9h2.4v15.1c0,1.3-.3,2.3-.8,3.2-.5.9-1.3,1.6-2.2,2.1-1,.5-2.2.7-3.7.7ZM447.4,313c.9,0,1.7-.2,2.5-.7.7-.5,1.3-1.1,1.6-1.9.4-.8.6-1.8.6-2.9s-.1-1.6-.3-2.3c-.2-.7-.5-1.3-1-1.7-.4-.5-.9-.9-1.5-1.1-.6-.3-1.2-.4-1.9-.4s-1.7.2-2.4.7c-.7.5-1.2,1.1-1.6,1.9-.4.8-.6,1.8-.6,2.9s.2,2.1.6,2.9c.4.8.9,1.5,1.6,1.9.7.5,1.5.7,2.4.7Z"/>
        <path class="cls-3" d="M465.2,296.9v-3.2h3.2v3.2h-3.2ZM465.6,314.8v-14.6h2.4v14.6h-2.4Z"/>
        <path class="cls-3" d="M470.9,302.1v-1.9h10.4v1.9h-10.4ZM478.5,315.1c-.8,0-1.5,0-2.1-.2-.6-.2-1.1-.4-1.5-.8s-.7-.9-.8-1.6c-.2-.7-.3-1.5-.3-2.6v-15.2h2.4v15.3c0,.9,0,1.6.2,2,.2.5.4.8.8.9.4.2.9.2,1.5.2s.8,0,1.3-.1.9-.3,1.2-.6v2.3c-.2.1-.5.2-.9.3-.4,0-.7.1-1.1.1-.4,0-.7,0-.9,0Z"/>
        <path class="cls-3" d="M491.1,296.9v-3.2h3.2v3.2h-3.2ZM491.5,314.8v-14.6h2.4v14.6h-2.4Z"/>
        <path class="cls-3" d="M503.3,315c-1.2,0-2.3-.2-3.2-.6-.9-.4-1.5-.9-2-1.6-.5-.7-.7-1.5-.7-2.4h2.4c0,.5.1.9.4,1.3s.6.7,1.1.9c.5.2,1.1.3,1.9.3s1.7-.2,2.3-.6c.6-.4.8-.9.8-1.6s-.2-.9-.5-1.2c-.3-.3-.7-.5-1.2-.7-.5-.2-1.1-.3-1.7-.4-.6-.1-1.2-.3-1.8-.4-.6-.2-1.2-.4-1.7-.7-.5-.3-.9-.7-1.2-1.2-.3-.5-.5-1.2-.5-2,0-1.3.5-2.3,1.4-3.1s2.2-1.1,3.8-1.1,2,.2,2.9.5c.8.4,1.5.9,1.9,1.5.5.6.7,1.4.7,2.3h-2.3c0-.7-.3-1.2-.8-1.7-.6-.4-1.3-.6-2.2-.6s-1.6.2-2.1.6c-.5.4-.8.9-.8,1.6s.2.9.5,1.2c.3.3.7.5,1.2.6.5.1,1.1.3,1.7.4.6.1,1.2.2,1.8.4s1.2.4,1.7.7c.5.3.9.7,1.2,1.2.3.5.5,1.2.5,2.1,0,1.3-.5,2.4-1.5,3.2-1,.8-2.3,1.2-4,1.2Z"/>
        <path class="cls-3" d="M524.8,315c-1,0-1.9-.2-2.8-.5-.8-.4-1.5-.9-2.1-1.5s-1.1-1.5-1.4-2.4c-.3-.9-.5-2-.5-3.1s.3-2.8.9-3.9c.6-1.1,1.4-2,2.4-2.6s2.2-.9,3.6-.9,2.4.3,3.3.9,1.7,1.5,2.2,2.6c.5,1.1.8,2.4.8,3.9s-.3,2.8-.8,4c-.5,1.1-1.3,2-2.2,2.6s-2.1.9-3.3.9ZM525.6,321.3c-1.5,0-2.6-.2-3.6-.6-.9-.4-1.7-.9-2.2-1.6-.5-.7-.8-1.5-.9-2.4h2.4c0,.5.3.9.6,1.3s.7.7,1.3.9c.6.2,1.3.3,2.3.3s1.8-.1,2.4-.4c.6-.3,1.1-.7,1.4-1.3s.4-1.3.4-2.1v-5.3l.6-2.6-.6-2.3v-4.9h2.4v15.1c0,1.3-.3,2.3-.8,3.2-.5.9-1.3,1.6-2.2,2.1-1,.5-2.2.7-3.7.7ZM525.2,313c.9,0,1.7-.2,2.5-.7.7-.5,1.3-1.1,1.6-1.9.4-.8.6-1.8.6-2.9s-.1-1.6-.3-2.3c-.2-.7-.5-1.3-1-1.7-.4-.5-.9-.9-1.5-1.1-.6-.3-1.2-.4-1.9-.4s-1.7.2-2.4.7c-.7.5-1.2,1.1-1.6,1.9-.4.8-.6,1.8-.6,2.9s.2,2.1.6,2.9c.4.8.9,1.5,1.6,1.9.7.5,1.5.7,2.4.7Z"/>
        <path class="cls-3" d="M543.4,315c-1.5,0-2.8-.3-3.9-1s-2-1.5-2.6-2.7-.9-2.4-.9-3.9.3-2.8.9-3.9,1.5-2,2.6-2.7c1.1-.6,2.4-1,3.9-1s2.8.3,3.9,1c1.1.6,2,1.5,2.6,2.7.6,1.1.9,2.4.9,3.9s-.3,2.8-.9,3.9c-.6,1.1-1.5,2-2.6,2.7s-2.4,1-3.9,1ZM543.4,313c1.1,0,2-.2,2.7-.7s1.3-1.1,1.7-1.9c.4-.8.6-1.8.6-2.8s-.1-1.5-.3-2.2-.5-1.3-1-1.8c-.4-.5-.9-.9-1.6-1.1-.6-.3-1.3-.4-2.1-.4s-2,.2-2.7.7c-.7.5-1.3,1.1-1.7,2-.4.8-.6,1.8-.6,2.8s.2,2,.6,2.8c.4.8.9,1.5,1.7,1.9.7.5,1.6.7,2.7.7Z"/>
        <path class="cls-3" d="M561,315c-1.5,0-2.8-.3-3.9-1s-2-1.5-2.6-2.7-.9-2.4-.9-3.9.3-2.8.9-3.9,1.5-2,2.6-2.7c1.1-.6,2.4-1,3.9-1s2.8.3,3.9,1c1.1.6,2,1.5,2.6,2.7.6,1.1.9,2.4.9,3.9s-.3,2.8-.9,3.9c-.6,1.1-1.5,2-2.6,2.7s-2.4,1-3.9,1ZM561,313c1.1,0,2-.2,2.7-.7s1.3-1.1,1.7-1.9c.4-.8.6-1.8.6-2.8s-.1-1.5-.3-2.2-.5-1.3-1-1.8c-.4-.5-.9-.9-1.6-1.1-.6-.3-1.3-.4-2.1-.4s-2,.2-2.7.7c-.7.5-1.3,1.1-1.7,2-.4.8-.6,1.8-.6,2.8s.2,2,.6,2.8c.4.8.9,1.5,1.7,1.9.7.5,1.6.7,2.7.7Z"/>
        <path class="cls-3" d="M577.8,315c-1,0-1.9-.2-2.7-.5-.8-.4-1.5-.9-2.1-1.5-.6-.7-1-1.5-1.4-2.4-.3-.9-.5-2-.5-3.1s.3-2.8.8-3.9c.6-1.1,1.3-2,2.3-2.6,1-.6,2.2-.9,3.5-.9s1.9.2,2.7.5c.8.4,1.5.9,2,1.5.6.7,1,1.5,1.3,2.4s.5,1.9.5,3.1-.3,2.8-.8,4c-.5,1.1-1.3,2-2.3,2.6s-2.1.9-3.4.9ZM578.3,313c.9,0,1.7-.2,2.5-.7.7-.5,1.3-1.1,1.6-1.9.4-.8.6-1.8.6-2.9s-.1-1.6-.3-2.3c-.2-.7-.5-1.3-1-1.7-.4-.5-.9-.9-1.5-1.1-.6-.3-1.2-.4-1.9-.4s-1.7.2-2.4.7c-.7.5-1.2,1.1-1.6,1.9-.4.8-.6,1.8-.6,2.9s.2,2.1.6,2.9c.4.8.9,1.5,1.6,1.9.7.5,1.5.7,2.4.7ZM583,314.8v-4.8l.6-2.6-.6-2.1v-12.4h2.4v21.9h-2.4Z"/>
        <path class="cls-3" d="M247.8,336.9v-1.9h10.4v1.9h-10.4ZM255.4,349.9c-.8,0-1.5,0-2.1-.2-.6-.2-1.1-.4-1.5-.8-.4-.4-.7-.9-.8-1.6-.2-.7-.3-1.5-.3-2.6v-15.2h2.4v15.3c0,.9,0,1.6.2,2s.4.8.8.9c.4.2.9.2,1.5.2s.8,0,1.3-.1c.5,0,.9-.3,1.2-.6v2.3c-.2.1-.5.2-.9.3-.4,0-.7.1-1.1.1s-.7,0-.9,0Z"/>
        <path class="cls-3" d="M268.3,349.8c-1.5,0-2.8-.3-3.9-1-1.1-.6-2-1.5-2.6-2.7s-.9-2.4-.9-3.9.3-2.8.9-3.9,1.5-2,2.6-2.7,2.4-1,3.9-1,2.8.3,3.9,1,2,1.5,2.6,2.7c.6,1.1.9,2.4.9,3.9s-.3,2.8-.9,3.9c-.6,1.1-1.5,2-2.6,2.7-1.1.6-2.4,1-3.9,1ZM268.3,347.8c1.1,0,2-.2,2.7-.7s1.3-1.1,1.7-1.9c.4-.8.6-1.8.6-2.8s-.1-1.5-.3-2.2-.5-1.3-1-1.8c-.4-.5-.9-.9-1.6-1.1-.6-.3-1.3-.4-2.1-.4s-2,.2-2.7.7c-.7.5-1.3,1.1-1.7,2s-.6,1.8-.6,2.8.2,2,.6,2.8c.4.8.9,1.5,1.7,1.9.7.5,1.6.7,2.7.7Z"/>
        <path class="cls-3" d="M286,355.9v-20.9h2.4v4.3l-.5,2.8.6,2.3v11.4h-2.4ZM293.5,349.8c-1.3,0-2.4-.3-3.4-.9-1-.6-1.7-1.5-2.3-2.6-.5-1.1-.8-2.5-.8-4s.3-2.8.8-3.9c.5-1.1,1.3-2,2.3-2.6,1-.6,2.1-.9,3.4-.9s1.9.2,2.7.5c.8.4,1.5.9,2.1,1.5.6.7,1.1,1.5,1.4,2.4.3.9.5,1.9.5,3.1s-.3,2.8-.8,4c-.6,1.1-1.3,2-2.3,2.6-1,.6-2.2.9-3.5.9ZM293.1,347.8c.9,0,1.7-.2,2.4-.7.7-.5,1.2-1.1,1.6-1.9s.6-1.8.6-2.9-.2-2.1-.6-2.9-.9-1.5-1.6-1.9c-.7-.5-1.5-.7-2.4-.7s-1.7.2-2.4.7c-.7.5-1.2,1.1-1.6,1.9-.4.8-.6,1.8-.6,2.9s.1,1.6.3,2.3.5,1.3,1,1.8.9.9,1.5,1.1c.6.3,1.2.4,1.9.4Z"/>
        <path class="cls-3" d="M303.8,349.6v-14.6h2.4v7.4h-.7c0-1.6.3-2.9.7-4,.4-1.1,1.1-2,1.9-2.6s1.8-.9,3-.9.3,0,.5,0c.2,0,.3,0,.5,0v2.4c-.9,0-1.8,0-2.5.2-.7.2-1.4.4-1.9.9-.5.4-.9,1-1.1,1.8-.3.8-.4,1.7-.4,2.9v6.4h-2.4Z"/>
        <path class="cls-3" d="M314.6,331.7v-3.2h3.2v3.2h-3.2ZM315,349.6v-14.6h2.4v14.6h-2.4Z"/>
        <path class="cls-3" d="M328.5,349.8c-1.5,0-2.8-.3-3.9-1-1.1-.6-2-1.5-2.6-2.7s-.9-2.4-.9-3.9.3-2.8.9-3.9,1.5-2,2.6-2.7,2.4-1,3.9-1,2.8.3,3.9,1,2,1.5,2.6,2.7c.6,1.1.9,2.4.9,3.9s-.3,2.8-.9,3.9c-.6,1.1-1.5,2-2.6,2.7-1.1.6-2.4,1-3.9,1ZM328.5,347.8c1.1,0,2-.2,2.7-.7s1.3-1.1,1.7-1.9c.4-.8.6-1.8.6-2.8s-.1-1.5-.3-2.2-.5-1.3-1-1.8c-.4-.5-.9-.9-1.6-1.1-.6-.3-1.3-.4-2.1-.4s-2,.2-2.7.7c-.7.5-1.3,1.1-1.7,2s-.6,1.8-.6,2.8.2,2,.6,2.8c.4.8.9,1.5,1.7,1.9.7.5,1.6.7,2.7.7Z"/>
        <path class="cls-3" d="M339.6,349.6v-14.6h2.4v7.4h-.7c0-1.6.3-2.9.7-4,.4-1.1,1.1-2,1.9-2.6s1.8-.9,3-.9.3,0,.5,0c.2,0,.3,0,.5,0v2.4c-.9,0-1.8,0-2.5.2-.7.2-1.4.4-1.9.9-.5.4-.9,1-1.1,1.8-.3.8-.4,1.7-.4,2.9v6.4h-2.4Z"/>
        <path class="cls-3" d="M350.4,331.7v-3.2h3.2v3.2h-3.2ZM350.7,349.6v-14.6h2.4v14.6h-2.4Z"/>
        <path class="cls-3" d="M356,336.9v-1.9h10.4v1.9h-10.4ZM363.6,349.9c-.8,0-1.5,0-2.1-.2-.6-.2-1.1-.4-1.5-.8-.4-.4-.7-.9-.8-1.6-.2-.7-.3-1.5-.3-2.6v-15.2h2.4v15.3c0,.9,0,1.6.2,2s.4.8.8.9c.4.2.9.2,1.5.2s.8,0,1.3-.1c.5,0,.9-.3,1.2-.6v2.3c-.2.1-.5.2-.9.3-.4,0-.7.1-1.1.1s-.7,0-.9,0Z"/>
        <path class="cls-3" d="M369.6,331.7v-3.2h3.2v3.2h-3.2ZM369.9,349.6v-14.6h2.4v14.6h-2.4Z"/>
        <path class="cls-3" d="M375.9,349.6v-1.6l9.4-12.4.3,1.3h-9.3v-1.9h11.2v1.6l-9.4,12.4-.3-1.3h10v1.9h-11.8Z"/>
        <path class="cls-3" d="M397.5,349.8c-1.5,0-2.9-.3-4-1-1.1-.6-1.9-1.5-2.5-2.7s-.9-2.4-.9-3.9.3-2.8.8-3.9c.6-1.1,1.4-2,2.5-2.7,1.1-.6,2.4-1,3.9-1s2.8.3,3.8,1,1.8,1.5,2.3,2.7c.5,1.1.8,2.4.8,3.9v.8h-12.5v-1.9h10.8l-.6.9c0-1-.2-2-.6-2.7s-.9-1.4-1.6-1.8c-.7-.4-1.5-.7-2.5-.7s-1.7.2-2.4.6c-.7.4-1.3,1-1.7,1.8-.4.8-.6,1.8-.6,3.1s.2,2.2.6,3,1,1.5,1.7,1.9c.7.4,1.6.6,2.5.6s1.4-.1,2-.4c.6-.3,1.1-.6,1.4-1s.6-.9.8-1.4h2.4c-.2.9-.6,1.8-1.1,2.5-.6.7-1.3,1.3-2.3,1.7-.9.4-2,.6-3.2.6Z"/>
        <path class="cls-3" d="M421,349.8c-1.5,0-2.9-.3-4-1-1.1-.6-1.9-1.5-2.5-2.7s-.9-2.4-.9-3.9.3-2.8.8-3.9c.6-1.1,1.4-2,2.5-2.7,1.1-.6,2.4-1,3.9-1s2.8.3,3.8,1,1.8,1.5,2.3,2.7c.5,1.1.8,2.4.8,3.9v.8h-12.5v-1.9h10.8l-.6.9c0-1-.2-2-.6-2.7s-.9-1.4-1.6-1.8c-.7-.4-1.5-.7-2.5-.7s-1.7.2-2.4.6c-.7.4-1.3,1-1.7,1.8-.4.8-.6,1.8-.6,3.1s.2,2.2.6,3,1,1.5,1.7,1.9c.7.4,1.6.6,2.5.6s1.4-.1,2-.4c.6-.3,1.1-.6,1.4-1s.6-.9.8-1.4h2.4c-.2.9-.6,1.8-1.1,2.5-.6.7-1.3,1.3-2.3,1.7-.9.4-2,.6-3.2.6Z"/>
        <path class="cls-3" d="M437.2,349.8c-1,0-1.9-.2-2.7-.5s-1.5-.9-2.1-1.5c-.6-.7-1.1-1.5-1.4-2.4s-.5-2-.5-3.1.3-2.8.8-3.9,1.3-2,2.3-2.6c1-.6,2.2-.9,3.5-.9s1.9.2,2.7.5c.8.4,1.5.9,2,1.5.6.7,1,1.5,1.3,2.4.3.9.5,1.9.5,3.1s-.3,2.8-.8,4c-.5,1.1-1.3,2-2.2,2.6-1,.6-2.1.9-3.4.9ZM437.6,347.8c.9,0,1.7-.2,2.5-.7.7-.5,1.3-1.1,1.6-1.9s.6-1.8.6-2.9-.1-1.6-.3-2.3c-.2-.7-.5-1.3-1-1.7-.4-.5-.9-.9-1.5-1.1s-1.2-.4-1.9-.4-1.7.2-2.4.7c-.7.5-1.2,1.1-1.6,1.9s-.6,1.8-.6,2.9.2,2.1.6,2.9.9,1.5,1.6,1.9c.7.5,1.5.7,2.4.7ZM442.3,349.6v-6.2l.5-1.2-.5-2.3v-4.9h2.4v14.6h-2.4Z"/>
        <path class="cls-3" d="M447.5,336.9v-1.9h10.4v1.9h-10.4ZM455.2,349.9c-.8,0-1.5,0-2.1-.2-.6-.2-1.1-.4-1.5-.8-.4-.4-.7-.9-.8-1.6-.2-.7-.3-1.5-.3-2.6v-15.2h2.4v15.3c0,.9,0,1.6.2,2s.4.8.8.9c.4.2.9.2,1.5.2s.8,0,1.3-.1c.5,0,.9-.3,1.2-.6v2.3c-.2.1-.5.2-.9.3-.4,0-.7.1-1.1.1s-.7,0-.9,0Z"/>
        <path class="cls-3" d="M461.1,331.7v-3.2h3.2v3.2h-3.2ZM461.5,349.6v-14.6h2.4v14.6h-2.4Z"/>
        <path class="cls-3" d="M468.4,349.6v-14.6h2.4v6.7h-.8c0-1.4.2-2.7.7-3.7s1.1-1.8,2-2.4c.9-.6,1.9-.8,3.2-.8s1.7.1,2.4.4,1.2.7,1.7,1.2c.4.5.8,1.2,1,1.9s.3,1.6.3,2.6v8.7h-2.4v-7.8c0-1,0-1.8-.3-2.4-.2-.6-.4-1.1-.8-1.5-.3-.4-.7-.6-1.2-.8-.5-.2-1-.2-1.6-.2s-1.4.2-2.1.6-1.1,1-1.5,1.9-.6,2.1-.6,3.6v6.6h-2.4Z"/>
        <path class="cls-3" d="M491.3,349.8c-1,0-1.9-.2-2.8-.5-.8-.4-1.5-.9-2.1-1.5s-1.1-1.5-1.4-2.4c-.3-.9-.5-2-.5-3.1s.3-2.8.9-3.9,1.4-2,2.4-2.6c1-.6,2.2-.9,3.6-.9s2.4.3,3.3.9c.9.6,1.7,1.5,2.2,2.6.5,1.1.8,2.4.8,3.9s-.3,2.8-.8,4c-.5,1.1-1.3,2-2.2,2.6-.9.6-2.1.9-3.3.9ZM492.1,356.1c-1.5,0-2.6-.2-3.6-.6-.9-.4-1.7-.9-2.2-1.6s-.8-1.5-.9-2.4h2.4c0,.5.3.9.6,1.3.3.4.7.7,1.3.9.6.2,1.3.3,2.3.3s1.8-.2,2.4-.4c.6-.3,1.1-.7,1.4-1.3.3-.6.4-1.3.4-2.1v-5.3l.6-2.6-.6-2.3v-4.9h2.4v15.1c0,1.3-.3,2.3-.8,3.2-.5.9-1.3,1.6-2.2,2.1-1,.5-2.2.7-3.7.7ZM491.7,347.8c.9,0,1.7-.2,2.5-.7.7-.5,1.3-1.1,1.6-1.9s.6-1.8.6-2.9-.1-1.6-.3-2.3c-.2-.7-.5-1.3-1-1.7-.4-.5-.9-.9-1.5-1.1s-1.2-.4-1.9-.4-1.7.2-2.4.7c-.7.5-1.2,1.1-1.6,1.9s-.6,1.8-.6,2.9.2,2.1.6,2.9.9,1.5,1.6,1.9c.7.5,1.5.7,2.4.7Z"/>
        <path class="cls-3" d="M249.5,384.4v-21.9h2.4v12.4l-.7,2.1.7,2.8v4.6h-2.4ZM257.1,384.6c-1,0-1.9-.2-2.7-.5-.8-.4-1.5-.9-2-1.5s-1-1.5-1.3-2.4c-.3-.9-.5-2-.5-3.1s.3-2.8.8-3.9c.5-1.1,1.3-2,2.3-2.6,1-.6,2.1-.9,3.4-.9s1.9.2,2.7.5c.8.4,1.5.9,2.1,1.5.6.7,1.1,1.5,1.4,2.4s.5,1.9.5,3.1-.3,2.8-.8,4c-.6,1.1-1.3,2-2.3,2.6-1,.6-2.2.9-3.5.9ZM256.6,382.6c.9,0,1.7-.2,2.4-.7.7-.5,1.2-1.1,1.6-1.9.4-.8.6-1.8.6-2.9s-.2-2.1-.6-2.9-.9-1.5-1.6-1.9c-.7-.5-1.5-.7-2.4-.7s-1.7.2-2.4.7c-.7.5-1.2,1.1-1.6,1.9-.4.8-.6,1.8-.6,2.9s.1,1.6.3,2.3.5,1.3,1,1.8c.4.5.9.9,1.5,1.1.6.3,1.2.4,1.9.4Z"/>
        <path class="cls-3" d="M273.1,384.6c-1,0-1.9-.2-2.7-.5s-1.5-.9-2.1-1.5c-.6-.7-1.1-1.5-1.4-2.4-.3-.9-.5-2-.5-3.1s.3-2.8.8-3.9,1.3-2,2.3-2.6c1-.6,2.2-.9,3.5-.9s1.9.2,2.7.5,1.5.9,2,1.5c.6.7,1,1.5,1.3,2.4s.5,1.9.5,3.1-.3,2.8-.8,4c-.5,1.1-1.3,2-2.2,2.6-1,.6-2.1.9-3.4.9ZM273.5,382.6c.9,0,1.7-.2,2.5-.7.7-.5,1.3-1.1,1.6-1.9.4-.8.6-1.8.6-2.9s-.1-1.6-.3-2.3c-.2-.7-.5-1.3-1-1.7-.4-.5-.9-.9-1.5-1.1-.6-.3-1.2-.4-1.9-.4s-1.7.2-2.4.7c-.7.5-1.2,1.1-1.6,1.9s-.6,1.8-.6,2.9.2,2.1.6,2.9c.4.8.9,1.5,1.6,1.9.7.5,1.5.7,2.4.7ZM278.2,384.4v-6.2l.5-1.2-.5-2.3v-4.9h2.4v14.6h-2.4Z"/>
        <path class="cls-3" d="M285.1,384.4v-21.9h2.4v21.9h-2.4Z"/>
        <path class="cls-3" d="M297.9,384.6c-1,0-1.9-.2-2.7-.5s-1.5-.9-2.1-1.5c-.6-.7-1.1-1.5-1.4-2.4-.3-.9-.5-2-.5-3.1s.3-2.8.8-3.9,1.3-2,2.3-2.6c1-.6,2.2-.9,3.5-.9s1.9.2,2.7.5,1.5.9,2,1.5c.6.7,1,1.5,1.3,2.4s.5,1.9.5,3.1-.3,2.8-.8,4c-.5,1.1-1.3,2-2.2,2.6-1,.6-2.1.9-3.4.9ZM298.3,382.6c.9,0,1.7-.2,2.5-.7.7-.5,1.3-1.1,1.6-1.9.4-.8.6-1.8.6-2.9s-.1-1.6-.3-2.3c-.2-.7-.5-1.3-1-1.7-.4-.5-.9-.9-1.5-1.1-.6-.3-1.2-.4-1.9-.4s-1.7.2-2.4.7c-.7.5-1.2,1.1-1.6,1.9s-.6,1.8-.6,2.9.2,2.1.6,2.9c.4.8.9,1.5,1.6,1.9.7.5,1.5.7,2.4.7ZM303,384.4v-6.2l.5-1.2-.5-2.3v-4.9h2.4v14.6h-2.4Z"/>
        <path class="cls-3" d="M309.9,384.4v-14.6h2.4v6.7h-.8c0-1.5.2-2.7.7-3.7s1.1-1.8,2-2.4c.9-.6,1.9-.8,3.2-.8s1.7.1,2.4.4c.7.3,1.2.7,1.7,1.2.4.5.8,1.2,1,1.9s.3,1.6.3,2.6v8.7h-2.4v-7.8c0-1,0-1.8-.3-2.4s-.4-1.1-.8-1.5c-.3-.4-.7-.6-1.2-.8-.5-.2-1-.2-1.6-.2s-1.4.2-2.1.6c-.6.4-1.1,1-1.5,1.9-.4.9-.6,2.1-.6,3.6v6.6h-2.4Z"/>
        <path class="cls-3" d="M333,384.6c-1.5,0-2.8-.3-3.9-1-1-.6-1.8-1.5-2.4-2.7-.5-1.1-.8-2.4-.8-3.9s.3-2.8.8-3.9c.6-1.1,1.4-2,2.4-2.7,1.1-.6,2.3-1,3.8-1s2.2.2,3.1.6c.9.4,1.7,1,2.3,1.7.6.7,1,1.6,1.2,2.6h-2.4c-.2-.6-.4-1.1-.8-1.5-.4-.4-.9-.8-1.4-1-.6-.2-1.2-.4-1.9-.4-1,0-1.8.2-2.5.7-.7.5-1.2,1.1-1.5,2-.3.8-.5,1.8-.5,2.8s.2,2,.5,2.8c.3.8.8,1.5,1.5,2s1.5.7,2.6.7,2-.3,2.7-.9,1.1-1.4,1.4-2.4h2.4c-.2,1.1-.5,2-1.1,2.8-.6.8-1.3,1.4-2.2,1.8-.9.4-2,.6-3.2.6Z"/>
        <path class="cls-3" d="M349.3,384.6c-1.5,0-2.9-.3-4-1-1.1-.6-1.9-1.5-2.5-2.7-.6-1.1-.9-2.4-.9-3.9s.3-2.8.8-3.9c.6-1.1,1.4-2,2.5-2.7,1.1-.6,2.4-1,3.9-1s2.8.3,3.8,1c1,.6,1.8,1.5,2.3,2.7.5,1.1.8,2.4.8,3.9v.8h-12.5v-1.9h10.8l-.6.9c0-1-.2-2-.6-2.7s-.9-1.4-1.6-1.8c-.7-.4-1.5-.7-2.5-.7s-1.7.2-2.4.6c-.7.4-1.3,1-1.7,1.8-.4.8-.6,1.8-.6,3.1s.2,2.2.6,3,1,1.5,1.7,1.9c.7.4,1.6.6,2.5.6s1.4-.1,2-.4c.6-.3,1.1-.6,1.4-1,.4-.4.6-.9.8-1.4h2.4c-.2.9-.6,1.8-1.1,2.5s-1.3,1.3-2.3,1.7c-.9.4-2,.6-3.2.6Z"/>
        <path class="cls-3" d="M365.4,384.6c-1,0-1.9-.2-2.7-.5-.8-.4-1.5-.9-2.1-1.5-.6-.7-1-1.5-1.4-2.4-.3-.9-.5-2-.5-3.1s.3-2.8.8-3.9,1.3-2,2.3-2.6c1-.6,2.2-.9,3.5-.9s1.9.2,2.7.5,1.5.9,2,1.5c.6.7,1,1.5,1.3,2.4s.5,1.9.5,3.1-.3,2.8-.8,4c-.5,1.1-1.3,2-2.3,2.6-1,.6-2.1.9-3.4.9ZM365.9,382.6c.9,0,1.7-.2,2.5-.7.7-.5,1.3-1.1,1.6-1.9.4-.8.6-1.8.6-2.9s-.1-1.6-.3-2.3c-.2-.7-.5-1.3-1-1.7-.4-.5-.9-.9-1.5-1.1-.6-.3-1.2-.4-1.9-.4s-1.7.2-2.4.7c-.7.5-1.2,1.1-1.6,1.9s-.6,1.8-.6,2.9.2,2.1.6,2.9c.4.8.9,1.5,1.6,1.9.7.5,1.5.7,2.4.7ZM370.6,384.4v-4.8l.6-2.6-.6-2.1v-12.4h2.4v21.9h-2.4Z"/>
        <path class="cls-3" d="M384.1,384.4v-14.6h2.4v6.7h-.8c0-1.5.2-2.7.6-3.7.4-1,1-1.8,1.8-2.4.8-.6,1.8-.8,2.9-.8s1.6.1,2.2.4c.6.3,1.2.6,1.6,1.2.4.5.7,1.1.9,1.9.2.7.3,1.6.3,2.5h-1.3c.1-1.3.4-2.4,1-3.3.5-.9,1.2-1.5,2-2,.8-.4,1.8-.7,2.8-.7s1.6.1,2.3.4c.6.3,1.2.7,1.6,1.2.4.5.7,1.2,1,1.9s.3,1.6.3,2.6v8.7h-2.4v-7.8c0-1,0-1.8-.2-2.4s-.4-1.1-.7-1.5-.7-.6-1.1-.8c-.4-.2-.9-.2-1.4-.2s-1.3.2-1.8.6c-.6.4-1.1,1-1.4,1.9-.4.9-.6,2.1-.6,3.6v6.6h-2.4v-7.8c0-1,0-1.8-.2-2.4s-.4-1.1-.7-1.5-.6-.6-1-.8c-.4-.2-.9-.2-1.3-.2s-1.3.2-1.9.6c-.6.4-1.1,1-1.4,1.9-.4.9-.6,2.1-.6,3.6v6.6h-2.4Z"/>
        <path class="cls-3" d="M416.5,384.6c-1.5,0-2.9-.3-4-1-1.1-.6-1.9-1.5-2.5-2.7-.6-1.1-.9-2.4-.9-3.9s.3-2.8.8-3.9c.6-1.1,1.4-2,2.5-2.7,1.1-.6,2.4-1,3.9-1s2.8.3,3.8,1c1,.6,1.8,1.5,2.3,2.7.5,1.1.8,2.4.8,3.9v.8h-12.5v-1.9h10.8l-.6.9c0-1-.2-2-.6-2.7s-.9-1.4-1.6-1.8c-.7-.4-1.5-.7-2.5-.7s-1.7.2-2.4.6c-.7.4-1.3,1-1.7,1.8-.4.8-.6,1.8-.6,3.1s.2,2.2.6,3,1,1.5,1.7,1.9c.7.4,1.6.6,2.5.6s1.4-.1,2-.4c.6-.3,1.1-.6,1.4-1,.4-.4.6-.9.8-1.4h2.4c-.2.9-.6,1.8-1.1,2.5s-1.3,1.3-2.3,1.7c-.9.4-2,.6-3.2.6Z"/>
        <path class="cls-3" d="M432.7,384.6c-1,0-1.9-.2-2.7-.5s-1.5-.9-2.1-1.5c-.6-.7-1.1-1.5-1.4-2.4-.3-.9-.5-2-.5-3.1s.3-2.8.8-3.9,1.3-2,2.3-2.6c1-.6,2.2-.9,3.5-.9s1.9.2,2.7.5,1.5.9,2,1.5c.6.7,1,1.5,1.3,2.4s.5,1.9.5,3.1-.3,2.8-.8,4c-.5,1.1-1.3,2-2.2,2.6-1,.6-2.1.9-3.4.9ZM433.1,382.6c.9,0,1.7-.2,2.5-.7.7-.5,1.3-1.1,1.6-1.9.4-.8.6-1.8.6-2.9s-.1-1.6-.3-2.3c-.2-.7-.5-1.3-1-1.7-.4-.5-.9-.9-1.5-1.1-.6-.3-1.2-.4-1.9-.4s-1.7.2-2.4.7c-.7.5-1.2,1.1-1.6,1.9s-.6,1.8-.6,2.9.2,2.1.6,2.9c.4.8.9,1.5,1.6,1.9.7.5,1.5.7,2.4.7ZM437.8,384.4v-6.2l.5-1.2-.5-2.3v-4.9h2.4v14.6h-2.4Z"/>
        <path class="cls-3" d="M444.7,384.4v-21.9h2.4v21.9h-2.4Z"/>
        <path class="cls-3" d="M456.5,384.6c-1.2,0-2.3-.2-3.2-.6-.9-.4-1.5-.9-2-1.6-.5-.7-.7-1.5-.7-2.4h2.4c0,.5.1.9.4,1.3s.6.7,1.1.9c.5.2,1.1.3,1.9.3s1.7-.2,2.3-.6c.6-.4.8-.9.8-1.6s-.2-.9-.5-1.2c-.3-.3-.7-.5-1.2-.7-.5-.2-1.1-.3-1.7-.4-.6-.1-1.2-.3-1.8-.4-.6-.2-1.2-.4-1.7-.7-.5-.3-.9-.7-1.2-1.2-.3-.5-.5-1.2-.5-2,0-1.3.5-2.3,1.4-3.1s2.2-1.1,3.8-1.1,2,.2,2.9.5c.8.4,1.5.9,1.9,1.5s.7,1.4.7,2.3h-2.3c0-.7-.3-1.2-.8-1.7-.6-.4-1.3-.6-2.2-.6s-1.6.2-2.1.6c-.5.4-.8.9-.8,1.6s.2.9.5,1.2c.3.3.7.5,1.2.6.5.1,1.1.3,1.7.4.6.1,1.2.2,1.8.4.6.2,1.2.4,1.7.7.5.3.9.7,1.2,1.2.3.5.5,1.2.5,2.1,0,1.3-.5,2.4-1.5,3.2-1,.8-2.3,1.2-4,1.2Z"/>
        <path class="cls-3" d="M475,384.5l-4.8-14.7h2.6l3.3,10.9,4.1-11h1.9l4,10.8,3.3-10.7h2.5l-4.8,14.7h-1.8l-4.2-11-4.2,11h-1.8Z"/>
        <path class="cls-3" d="M493.8,366.5v-3.2h3.2v3.2h-3.2ZM494.2,384.4v-14.6h2.4v14.6h-2.4Z"/>
        <path class="cls-3" d="M499.4,371.7v-1.9h10.4v1.9h-10.4ZM507.1,384.7c-.8,0-1.5,0-2.1-.2-.6-.2-1.1-.4-1.5-.8s-.7-.9-.8-1.6c-.2-.7-.3-1.5-.3-2.6v-15.2h2.4v15.3c0,.9,0,1.6.2,2s.4.8.8.9c.4.2.9.2,1.5.2s.8,0,1.3-.1c.5,0,.9-.3,1.2-.6v2.3c-.2.1-.5.2-.9.3-.4,0-.7.1-1.1.1s-.7,0-.9,0Z"/>
        <path class="cls-3" d="M513.4,384.4v-21.9h2.4v14h-.8c0-1.5.2-2.7.7-3.7s1.1-1.8,2-2.4c.9-.6,1.9-.8,3.2-.8s1.7.1,2.4.4c.7.3,1.2.7,1.7,1.2.4.5.8,1.2,1,1.9s.3,1.6.3,2.6v8.7h-2.4v-7.8c0-1,0-1.8-.3-2.4s-.4-1.1-.8-1.5c-.3-.4-.7-.6-1.2-.8-.5-.2-1-.2-1.6-.2s-1.4.2-2.1.6c-.6.4-1.1,1-1.5,1.9-.4.9-.6,2.1-.6,3.6v6.6h-2.4Z"/>
        <path class="cls-3" d="M541.9,384.6c-1.2,0-2.3-.2-3.2-.6-.9-.4-1.5-.9-2-1.6-.5-.7-.7-1.5-.7-2.4h2.4c0,.5.1.9.4,1.3s.6.7,1.1.9c.5.2,1.1.3,1.9.3s1.7-.2,2.3-.6c.6-.4.8-.9.8-1.6s-.2-.9-.5-1.2c-.3-.3-.7-.5-1.2-.7-.5-.2-1.1-.3-1.7-.4-.6-.1-1.2-.3-1.8-.4-.6-.2-1.2-.4-1.7-.7-.5-.3-.9-.7-1.2-1.2-.3-.5-.5-1.2-.5-2,0-1.3.5-2.3,1.4-3.1s2.2-1.1,3.8-1.1,2,.2,2.9.5c.8.4,1.5.9,1.9,1.5s.7,1.4.7,2.3h-2.3c0-.7-.3-1.2-.8-1.7-.6-.4-1.3-.6-2.2-.6s-1.6.2-2.1.6c-.5.4-.8.9-.8,1.6s.2.9.5,1.2c.3.3.7.5,1.2.6.5.1,1.1.3,1.7.4.6.1,1.2.2,1.8.4.6.2,1.2.4,1.7.7.5.3.9.7,1.2,1.2.3.5.5,1.2.5,2.1,0,1.3-.5,2.4-1.5,3.2-1,.8-2.3,1.2-4,1.2Z"/>
        <path class="cls-3" d="M556.7,384.6c-1,0-1.9-.2-2.7-.5s-1.5-.9-2.1-1.5c-.6-.7-1.1-1.5-1.4-2.4-.3-.9-.5-2-.5-3.1s.3-2.8.8-3.9,1.3-2,2.3-2.6c1-.6,2.2-.9,3.5-.9s1.9.2,2.7.5,1.5.9,2,1.5c.6.7,1,1.5,1.3,2.4s.5,1.9.5,3.1-.3,2.8-.8,4c-.5,1.1-1.3,2-2.2,2.6-1,.6-2.1.9-3.4.9ZM557.2,382.6c.9,0,1.7-.2,2.5-.7.7-.5,1.3-1.1,1.6-1.9.4-.8.6-1.8.6-2.9s-.1-1.6-.3-2.3c-.2-.7-.5-1.3-1-1.7-.4-.5-.9-.9-1.5-1.1-.6-.3-1.2-.4-1.9-.4s-1.7.2-2.4.7c-.7.5-1.2,1.1-1.6,1.9s-.6,1.8-.6,2.9.2,2.1.6,2.9c.4.8.9,1.5,1.6,1.9.7.5,1.5.7,2.4.7ZM561.9,384.4v-6.2l.5-1.2-.5-2.3v-4.9h2.4v14.6h-2.4Z"/>
        <path class="cls-3" d="M567.2,371.7v-1.9h9.9v1.9h-9.9ZM569.9,384.4v-16.3c0-1.4.2-2.5.5-3.3.4-.9.9-1.5,1.7-1.9.8-.4,1.7-.6,2.9-.6s.6,0,.9,0c.3,0,.5,0,.8.1.2,0,.4.1.6.2v2.2c-.3-.2-.7-.4-1.2-.5s-.8-.1-1.1-.1c-.9,0-1.6.3-2,1-.4.7-.6,1.6-.6,2.9v16.2h-2.4Z"/>
        <path class="cls-3" d="M585.8,384.6c-1.5,0-2.9-.3-4-1-1.1-.6-1.9-1.5-2.5-2.7-.6-1.1-.9-2.4-.9-3.9s.3-2.8.8-3.9c.6-1.1,1.4-2,2.5-2.7,1.1-.6,2.4-1,3.9-1s2.8.3,3.8,1c1,.6,1.8,1.5,2.3,2.7.5,1.1.8,2.4.8,3.9v.8h-12.5v-1.9h10.8l-.6.9c0-1-.2-2-.6-2.7s-.9-1.4-1.6-1.8c-.7-.4-1.5-.7-2.5-.7s-1.7.2-2.4.6c-.7.4-1.3,1-1.7,1.8-.4.8-.6,1.8-.6,3.1s.2,2.2.6,3,1,1.5,1.7,1.9c.7.4,1.6.6,2.5.6s1.4-.1,2-.4c.6-.3,1.1-.6,1.4-1,.4-.4.6-.9.8-1.4h2.4c-.2.9-.6,1.8-1.1,2.5s-1.3,1.3-2.3,1.7c-.9.4-2,.6-3.2.6Z"/>
        <path class="cls-3" d="M595.3,389.6l1.1-5.2h-1.1v-3.1h3v3l-1.7,5.4h-1.3Z"/>
        <path class="cls-3" d="M255.6,419.4c-1.5,0-2.8-.3-3.9-1-1-.6-1.8-1.5-2.4-2.7-.5-1.1-.8-2.4-.8-3.9s.3-2.8.8-3.9c.6-1.1,1.4-2,2.4-2.7,1.1-.6,2.3-1,3.8-1s2.2.2,3.1.6c.9.4,1.7,1,2.3,1.7.6.7,1,1.6,1.2,2.6h-2.4c-.2-.6-.4-1.1-.8-1.5-.4-.4-.9-.8-1.4-1-.6-.2-1.2-.4-1.9-.4-1,0-1.8.2-2.5.7-.7.5-1.2,1.1-1.5,2-.3.8-.5,1.8-.5,2.8s.2,2,.5,2.8c.3.8.8,1.5,1.5,2s1.5.7,2.6.7,2-.3,2.7-.9,1.1-1.4,1.4-2.4h2.4c-.2,1.1-.5,2-1.1,2.8-.6.8-1.3,1.4-2.2,1.8-.9.4-2,.6-3.2.6Z"/>
        <path class="cls-3" d="M265.3,419.2v-21.9h2.4v21.9h-2.4Z"/>
        <path class="cls-3" d="M278.7,419.4c-1.5,0-2.9-.3-4-1-1.1-.6-1.9-1.5-2.5-2.7-.6-1.1-.9-2.4-.9-3.9s.3-2.8.8-3.9c.6-1.1,1.4-2,2.5-2.7,1.1-.6,2.4-1,3.9-1s2.8.3,3.8,1c1,.6,1.8,1.5,2.3,2.7.5,1.1.8,2.4.8,3.9v.8h-12.5v-1.9h10.8l-.6.9c0-1-.2-2-.6-2.7s-.9-1.4-1.6-1.8c-.7-.4-1.5-.7-2.5-.7s-1.7.2-2.4.6c-.7.4-1.3,1-1.7,1.8-.4.8-.6,1.8-.6,3.1s.2,2.2.6,3,1,1.5,1.7,1.9c.7.4,1.6.6,2.5.6s1.4-.1,2-.4c.6-.3,1.1-.6,1.4-1,.4-.4.6-.9.8-1.4h2.4c-.2.9-.6,1.8-1.1,2.5s-1.3,1.3-2.3,1.7c-.9.4-2,.6-3.2.6Z"/>
        <path class="cls-3" d="M294.9,419.4c-1,0-1.9-.2-2.7-.5s-1.5-.9-2.1-1.5c-.6-.7-1.1-1.5-1.4-2.4-.3-.9-.5-2-.5-3.1s.3-2.8.8-3.9,1.3-2,2.3-2.6c1-.6,2.2-.9,3.5-.9s1.9.2,2.7.5,1.5.9,2,1.5c.6.7,1,1.5,1.3,2.4s.5,1.9.5,3.1-.3,2.8-.8,4c-.5,1.1-1.3,2-2.2,2.6-1,.6-2.1.9-3.4.9ZM295.3,417.4c.9,0,1.7-.2,2.5-.7.7-.5,1.3-1.1,1.6-1.9.4-.8.6-1.8.6-2.9s-.1-1.6-.3-2.3c-.2-.7-.5-1.3-1-1.7-.4-.5-.9-.9-1.5-1.1-.6-.3-1.2-.4-1.9-.4s-1.7.2-2.4.7c-.7.5-1.2,1.1-1.6,1.9s-.6,1.8-.6,2.9.2,2.1.6,2.9c.4.8.9,1.5,1.6,1.9.7.5,1.5.7,2.4.7ZM300,419.2v-6.2l.5-1.2-.5-2.3v-4.9h2.4v14.6h-2.4Z"/>
        <path class="cls-3" d="M307,419.2v-14.6h2.4v6.7h-.8c0-1.5.2-2.7.7-3.7s1.1-1.8,2-2.4c.9-.6,1.9-.8,3.2-.8s1.7.1,2.4.4c.7.3,1.2.7,1.7,1.2.4.5.8,1.2,1,1.9s.3,1.6.3,2.6v8.7h-2.4v-7.8c0-1,0-1.8-.3-2.4s-.4-1.1-.8-1.5c-.3-.4-.7-.6-1.2-.8-.5-.2-1-.2-1.6-.2s-1.4.2-2.1.6c-.6.4-1.1,1-1.5,1.9-.4.9-.6,2.1-.6,3.6v6.6h-2.4Z"/>
        <path class="cls-3" d="M333.4,419.3l-4.8-14.7h2.6l3.3,10.9,4.1-11h1.9l4,10.8,3.3-10.7h2.5l-4.8,14.7h-1.8l-4.2-11-4.2,11h-1.8Z"/>
        <path class="cls-3" d="M358.4,419.4c-1,0-1.9-.2-2.7-.5s-1.5-.9-2.1-1.5c-.6-.7-1.1-1.5-1.4-2.4-.3-.9-.5-2-.5-3.1s.3-2.8.8-3.9,1.3-2,2.3-2.6c1-.6,2.2-.9,3.5-.9s1.9.2,2.7.5,1.5.9,2,1.5c.6.7,1,1.5,1.3,2.4s.5,1.9.5,3.1-.3,2.8-.8,4c-.5,1.1-1.3,2-2.2,2.6-1,.6-2.1.9-3.4.9ZM358.8,417.4c.9,0,1.7-.2,2.5-.7.7-.5,1.3-1.1,1.6-1.9.4-.8.6-1.8.6-2.9s-.1-1.6-.3-2.3c-.2-.7-.5-1.3-1-1.7-.4-.5-.9-.9-1.5-1.1-.6-.3-1.2-.4-1.9-.4s-1.7.2-2.4.7c-.7.5-1.2,1.1-1.6,1.9s-.6,1.8-.6,2.9.2,2.1.6,2.9c.4.8.9,1.5,1.6,1.9.7.5,1.5.7,2.4.7ZM363.5,419.2v-6.2l.5-1.2-.5-2.3v-4.9h2.4v14.6h-2.4Z"/>
        <path class="cls-3" d="M368.7,406.5v-1.9h10.4v1.9h-10.4ZM376.3,419.5c-.8,0-1.5,0-2.1-.2-.6-.2-1.1-.4-1.5-.8s-.7-.9-.8-1.6c-.2-.7-.3-1.5-.3-2.6v-15.2h2.4v15.3c0,.9,0,1.6.2,2s.4.8.8.9c.4.2.9.2,1.5.2s.8,0,1.3-.1c.5,0,.9-.3,1.2-.6v2.3c-.2.1-.5.2-.9.3-.4,0-.7.1-1.1.1s-.7,0-.9,0Z"/>
        <path class="cls-3" d="M389.1,419.4c-1.5,0-2.9-.3-4-1-1.1-.6-1.9-1.5-2.5-2.7-.6-1.1-.9-2.4-.9-3.9s.3-2.8.8-3.9c.6-1.1,1.4-2,2.5-2.7,1.1-.6,2.4-1,3.9-1s2.8.3,3.8,1c1,.6,1.8,1.5,2.3,2.7.5,1.1.8,2.4.8,3.9v.8h-12.5v-1.9h10.8l-.6.9c0-1-.2-2-.6-2.7s-.9-1.4-1.6-1.8c-.7-.4-1.5-.7-2.5-.7s-1.7.2-2.4.6c-.7.4-1.3,1-1.7,1.8-.4.8-.6,1.8-.6,3.1s.2,2.2.6,3,1,1.5,1.7,1.9c.7.4,1.6.6,2.5.6s1.4-.1,2-.4c.6-.3,1.1-.6,1.4-1,.4-.4.6-.9.8-1.4h2.4c-.2.9-.6,1.8-1.1,2.5s-1.3,1.3-2.3,1.7c-.9.4-2,.6-3.2.6Z"/>
        <path class="cls-3" d="M399.5,419.2v-14.6h2.4v7.4h-.7c0-1.6.3-2.9.7-4,.4-1.1,1.1-2,1.9-2.6s1.8-.9,3-.9.3,0,.5,0c.2,0,.3,0,.5,0v2.4c-.9,0-1.8,0-2.5.2-.7.2-1.4.4-1.9.9-.5.4-.9,1-1.1,1.8-.3.8-.4,1.7-.4,2.9v6.4h-2.4Z"/>
        <path class="cls-3" d="M415.6,406.5v-1.9h10.4v1.9h-10.4ZM423.2,419.5c-.8,0-1.5,0-2.1-.2-.6-.2-1.1-.4-1.5-.8s-.7-.9-.8-1.6c-.2-.7-.3-1.5-.3-2.6v-15.2h2.4v15.3c0,.9,0,1.6.2,2s.4.8.8.9c.4.2.9.2,1.5.2s.8,0,1.3-.1c.5,0,.9-.3,1.2-.6v2.3c-.2.1-.5.2-.9.3-.4,0-.7.1-1.1.1s-.7,0-.9,0Z"/>
        <path class="cls-3" d="M436.1,419.4c-1.5,0-2.8-.3-3.9-1-1.1-.6-2-1.5-2.6-2.7-.6-1.1-.9-2.4-.9-3.9s.3-2.8.9-3.9c.6-1.1,1.5-2,2.6-2.7,1.1-.6,2.4-1,3.9-1s2.8.3,3.9,1c1.1.6,2,1.5,2.6,2.7.6,1.1.9,2.4.9,3.9s-.3,2.8-.9,3.9c-.6,1.1-1.5,2-2.6,2.7-1.1.6-2.4,1-3.9,1ZM436.1,417.4c1.1,0,2-.2,2.7-.7.7-.5,1.3-1.1,1.7-1.9.4-.8.6-1.8.6-2.8s-.1-1.5-.3-2.2c-.2-.7-.5-1.3-1-1.8-.4-.5-.9-.9-1.6-1.1-.6-.3-1.3-.4-2.1-.4s-2,.2-2.7.7c-.7.5-1.3,1.1-1.7,2-.4.8-.6,1.8-.6,2.8s.2,2,.6,2.8c.4.8.9,1.5,1.7,1.9.7.5,1.6.7,2.7.7Z"/>
        <path class="cls-3" d="M458.7,419.4c-1.2,0-2.3-.2-3.2-.6-.9-.4-1.5-.9-2-1.6-.5-.7-.7-1.5-.7-2.4h2.4c0,.5.1.9.4,1.3s.6.7,1.1.9c.5.2,1.1.3,1.9.3s1.7-.2,2.3-.6c.6-.4.8-.9.8-1.6s-.2-.9-.5-1.2c-.3-.3-.7-.5-1.2-.7-.5-.2-1.1-.3-1.7-.4-.6-.1-1.2-.3-1.8-.4-.6-.2-1.2-.4-1.7-.7-.5-.3-.9-.7-1.2-1.2-.3-.5-.5-1.2-.5-2,0-1.3.5-2.3,1.4-3.1s2.2-1.1,3.8-1.1,2,.2,2.9.5c.8.4,1.5.9,1.9,1.5s.7,1.4.7,2.3h-2.3c0-.7-.3-1.2-.8-1.7-.6-.4-1.3-.6-2.2-.6s-1.6.2-2.1.6c-.5.4-.8.9-.8,1.6s.2.9.5,1.2c.3.3.7.5,1.2.6.5.1,1.1.3,1.7.4.6.1,1.2.2,1.8.4.6.2,1.2.4,1.7.7.5.3.9.7,1.2,1.2.3.5.5,1.2.5,2.1,0,1.3-.5,2.4-1.5,3.2-1,.8-2.3,1.2-4,1.2Z"/>
        <path class="cls-3" d="M466,406.5v-1.9h10.4v1.9h-10.4ZM473.7,419.5c-.8,0-1.5,0-2.1-.2-.6-.2-1.1-.4-1.5-.8s-.7-.9-.8-1.6c-.2-.7-.3-1.5-.3-2.6v-15.2h2.4v15.3c0,.9,0,1.6.2,2s.4.8.8.9c.4.2.9.2,1.5.2s.8,0,1.3-.1c.5,0,.9-.3,1.2-.6v2.3c-.2.1-.5.2-.9.3-.4,0-.7.1-1.1.1s-.7,0-.9,0Z"/>
        <path class="cls-3" d="M485.8,419.4c-1,0-1.9-.2-2.7-.5s-1.5-.9-2.1-1.5c-.6-.7-1.1-1.5-1.4-2.4-.3-.9-.5-2-.5-3.1s.3-2.8.8-3.9,1.3-2,2.3-2.6c1-.6,2.2-.9,3.5-.9s1.9.2,2.7.5,1.5.9,2,1.5c.6.7,1,1.5,1.3,2.4s.5,1.9.5,3.1-.3,2.8-.8,4c-.5,1.1-1.3,2-2.2,2.6-1,.6-2.1.9-3.4.9ZM486.2,417.4c.9,0,1.7-.2,2.5-.7.7-.5,1.3-1.1,1.6-1.9.4-.8.6-1.8.6-2.9s-.1-1.6-.3-2.3c-.2-.7-.5-1.3-1-1.7-.4-.5-.9-.9-1.5-1.1-.6-.3-1.2-.4-1.9-.4s-1.7.2-2.4.7c-.7.5-1.2,1.1-1.6,1.9s-.6,1.8-.6,2.9.2,2.1.6,2.9c.4.8.9,1.5,1.6,1.9.7.5,1.5.7,2.4.7ZM490.9,419.2v-6.2l.5-1.2-.5-2.3v-4.9h2.4v14.6h-2.4Z"/>
        <path class="cls-3" d="M502.1,419.9l-6.4-15.3h2.7l4.9,12.4-1.2,2.9ZM498.7,425.5l3.4-8.3.2-.6,4.9-12h2.6l-8.6,20.9h-2.6Z"/>
        <path class="cls-3" d="M255.9,454.2c-1.5,0-2.9-.3-4-1-1.1-.6-1.9-1.5-2.5-2.7-.6-1.1-.9-2.4-.9-3.9s.3-2.8.8-3.9c.6-1.1,1.4-2,2.5-2.7,1.1-.6,2.4-1,3.9-1s2.8.3,3.8,1c1,.6,1.8,1.5,2.3,2.7.5,1.1.8,2.4.8,3.9v.8h-12.5v-1.9h10.8l-.6.9c0-1-.2-2-.6-2.7s-.9-1.4-1.6-1.8c-.7-.4-1.5-.7-2.5-.7s-1.7.2-2.4.6c-.7.4-1.3,1-1.7,1.8-.4.8-.6,1.8-.6,3.1s.2,2.2.6,3,1,1.5,1.7,1.9c.7.4,1.6.6,2.5.6s1.4-.1,2-.4c.6-.3,1.1-.6,1.4-1,.4-.4.6-.9.8-1.4h2.4c-.2.9-.6,1.8-1.1,2.5s-1.3,1.3-2.3,1.7c-.9.4-2,.6-3.2.6Z"/>
        <path class="cls-3" d="M266.3,454v-14.6h2.4v6.7h-.8c0-1.5.2-2.7.7-3.7s1.1-1.8,2-2.4c.9-.6,1.9-.8,3.2-.8s1.7.1,2.4.4c.7.3,1.2.7,1.7,1.2.4.5.8,1.2,1,1.9s.3,1.6.3,2.6v8.7h-2.4v-7.8c0-1,0-1.8-.3-2.4s-.4-1.1-.8-1.5c-.3-.4-.7-.6-1.2-.8-.5-.2-1-.2-1.6-.2s-1.4.2-2.1.6c-.6.4-1.1,1-1.5,1.9-.4.9-.6,2.1-.6,3.6v6.6h-2.4Z"/>
        <path class="cls-3" d="M289.8,454.2c-1.5,0-2.9-.3-4-1-1.1-.6-1.9-1.5-2.5-2.7-.6-1.1-.9-2.4-.9-3.9s.3-2.8.8-3.9c.6-1.1,1.4-2,2.5-2.7,1.1-.6,2.4-1,3.9-1s2.8.3,3.8,1c1,.6,1.8,1.5,2.3,2.7.5,1.1.8,2.4.8,3.9v.8h-12.5v-1.9h10.8l-.6.9c0-1-.2-2-.6-2.7s-.9-1.4-1.6-1.8c-.7-.4-1.5-.7-2.5-.7s-1.7.2-2.4.6c-.7.4-1.3,1-1.7,1.8-.4.8-.6,1.8-.6,3.1s.2,2.2.6,3,1,1.5,1.7,1.9c.7.4,1.6.6,2.5.6s1.4-.1,2-.4c.6-.3,1.1-.6,1.4-1,.4-.4.6-.9.8-1.4h2.4c-.2.9-.6,1.8-1.1,2.5s-1.3,1.3-2.3,1.7c-.9.4-2,.6-3.2.6Z"/>
        <path class="cls-3" d="M300.2,454v-14.6h2.4v7.4h-.7c0-1.6.3-2.9.7-4,.4-1.1,1.1-2,1.9-2.6s1.8-.9,3-.9.3,0,.5,0c.2,0,.3,0,.5,0v2.4c-.9,0-1.8,0-2.5.2-.7.2-1.4.4-1.9.9-.5.4-.9,1-1.1,1.8-.3.8-.4,1.7-.4,2.9v6.4h-2.4Z"/>
        <path class="cls-3" d="M317.2,454.2c-1,0-1.9-.2-2.8-.5-.8-.4-1.5-.9-2.1-1.5s-1.1-1.5-1.4-2.4c-.3-.9-.5-2-.5-3.1s.3-2.8.9-3.9,1.4-2,2.4-2.6c1-.6,2.2-.9,3.6-.9s2.4.3,3.3.9c.9.6,1.7,1.5,2.2,2.6.5,1.1.8,2.4.8,3.9s-.3,2.8-.8,4c-.5,1.1-1.3,2-2.2,2.6-.9.6-2.1.9-3.3.9ZM318,460.5c-1.5,0-2.6-.2-3.6-.6-.9-.4-1.7-.9-2.2-1.6-.5-.7-.8-1.5-.9-2.4h2.4c0,.5.3.9.6,1.3s.7.7,1.3.9c.6.2,1.3.3,2.3.3s1.8-.1,2.4-.4c.6-.3,1.1-.7,1.4-1.3s.4-1.3.4-2.1v-5.3l.6-2.6-.6-2.3v-4.9h2.4v15.1c0,1.3-.3,2.3-.8,3.2-.5.9-1.3,1.6-2.2,2.1-1,.5-2.2.7-3.7.7ZM317.6,452.2c.9,0,1.7-.2,2.5-.7.7-.5,1.3-1.1,1.6-1.9.4-.8.6-1.8.6-2.9s-.1-1.6-.3-2.3c-.2-.7-.5-1.3-1-1.7-.4-.5-.9-.9-1.5-1.1-.6-.3-1.2-.4-1.9-.4s-1.7.2-2.4.7c-.7.5-1.2,1.1-1.6,1.9s-.6,1.8-.6,2.9.2,2.1.6,2.9c.4.8.9,1.5,1.6,1.9.7.5,1.5.7,2.4.7Z"/>
        <path class="cls-3" d="M328.8,436.1v-3.2h3.2v3.2h-3.2ZM329.2,454v-14.6h2.4v14.6h-2.4Z"/>
        <path class="cls-3" d="M335.2,454v-1.6l9.4-12.4.3,1.3h-9.3v-1.9h11.2v1.6l-9.4,12.4-.3-1.3h10v1.9h-11.8Z"/>
        <path class="cls-3" d="M356.8,454.2c-1.5,0-2.9-.3-4-1-1.1-.6-1.9-1.5-2.5-2.7-.6-1.1-.9-2.4-.9-3.9s.3-2.8.8-3.9c.6-1.1,1.4-2,2.5-2.7,1.1-.6,2.4-1,3.9-1s2.8.3,3.8,1c1,.6,1.8,1.5,2.3,2.7.5,1.1.8,2.4.8,3.9v.8h-12.5v-1.9h10.8l-.6.9c0-1-.2-2-.6-2.7s-.9-1.4-1.6-1.8c-.7-.4-1.5-.7-2.5-.7s-1.7.2-2.4.6c-.7.4-1.3,1-1.7,1.8-.4.8-.6,1.8-.6,3.1s.2,2.2.6,3,1,1.5,1.7,1.9c.7.4,1.6.6,2.5.6s1.4-.1,2-.4c.6-.3,1.1-.6,1.4-1,.4-.4.6-.9.8-1.4h2.4c-.2.9-.6,1.8-1.1,2.5s-1.3,1.3-2.3,1.7c-.9.4-2,.6-3.2.6Z"/>
        <path class="cls-3" d="M372.9,454.2c-1,0-1.9-.2-2.7-.5-.8-.4-1.5-.9-2.1-1.5-.6-.7-1-1.5-1.4-2.4-.3-.9-.5-2-.5-3.1s.3-2.8.8-3.9,1.3-2,2.3-2.6c1-.6,2.2-.9,3.5-.9s1.9.2,2.7.5,1.5.9,2,1.5c.6.7,1,1.5,1.3,2.4s.5,1.9.5,3.1-.3,2.8-.8,4c-.5,1.1-1.3,2-2.3,2.6-1,.6-2.1.9-3.4.9ZM373.4,452.2c.9,0,1.7-.2,2.5-.7.7-.5,1.3-1.1,1.6-1.9.4-.8.6-1.8.6-2.9s-.1-1.6-.3-2.3c-.2-.7-.5-1.3-1-1.7-.4-.5-.9-.9-1.5-1.1-.6-.3-1.2-.4-1.9-.4s-1.7.2-2.4.7c-.7.5-1.2,1.1-1.6,1.9s-.6,1.8-.6,2.9.2,2.1.6,2.9c.4.8.9,1.5,1.6,1.9.7.5,1.5.7,2.4.7ZM378.1,454v-4.8l.6-2.6-.6-2.1v-12.4h2.4v21.9h-2.4Z"/>
        <path class="cls-3" d="M384.6,454v-3.1h3v3.1h-3Z"/>
      </g>
    </g>
  </g>
</svg>