<?xml version="1.0" encoding="UTF-8"?>
<svg xmlns="http://www.w3.org/2000/svg" version="1.1" viewBox="0 0 1417.3 1984.3">
  <defs>
    <style>
      .cls-1 {
        fill: none;
        stroke: #004647;
        stroke-miterlimit: 10;
        stroke-width: 32px;
      }
    </style>
  </defs>
  <!-- Generator: Adobe Illustrator 28.7.2, SVG Export Plug-In . SVG Version: 1.2.0 Build 154)  -->
  <g>
    <g id="Layer_1">
      <g id="cpGcwt.tif">
        <g id="ZhDcQD.tif">
          <g id="ZhDcQD.tif-2" data-name="ZhDcQD.tif">
            <path class="cls-1" d="M719.4,1284c-.7.7-1.8.7-2.5,0-43-43.6-86.6-86.7-129.9-130.2-66.2-66.6-132.5-133.1-198.4-200-21.6-21.9-34.5-49.1-42.2-78.7-2.8-10.7-4.4-21.8-6.5-32.7v-31.6c0-3.3.5-6.7,1.5-9.9s.4-1.5.5-2.3c8.8-62.6,41.4-109.1,93.8-142,20.5-12.9,43.2-20.3,66.9-24.6l4-.7c3.6-.7,9.6-1.2,13.3-1.2h17.8c15.7,0,31.3,1.9,46.5,5.7s11.5,3,17.1,4.8c25.1,8,47.1,21.5,66,39.7,17.1,16.4,34.3,32.6,50.9,49.6h.2c16.5-16.9,33.8-33.2,50.9-49.6,19-18.2,41-31.8,66-39.7,5.6-1.8,11.4-3.3,17.1-4.8,15.2-3.8,30.8-5.7,46.5-5.7h17.8c3.7,0,9.7.6,13.3,1.2l4,.7c23.7,4.4,46.4,11.7,66.9,24.6,52.4,33,85,79.4,93.8,142,.1.8.3,1.5.5,2.3,1,3.2,1.5,6.5,1.5,9.9v31.6c-2.1,10.9-3.7,21.9-6.5,32.7-7.7,29.6-20.6,56.7-42.2,78.7-65.9,66.9-132.1,133.5-198.4,200-43.2,43.4-86.8,86.5-129.9,130.2-.7.7-1.8.7-2.5,0"/>
          </g>
        </g>
      </g>
    </g>
  </g>
</svg>