<?xml version="1.0" encoding="UTF-8"?>
<svg id="Layer_1" data-name="Layer 1" xmlns="http://www.w3.org/2000/svg" viewBox="0 0 317.3 69.69">
  <defs>
    <style>
      .cls-1 {
        fill: #0e4946;
      }
    </style>
  </defs>
  <circle class="cls-1" cx="312.9" cy="49.79" r="4.4"/>
  <path class="cls-1" d="M64.9,6.79c-14.5,0-24.1,10-24.1,25.1s9.6,25.2,24,25.2,24.1-10.2,24.1-25.3-9.6-25-24-25h0ZM64.8,54.19c-7.5,0-9.4-8.8-9.4-22.3s1.8-22.2,9.4-22.2,9.5,9.2,9.5,22.3-1.9,22.2-9.5,22.2Z"/>
  <path class="cls-1" d="M147.5,6.89c-3.3,0-6.7,1.6-9.9,4.7v-1.8c0-.9-.8-1.7-1.7-1.7h-18.3v.9c0,.8.6,1.5,1.4,1.6l3.5.7c.8.1,1.4.8,1.4,1.6v32c0,.5-.2.9-.5,1.2-2.3,2-4.9,3.9-8.7,3.9s-6.4-3.2-6.4-8.3V9.59c0-.9-.8-1.7-1.7-1.7h-18v1c0,.8.6,1.5,1.3,1.6l3.2.7c.8.2,1.3.8,1.3,1.6v28.4c0,10.3,4,15.8,13.5,15.8s9.6-1.9,13.6-6c.8-.8,2.3-.6,2.7.4,1.5,3.6,5,5.6,8.9,5.6h1.1c1.9,0,3.3-1.5,3.3-3.3V15.59c1.1-.7,2.4-1.4,3.4-1.7v.3c0,4.2,3.1,6.7,7.2,6.7s6.8-2.9,6.8-6.9-2.1-7.2-7.5-7.2h0l.1.1Z"/>
  <path class="cls-1" d="M209.6,52.19l-2.9-.6c-.8-.2-1.3-.8-1.3-1.6v-27.9c0-11.5-4.3-16.5-13.9-16.5s-9.5,2.3-13.3,5.7c-1.1,1-2.8.2-2.8-1.2v-1.5c0-.9-.8-1.7-1.7-1.7h-17.7v1c0,.8.6,1.5,1.3,1.6l3.4.7c.8.2,1.3.8,1.3,1.6v41.3c0,.9.8,1.6,1.7,1.6h17.3v-1c0-.8-.5-1.5-1.3-1.6l-2.6-.5c-.8-.2-1.3-.8-1.3-1.6V17.69c0-.5.2-1,.6-1.3,2.4-2,5-3.8,8.7-3.8s6.5,3.3,6.5,8.3v32.3c0,.9.8,1.7,1.7,1.7h17.7v-1c0-.8-.6-1.5-1.3-1.6h0l-.1-.1Z"/>
  <path class="cls-1" d="M224.7,29.09c0-.9.7-1.7,1.7-1.7h26.1c.9,0,1.7-.8,1.7-1.7-.5-14.2-7.3-20-20.3-20s-22.9,11.4-22.9,25.1,9.4,25.1,21.4,25.1,16.1-3.7,21.4-8.9c.3-.3.5-.8.5-1.2v-2.2c-3.1,2-8,5-15.2,5s-13.9-7.4-14.3-19.5h-.1ZM233.4,8.59c5.6,0,7.7,4.7,8,13.8,0,1-.7,1.7-1.7,1.7h-13.3c-1,0-1.7-.8-1.7-1.8.5-10.1,3.9-13.8,8.7-13.8h0v.1Z"/>
  <path class="cls-1" d="M272.4,29.09c0-.9.7-1.7,1.7-1.7h26.1c.9,0,1.7-.8,1.7-1.7-.5-14.2-7.3-20-20.3-20s-22.9,11.4-22.9,25.1,9.4,25.1,21.4,25.1,16.1-3.7,21.4-8.9c.3-.3.5-.8.5-1.2v-2.2c-3.1,2-8,5-15.2,5s-13.9-7.4-14.3-19.5h-.1ZM281.2,8.59c5.6,0,7.7,4.7,8,13.8,0,1-.7,1.7-1.7,1.7h-13.3c-1,0-1.7-.8-1.7-1.8.5-10.1,3.9-13.8,8.7-13.8h0v.1Z"/>
  <path class="cls-1" d="M45.5,5.39s.4-2-1.2-2.1c0,0-.9-1.5-4-1.2-1.2,0-5.2,1.3-9.8,2.8-.6.2-1.1.4-1.7.6-.9.3-1.7.6-2.6.9-.5.2-1,.3-1.6.5-.2,0-.4.1-.5.2-.7.2-1.4.5-2.1.7-.6.2-1.2.4-1.8.6-1.9.6-3.5,1.2-4.8,1.5-.2,0-.3.1-.5.1-1,.3-1.6.4-1.7.4-.6-.2-2.5-2.4-4.6-5.3-.8-1.2-1.7-2.5-2.5-3.8C5.5.29,4.6-.21,3.8.09c-.3,0-.5.5-.5.9v.6l3,11.1c.2.6.4,1.2.7,1.6.4.7,1,1.1,1.5,1.3,1.9.6,5.1,1.5,6.3,1.7h.3c.3,0,1.7-.3,3.7-.7v29.8c0,13.2-.7,20.4-6.8,20.4s-1,0-1.5-.2c1.2-1.1,2.3-3.3,2.3-5,0-3.2-2.9-5-6-5-3.3-.1-6.8,1.8-6.8,5.9s2.9,7.2,11,7.2c12.7,0,21.3-9.9,21.3-22.9V12.89h0c.5-.2.9-.3,1.4-.5,5.7-2,10.7-4.5,11.4-6.9h0l.4-.1Z"/>
</svg>