<?xml version="1.0" encoding="UTF-8"?>
<svg xmlns="http://www.w3.org/2000/svg" version="1.1" viewBox="0 0 841.9 595.3">
  <defs>
    <style>
      .cls-1 {
        fill: #f8f6f3;
      }

      .cls-2 {
        isolation: isolate;
      }

      .cls-3 {
        fill: #004647;
      }

      .cls-4 {
        fill: #004647;
      }
    </style>
  </defs>
  <!-- Generator: Adobe Illustrator 28.7.2, SVG Export Plug-In . SVG Version: 1.2.0 Build 154)  -->
  <g>
    <g id="Layer_1">
      <g id="Layer_1-2" data-name="Layer_1">
        <path class="cls-3" d="M313.8,87.6h-2.9v-8c0-7.4-6-13.4-13.4-13.4h-8c-7.4,0-13.4,6-13.4,13.4v8h-2.9c-5.9,0-10.7,4.8-10.7,10.7v48.3c0,5.4,4.1,9.9,9.3,10.6-.1.5-.2,1-.2,1.4,0,3.7,3,6.7,6.7,6.7s6.7-3,6.7-6.7,0-.9-.1-1.3h17.3c0,.4-.1.9-.1,1.3,0,3.7,3,6.7,6.7,6.7s6.7-3,6.7-6.7,0-1-.2-1.4c5.2-.7,9.3-5.2,9.3-10.6v-48.3c0-5.9-4.8-10.7-10.7-10.7h0ZM281.4,79.6c0-4.4,3.6-8,8-8h8c4.4,0,8,3.6,8,8v8h-24.1v-8h.1ZM281.4,158.7c0,1.7-1.4,3.1-3.1,3.1s-3.1-1.4-3.1-3.1.1-.9.3-1.3h5.6c.2.4.3.9.3,1.3h0ZM308.6,161.8c-1.7,0-3.1-1.4-3.1-3.1s.1-.9.3-1.3h5.6c.2.4.3.9.3,1.3,0,1.7-1.4,3.1-3.1,3.1h0Z"/>
        <path class="cls-1" d="M290,132.8h7.2c2.2,0,4,1.8,4,4h0c0,2.2-1.8,4-4,4h-7.2c-2.2,0-4-1.8-4-4h0c0-2.2,1.8-4,4-4Z"/>
        <path class="cls-3" d="M614.4,528.9H227.6c-7.8,0-14.1-6.3-14.1-14.1V127.9c0-7.8,6.3-14.1,14.1-14.1h29.6v4h-29.6c-5.6,0-10.1,4.5-10.1,10.1v386.9c0,5.6,4.5,10.1,10.1,10.1h386.8c5.6,0,10.1-4.5,10.1-10.1V127.9c0-5.6-4.5-10.1-10.1-10.1h-286.1v-4h286.1c7.8,0,14.1,6.3,14.1,14.1v386.9c0,7.8-6.3,14.1-14.1,14.1Z"/>
        <g class="cls-2">
          <g class="cls-2">
            <path class="cls-3" d="M254.4,232.9v-25.9h4.7v22.6l-.6-.7h8.6v4h-12.7Z"/>
            <path class="cls-3" d="M278.6,233.3c-1.9,0-3.5-.4-4.8-1.1-1.3-.7-2.3-1.9-3-3.4-.7-1.5-1-3.4-1-5.6v-16.2h4.6v16.4c0,1.3.1,2.4.4,3.3.3.9.8,1.5,1.4,2,.6.4,1.4.7,2.3.7s1.6-.1,2.1-.4c.5-.3,1-.7,1.3-1.2.3-.5.5-1.2.6-1.9,0-.7.1-1.5.1-2.4v-16.4h4.6v16.2c0,2.2-.3,4.1-1,5.6-.6,1.5-1.6,2.6-2.9,3.4s-2.9,1.1-4.9,1.1Z"/>
            <path class="cls-3" d="M301.4,233.2c-1.8,0-3.3-.3-4.6-.9-1.3-.6-2.5-1.5-3.4-2.6-.9-1.1-1.6-2.5-2-4.2-.4-1.7-.7-3.6-.7-5.7s.2-4,.7-5.6c.5-1.6,1.1-3,2-4.1.9-1.1,2-2,3.3-2.6,1.3-.6,2.8-.9,4.5-.9s3.3.3,4.7,1c1.4.7,2.6,1.7,3.5,3.1.9,1.4,1.5,3.1,1.7,5.2h-4.6c-.2-1.3-.5-2.3-1-3.1-.5-.8-1.1-1.4-1.8-1.7s-1.5-.6-2.4-.6c-1.3,0-2.4.4-3.3,1.1s-1.5,1.7-2,3.1-.6,3.1-.6,5.1.1,2.9.3,4.1c.2,1.2.6,2.2,1.1,3,.5.8,1.1,1.4,1.9,1.8.8.4,1.6.6,2.6.6s1.5-.1,2.2-.4c.6-.2,1.2-.7,1.7-1.3.5-.6.9-1.4,1.1-2.5.3-1,.4-2.3.5-3.8l4.4-.9c0,2.3-.3,4.2-.7,5.9-.5,1.6-1.1,2.9-2,3.9s-1.9,1.7-3.1,2.2c-1.2.5-2.5.7-4,.7ZM300.5,222.2v-3.4h10.7v1.8l-2.7,1.6h-7.9Z"/>
            <path class="cls-3" d="M324.5,233.2c-1.8,0-3.3-.3-4.6-.9-1.3-.6-2.5-1.5-3.4-2.6-.9-1.1-1.6-2.5-2-4.2-.4-1.7-.7-3.6-.7-5.7s.2-4,.7-5.6c.5-1.6,1.1-3,2-4.1.9-1.1,2-2,3.3-2.6,1.3-.6,2.8-.9,4.5-.9s3.3.3,4.7,1c1.4.7,2.6,1.7,3.5,3.1.9,1.4,1.5,3.1,1.7,5.2h-4.6c-.2-1.3-.5-2.3-1-3.1-.5-.8-1.1-1.4-1.8-1.7s-1.5-.6-2.4-.6c-1.3,0-2.4.4-3.3,1.1s-1.5,1.7-2,3.1-.6,3.1-.6,5.1.1,2.9.3,4.1c.2,1.2.6,2.2,1.1,3,.5.8,1.1,1.4,1.9,1.8.8.4,1.6.6,2.6.6s1.5-.1,2.2-.4c.6-.2,1.2-.7,1.7-1.3.5-.6.9-1.4,1.1-2.5.3-1,.4-2.3.5-3.8l4.4-.9c0,2.3-.3,4.2-.7,5.9-.5,1.6-1.1,2.9-2,3.9s-1.9,1.7-3.1,2.2c-1.2.5-2.5.7-4,.7ZM323.6,222.2v-3.4h10.7v1.8l-2.7,1.6h-7.9Z"/>
            <path class="cls-3" d="M335.1,232.9l7.6-25.9h5.3l7.8,25.9h-4.9l-1.8-6.9.6.4h-8.5l.5-.3-1.9,6.8h-4.6ZM342.3,223.7l-.7-.9h7.3l-.6.6-3-12.2-3,12.4Z"/>
            <path class="cls-3" d="M367.3,233.2c-1.8,0-3.3-.3-4.6-.9-1.3-.6-2.5-1.5-3.4-2.6-.9-1.1-1.6-2.5-2-4.2-.4-1.7-.7-3.6-.7-5.7s.2-4,.7-5.6c.5-1.6,1.1-3,2-4.1.9-1.1,2-2,3.3-2.6,1.3-.6,2.8-.9,4.5-.9s3.3.3,4.7,1c1.4.7,2.6,1.7,3.5,3.1.9,1.4,1.5,3.1,1.7,5.2h-4.6c-.2-1.3-.5-2.3-1-3.1-.5-.8-1.1-1.4-1.8-1.7s-1.5-.6-2.4-.6c-1.3,0-2.4.4-3.3,1.1s-1.5,1.7-2,3.1-.6,3.1-.6,5.1.1,2.9.3,4.1c.2,1.2.6,2.2,1.1,3,.5.8,1.1,1.4,1.9,1.8.8.4,1.6.6,2.6.6s1.5-.1,2.2-.4c.6-.2,1.2-.7,1.7-1.3.5-.6.9-1.4,1.1-2.5.3-1,.4-2.3.5-3.8l4.4-.9c0,2.3-.3,4.2-.7,5.9-.5,1.6-1.1,2.9-2,3.9s-1.9,1.7-3.1,2.2c-1.2.5-2.5.7-4,.7ZM366.4,222.2v-3.4h10.7v1.8l-2.7,1.6h-7.9Z"/>
            <path class="cls-3" d="M380.6,232.9v-25.9h13.5v3.9h-9v7.1h8.1v3.6h-8.1v7.4h9v3.9h-13.5Z"/>
          </g>
        </g>
        <g>
          <path class="cls-4" d="M254.5,299.4v-20.3h5.3c1.8,0,3.3.3,4.3.8,1.1.5,1.9,1.3,2.3,2.3.5,1,.7,2.1.7,3.4s-.3,2.4-.8,3.4c-.5,1-1.4,1.8-2.5,2.3-1.2.6-2.7.8-4.5.8h-3.2v-2.1h3.2c1.4,0,2.4-.2,3.2-.6s1.3-.9,1.6-1.6.4-1.4.4-2.3-.1-1.7-.4-2.3c-.3-.6-.7-1.1-1.4-1.5-.7-.3-1.7-.5-3-.5h-3.8l1-1v19.1h-2.6Z"/>
          <path class="cls-4" d="M276.4,299.7c-1,0-1.9-.2-2.7-.5s-1.5-.9-2.1-1.5c-.6-.7-1.1-1.5-1.4-2.4-.3-.9-.5-2-.5-3.1s.3-2.8.8-3.9c.6-1.1,1.3-2,2.3-2.6,1-.6,2.2-.9,3.5-.9s1.9.2,2.7.5c.8.4,1.5.9,2,1.5.6.7,1,1.5,1.3,2.4.3.9.5,1.9.5,3.1s-.3,2.8-.8,4c-.5,1.1-1.3,2-2.2,2.6-1,.6-2.1.9-3.4.9ZM276.9,297.7c.9,0,1.7-.2,2.5-.7.7-.5,1.3-1.1,1.6-1.9.4-.8.6-1.8.6-2.9s-.1-1.6-.3-2.3c-.2-.7-.5-1.3-1-1.7-.4-.5-.9-.9-1.5-1.1-.6-.3-1.2-.4-1.9-.4s-1.7.2-2.4.7c-.7.5-1.2,1.1-1.6,1.9-.4.8-.6,1.8-.6,2.9s.2,2.1.6,2.9c.4.8.9,1.5,1.6,1.9.7.5,1.5.7,2.4.7ZM281.6,299.4v-6.2l.5-1.2-.5-2.3v-4.9h2.4v14.6h-2.4Z"/>
          <path class="cls-4" d="M294.6,299.7c-1.5,0-2.8-.3-3.9-1-1-.6-1.8-1.5-2.4-2.7-.5-1.1-.8-2.4-.8-3.9s.3-2.8.8-3.9c.6-1.1,1.4-2,2.4-2.7,1.1-.6,2.3-1,3.8-1s2.2.2,3.1.6c.9.4,1.7,1,2.3,1.7.6.7,1,1.6,1.2,2.6h-2.4c-.2-.6-.4-1.1-.8-1.5s-.9-.8-1.4-1c-.6-.2-1.2-.4-1.9-.4-1,0-1.8.2-2.5.7-.7.5-1.2,1.1-1.5,2s-.5,1.8-.5,2.8.2,2,.5,2.8c.3.8.8,1.5,1.5,2,.7.5,1.5.7,2.6.7s2-.3,2.7-.9,1.1-1.4,1.4-2.4h2.4c-.2,1.1-.5,2-1.1,2.8-.6.8-1.3,1.4-2.2,1.8-.9.4-2,.6-3.2.6Z"/>
          <path class="cls-4" d="M304.3,299.4v-21.9h2.4v21.9h-2.4ZM313.5,299.4l-6.8-6.9-.2-.5,6.2-7.2h3.1l-6.8,7.8-.4-1.5,8.3,8.3h-3.4Z"/>
          <path class="cls-4" d="M325.9,299.4v-21.9h2.4v21.9h-2.4Z"/>
          <path class="cls-4" d="M332.4,281.5v-3.2h3.2v3.2h-3.2ZM332.8,299.4v-14.6h2.4v14.6h-2.4Z"/>
          <path class="cls-4" d="M345.6,299.7c-1,0-1.9-.2-2.8-.5-.8-.4-1.5-.9-2.1-1.5s-1.1-1.5-1.4-2.4c-.3-.9-.5-2-.5-3.1s.3-2.8.9-3.9c.6-1.1,1.4-2,2.4-2.6,1-.6,2.2-.9,3.6-.9s2.4.3,3.3.9c.9.6,1.7,1.5,2.2,2.6.5,1.1.8,2.4.8,3.9s-.3,2.8-.8,4c-.5,1.1-1.3,2-2.2,2.6-.9.6-2.1.9-3.3.9ZM346.4,306c-1.5,0-2.6-.2-3.6-.6-.9-.4-1.7-.9-2.2-1.6s-.8-1.5-.9-2.4h2.4c0,.5.3.9.6,1.3.3.4.7.7,1.3.9.6.2,1.3.3,2.3.3s1.8-.2,2.4-.4c.6-.3,1.1-.7,1.4-1.3.3-.6.4-1.3.4-2.1v-5.3l.6-2.6-.6-2.3v-4.9h2.4v15.1c0,1.3-.3,2.3-.8,3.2-.5.9-1.3,1.6-2.2,2.1-1,.5-2.2.7-3.7.7ZM346,297.7c.9,0,1.7-.2,2.5-.7.7-.5,1.3-1.1,1.6-1.9.4-.8.6-1.8.6-2.9s-.1-1.6-.3-2.3c-.2-.7-.5-1.3-1-1.7-.4-.5-.9-.9-1.5-1.1-.6-.3-1.2-.4-1.9-.4s-1.7.2-2.4.7c-.7.5-1.2,1.1-1.6,1.9-.4.8-.6,1.8-.6,2.9s.2,2.1.6,2.9c.4.8.9,1.5,1.6,1.9.7.5,1.5.7,2.4.7Z"/>
          <path class="cls-4" d="M357.6,299.4v-21.9h2.4v14h-.8c0-1.4.2-2.7.7-3.7s1.1-1.8,2-2.4c.9-.6,1.9-.8,3.2-.8s1.7.1,2.4.4c.7.3,1.2.7,1.7,1.2.4.5.8,1.2,1,1.9.2.8.3,1.6.3,2.6v8.7h-2.4v-7.8c0-1,0-1.8-.3-2.4s-.4-1.1-.8-1.5c-.3-.4-.7-.6-1.2-.8-.5-.2-1-.2-1.6-.2s-1.4.2-2.1.6c-.6.4-1.1,1-1.5,1.9-.4.9-.6,2.1-.6,3.6v6.6h-2.4Z"/>
          <path class="cls-4" d="M372.9,286.8v-1.9h10.4v1.9h-10.4ZM380.6,299.8c-.8,0-1.5,0-2.1-.2-.6-.2-1.1-.4-1.5-.8-.4-.4-.7-.9-.8-1.6-.2-.7-.3-1.5-.3-2.6v-15.2h2.4v15.3c0,.9,0,1.6.2,2,.2.5.4.8.8.9s.9.2,1.5.2.8,0,1.3-.1c.5,0,.9-.3,1.2-.6v2.3c-.2.1-.5.2-.9.3-.4,0-.7.1-1.1.1s-.7,0-.9,0Z"/>
          <path class="cls-4" d="M397.8,300.2l-6.4-15.3h2.7l4.9,12.4-1.2,2.9ZM394.4,305.7l3.4-8.3.2-.6,4.9-12h2.6l-8.6,20.9h-2.6Z"/>
          <path class="cls-4" d="M414.5,299.7c-1.5,0-2.9-.3-4-1-1.1-.6-1.9-1.5-2.5-2.7s-.9-2.4-.9-3.9.3-2.8.8-3.9c.6-1.1,1.4-2,2.5-2.7,1.1-.6,2.4-1,3.9-1s2.8.3,3.8,1c1,.6,1.8,1.5,2.3,2.7.5,1.1.8,2.4.8,3.9v.8h-12.5v-1.9h10.8l-.6.9c0-1-.2-2-.6-2.7-.4-.8-.9-1.4-1.6-1.8-.7-.4-1.5-.7-2.5-.7s-1.7.2-2.4.6c-.7.4-1.3,1-1.7,1.8-.4.8-.6,1.8-.6,3.1s.2,2.2.6,3c.4.8,1,1.5,1.7,1.9.7.4,1.6.6,2.5.6s1.4-.1,2-.4c.6-.3,1.1-.6,1.4-1,.4-.4.6-.9.8-1.4h2.4c-.2.9-.6,1.8-1.1,2.5s-1.3,1.3-2.3,1.7c-.9.4-2,.6-3.2.6Z"/>
          <path class="cls-4" d="M423.2,286.8v-1.9h10.4v1.9h-10.4ZM430.8,299.8c-.8,0-1.5,0-2.1-.2-.6-.2-1.1-.4-1.5-.8-.4-.4-.7-.9-.8-1.6-.2-.7-.3-1.5-.3-2.6v-15.2h2.4v15.3c0,.9,0,1.6.2,2,.2.5.4.8.8.9s.9.2,1.5.2.8,0,1.3-.1c.5,0,.9-.3,1.2-.6v2.3c-.2.1-.5.2-.9.3-.4,0-.7.1-1.1.1s-.7,0-.9,0Z"/>
          <path class="cls-4" d="M448.6,299.7c-1.2,0-2.3-.2-3.2-.6-.9-.4-1.5-.9-2-1.6-.5-.7-.7-1.5-.7-2.4h2.4c0,.5.1.9.4,1.3s.6.7,1.1.9c.5.2,1.1.3,1.9.3s1.7-.2,2.3-.6c.6-.4.8-.9.8-1.6s-.2-.9-.5-1.2c-.3-.3-.7-.5-1.2-.7-.5-.2-1.1-.3-1.7-.4-.6-.1-1.2-.3-1.8-.4-.6-.2-1.2-.4-1.7-.7-.5-.3-.9-.7-1.2-1.2-.3-.5-.5-1.2-.5-2,0-1.3.5-2.3,1.4-3.1,1-.7,2.2-1.1,3.8-1.1s2,.2,2.9.5c.8.4,1.5.9,1.9,1.5.5.6.7,1.4.7,2.3h-2.3c0-.7-.3-1.2-.8-1.7-.6-.4-1.3-.6-2.2-.6s-1.6.2-2.1.6c-.5.4-.8.9-.8,1.6s.2.9.5,1.2c.3.3.7.5,1.2.6.5.1,1.1.3,1.7.4.6.1,1.2.2,1.8.4.6.2,1.2.4,1.7.7.5.3.9.7,1.2,1.2.3.5.5,1.2.5,2.1,0,1.3-.5,2.4-1.5,3.2-1,.8-2.3,1.2-4,1.2Z"/>
          <path class="cls-4" d="M457.7,299.4v-14.6h2.4v6.7h-.8c0-1.4.2-2.7.6-3.7.4-1,1-1.8,1.8-2.4.8-.6,1.8-.8,2.9-.8s1.6.1,2.2.4c.6.3,1.2.6,1.6,1.2.4.5.7,1.1.9,1.9.2.7.3,1.6.3,2.5h-1.3c.1-1.3.4-2.4,1-3.3.5-.9,1.2-1.5,2-2,.8-.4,1.8-.7,2.8-.7s1.6.1,2.3.4c.6.3,1.2.7,1.6,1.2.4.5.7,1.2,1,1.9.2.8.3,1.6.3,2.6v8.7h-2.4v-7.8c0-1,0-1.8-.2-2.4s-.4-1.1-.7-1.5-.7-.6-1.1-.8c-.4-.2-.9-.2-1.4-.2s-1.3.2-1.8.6c-.6.4-1.1,1-1.4,1.9-.4.9-.6,2.1-.6,3.6v6.6h-2.4v-7.8c0-1,0-1.8-.2-2.4s-.4-1.1-.7-1.5-.6-.6-1-.8c-.4-.2-.9-.2-1.3-.2s-1.3.2-1.9.6c-.6.4-1.1,1-1.4,1.9-.4.9-.6,2.1-.6,3.6v6.6h-2.4Z"/>
          <path class="cls-4" d="M489.3,299.7c-1,0-1.9-.2-2.7-.5s-1.5-.9-2.1-1.5c-.6-.7-1.1-1.5-1.4-2.4-.3-.9-.5-2-.5-3.1s.3-2.8.8-3.9c.6-1.1,1.3-2,2.3-2.6,1-.6,2.2-.9,3.5-.9s1.9.2,2.7.5c.8.4,1.5.9,2,1.5.6.7,1,1.5,1.3,2.4.3.9.5,1.9.5,3.1s-.3,2.8-.8,4c-.5,1.1-1.3,2-2.2,2.6-1,.6-2.1.9-3.4.9ZM489.8,297.7c.9,0,1.7-.2,2.5-.7.7-.5,1.3-1.1,1.6-1.9.4-.8.6-1.8.6-2.9s-.1-1.6-.3-2.3c-.2-.7-.5-1.3-1-1.7-.4-.5-.9-.9-1.5-1.1-.6-.3-1.2-.4-1.9-.4s-1.7.2-2.4.7c-.7.5-1.2,1.1-1.6,1.9-.4.8-.6,1.8-.6,2.9s.2,2.1.6,2.9c.4.8.9,1.5,1.6,1.9.7.5,1.5.7,2.4.7ZM494.5,299.4v-6.2l.5-1.2-.5-2.3v-4.9h2.4v14.6h-2.4Z"/>
          <path class="cls-4" d="M501.4,299.4v-14.6h2.4v7.4h-.7c0-1.6.3-2.9.7-4,.4-1.1,1.1-2,1.9-2.6s1.8-.9,3-.9.3,0,.5,0c.2,0,.3,0,.5,0v2.4c-.9,0-1.8,0-2.5.2s-1.4.4-1.9.9c-.5.4-.9,1-1.1,1.8-.3.8-.4,1.7-.4,2.9v6.4h-2.4Z"/>
          <path class="cls-4" d="M510.9,286.8v-1.9h10.4v1.9h-10.4ZM518.5,299.8c-.8,0-1.5,0-2.1-.2-.6-.2-1.1-.4-1.5-.8-.4-.4-.7-.9-.8-1.6-.2-.7-.3-1.5-.3-2.6v-15.2h2.4v15.3c0,.9,0,1.6.2,2,.2.5.4.8.8.9s.9.2,1.5.2.8,0,1.3-.1c.5,0,.9-.3,1.2-.6v2.3c-.2.1-.5.2-.9.3-.4,0-.7.1-1.1.1s-.7,0-.9,0Z"/>
          <path class="cls-4" d="M524.4,304.6l1.1-5.2h-1.1v-3.1h3v3l-1.7,5.4h-1.3Z"/>
          <path class="cls-4" d="M260.7,334.5c-1.5,0-2.9-.3-4-1-1.1-.6-1.9-1.5-2.5-2.7s-.9-2.4-.9-3.9.3-2.8.8-3.9c.6-1.1,1.4-2,2.5-2.7,1.1-.6,2.4-1,3.9-1s2.8.3,3.8,1c1,.6,1.8,1.5,2.3,2.7.5,1.1.8,2.4.8,3.9v.8h-12.5v-1.9h10.8l-.6.9c0-1-.2-2-.6-2.7-.4-.8-.9-1.4-1.6-1.8-.7-.4-1.5-.7-2.5-.7s-1.7.2-2.4.6c-.7.4-1.3,1-1.7,1.8-.4.8-.6,1.8-.6,3.1s.2,2.2.6,3c.4.8,1,1.5,1.7,1.9.7.4,1.6.6,2.5.6s1.4-.1,2-.4,1.1-.6,1.4-1c.4-.4.6-.9.8-1.4h2.4c-.2.9-.6,1.8-1.1,2.5-.6.7-1.3,1.3-2.3,1.7-.9.4-2,.6-3.2.6Z"/>
          <path class="cls-4" d="M271.1,334.2v-14.6h2.4v6.7h-.8c0-1.5.2-2.7.7-3.7s1.1-1.8,2-2.4c.9-.6,1.9-.8,3.2-.8s1.7.1,2.4.4c.7.3,1.2.7,1.7,1.2.4.5.8,1.2,1,1.9.2.8.3,1.6.3,2.6v8.7h-2.4v-7.8c0-1,0-1.8-.3-2.4-.2-.6-.4-1.1-.8-1.5-.3-.4-.7-.6-1.2-.8-.5-.2-1-.2-1.6-.2s-1.4.2-2.1.6c-.6.4-1.1,1-1.5,1.9-.4.9-.6,2.1-.6,3.6v6.6h-2.4Z"/>
          <path class="cls-4" d="M293,334.5c-1.2,0-2.3-.2-3.2-.6-.9-.4-1.5-.9-2-1.6-.5-.7-.7-1.5-.7-2.4h2.4c0,.5.1.9.4,1.3s.6.7,1.1.9c.5.2,1.1.3,1.9.3s1.7-.2,2.3-.6c.6-.4.8-.9.8-1.6s-.2-.9-.5-1.2c-.3-.3-.7-.5-1.2-.7-.5-.2-1.1-.3-1.7-.4-.6-.1-1.2-.3-1.8-.4-.6-.2-1.2-.4-1.7-.7-.5-.3-.9-.7-1.2-1.2-.3-.5-.5-1.2-.5-2,0-1.3.5-2.3,1.4-3.1s2.2-1.1,3.8-1.1,2,.2,2.9.5c.8.4,1.5.9,1.9,1.5.5.6.7,1.4.7,2.3h-2.3c0-.7-.3-1.2-.8-1.7-.6-.4-1.3-.6-2.2-.6s-1.6.2-2.1.6c-.5.4-.8.9-.8,1.6s.2.9.5,1.2c.3.3.7.5,1.2.6.5.1,1.1.3,1.7.4.6.1,1.2.2,1.8.4s1.2.4,1.7.7c.5.3.9.7,1.2,1.2.3.5.5,1.2.5,2.1,0,1.3-.5,2.4-1.5,3.2-1,.8-2.3,1.2-4,1.2Z"/>
          <path class="cls-4" d="M307.1,334.5c-.9,0-1.7-.1-2.4-.4s-1.2-.7-1.7-1.2c-.4-.5-.8-1.2-1-1.9s-.3-1.6-.3-2.6v-8.7h2.4v7.8c0,1,0,1.8.3,2.4s.4,1.1.8,1.5c.3.4.7.6,1.2.8.5.2,1,.2,1.6.2s1.4-.2,2.1-.6c.6-.4,1.1-1,1.5-1.9.4-.9.6-2.1.6-3.6v-6.6h2.4v14.6h-2.4v-6.7h.8c0,1.5-.2,2.7-.7,3.7-.4,1-1.1,1.8-2,2.4-.9.6-1.9.8-3.2.8Z"/>
          <path class="cls-4" d="M319,334.2v-14.6h2.4v7.4h-.7c0-1.6.3-2.9.7-4,.4-1.1,1.1-2,1.9-2.6s1.8-.9,3-.9.3,0,.5,0c.2,0,.3,0,.5,0v2.4c-.9,0-1.8,0-2.5.2-.7.2-1.4.4-1.9.9-.5.4-.9,1-1.1,1.8-.3.8-.4,1.7-.4,2.9v6.4h-2.4Z"/>
          <path class="cls-4" d="M329.8,316.3v-3.2h3.2v3.2h-3.2ZM330.2,334.2v-14.6h2.4v14.6h-2.4Z"/>
          <path class="cls-4" d="M337.1,334.2v-14.6h2.4v6.7h-.8c0-1.5.2-2.7.7-3.7s1.1-1.8,2-2.4c.9-.6,1.9-.8,3.2-.8s1.7.1,2.4.4c.7.3,1.2.7,1.7,1.2.4.5.8,1.2,1,1.9.2.8.3,1.6.3,2.6v8.7h-2.4v-7.8c0-1,0-1.8-.3-2.4-.2-.6-.4-1.1-.8-1.5-.3-.4-.7-.6-1.2-.8-.5-.2-1-.2-1.6-.2s-1.4.2-2.1.6c-.6.4-1.1,1-1.5,1.9-.4.9-.6,2.1-.6,3.6v6.6h-2.4Z"/>
          <path class="cls-4" d="M360,334.5c-1,0-1.9-.2-2.8-.5-.8-.4-1.5-.9-2.1-1.5s-1.1-1.5-1.4-2.4c-.3-.9-.5-2-.5-3.1s.3-2.8.9-3.9c.6-1.1,1.4-2,2.4-2.6s2.2-.9,3.6-.9,2.4.3,3.3.9,1.7,1.5,2.2,2.6c.5,1.1.8,2.4.8,3.9s-.3,2.8-.8,4c-.5,1.1-1.3,2-2.2,2.6s-2.1.9-3.3.9ZM360.8,340.8c-1.5,0-2.6-.2-3.6-.6-.9-.4-1.7-.9-2.2-1.6-.5-.7-.8-1.5-.9-2.4h2.4c0,.5.3.9.6,1.3s.7.7,1.3.9c.6.2,1.3.3,2.3.3s1.8-.1,2.4-.4c.6-.3,1.1-.7,1.4-1.3s.4-1.3.4-2.1v-5.3l.6-2.6-.6-2.3v-4.9h2.4v15.1c0,1.3-.3,2.3-.8,3.2-.5.9-1.3,1.6-2.2,2.1-1,.5-2.2.7-3.7.7ZM360.4,332.5c.9,0,1.7-.2,2.5-.7.7-.5,1.3-1.1,1.6-1.9.4-.8.6-1.8.6-2.9s-.1-1.6-.3-2.3c-.2-.7-.5-1.3-1-1.7-.4-.5-.9-.9-1.5-1.1-.6-.3-1.2-.4-1.9-.4s-1.7.2-2.4.7c-.7.5-1.2,1.1-1.6,1.9-.4.8-.6,1.8-.6,2.9s.2,2.1.6,2.9c.4.8.9,1.5,1.6,1.9.7.5,1.5.7,2.4.7Z"/>
          <path class="cls-4" d="M382.9,335l-6.4-15.3h2.7l4.9,12.4-1.2,2.9ZM379.5,340.5l3.4-8.3.2-.6,4.9-12h2.6l-8.6,20.9h-2.6Z"/>
          <path class="cls-4" d="M399.7,334.5c-1.5,0-2.8-.3-3.9-1s-2-1.5-2.6-2.7-.9-2.4-.9-3.9.3-2.8.9-3.9,1.5-2,2.6-2.7c1.1-.6,2.4-1,3.9-1s2.8.3,3.9,1c1.1.6,2,1.5,2.6,2.7.6,1.1.9,2.4.9,3.9s-.3,2.8-.9,3.9c-.6,1.1-1.5,2-2.6,2.7s-2.4,1-3.9,1ZM399.7,332.4c1.1,0,2-.2,2.7-.7s1.3-1.1,1.7-1.9c.4-.8.6-1.8.6-2.8s-.1-1.5-.3-2.2-.5-1.3-1-1.8c-.4-.5-.9-.9-1.6-1.1-.6-.3-1.3-.4-2.1-.4s-2,.2-2.7.7c-.7.5-1.3,1.1-1.7,2-.4.8-.6,1.8-.6,2.8s.2,2,.6,2.8c.4.8.9,1.5,1.7,1.9.7.5,1.6.7,2.7.7Z"/>
          <path class="cls-4" d="M415.8,334.5c-.9,0-1.7-.1-2.4-.4s-1.2-.7-1.7-1.2c-.4-.5-.8-1.2-1-1.9s-.3-1.6-.3-2.6v-8.7h2.4v7.8c0,1,0,1.8.3,2.4s.4,1.1.8,1.5c.3.4.7.6,1.2.8.5.2,1,.2,1.6.2s1.4-.2,2.1-.6c.6-.4,1.1-1,1.5-1.9.4-.9.6-2.1.6-3.6v-6.6h2.4v14.6h-2.4v-6.7h.8c0,1.5-.2,2.7-.7,3.7-.4,1-1.1,1.8-2,2.4-.9.6-1.9.8-3.2.8Z"/>
          <path class="cls-4" d="M434.4,334.2v-21.9h2.4v14h-.8c0-1.5.2-2.7.7-3.7s1.1-1.8,2-2.4c.9-.6,1.9-.8,3.2-.8s1.7.1,2.4.4c.7.3,1.2.7,1.7,1.2.4.5.8,1.2,1,1.9.2.8.3,1.6.3,2.6v8.7h-2.4v-7.8c0-1,0-1.8-.3-2.4-.2-.6-.4-1.1-.8-1.5-.3-.4-.7-.6-1.2-.8-.5-.2-1-.2-1.6-.2s-1.4.2-2.1.6c-.6.4-1.1,1-1.5,1.9-.4.9-.6,2.1-.6,3.6v6.6h-2.4Z"/>
          <path class="cls-4" d="M457.2,334.5c-1,0-1.9-.2-2.7-.5-.8-.4-1.5-.9-2.1-1.5-.6-.7-1.1-1.5-1.4-2.4-.3-.9-.5-2-.5-3.1s.3-2.8.8-3.9c.6-1.1,1.3-2,2.3-2.6,1-.6,2.2-.9,3.5-.9s1.9.2,2.7.5c.8.4,1.5.9,2,1.5.6.7,1,1.5,1.3,2.4s.5,1.9.5,3.1-.3,2.8-.8,4c-.5,1.1-1.3,2-2.2,2.6s-2.1.9-3.4.9ZM457.6,332.5c.9,0,1.7-.2,2.5-.7.7-.5,1.3-1.1,1.6-1.9.4-.8.6-1.8.6-2.9s-.1-1.6-.3-2.3c-.2-.7-.5-1.3-1-1.7-.4-.5-.9-.9-1.5-1.1-.6-.3-1.2-.4-1.9-.4s-1.7.2-2.4.7c-.7.5-1.2,1.1-1.6,1.9-.4.8-.6,1.8-.6,2.9s.2,2.1.6,2.9c.4.8.9,1.5,1.6,1.9.7.5,1.5.7,2.4.7ZM462.3,334.2v-6.2l.5-1.2-.5-2.3v-4.9h2.4v14.6h-2.4Z"/>
          <path class="cls-4" d="M473.4,334.3l-6.2-14.7h2.7l4.5,11.3,4.6-11.3h2.6l-6.3,14.7h-1.8Z"/>
          <path class="cls-4" d="M490.3,334.5c-1.5,0-2.9-.3-4-1-1.1-.6-1.9-1.5-2.5-2.7s-.9-2.4-.9-3.9.3-2.8.8-3.9c.6-1.1,1.4-2,2.5-2.7,1.1-.6,2.4-1,3.9-1s2.8.3,3.8,1c1,.6,1.8,1.5,2.3,2.7.5,1.1.8,2.4.8,3.9v.8h-12.5v-1.9h10.8l-.6.9c0-1-.2-2-.6-2.7-.4-.8-.9-1.4-1.6-1.8-.7-.4-1.5-.7-2.5-.7s-1.7.2-2.4.6c-.7.4-1.3,1-1.7,1.8-.4.8-.6,1.8-.6,3.1s.2,2.2.6,3c.4.8,1,1.5,1.7,1.9.7.4,1.6.6,2.5.6s1.4-.1,2-.4,1.1-.6,1.4-1c.4-.4.6-.9.8-1.4h2.4c-.2.9-.6,1.8-1.1,2.5-.6.7-1.3,1.3-2.3,1.7-.9.4-2,.6-3.2.6Z"/>
          <path class="cls-4" d="M260.7,369.3c-1.5,0-2.9-.3-4-1-1.1-.6-1.9-1.5-2.5-2.7s-.9-2.4-.9-3.9.3-2.8.8-3.9c.6-1.1,1.4-2,2.5-2.7,1.1-.6,2.4-1,3.9-1s2.8.3,3.8,1c1,.6,1.8,1.5,2.3,2.7.5,1.1.8,2.4.8,3.9v.8h-12.5v-1.9h10.8l-.6.9c0-1-.2-2-.6-2.7-.4-.8-.9-1.4-1.6-1.8-.7-.4-1.5-.7-2.5-.7s-1.7.2-2.4.6c-.7.4-1.3,1-1.7,1.8-.4.8-.6,1.8-.6,3.1s.2,2.2.6,3c.4.8,1,1.5,1.7,1.9.7.4,1.6.6,2.5.6s1.4-.1,2-.4,1.1-.6,1.4-1c.4-.4.6-.9.8-1.4h2.4c-.2.9-.6,1.8-1.1,2.5-.6.7-1.3,1.3-2.3,1.7-.9.4-2,.6-3.2.6Z"/>
          <path class="cls-4" d="M276,369.3c-1.2,0-2.3-.2-3.2-.6-.9-.4-1.5-.9-2-1.6-.5-.7-.7-1.5-.7-2.4h2.4c0,.5.1.9.4,1.3s.6.7,1.1.9c.5.2,1.1.3,1.9.3s1.7-.2,2.3-.6c.6-.4.8-.9.8-1.6s-.2-.9-.5-1.2c-.3-.3-.7-.5-1.2-.7-.5-.2-1.1-.3-1.7-.4-.6-.1-1.2-.3-1.8-.4-.6-.2-1.2-.4-1.7-.7-.5-.3-.9-.7-1.2-1.2-.3-.5-.5-1.2-.5-2,0-1.3.5-2.3,1.4-3.1s2.2-1.1,3.8-1.1,2,.2,2.9.5c.8.4,1.5.9,1.9,1.5.5.6.7,1.4.7,2.3h-2.3c0-.7-.3-1.2-.8-1.7-.6-.4-1.3-.6-2.2-.6s-1.6.2-2.1.6c-.5.4-.8.9-.8,1.6s.2.9.5,1.2c.3.3.7.5,1.2.6.5.1,1.1.3,1.7.4.6.1,1.2.2,1.8.4s1.2.4,1.7.7c.5.3.9.7,1.2,1.2.3.5.5,1.2.5,2.1,0,1.3-.5,2.4-1.5,3.2-1,.8-2.3,1.2-4,1.2Z"/>
          <path class="cls-4" d="M289.9,369.3c-1.2,0-2.3-.2-3.2-.6-.9-.4-1.5-.9-2-1.6-.5-.7-.7-1.5-.7-2.4h2.4c0,.5.1.9.4,1.3s.6.7,1.1.9c.5.2,1.1.3,1.9.3s1.7-.2,2.3-.6c.6-.4.8-.9.8-1.6s-.2-.9-.5-1.2c-.3-.3-.7-.5-1.2-.7-.5-.2-1.1-.3-1.7-.4-.6-.1-1.2-.3-1.8-.4-.6-.2-1.2-.4-1.7-.7-.5-.3-.9-.7-1.2-1.2-.3-.5-.5-1.2-.5-2,0-1.3.5-2.3,1.4-3.1s2.2-1.1,3.8-1.1,2,.2,2.9.5c.8.4,1.5.9,1.9,1.5.5.6.7,1.4.7,2.3h-2.3c0-.7-.3-1.2-.8-1.7-.6-.4-1.3-.6-2.2-.6s-1.6.2-2.1.6c-.5.4-.8.9-.8,1.6s.2.9.5,1.2c.3.3.7.5,1.2.6.5.1,1.1.3,1.7.4.6.1,1.2.2,1.8.4s1.2.4,1.7.7c.5.3.9.7,1.2,1.2.3.5.5,1.2.5,2.1,0,1.3-.5,2.4-1.5,3.2-1,.8-2.3,1.2-4,1.2Z"/>
          <path class="cls-4" d="M305.4,369.3c-1.5,0-2.9-.3-4-1-1.1-.6-1.9-1.5-2.5-2.7s-.9-2.4-.9-3.9.3-2.8.8-3.9c.6-1.1,1.4-2,2.5-2.7,1.1-.6,2.4-1,3.9-1s2.8.3,3.8,1c1,.6,1.8,1.5,2.3,2.7.5,1.1.8,2.4.8,3.9v.8h-12.5v-1.9h10.8l-.6.9c0-1-.2-2-.6-2.7-.4-.8-.9-1.4-1.6-1.8-.7-.4-1.5-.7-2.5-.7s-1.7.2-2.4.6c-.7.4-1.3,1-1.7,1.8-.4.8-.6,1.8-.6,3.1s.2,2.2.6,3c.4.8,1,1.5,1.7,1.9.7.4,1.6.6,2.5.6s1.4-.1,2-.4,1.1-.6,1.4-1c.4-.4.6-.9.8-1.4h2.4c-.2.9-.6,1.8-1.1,2.5-.6.7-1.3,1.3-2.3,1.7-.9.4-2,.6-3.2.6Z"/>
          <path class="cls-4" d="M315.8,369v-14.6h2.4v6.7h-.8c0-1.5.2-2.7.7-3.7s1.1-1.8,2-2.4c.9-.6,1.9-.8,3.2-.8s1.7.1,2.4.4c.7.3,1.2.7,1.7,1.2.4.5.8,1.2,1,1.9.2.8.3,1.6.3,2.6v8.7h-2.4v-7.8c0-1,0-1.8-.3-2.4-.2-.6-.4-1.1-.8-1.5-.3-.4-.7-.6-1.2-.8-.5-.2-1-.2-1.6-.2s-1.4.2-2.1.6c-.6.4-1.1,1-1.5,1.9-.4.9-.6,2.1-.6,3.6v6.6h-2.4Z"/>
          <path class="cls-4" d="M331.1,356.4v-1.9h10.4v1.9h-10.4ZM338.7,369.4c-.8,0-1.5,0-2.1-.2-.6-.2-1.1-.4-1.5-.8s-.7-.9-.8-1.6c-.2-.7-.3-1.5-.3-2.6v-15.2h2.4v15.3c0,.9,0,1.6.2,2,.2.5.4.8.8.9.4.2.9.2,1.5.2s.8,0,1.3-.1.9-.3,1.2-.6v2.3c-.2.1-.5.2-.9.3-.4,0-.7.1-1.1.1-.4,0-.7,0-.9,0Z"/>
          <path class="cls-4" d="M344.7,351.1v-3.2h3.2v3.2h-3.2ZM345.1,369v-14.6h2.4v14.6h-2.4Z"/>
          <path class="cls-4" d="M357.8,369.3c-1,0-1.9-.2-2.7-.5-.8-.4-1.5-.9-2.1-1.5-.6-.7-1.1-1.5-1.4-2.4-.3-.9-.5-2-.5-3.1s.3-2.8.8-3.9c.6-1.1,1.3-2,2.3-2.6,1-.6,2.2-.9,3.5-.9s1.9.2,2.7.5c.8.4,1.5.9,2,1.5.6.7,1,1.5,1.3,2.4s.5,1.9.5,3.1-.3,2.8-.8,4c-.5,1.1-1.3,2-2.2,2.6s-2.1.9-3.4.9ZM358.2,367.3c.9,0,1.7-.2,2.5-.7.7-.5,1.3-1.1,1.6-1.9.4-.8.6-1.8.6-2.9s-.1-1.6-.3-2.3c-.2-.7-.5-1.3-1-1.7-.4-.5-.9-.9-1.5-1.1-.6-.3-1.2-.4-1.9-.4s-1.7.2-2.4.7c-.7.5-1.2,1.1-1.6,1.9-.4.8-.6,1.8-.6,2.9s.2,2.1.6,2.9c.4.8.9,1.5,1.6,1.9.7.5,1.5.7,2.4.7ZM362.9,369v-6.2l.5-1.2-.5-2.3v-4.9h2.4v14.6h-2.4Z"/>
          <path class="cls-4" d="M369.9,369v-21.9h2.4v21.9h-2.4Z"/>
          <path class="cls-4" d="M381.7,369.3c-1.2,0-2.3-.2-3.2-.6-.9-.4-1.5-.9-2-1.6-.5-.7-.7-1.5-.7-2.4h2.4c0,.5.1.9.4,1.3s.6.7,1.1.9c.5.2,1.1.3,1.9.3s1.7-.2,2.3-.6c.6-.4.8-.9.8-1.6s-.2-.9-.5-1.2c-.3-.3-.7-.5-1.2-.7-.5-.2-1.1-.3-1.7-.4-.6-.1-1.2-.3-1.8-.4-.6-.2-1.2-.4-1.7-.7-.5-.3-.9-.7-1.2-1.2-.3-.5-.5-1.2-.5-2,0-1.3.5-2.3,1.4-3.1s2.2-1.1,3.8-1.1,2,.2,2.9.5c.8.4,1.5.9,1.9,1.5.5.6.7,1.4.7,2.3h-2.3c0-.7-.3-1.2-.8-1.7-.6-.4-1.3-.6-2.2-.6s-1.6.2-2.1.6c-.5.4-.8.9-.8,1.6s.2.9.5,1.2c.3.3.7.5,1.2.6.5.1,1.1.3,1.7.4.6.1,1.2.2,1.8.4s1.2.4,1.7.7c.5.3.9.7,1.2,1.2.3.5.5,1.2.5,2.1,0,1.3-.5,2.4-1.5,3.2-1,.8-2.3,1.2-4,1.2Z"/>
          <path class="cls-4" d="M390.4,374.2l1.1-5.2h-1.1v-3.1h3v3l-1.7,5.4h-1.3Z"/>
          <path class="cls-4" d="M257,403.9l-4.8-14.7h2.6l3.3,10.9,4.1-11h1.9l4,10.8,3.3-10.7h2.5l-4.8,14.7h-1.8l-4.2-11-4.2,11h-1.8Z"/>
          <path class="cls-4" d="M282.7,404.1c-1.5,0-2.9-.3-4-1-1.1-.6-1.9-1.5-2.5-2.7-.6-1.1-.9-2.4-.9-3.9s.3-2.8.8-3.9c.6-1.1,1.4-2,2.5-2.7,1.1-.6,2.4-1,3.9-1s2.8.3,3.8,1c1,.6,1.8,1.5,2.3,2.7.5,1.1.8,2.4.8,3.9v.8h-12.5v-1.9h10.8l-.6.9c0-1-.2-2-.6-2.7s-.9-1.4-1.6-1.8c-.7-.4-1.5-.7-2.5-.7s-1.7.2-2.4.6c-.7.4-1.3,1-1.7,1.8-.4.8-.6,1.8-.6,3.1s.2,2.2.6,3,1,1.5,1.7,1.9c.7.4,1.6.6,2.5.6s1.4-.1,2-.4c.6-.3,1.1-.6,1.4-1,.4-.4.6-.9.8-1.4h2.4c-.2.9-.6,1.8-1.1,2.5s-1.3,1.3-2.3,1.7c-.9.4-2,.6-3.2.6Z"/>
          <path class="cls-4" d="M298.8,404.1c-1,0-1.9-.2-2.7-.5s-1.5-.9-2.1-1.5c-.6-.7-1.1-1.5-1.4-2.4-.3-.9-.5-2-.5-3.1s.3-2.8.8-3.9,1.3-2,2.3-2.6c1-.6,2.2-.9,3.5-.9s1.9.2,2.7.5,1.5.9,2,1.5c.6.7,1,1.5,1.3,2.4s.5,1.9.5,3.1-.3,2.8-.8,4c-.5,1.1-1.3,2-2.2,2.6-1,.6-2.1.9-3.4.9ZM299.3,402.1c.9,0,1.7-.2,2.5-.7.7-.5,1.3-1.1,1.6-1.9.4-.8.6-1.8.6-2.9s-.1-1.6-.3-2.3c-.2-.7-.5-1.3-1-1.7-.4-.5-.9-.9-1.5-1.1-.6-.3-1.2-.4-1.9-.4s-1.7.2-2.4.7c-.7.5-1.2,1.1-1.6,1.9s-.6,1.8-.6,2.9.2,2.1.6,2.9c.4.8.9,1.5,1.6,1.9.7.5,1.5.7,2.4.7ZM304,403.8v-6.2l.5-1.2-.5-2.3v-4.9h2.4v14.6h-2.4Z"/>
          <path class="cls-4" d="M309.2,391.2v-1.9h10.4v1.9h-10.4ZM316.8,404.2c-.8,0-1.5,0-2.1-.2-.6-.2-1.1-.4-1.5-.8s-.7-.9-.8-1.6c-.2-.7-.3-1.5-.3-2.6v-15.2h2.4v15.3c0,.9,0,1.6.2,2s.4.8.8.9c.4.2.9.2,1.5.2s.8,0,1.3-.1c.5,0,.9-.3,1.2-.6v2.3c-.2.1-.5.2-.9.3-.4,0-.7.1-1.1.1s-.7,0-.9,0Z"/>
          <path class="cls-4" d="M323.1,403.8v-21.9h2.4v14h-.8c0-1.5.2-2.7.7-3.7s1.1-1.8,2-2.4c.9-.6,1.9-.8,3.2-.8s1.7.1,2.4.4c.7.3,1.2.7,1.7,1.2.4.5.8,1.2,1,1.9s.3,1.6.3,2.6v8.7h-2.4v-7.8c0-1,0-1.8-.3-2.4s-.4-1.1-.8-1.5c-.3-.4-.7-.6-1.2-.8-.5-.2-1-.2-1.6-.2s-1.4.2-2.1.6c-.6.4-1.1,1-1.5,1.9-.4.9-.6,2.1-.6,3.6v6.6h-2.4Z"/>
          <path class="cls-4" d="M346.6,404.1c-1.5,0-2.9-.3-4-1-1.1-.6-1.9-1.5-2.5-2.7-.6-1.1-.9-2.4-.9-3.9s.3-2.8.8-3.9c.6-1.1,1.4-2,2.5-2.7,1.1-.6,2.4-1,3.9-1s2.8.3,3.8,1c1,.6,1.8,1.5,2.3,2.7.5,1.1.8,2.4.8,3.9v.8h-12.5v-1.9h10.8l-.6.9c0-1-.2-2-.6-2.7s-.9-1.4-1.6-1.8c-.7-.4-1.5-.7-2.5-.7s-1.7.2-2.4.6c-.7.4-1.3,1-1.7,1.8-.4.8-.6,1.8-.6,3.1s.2,2.2.6,3,1,1.5,1.7,1.9c.7.4,1.6.6,2.5.6s1.4-.1,2-.4c.6-.3,1.1-.6,1.4-1,.4-.4.6-.9.8-1.4h2.4c-.2.9-.6,1.8-1.1,2.5s-1.3,1.3-2.3,1.7c-.9.4-2,.6-3.2.6Z"/>
          <path class="cls-4" d="M357,403.8v-14.6h2.4v7.4h-.7c0-1.6.3-2.9.7-4,.4-1.1,1.1-2,1.9-2.6s1.8-.9,3-.9.3,0,.5,0c.2,0,.3,0,.5,0v2.4c-.9,0-1.8,0-2.5.2-.7.2-1.4.4-1.9.9-.5.4-.9,1-1.1,1.8-.3.8-.4,1.7-.4,2.9v6.4h-2.4Z"/>
          <path class="cls-4" d="M367.8,396.7v-2.4h8.7v2.4h-8.7Z"/>
          <path class="cls-4" d="M386.4,404.1c-1,0-1.9-.2-2.7-.5s-1.5-.9-2.1-1.5c-.6-.7-1.1-1.5-1.4-2.4-.3-.9-.5-2-.5-3.1s.3-2.8.8-3.9,1.3-2,2.3-2.6c1-.6,2.2-.9,3.5-.9s1.9.2,2.7.5,1.5.9,2,1.5c.6.7,1,1.5,1.3,2.4s.5,1.9.5,3.1-.3,2.8-.8,4c-.5,1.1-1.3,2-2.2,2.6-1,.6-2.1.9-3.4.9ZM386.8,402.1c.9,0,1.7-.2,2.5-.7.7-.5,1.3-1.1,1.6-1.9.4-.8.6-1.8.6-2.9s-.1-1.6-.3-2.3c-.2-.7-.5-1.3-1-1.7-.4-.5-.9-.9-1.5-1.1-.6-.3-1.2-.4-1.9-.4s-1.7.2-2.4.7c-.7.5-1.2,1.1-1.6,1.9s-.6,1.8-.6,2.9.2,2.1.6,2.9c.4.8.9,1.5,1.6,1.9.7.5,1.5.7,2.4.7ZM391.5,403.8v-6.2l.5-1.2-.5-2.3v-4.9h2.4v14.6h-2.4Z"/>
          <path class="cls-4" d="M398.4,410.1v-20.9h2.4v4.3l-.5,2.8.6,2.3v11.4h-2.4ZM406,404.1c-1.3,0-2.4-.3-3.4-.9-1-.6-1.7-1.5-2.3-2.6-.5-1.1-.8-2.5-.8-4s.3-2.8.8-3.9c.5-1.1,1.3-2,2.3-2.6,1-.6,2.1-.9,3.4-.9s1.9.2,2.7.5c.8.4,1.5.9,2.1,1.5.6.7,1.1,1.5,1.4,2.4s.5,1.9.5,3.1-.3,2.8-.8,4c-.6,1.1-1.3,2-2.3,2.6-1,.6-2.2.9-3.5.9ZM405.6,402.1c.9,0,1.7-.2,2.4-.7.7-.5,1.2-1.1,1.6-1.9.4-.8.6-1.8.6-2.9s-.2-2.1-.6-2.9-.9-1.5-1.6-1.9c-.7-.5-1.5-.7-2.4-.7s-1.7.2-2.4.7c-.7.5-1.2,1.1-1.6,1.9-.4.8-.6,1.8-.6,2.9s.1,1.6.3,2.3.5,1.3,1,1.8c.4.5.9.9,1.5,1.1.6.3,1.2.4,1.9.4Z"/>
          <path class="cls-4" d="M416.3,410.1v-20.9h2.4v4.3l-.5,2.8.6,2.3v11.4h-2.4ZM423.9,404.1c-1.3,0-2.4-.3-3.4-.9-1-.6-1.7-1.5-2.3-2.6-.5-1.1-.8-2.5-.8-4s.3-2.8.8-3.9c.5-1.1,1.3-2,2.3-2.6,1-.6,2.1-.9,3.4-.9s1.9.2,2.7.5c.8.4,1.5.9,2.1,1.5.6.7,1.1,1.5,1.4,2.4s.5,1.9.5,3.1-.3,2.8-.8,4c-.6,1.1-1.3,2-2.3,2.6-1,.6-2.2.9-3.5.9ZM423.4,402.1c.9,0,1.7-.2,2.4-.7.7-.5,1.2-1.1,1.6-1.9.4-.8.6-1.8.6-2.9s-.2-2.1-.6-2.9-.9-1.5-1.6-1.9c-.7-.5-1.5-.7-2.4-.7s-1.7.2-2.4.7c-.7.5-1.2,1.1-1.6,1.9-.4.8-.6,1.8-.6,2.9s.1,1.6.3,2.3.5,1.3,1,1.8c.4.5.9.9,1.5,1.1.6.3,1.2.4,1.9.4Z"/>
          <path class="cls-4" d="M434.1,403.8v-14.6h2.4v7.4h-.7c0-1.6.3-2.9.7-4,.4-1.1,1.1-2,1.9-2.6s1.8-.9,3-.9.3,0,.5,0c.2,0,.3,0,.5,0v2.4c-.9,0-1.8,0-2.5.2-.7.2-1.4.4-1.9.9-.5.4-.9,1-1.1,1.8-.3.8-.4,1.7-.4,2.9v6.4h-2.4Z"/>
          <path class="cls-4" d="M451.8,404.1c-1.5,0-2.8-.3-3.9-1-1.1-.6-2-1.5-2.6-2.7-.6-1.1-.9-2.4-.9-3.9s.3-2.8.9-3.9c.6-1.1,1.5-2,2.6-2.7,1.1-.6,2.4-1,3.9-1s2.8.3,3.9,1c1.1.6,2,1.5,2.6,2.7.6,1.1.9,2.4.9,3.9s-.3,2.8-.9,3.9c-.6,1.1-1.5,2-2.6,2.7-1.1.6-2.4,1-3.9,1ZM451.8,402c1.1,0,2-.2,2.7-.7.7-.5,1.3-1.1,1.7-1.9.4-.8.6-1.8.6-2.8s-.1-1.5-.3-2.2c-.2-.7-.5-1.3-1-1.8-.4-.5-.9-.9-1.6-1.1-.6-.3-1.3-.4-2.1-.4s-2,.2-2.7.7c-.7.5-1.3,1.1-1.7,2-.4.8-.6,1.8-.6,2.8s.2,2,.6,2.8c.4.8.9,1.5,1.7,1.9.7.5,1.6.7,2.7.7Z"/>
          <path class="cls-4" d="M462.9,410.1v-20.9h2.4v4.3l-.5,2.8.6,2.3v11.4h-2.4ZM470.5,404.1c-1.3,0-2.4-.3-3.4-.9-1-.6-1.7-1.5-2.3-2.6-.5-1.1-.8-2.5-.8-4s.3-2.8.8-3.9c.5-1.1,1.3-2,2.3-2.6,1-.6,2.1-.9,3.4-.9s1.9.2,2.7.5c.8.4,1.5.9,2.1,1.5.6.7,1.1,1.5,1.4,2.4s.5,1.9.5,3.1-.3,2.8-.8,4c-.6,1.1-1.3,2-2.3,2.6-1,.6-2.2.9-3.5.9ZM470,402.1c.9,0,1.7-.2,2.4-.7.7-.5,1.2-1.1,1.6-1.9.4-.8.6-1.8.6-2.9s-.2-2.1-.6-2.9-.9-1.5-1.6-1.9c-.7-.5-1.5-.7-2.4-.7s-1.7.2-2.4.7c-.7.5-1.2,1.1-1.6,1.9-.4.8-.6,1.8-.6,2.9s.1,1.6.3,2.3.5,1.3,1,1.8c.4.5.9.9,1.5,1.1.6.3,1.2.4,1.9.4Z"/>
          <path class="cls-4" d="M480.8,403.8v-14.6h2.4v7.4h-.7c0-1.6.3-2.9.7-4,.4-1.1,1.1-2,1.9-2.6s1.8-.9,3-.9.3,0,.5,0c.2,0,.3,0,.5,0v2.4c-.9,0-1.8,0-2.5.2-.7.2-1.4.4-1.9.9-.5.4-.9,1-1.1,1.8-.3.8-.4,1.7-.4,2.9v6.4h-2.4Z"/>
          <path class="cls-4" d="M491.5,386v-3.2h3.2v3.2h-3.2ZM491.9,403.8v-14.6h2.4v14.6h-2.4Z"/>
          <path class="cls-4" d="M504.6,404.1c-1,0-1.9-.2-2.7-.5s-1.5-.9-2.1-1.5c-.6-.7-1.1-1.5-1.4-2.4-.3-.9-.5-2-.5-3.1s.3-2.8.8-3.9,1.3-2,2.3-2.6c1-.6,2.2-.9,3.5-.9s1.9.2,2.7.5,1.5.9,2,1.5c.6.7,1,1.5,1.3,2.4s.5,1.9.5,3.1-.3,2.8-.8,4c-.5,1.1-1.3,2-2.2,2.6-1,.6-2.1.9-3.4.9ZM505.1,402.1c.9,0,1.7-.2,2.5-.7.7-.5,1.3-1.1,1.6-1.9.4-.8.6-1.8.6-2.9s-.1-1.6-.3-2.3c-.2-.7-.5-1.3-1-1.7-.4-.5-.9-.9-1.5-1.1-.6-.3-1.2-.4-1.9-.4s-1.7.2-2.4.7c-.7.5-1.2,1.1-1.6,1.9s-.6,1.8-.6,2.9.2,2.1.6,2.9c.4.8.9,1.5,1.6,1.9.7.5,1.5.7,2.4.7ZM509.8,403.8v-6.2l.5-1.2-.5-2.3v-4.9h2.4v14.6h-2.4Z"/>
          <path class="cls-4" d="M515,391.2v-1.9h10.4v1.9h-10.4ZM522.6,404.2c-.8,0-1.5,0-2.1-.2-.6-.2-1.1-.4-1.5-.8s-.7-.9-.8-1.6c-.2-.7-.3-1.5-.3-2.6v-15.2h2.4v15.3c0,.9,0,1.6.2,2s.4.8.8.9c.4.2.9.2,1.5.2s.8,0,1.3-.1c.5,0,.9-.3,1.2-.6v2.3c-.2.1-.5.2-.9.3-.4,0-.7.1-1.1.1s-.7,0-.9,0Z"/>
          <path class="cls-4" d="M535.4,404.1c-1.5,0-2.9-.3-4-1-1.1-.6-1.9-1.5-2.5-2.7-.6-1.1-.9-2.4-.9-3.9s.3-2.8.8-3.9c.6-1.1,1.4-2,2.5-2.7,1.1-.6,2.4-1,3.9-1s2.8.3,3.8,1c1,.6,1.8,1.5,2.3,2.7.5,1.1.8,2.4.8,3.9v.8h-12.5v-1.9h10.8l-.6.9c0-1-.2-2-.6-2.7s-.9-1.4-1.6-1.8c-.7-.4-1.5-.7-2.5-.7s-1.7.2-2.4.6c-.7.4-1.3,1-1.7,1.8-.4.8-.6,1.8-.6,3.1s.2,2.2.6,3,1,1.5,1.7,1.9c.7.4,1.6.6,2.5.6s1.4-.1,2-.4c.6-.3,1.1-.6,1.4-1,.4-.4.6-.9.8-1.4h2.4c-.2.9-.6,1.8-1.1,2.5s-1.3,1.3-2.3,1.7c-.9.4-2,.6-3.2.6Z"/>
          <path class="cls-4" d="M260.4,438.9c-1.5,0-2.8-.3-3.9-1-1-.6-1.8-1.5-2.4-2.7-.5-1.1-.8-2.4-.8-3.9s.3-2.8.8-3.9c.6-1.1,1.4-2,2.4-2.7,1.1-.6,2.3-1,3.8-1s2.2.2,3.1.6c.9.4,1.7,1,2.3,1.7.6.7,1,1.6,1.2,2.6h-2.4c-.2-.6-.4-1.1-.8-1.5-.4-.4-.9-.8-1.4-1-.6-.2-1.2-.4-1.9-.4-1,0-1.8.2-2.5.7-.7.5-1.2,1.1-1.5,2-.3.8-.5,1.8-.5,2.8s.2,2,.5,2.8c.3.8.8,1.5,1.5,2s1.5.7,2.6.7,2-.3,2.7-.9,1.1-1.4,1.4-2.4h2.4c-.2,1.1-.5,2-1.1,2.8-.6.8-1.3,1.4-2.2,1.8-.9.4-2,.6-3.2.6Z"/>
          <path class="cls-4" d="M270.1,438.6v-21.9h2.4v21.9h-2.4Z"/>
          <path class="cls-4" d="M283.6,438.9c-1.5,0-2.8-.3-3.9-1-1.1-.6-2-1.5-2.6-2.7-.6-1.1-.9-2.4-.9-3.9s.3-2.8.9-3.9c.6-1.1,1.5-2,2.6-2.7,1.1-.6,2.4-1,3.9-1s2.8.3,3.9,1c1.1.6,2,1.5,2.6,2.7.6,1.1.9,2.4.9,3.9s-.3,2.8-.9,3.9c-.6,1.1-1.5,2-2.6,2.7-1.1.6-2.4,1-3.9,1ZM283.6,436.8c1.1,0,2-.2,2.7-.7.7-.5,1.3-1.1,1.7-1.9.4-.8.6-1.8.6-2.8s-.1-1.5-.3-2.2c-.2-.7-.5-1.3-1-1.8-.4-.5-.9-.9-1.6-1.1-.6-.3-1.3-.4-2.1-.4s-2,.2-2.7.7c-.7.5-1.3,1.1-1.7,2-.4.8-.6,1.8-.6,2.8s.2,2,.6,2.8c.4.8.9,1.5,1.7,1.9.7.5,1.6.7,2.7.7Z"/>
          <path class="cls-4" d="M293,426v-1.9h10.4v1.9h-10.4ZM300.6,439c-.8,0-1.5,0-2.1-.2-.6-.2-1.1-.4-1.5-.8s-.7-.9-.8-1.6c-.2-.7-.3-1.5-.3-2.6v-15.2h2.4v15.3c0,.9,0,1.6.2,2s.4.8.8.9c.4.2.9.2,1.5.2s.8,0,1.3-.1c.5,0,.9-.3,1.2-.6v2.3c-.2.1-.5.2-.9.3-.4,0-.7.1-1.1.1s-.7,0-.9,0Z"/>
          <path class="cls-4" d="M307,438.6v-21.9h2.4v14h-.8c0-1.5.2-2.7.7-3.7s1.1-1.8,2-2.4c.9-.6,1.9-.8,3.2-.8s1.7.1,2.4.4c.7.3,1.2.7,1.7,1.2.4.5.8,1.2,1,1.9s.3,1.6.3,2.6v8.7h-2.4v-7.8c0-1,0-1.8-.3-2.4s-.4-1.1-.8-1.5c-.3-.4-.7-.6-1.2-.8-.5-.2-1-.2-1.6-.2s-1.4.2-2.1.6c-.6.4-1.1,1-1.5,1.9-.4.9-.6,2.1-.6,3.6v6.6h-2.4Z"/>
          <path class="cls-4" d="M323.6,420.8v-3.2h3.2v3.2h-3.2ZM324,438.6v-14.6h2.4v14.6h-2.4Z"/>
          <path class="cls-4" d="M330.9,438.6v-14.6h2.4v6.7h-.8c0-1.5.2-2.7.7-3.7s1.1-1.8,2-2.4c.9-.6,1.9-.8,3.2-.8s1.7.1,2.4.4c.7.3,1.2.7,1.7,1.2.4.5.8,1.2,1,1.9s.3,1.6.3,2.6v8.7h-2.4v-7.8c0-1,0-1.8-.3-2.4s-.4-1.1-.8-1.5c-.3-.4-.7-.6-1.2-.8-.5-.2-1-.2-1.6-.2s-1.4.2-2.1.6c-.6.4-1.1,1-1.5,1.9-.4.9-.6,2.1-.6,3.6v6.6h-2.4Z"/>
          <path class="cls-4" d="M353.8,438.9c-1,0-1.9-.2-2.8-.5-.8-.4-1.5-.9-2.1-1.5s-1.1-1.5-1.4-2.4c-.3-.9-.5-2-.5-3.1s.3-2.8.9-3.9,1.4-2,2.4-2.6c1-.6,2.2-.9,3.6-.9s2.4.3,3.3.9c.9.6,1.7,1.5,2.2,2.6.5,1.1.8,2.4.8,3.9s-.3,2.8-.8,4c-.5,1.1-1.3,2-2.2,2.6-.9.6-2.1.9-3.3.9ZM354.6,445.2c-1.5,0-2.6-.2-3.6-.6-.9-.4-1.7-.9-2.2-1.6-.5-.7-.8-1.5-.9-2.4h2.4c0,.5.3.9.6,1.3s.7.7,1.3.9c.6.2,1.3.3,2.3.3s1.8-.1,2.4-.4c.6-.3,1.1-.7,1.4-1.3s.4-1.3.4-2.1v-5.3l.6-2.6-.6-2.3v-4.9h2.4v15.1c0,1.3-.3,2.3-.8,3.2-.5.9-1.3,1.6-2.2,2.1-1,.5-2.2.7-3.7.7ZM354.2,436.9c.9,0,1.7-.2,2.5-.7.7-.5,1.3-1.1,1.6-1.9.4-.8.6-1.8.6-2.9s-.1-1.6-.3-2.3c-.2-.7-.5-1.3-1-1.7-.4-.5-.9-.9-1.5-1.1-.6-.3-1.2-.4-1.9-.4s-1.7.2-2.4.7c-.7.5-1.2,1.1-1.6,1.9s-.6,1.8-.6,2.9.2,2.1.6,2.9c.4.8.9,1.5,1.6,1.9.7.5,1.5.7,2.4.7Z"/>
          <path class="cls-4" d="M378.2,438.9c-1,0-1.9-.2-2.7-.5s-1.5-.9-2.1-1.5c-.6-.7-1.1-1.5-1.4-2.4-.3-.9-.5-2-.5-3.1s.3-2.8.8-3.9,1.3-2,2.3-2.6c1-.6,2.2-.9,3.5-.9s1.9.2,2.7.5,1.5.9,2,1.5c.6.7,1,1.5,1.3,2.4s.5,1.9.5,3.1-.3,2.8-.8,4c-.5,1.1-1.3,2-2.2,2.6-1,.6-2.1.9-3.4.9ZM378.6,436.9c.9,0,1.7-.2,2.5-.7.7-.5,1.3-1.1,1.6-1.9.4-.8.6-1.8.6-2.9s-.1-1.6-.3-2.3c-.2-.7-.5-1.3-1-1.7-.4-.5-.9-.9-1.5-1.1-.6-.3-1.2-.4-1.9-.4s-1.7.2-2.4.7c-.7.5-1.2,1.1-1.6,1.9s-.6,1.8-.6,2.9.2,2.1.6,2.9c.4.8.9,1.5,1.6,1.9.7.5,1.5.7,2.4.7ZM383.3,438.6v-6.2l.5-1.2-.5-2.3v-4.9h2.4v14.6h-2.4Z"/>
          <path class="cls-4" d="M390.3,438.6v-14.6h2.4v6.7h-.8c0-1.5.2-2.7.7-3.7s1.1-1.8,2-2.4c.9-.6,1.9-.8,3.2-.8s1.7.1,2.4.4c.7.3,1.2.7,1.7,1.2.4.5.8,1.2,1,1.9s.3,1.6.3,2.6v8.7h-2.4v-7.8c0-1,0-1.8-.3-2.4s-.4-1.1-.8-1.5c-.3-.4-.7-.6-1.2-.8-.5-.2-1-.2-1.6-.2s-1.4.2-2.1.6c-.6.4-1.1,1-1.5,1.9-.4.9-.6,2.1-.6,3.6v6.6h-2.4Z"/>
          <path class="cls-4" d="M413,438.9c-1,0-1.9-.2-2.7-.5-.8-.4-1.5-.9-2.1-1.5-.6-.7-1-1.5-1.4-2.4-.3-.9-.5-2-.5-3.1s.3-2.8.8-3.9,1.3-2,2.3-2.6c1-.6,2.2-.9,3.5-.9s1.9.2,2.7.5,1.5.9,2,1.5c.6.7,1,1.5,1.3,2.4s.5,1.9.5,3.1-.3,2.8-.8,4c-.5,1.1-1.3,2-2.3,2.6-1,.6-2.1.9-3.4.9ZM413.5,436.9c.9,0,1.7-.2,2.5-.7.7-.5,1.3-1.1,1.6-1.9.4-.8.6-1.8.6-2.9s-.1-1.6-.3-2.3c-.2-.7-.5-1.3-1-1.7-.4-.5-.9-.9-1.5-1.1-.6-.3-1.2-.4-1.9-.4s-1.7.2-2.4.7c-.7.5-1.2,1.1-1.6,1.9s-.6,1.8-.6,2.9.2,2.1.6,2.9c.4.8.9,1.5,1.6,1.9.7.5,1.5.7,2.4.7ZM418.2,438.6v-4.8l.6-2.6-.6-2.1v-12.4h2.4v21.9h-2.4Z"/>
          <path class="cls-4" d="M436.6,438.9c-1.2,0-2.3-.2-3.2-.6-.9-.4-1.5-.9-2-1.6-.5-.7-.7-1.5-.7-2.4h2.4c0,.5.1.9.4,1.3s.6.7,1.1.9c.5.2,1.1.3,1.9.3s1.7-.2,2.3-.6c.6-.4.8-.9.8-1.6s-.2-.9-.5-1.2c-.3-.3-.7-.5-1.2-.7-.5-.2-1.1-.3-1.7-.4-.6-.1-1.2-.3-1.8-.4-.6-.2-1.2-.4-1.7-.7-.5-.3-.9-.7-1.2-1.2-.3-.5-.5-1.2-.5-2,0-1.3.5-2.3,1.4-3.1s2.2-1.1,3.8-1.1,2,.2,2.9.5c.8.4,1.5.9,1.9,1.5s.7,1.4.7,2.3h-2.3c0-.7-.3-1.2-.8-1.7-.6-.4-1.3-.6-2.2-.6s-1.6.2-2.1.6c-.5.4-.8.9-.8,1.6s.2.9.5,1.2c.3.3.7.5,1.2.6.5.1,1.1.3,1.7.4.6.1,1.2.2,1.8.4.6.2,1.2.4,1.7.7.5.3.9.7,1.2,1.2.3.5.5,1.2.5,2.1,0,1.3-.5,2.4-1.5,3.2-1,.8-2.3,1.2-4,1.2Z"/>
          <path class="cls-4" d="M452.1,438.9c-1.5,0-2.9-.3-4-1-1.1-.6-1.9-1.5-2.5-2.7-.6-1.1-.9-2.4-.9-3.9s.3-2.8.8-3.9c.6-1.1,1.4-2,2.5-2.7,1.1-.6,2.4-1,3.9-1s2.8.3,3.8,1c1,.6,1.8,1.5,2.3,2.7.5,1.1.8,2.4.8,3.9v.8h-12.5v-1.9h10.8l-.6.9c0-1-.2-2-.6-2.7s-.9-1.4-1.6-1.8c-.7-.4-1.5-.7-2.5-.7s-1.7.2-2.4.6c-.7.4-1.3,1-1.7,1.8-.4.8-.6,1.8-.6,3.1s.2,2.2.6,3,1,1.5,1.7,1.9c.7.4,1.6.6,2.5.6s1.4-.1,2-.4c.6-.3,1.1-.6,1.4-1,.4-.4.6-.9.8-1.4h2.4c-.2.9-.6,1.8-1.1,2.5s-1.3,1.3-2.3,1.7c-.9.4-2,.6-3.2.6Z"/>
          <path class="cls-4" d="M468.6,438.9c-1.5,0-2.8-.3-3.9-1-1-.6-1.8-1.5-2.4-2.7-.5-1.1-.8-2.4-.8-3.9s.3-2.8.8-3.9c.6-1.1,1.4-2,2.4-2.7,1.1-.6,2.3-1,3.8-1s2.2.2,3.1.6c.9.4,1.7,1,2.3,1.7.6.7,1,1.6,1.2,2.6h-2.4c-.2-.6-.4-1.1-.8-1.5-.4-.4-.9-.8-1.4-1-.6-.2-1.2-.4-1.9-.4-1,0-1.8.2-2.5.7-.7.5-1.2,1.1-1.5,2-.3.8-.5,1.8-.5,2.8s.2,2,.5,2.8c.3.8.8,1.5,1.5,2s1.5.7,2.6.7,2-.3,2.7-.9,1.1-1.4,1.4-2.4h2.4c-.2,1.1-.5,2-1.1,2.8-.6.8-1.3,1.4-2.2,1.8-.9.4-2,.6-3.2.6Z"/>
          <path class="cls-4" d="M483.4,438.9c-.9,0-1.7-.1-2.4-.4s-1.2-.7-1.7-1.2c-.4-.5-.8-1.2-1-1.9s-.3-1.6-.3-2.6v-8.7h2.4v7.8c0,1,0,1.8.3,2.4s.4,1.1.8,1.5c.3.4.7.6,1.2.8.5.2,1,.2,1.6.2s1.4-.2,2.1-.6c.6-.4,1.1-1,1.5-1.9s.6-2.1.6-3.6v-6.6h2.4v14.6h-2.4v-6.7h.8c0,1.5-.2,2.7-.7,3.7-.4,1-1.1,1.8-2,2.4s-1.9.8-3.2.8Z"/>
          <path class="cls-4" d="M495.4,438.6v-14.6h2.4v7.4h-.7c0-1.6.3-2.9.7-4,.4-1.1,1.1-2,1.9-2.6s1.8-.9,3-.9.3,0,.5,0c.2,0,.3,0,.5,0v2.4c-.9,0-1.8,0-2.5.2-.7.2-1.4.4-1.9.9-.5.4-.9,1-1.1,1.8-.3.8-.4,1.7-.4,2.9v6.4h-2.4Z"/>
          <path class="cls-4" d="M513,438.9c-1.5,0-2.9-.3-4-1-1.1-.6-1.9-1.5-2.5-2.7-.6-1.1-.9-2.4-.9-3.9s.3-2.8.8-3.9c.6-1.1,1.4-2,2.5-2.7,1.1-.6,2.4-1,3.9-1s2.8.3,3.8,1c1,.6,1.8,1.5,2.3,2.7.5,1.1.8,2.4.8,3.9v.8h-12.5v-1.9h10.8l-.6.9c0-1-.2-2-.6-2.7s-.9-1.4-1.6-1.8c-.7-.4-1.5-.7-2.5-.7s-1.7.2-2.4.6c-.7.4-1.3,1-1.7,1.8-.4.8-.6,1.8-.6,3.1s.2,2.2.6,3,1,1.5,1.7,1.9c.7.4,1.6.6,2.5.6s1.4-.1,2-.4c.6-.3,1.1-.6,1.4-1,.4-.4.6-.9.8-1.4h2.4c-.2.9-.6,1.8-1.1,2.5s-1.3,1.3-2.3,1.7c-.9.4-2,.6-3.2.6Z"/>
          <path class="cls-4" d="M259.1,473.7c-1.2,0-2.3-.2-3.2-.6-.9-.4-1.5-.9-2-1.6-.5-.7-.7-1.5-.7-2.4h2.4c0,.5.1.9.4,1.3s.6.7,1.1.9c.5.2,1.1.3,1.9.3s1.7-.2,2.3-.6c.6-.4.8-.9.8-1.6s-.2-.9-.5-1.2c-.3-.3-.7-.5-1.2-.7-.5-.2-1.1-.3-1.7-.4-.6-.1-1.2-.3-1.8-.4-.6-.2-1.2-.4-1.7-.7-.5-.3-.9-.7-1.2-1.2-.3-.5-.5-1.2-.5-2,0-1.3.5-2.3,1.4-3.1s2.2-1.1,3.8-1.1,2,.2,2.9.5c.8.4,1.5.9,1.9,1.5s.7,1.4.7,2.3h-2.3c0-.7-.3-1.2-.8-1.7-.6-.4-1.3-.6-2.2-.6s-1.6.2-2.1.6c-.5.4-.8.9-.8,1.6s.2.9.5,1.2c.3.3.7.5,1.2.6.5.1,1.1.3,1.7.4.6.1,1.2.2,1.8.4.6.2,1.2.4,1.7.7.5.3.9.7,1.2,1.2.3.5.5,1.2.5,2.1,0,1.3-.5,2.4-1.5,3.2-1,.8-2.3,1.2-4,1.2Z"/>
          <path class="cls-4" d="M266.5,460.8v-1.9h10.4v1.9h-10.4ZM274.1,473.8c-.8,0-1.5,0-2.1-.2-.6-.2-1.1-.4-1.5-.8s-.7-.9-.8-1.6c-.2-.7-.3-1.5-.3-2.6v-15.2h2.4v15.3c0,.9,0,1.6.2,2s.4.8.8.9c.4.2.9.2,1.5.2s.8,0,1.3-.1c.5,0,.9-.3,1.2-.6v2.3c-.2.1-.5.2-.9.3-.4,0-.7.1-1.1.1s-.7,0-.9,0Z"/>
          <path class="cls-4" d="M287,473.7c-1.5,0-2.8-.3-3.9-1-1.1-.6-2-1.5-2.6-2.7-.6-1.1-.9-2.4-.9-3.9s.3-2.8.9-3.9c.6-1.1,1.5-2,2.6-2.7,1.1-.6,2.4-1,3.9-1s2.8.3,3.9,1c1.1.6,2,1.5,2.6,2.7.6,1.1.9,2.4.9,3.9s-.3,2.8-.9,3.9c-.6,1.1-1.5,2-2.6,2.7-1.1.6-2.4,1-3.9,1ZM287,471.6c1.1,0,2-.2,2.7-.7.7-.5,1.3-1.1,1.7-1.9.4-.8.6-1.8.6-2.8s-.1-1.5-.3-2.2c-.2-.7-.5-1.3-1-1.8-.4-.5-.9-.9-1.6-1.1-.6-.3-1.3-.4-2.1-.4s-2,.2-2.7.7c-.7.5-1.3,1.1-1.7,2-.4.8-.6,1.8-.6,2.8s.2,2,.6,2.8c.4.8.9,1.5,1.7,1.9.7.5,1.6.7,2.7.7Z"/>
          <path class="cls-4" d="M298.1,473.4v-14.6h2.4v7.4h-.7c0-1.6.3-2.9.7-4,.4-1.1,1.1-2,1.9-2.6s1.8-.9,3-.9.3,0,.5,0c.2,0,.3,0,.5,0v2.4c-.9,0-1.8,0-2.5.2-.7.2-1.4.4-1.9.9-.5.4-.9,1-1.1,1.8-.3.8-.4,1.7-.4,2.9v6.4h-2.4Z"/>
          <path class="cls-4" d="M315,473.7c-1,0-1.9-.2-2.7-.5s-1.5-.9-2.1-1.5c-.6-.7-1.1-1.5-1.4-2.4-.3-.9-.5-2-.5-3.1s.3-2.8.8-3.9,1.3-2,2.3-2.6c1-.6,2.2-.9,3.5-.9s1.9.2,2.7.5,1.5.9,2,1.5c.6.7,1,1.5,1.3,2.4s.5,1.9.5,3.1-.3,2.8-.8,4c-.5,1.1-1.3,2-2.2,2.6-1,.6-2.1.9-3.4.9ZM315.4,471.7c.9,0,1.7-.2,2.5-.7.7-.5,1.3-1.1,1.6-1.9.4-.8.6-1.8.6-2.9s-.1-1.6-.3-2.3c-.2-.7-.5-1.3-1-1.7-.4-.5-.9-.9-1.5-1.1-.6-.3-1.2-.4-1.9-.4s-1.7.2-2.4.7c-.7.5-1.2,1.1-1.6,1.9s-.6,1.8-.6,2.9.2,2.1.6,2.9c.4.8.9,1.5,1.6,1.9.7.5,1.5.7,2.4.7ZM320.1,473.4v-6.2l.5-1.2-.5-2.3v-4.9h2.4v14.6h-2.4Z"/>
          <path class="cls-4" d="M332.9,473.7c-1,0-1.9-.2-2.8-.5-.8-.4-1.5-.9-2.1-1.5s-1.1-1.5-1.4-2.4c-.3-.9-.5-2-.5-3.1s.3-2.8.9-3.9,1.4-2,2.4-2.6c1-.6,2.2-.9,3.6-.9s2.4.3,3.3.9c.9.6,1.7,1.5,2.2,2.6.5,1.1.8,2.4.8,3.9s-.3,2.8-.8,4c-.5,1.1-1.3,2-2.2,2.6-.9.6-2.1.9-3.3.9ZM333.7,480c-1.5,0-2.6-.2-3.6-.6-.9-.4-1.7-.9-2.2-1.6-.5-.7-.8-1.5-.9-2.4h2.4c0,.5.3.9.6,1.3s.7.7,1.3.9c.6.2,1.3.3,2.3.3s1.8-.1,2.4-.4c.6-.3,1.1-.7,1.4-1.3s.4-1.3.4-2.1v-5.3l.6-2.6-.6-2.3v-4.9h2.4v15.1c0,1.3-.3,2.3-.8,3.2-.5.9-1.3,1.6-2.2,2.1-1,.5-2.2.7-3.7.7ZM333.3,471.7c.9,0,1.7-.2,2.5-.7.7-.5,1.3-1.1,1.6-1.9.4-.8.6-1.8.6-2.9s-.1-1.6-.3-2.3c-.2-.7-.5-1.3-1-1.7-.4-.5-.9-.9-1.5-1.1-.6-.3-1.2-.4-1.9-.4s-1.7.2-2.4.7c-.7.5-1.2,1.1-1.6,1.9s-.6,1.8-.6,2.9.2,2.1.6,2.9c.4.8.9,1.5,1.6,1.9.7.5,1.5.7,2.4.7Z"/>
          <path class="cls-4" d="M351.3,473.7c-1.5,0-2.9-.3-4-1-1.1-.6-1.9-1.5-2.5-2.7-.6-1.1-.9-2.4-.9-3.9s.3-2.8.8-3.9c.6-1.1,1.4-2,2.5-2.7,1.1-.6,2.4-1,3.9-1s2.8.3,3.8,1c1,.6,1.8,1.5,2.3,2.7.5,1.1.8,2.4.8,3.9v.8h-12.5v-1.9h10.8l-.6.9c0-1-.2-2-.6-2.7s-.9-1.4-1.6-1.8c-.7-.4-1.5-.7-2.5-.7s-1.7.2-2.4.6c-.7.4-1.3,1-1.7,1.8-.4.8-.6,1.8-.6,3.1s.2,2.2.6,3,1,1.5,1.7,1.9c.7.4,1.6.6,2.5.6s1.4-.1,2-.4c.6-.3,1.1-.6,1.4-1,.4-.4.6-.9.8-1.4h2.4c-.2.9-.6,1.8-1.1,2.5s-1.3,1.3-2.3,1.7c-.9.4-2,.6-3.2.6Z"/>
          <path class="cls-4" d="M366.8,460.8v-1.9h9.9v1.9h-9.9ZM369.5,473.4v-16.3c0-1.4.2-2.5.5-3.3s.9-1.5,1.7-1.9,1.7-.6,2.9-.6.6,0,.9,0c.3,0,.5,0,.8.1.2,0,.4.1.6.2v2.2c-.3-.2-.7-.4-1.2-.5s-.8-.1-1.1-.1c-.9,0-1.6.3-2,1-.4.7-.6,1.6-.6,2.9v16.2h-2.4Z"/>
          <path class="cls-4" d="M385.5,473.7c-1.5,0-2.8-.3-3.9-1-1.1-.6-2-1.5-2.6-2.7-.6-1.1-.9-2.4-.9-3.9s.3-2.8.9-3.9c.6-1.1,1.5-2,2.6-2.7,1.1-.6,2.4-1,3.9-1s2.8.3,3.9,1c1.1.6,2,1.5,2.6,2.7.6,1.1.9,2.4.9,3.9s-.3,2.8-.9,3.9c-.6,1.1-1.5,2-2.6,2.7-1.1.6-2.4,1-3.9,1ZM385.5,471.6c1.1,0,2-.2,2.7-.7.7-.5,1.3-1.1,1.7-1.9.4-.8.6-1.8.6-2.8s-.1-1.5-.3-2.2c-.2-.7-.5-1.3-1-1.8-.4-.5-.9-.9-1.6-1.1-.6-.3-1.3-.4-2.1-.4s-2,.2-2.7.7c-.7.5-1.3,1.1-1.7,2-.4.8-.6,1.8-.6,2.8s.2,2,.6,2.8c.4.8.9,1.5,1.7,1.9.7.5,1.6.7,2.7.7Z"/>
          <path class="cls-4" d="M396.6,473.4v-14.6h2.4v7.4h-.7c0-1.6.3-2.9.7-4,.4-1.1,1.1-2,1.9-2.6s1.8-.9,3-.9.3,0,.5,0c.2,0,.3,0,.5,0v2.4c-.9,0-1.8,0-2.5.2-.7.2-1.4.4-1.9.9-.5.4-.9,1-1.1,1.8-.3.8-.4,1.7-.4,2.9v6.4h-2.4Z"/>
          <path class="cls-4" d="M418.5,473.5l-6.2-14.7h2.7l4.5,11.3,4.6-11.3h2.6l-6.3,14.7h-1.8Z"/>
          <path class="cls-4" d="M434.8,473.7c-1,0-1.9-.2-2.7-.5s-1.5-.9-2.1-1.5c-.6-.7-1.1-1.5-1.4-2.4-.3-.9-.5-2-.5-3.1s.3-2.8.8-3.9,1.3-2,2.3-2.6c1-.6,2.2-.9,3.5-.9s1.9.2,2.7.5,1.5.9,2,1.5c.6.7,1,1.5,1.3,2.4s.5,1.9.5,3.1-.3,2.8-.8,4c-.5,1.1-1.3,2-2.2,2.6-1,.6-2.1.9-3.4.9ZM435.2,471.7c.9,0,1.7-.2,2.5-.7.7-.5,1.3-1.1,1.6-1.9.4-.8.6-1.8.6-2.9s-.1-1.6-.3-2.3c-.2-.7-.5-1.3-1-1.7-.4-.5-.9-.9-1.5-1.1-.6-.3-1.2-.4-1.9-.4s-1.7.2-2.4.7c-.7.5-1.2,1.1-1.6,1.9s-.6,1.8-.6,2.9.2,2.1.6,2.9c.4.8.9,1.5,1.6,1.9.7.5,1.5.7,2.4.7ZM439.9,473.4v-6.2l.5-1.2-.5-2.3v-4.9h2.4v14.6h-2.4Z"/>
          <path class="cls-4" d="M446.9,473.4v-21.9h2.4v21.9h-2.4Z"/>
          <path class="cls-4" d="M458.9,473.7c-.9,0-1.7-.1-2.4-.4s-1.2-.7-1.7-1.2c-.4-.5-.8-1.2-1-1.9s-.3-1.6-.3-2.6v-8.7h2.4v7.8c0,1,0,1.8.3,2.4s.4,1.1.8,1.5c.3.4.7.6,1.2.8.5.2,1,.2,1.6.2s1.4-.2,2.1-.6c.6-.4,1.1-1,1.5-1.9s.6-2.1.6-3.6v-6.6h2.4v14.6h-2.4v-6.7h.8c0,1.5-.2,2.7-.7,3.7-.4,1-1.1,1.8-2,2.4s-1.9.8-3.2.8Z"/>
          <path class="cls-4" d="M476.6,473.7c-1,0-1.9-.2-2.7-.5s-1.5-.9-2.1-1.5c-.6-.7-1.1-1.5-1.4-2.4-.3-.9-.5-2-.5-3.1s.3-2.8.8-3.9,1.3-2,2.3-2.6c1-.6,2.2-.9,3.5-.9s1.9.2,2.7.5,1.5.9,2,1.5c.6.7,1,1.5,1.3,2.4s.5,1.9.5,3.1-.3,2.8-.8,4c-.5,1.1-1.3,2-2.2,2.6-1,.6-2.1.9-3.4.9ZM477,471.7c.9,0,1.7-.2,2.5-.7.7-.5,1.3-1.1,1.6-1.9.4-.8.6-1.8.6-2.9s-.1-1.6-.3-2.3c-.2-.7-.5-1.3-1-1.7-.4-.5-.9-.9-1.5-1.1-.6-.3-1.2-.4-1.9-.4s-1.7.2-2.4.7c-.7.5-1.2,1.1-1.6,1.9s-.6,1.8-.6,2.9.2,2.1.6,2.9c.4.8.9,1.5,1.6,1.9.7.5,1.5.7,2.4.7ZM481.7,473.4v-6.2l.5-1.2-.5-2.3v-4.9h2.4v14.6h-2.4Z"/>
          <path class="cls-4" d="M488.6,473.4v-21.9h2.4v12.4l-.7,2.1.7,2.8v4.6h-2.4ZM496.2,473.7c-1,0-1.9-.2-2.7-.5-.8-.4-1.5-.9-2-1.5s-1-1.5-1.3-2.4c-.3-.9-.5-2-.5-3.1s.3-2.8.8-3.9c.5-1.1,1.3-2,2.3-2.6,1-.6,2.1-.9,3.4-.9s1.9.2,2.7.5c.8.4,1.5.9,2.1,1.5.6.7,1.1,1.5,1.4,2.4s.5,1.9.5,3.1-.3,2.8-.8,4c-.6,1.1-1.3,2-2.3,2.6-1,.6-2.2.9-3.5.9ZM495.7,471.7c.9,0,1.7-.2,2.4-.7.7-.5,1.2-1.1,1.6-1.9.4-.8.6-1.8.6-2.9s-.2-2.1-.6-2.9-.9-1.5-1.6-1.9c-.7-.5-1.5-.7-2.4-.7s-1.7.2-2.4.7c-.7.5-1.2,1.1-1.6,1.9-.4.8-.6,1.8-.6,2.9s.1,1.6.3,2.3.5,1.3,1,1.8c.4.5.9.9,1.5,1.1.6.3,1.2.4,1.9.4Z"/>
          <path class="cls-4" d="M506.5,473.4v-21.9h2.4v21.9h-2.4Z"/>
          <path class="cls-4" d="M519.9,473.7c-1.5,0-2.9-.3-4-1-1.1-.6-1.9-1.5-2.5-2.7-.6-1.1-.9-2.4-.9-3.9s.3-2.8.8-3.9c.6-1.1,1.4-2,2.5-2.7,1.1-.6,2.4-1,3.9-1s2.8.3,3.8,1c1,.6,1.8,1.5,2.3,2.7.5,1.1.8,2.4.8,3.9v.8h-12.5v-1.9h10.8l-.6.9c0-1-.2-2-.6-2.7s-.9-1.4-1.6-1.8c-.7-.4-1.5-.7-2.5-.7s-1.7.2-2.4.6c-.7.4-1.3,1-1.7,1.8-.4.8-.6,1.8-.6,3.1s.2,2.2.6,3,1,1.5,1.7,1.9c.7.4,1.6.6,2.5.6s1.4-.1,2-.4c.6-.3,1.1-.6,1.4-1,.4-.4.6-.9.8-1.4h2.4c-.2.9-.6,1.8-1.1,2.5s-1.3,1.3-2.3,1.7c-.9.4-2,.6-3.2.6Z"/>
          <path class="cls-4" d="M535.1,473.7c-1.2,0-2.3-.2-3.2-.6-.9-.4-1.5-.9-2-1.6-.5-.7-.7-1.5-.7-2.4h2.4c0,.5.1.9.4,1.3s.6.7,1.1.9c.5.2,1.1.3,1.9.3s1.7-.2,2.3-.6c.6-.4.8-.9.8-1.6s-.2-.9-.5-1.2c-.3-.3-.7-.5-1.2-.7-.5-.2-1.1-.3-1.7-.4-.6-.1-1.2-.3-1.8-.4-.6-.2-1.2-.4-1.7-.7-.5-.3-.9-.7-1.2-1.2-.3-.5-.5-1.2-.5-2,0-1.3.5-2.3,1.4-3.1s2.2-1.1,3.8-1.1,2,.2,2.9.5c.8.4,1.5.9,1.9,1.5s.7,1.4.7,2.3h-2.3c0-.7-.3-1.2-.8-1.7-.6-.4-1.3-.6-2.2-.6s-1.6.2-2.1.6c-.5.4-.8.9-.8,1.6s.2.9.5,1.2c.3.3.7.5,1.2.6.5.1,1.1.3,1.7.4.6.1,1.2.2,1.8.4.6.2,1.2.4,1.7.7.5.3.9.7,1.2,1.2.3.5.5,1.2.5,2.1,0,1.3-.5,2.4-1.5,3.2-1,.8-2.3,1.2-4,1.2Z"/>
          <path class="cls-4" d="M543.8,473.4v-3.1h3v3.1h-3Z"/>
        </g>
      </g>
    </g>
  </g>
</svg>