<?xml version="1.0" encoding="UTF-8"?>
<svg xmlns="http://www.w3.org/2000/svg" version="1.1" viewBox="0 0 415 462.7">
  <defs>
    <style>
      .cls-1 {
        fill: #f8f6f3;
      }

      .cls-2 {
        isolation: isolate;
      }

      .cls-3 {
        fill: #004647;
      }

      .cls-4 {
        fill: #004647;
      }
    </style>
  </defs>
  <!-- Generator: Adobe Illustrator 28.7.2, SVG Export Plug-In . SVG Version: 1.2.0 Build 154)  -->
  <g>
    <g id="Layer_1">
      <g id="Layer_1-2" data-name="Layer_1">
        <path class="cls-3" d="M100.3,21.4h-2.9v-8c0-7.4-6-13.4-13.4-13.4h-8c-7.4,0-13.4,6-13.4,13.4v8h-2.9c-5.9,0-10.7,4.8-10.7,10.7v48.3c0,5.4,4.1,9.9,9.3,10.6-.1.5-.2,1-.2,1.4,0,3.7,3,6.7,6.7,6.7s6.7-3,6.7-6.7,0-.9-.1-1.3h17.3c0,.4-.1.9-.1,1.3,0,3.7,3,6.7,6.7,6.7s6.7-3,6.7-6.7,0-1-.2-1.4c5.2-.7,9.3-5.2,9.3-10.6v-48.3c0-5.9-4.8-10.7-10.7-10.7h0ZM67.9,13.4c0-4.4,3.6-8,8-8h8c4.4,0,8,3.6,8,8v8h-24.1v-8h.1ZM67.9,92.5c0,1.7-1.4,3.1-3.1,3.1s-3.1-1.4-3.1-3.1.1-.9.3-1.3h5.6c.2.4.3.9.3,1.3h0ZM95.1,95.6c-1.7,0-3.1-1.4-3.1-3.1s.1-.9.3-1.3h5.6c.2.4.3.9.3,1.3,0,1.7-1.4,3.1-3.1,3.1h0Z"/>
        <path class="cls-1" d="M76.5,66.6h7.2c2.2,0,4,1.8,4,4h0c0,2.2-1.8,4-4,4h-7.2c-2.2,0-4-1.8-4-4h0c0-2.2,1.8-4,4-4Z"/>
        <path class="cls-3" d="M400.9,462.7H14.1c-7.8,0-14.1-6.3-14.1-14.1V61.7c0-7.8,6.3-14.1,14.1-14.1h29.6v4H14.1c-5.6,0-10.1,4.5-10.1,10.1v386.9c0,5.6,4.5,10.1,10.1,10.1h386.8c5.6,0,10.1-4.5,10.1-10.1V61.7c0-5.6-4.5-10.1-10.1-10.1H114.8v-4h286.1c7.8,0,14.1,6.3,14.1,14.1v386.9c0,7.8-6.3,14.1-14.1,14.1Z"/>
        <g class="cls-2">
          <g class="cls-2">
            <path class="cls-3" d="M40.9,166.7v-25.9h4.7v22.6l-.6-.7h8.6v4h-12.7Z"/>
            <path class="cls-3" d="M65.1,167.1c-1.9,0-3.5-.4-4.8-1.1-1.3-.7-2.3-1.9-3-3.4-.7-1.5-1-3.4-1-5.6v-16.2h4.6v16.4c0,1.3.1,2.4.4,3.3.3.9.8,1.5,1.4,2,.6.4,1.4.7,2.3.7s1.6-.1,2.1-.4c.5-.3,1-.7,1.3-1.2.3-.5.5-1.2.6-1.9,0-.7.1-1.5.1-2.4v-16.4h4.6v16.2c0,2.2-.3,4.1-1,5.6-.6,1.5-1.6,2.6-2.9,3.4s-2.9,1.1-4.9,1.1Z"/>
            <path class="cls-3" d="M87.9,167c-1.8,0-3.3-.3-4.6-.9-1.3-.6-2.5-1.5-3.4-2.6-.9-1.1-1.6-2.5-2-4.2-.4-1.7-.7-3.6-.7-5.7s.2-4,.7-5.6c.5-1.6,1.1-3,2-4.1.9-1.1,2-2,3.3-2.6,1.3-.6,2.8-.9,4.5-.9s3.3.3,4.7,1c1.4.7,2.6,1.7,3.5,3.1.9,1.4,1.5,3.1,1.7,5.2h-4.6c-.2-1.3-.5-2.3-1-3.1-.5-.8-1.1-1.4-1.8-1.7s-1.5-.6-2.4-.6c-1.3,0-2.4.4-3.3,1.1s-1.5,1.7-2,3.1-.6,3.1-.6,5.1.1,2.9.3,4.1c.2,1.2.6,2.2,1.1,3,.5.8,1.1,1.4,1.9,1.8.8.4,1.6.6,2.6.6s1.5-.1,2.2-.4c.6-.2,1.2-.7,1.7-1.3.5-.6.9-1.4,1.1-2.5.3-1,.4-2.3.5-3.8l4.4-.9c0,2.3-.3,4.2-.7,5.9-.5,1.6-1.1,2.9-2,3.9s-1.9,1.7-3.1,2.2c-1.2.5-2.5.7-4,.7ZM87,156v-3.4h10.7v1.8l-2.7,1.6h-7.9Z"/>
            <path class="cls-3" d="M111,167c-1.8,0-3.3-.3-4.6-.9-1.3-.6-2.5-1.5-3.4-2.6-.9-1.1-1.6-2.5-2-4.2-.4-1.7-.7-3.6-.7-5.7s.2-4,.7-5.6c.5-1.6,1.1-3,2-4.1.9-1.1,2-2,3.3-2.6,1.3-.6,2.8-.9,4.5-.9s3.3.3,4.7,1c1.4.7,2.6,1.7,3.5,3.1.9,1.4,1.5,3.1,1.7,5.2h-4.6c-.2-1.3-.5-2.3-1-3.1-.5-.8-1.1-1.4-1.8-1.7s-1.5-.6-2.4-.6c-1.3,0-2.4.4-3.3,1.1s-1.5,1.7-2,3.1-.6,3.1-.6,5.1.1,2.9.3,4.1c.2,1.2.6,2.2,1.1,3,.5.8,1.1,1.4,1.9,1.8.8.4,1.6.6,2.6.6s1.5-.1,2.2-.4c.6-.2,1.2-.7,1.7-1.3.5-.6.9-1.4,1.1-2.5.3-1,.4-2.3.5-3.8l4.4-.9c0,2.3-.3,4.2-.7,5.9-.5,1.6-1.1,2.9-2,3.9s-1.9,1.7-3.1,2.2c-1.2.5-2.5.7-4,.7ZM110.1,156v-3.4h10.7v1.8l-2.7,1.6h-7.9Z"/>
            <path class="cls-3" d="M121.6,166.7l7.6-25.9h5.3l7.8,25.9h-4.9l-1.8-6.9.6.4h-8.5l.5-.3-1.9,6.8h-4.6ZM128.8,157.5l-.7-.9h7.3l-.6.6-3-12.2-3,12.4Z"/>
            <path class="cls-3" d="M153.8,167c-1.8,0-3.3-.3-4.6-.9-1.3-.6-2.5-1.5-3.4-2.6-.9-1.1-1.6-2.5-2-4.2-.4-1.7-.7-3.6-.7-5.7s.2-4,.7-5.6c.5-1.6,1.1-3,2-4.1.9-1.1,2-2,3.3-2.6,1.3-.6,2.8-.9,4.5-.9s3.3.3,4.7,1c1.4.7,2.6,1.7,3.5,3.1.9,1.4,1.5,3.1,1.7,5.2h-4.6c-.2-1.3-.5-2.3-1-3.1-.5-.8-1.1-1.4-1.8-1.7s-1.5-.6-2.4-.6c-1.3,0-2.4.4-3.3,1.1s-1.5,1.7-2,3.1-.6,3.1-.6,5.1.1,2.9.3,4.1c.2,1.2.6,2.2,1.1,3,.5.8,1.1,1.4,1.9,1.8.8.4,1.6.6,2.6.6s1.5-.1,2.2-.4c.6-.2,1.2-.7,1.7-1.3.5-.6.9-1.4,1.1-2.5.3-1,.4-2.3.5-3.8l4.4-.9c0,2.3-.3,4.2-.7,5.9-.5,1.6-1.1,2.9-2,3.9s-1.9,1.7-3.1,2.2c-1.2.5-2.5.7-4,.7ZM152.9,156v-3.4h10.7v1.8l-2.7,1.6h-7.9Z"/>
            <path class="cls-3" d="M167.1,166.7v-25.9h13.5v3.9h-9v7.1h8.1v3.6h-8.1v7.4h9v3.9h-13.5Z"/>
          </g>
        </g>
        <g>
          <path class="cls-4" d="M41.1,233.2v-20.3h4.8c1.8,0,3.2.3,4.3.8,1.1.5,1.8,1.3,2.3,2.2.5.9.7,2,.7,3.3s-.3,2.4-.8,3.3c-.5,1-1.3,1.7-2.5,2.3-1.1.6-2.6.8-4.5.8h-3.2v-1.5h3.2c1.5,0,2.7-.2,3.6-.6.9-.4,1.5-1,1.8-1.7.3-.7.5-1.6.5-2.6s-.2-1.8-.5-2.5c-.3-.7-.9-1.3-1.6-1.7-.8-.4-1.9-.6-3.3-.6h-3.8l.7-.7v19.5h-1.8Z"/>
          <path class="cls-4" d="M62.4,233.4c-1,0-1.9-.2-2.7-.5s-1.5-.9-2.1-1.5-1-1.5-1.3-2.4c-.3-.9-.5-1.9-.5-3s.3-2.8.8-3.9,1.3-2,2.3-2.6c1-.6,2.2-.9,3.5-.9s1.8.2,2.6.5c.8.3,1.5.9,2,1.5.6.7,1,1.4,1.3,2.4.3.9.5,1.9.5,3.1s-.3,2.9-.8,4c-.5,1.1-1.3,2-2.3,2.6-1,.6-2.1.9-3.4.9ZM62.7,232c1,0,1.9-.3,2.7-.8.8-.5,1.4-1.2,1.8-2.1.4-.9.6-2,.6-3.2s-.1-1.7-.4-2.5c-.2-.7-.6-1.4-1.1-1.9-.5-.5-1-.9-1.6-1.2-.6-.3-1.3-.4-2.1-.4s-2,.3-2.7.8c-.8.5-1.4,1.2-1.8,2.1-.4.9-.6,2-.6,3.2s.2,2.2.6,3.1c.4.9,1,1.6,1.8,2.1.8.5,1.7.8,2.7.8ZM67.8,233.2v-6l.4-1.3-.4-2.2v-5h1.7v14.6h-1.7Z"/>
          <path class="cls-4" d="M80.1,233.4c-1.5,0-2.7-.3-3.8-1-1-.6-1.8-1.5-2.3-2.6-.5-1.1-.8-2.4-.8-3.9s.3-2.7.8-3.9c.5-1.1,1.3-2,2.3-2.7,1-.6,2.3-1,3.7-1s2.1.2,2.9.6c.9.4,1.6,1,2.2,1.7.6.7,1,1.5,1.1,2.5h-1.7c-.2-.7-.5-1.2-.9-1.7-.4-.5-.9-.9-1.6-1.1-.6-.3-1.3-.4-2.1-.4-1.1,0-2,.3-2.8.8s-1.3,1.2-1.7,2.1c-.4.9-.6,1.9-.6,3.1s.2,2.2.6,3.1.9,1.6,1.7,2.1c.7.5,1.7.8,2.8.8s2.2-.3,3-.9c.8-.6,1.3-1.5,1.6-2.7h1.7c-.2,1.1-.5,2-1.1,2.7s-1.3,1.3-2.1,1.7c-.9.4-1.9.6-3,.6Z"/>
          <path class="cls-4" d="M89.8,233.2v-21.9h1.7v14.6h0v7.3h-1.7ZM99.2,233.2l-7.7-7v-.3c-.1,0,6.9-7.2,6.9-7.2h2.3l-7.5,7.7-.3-1.1,8.7,8h-2.5Z"/>
          <path class="cls-4" d="M111.1,233.2v-21.9h1.7v21.9h-1.7Z"/>
          <path class="cls-4" d="M117.2,214.9v-2.5h2.5v2.5h-2.5ZM117.6,233.2v-14.6h1.7v14.6h-1.7Z"/>
          <path class="cls-4" d="M129.7,233.4c-1,0-1.9-.2-2.7-.5-.8-.4-1.5-.9-2.1-1.5s-1-1.5-1.4-2.4c-.3-.9-.5-1.9-.5-3s.3-2.8.8-3.9c.6-1.1,1.3-2,2.3-2.6,1-.6,2.2-.9,3.5-.9s2.4.3,3.3.9c1,.6,1.7,1.5,2.2,2.6.5,1.1.8,2.4.8,4s-.3,2.9-.8,4c-.5,1.1-1.3,2-2.2,2.6-1,.6-2.1.9-3.3.9ZM130.4,239.7c-1.4,0-2.5-.2-3.4-.6s-1.6-.9-2.1-1.6c-.5-.7-.8-1.5-.9-2.4h1.7c.1.6.3,1.1.7,1.6.3.5.8.9,1.5,1.1s1.5.4,2.6.4,1.9-.2,2.6-.5c.7-.3,1.2-.8,1.6-1.5s.5-1.5.5-2.5v-5.5l.5-2.3-.4-2.2v-5h1.7v15c0,1.3-.3,2.4-.8,3.3-.5.9-1.2,1.6-2.2,2.1-1,.5-2.1.7-3.5.7ZM130,232c1,0,1.9-.3,2.7-.8.8-.5,1.4-1.2,1.8-2.1.4-.9.6-2,.6-3.2s-.1-1.7-.4-2.5c-.2-.7-.6-1.4-1.1-1.9-.5-.5-1-.9-1.6-1.2-.6-.3-1.3-.4-2.1-.4s-2,.3-2.7.8c-.8.5-1.4,1.2-1.8,2.1-.4.9-.6,2-.6,3.2s.2,2.2.6,3.1c.4.9,1,1.6,1.8,2.1.8.5,1.7.8,2.7.8Z"/>
          <path class="cls-4" d="M141.6,233.2v-21.9h1.7v14.1h-.6c0-1.4.2-2.7.7-3.7.5-1,1.1-1.8,2-2.4.9-.6,1.9-.8,3.1-.8s1.7.1,2.3.4,1.2.6,1.7,1.1c.5.5.8,1.2,1,1.9.2.8.3,1.7.3,2.7v8.6h-1.7v-8c0-1,0-1.9-.3-2.5-.2-.7-.5-1.2-.8-1.6-.4-.4-.8-.7-1.3-.8-.5-.2-1.1-.2-1.8-.2s-1.6.2-2.3.7c-.7.4-1.3,1.2-1.7,2.1-.4,1-.6,2.2-.6,3.8v6.6h-1.7Z"/>
          <path class="cls-4" d="M156.2,220v-1.4h10.2v1.4h-10.2ZM163.6,233.5c-.8,0-1.4,0-2-.2-.6-.1-1-.4-1.4-.8-.4-.4-.6-.9-.8-1.5-.2-.6-.3-1.4-.3-2.4v-15.5h1.7v15.5c0,.9.1,1.6.3,2.1.2.5.5.8.9,1,.4.2,1,.2,1.7.2s.8,0,1.3-.1c.5,0,.9-.3,1.3-.5v1.7c-.3.1-.6.2-.9.3-.3,0-.7.1-1,.2-.3,0-.6,0-.9,0Z"/>
          <path class="cls-4" d="M180.5,233.7l-6.2-15h1.9l5.2,13-.9,2.1ZM177.3,239.5l3.2-7.9v-.4c.1,0,5.3-12.6,5.3-12.6h1.9l-8.6,20.9h-1.8Z"/>
          <path class="cls-4" d="M196.3,233.4c-1.5,0-2.7-.3-3.8-1s-1.9-1.5-2.5-2.6c-.6-1.1-.8-2.4-.8-3.9s.3-2.7.8-3.9c.6-1.1,1.3-2,2.4-2.7,1-.6,2.3-1,3.7-1s2.6.3,3.6,1c1,.6,1.8,1.5,2.3,2.6.5,1.1.8,2.4.8,3.8v.6h-12.6v-1.4h11.4l-.4.6c0-1.1-.2-2.1-.6-3-.4-.9-1-1.6-1.8-2s-1.7-.7-2.7-.7-1.9.2-2.7.7c-.8.5-1.4,1.2-1.8,2-.4.9-.7,2-.7,3.2s.2,2.3.7,3.2c.4.9,1.1,1.6,1.9,2.1.8.5,1.7.7,2.8.7s1.5-.1,2.2-.4c.6-.3,1.2-.6,1.6-1.1.4-.5.7-1,.9-1.6h1.7c-.2.9-.5,1.6-1.1,2.3-.6.7-1.3,1.2-2.2,1.6-.9.4-1.9.6-3,.6Z"/>
          <path class="cls-4" d="M204.7,220v-1.4h10.2v1.4h-10.2ZM212,233.5c-.8,0-1.4,0-2-.2-.6-.1-1-.4-1.4-.8-.4-.4-.6-.9-.8-1.5-.2-.6-.3-1.4-.3-2.4v-15.5h1.7v15.5c0,.9.1,1.6.3,2.1.2.5.5.8.9,1,.4.2,1,.2,1.7.2s.8,0,1.3-.1c.5,0,.9-.3,1.3-.5v1.7c-.3.1-.6.2-.9.3-.3,0-.7.1-1,.2-.3,0-.6,0-.9,0Z"/>
          <path class="cls-4" d="M229.4,233.4c-1.2,0-2.2-.2-3-.6s-1.5-.9-1.9-1.5c-.4-.7-.7-1.4-.7-2.3h1.7c0,.6.1,1.1.4,1.5s.7.8,1.3,1c.6.3,1.3.4,2.1.4s2-.2,2.6-.7c.6-.5.9-1.1.9-1.9s-.2-1-.5-1.4c-.3-.3-.7-.6-1.2-.8-.5-.2-1.1-.4-1.7-.5-.6-.1-1.2-.3-1.9-.4s-1.2-.4-1.7-.7c-.5-.3-.9-.7-1.2-1.2-.3-.5-.5-1.1-.5-1.9,0-1.2.4-2.2,1.3-2.9.9-.7,2.1-1.1,3.6-1.1s1.9.2,2.7.5c.8.3,1.4.8,1.8,1.5.4.6.7,1.4.7,2.2h-1.7c0-.8-.3-1.5-1-2-.6-.5-1.5-.8-2.4-.8s-1.8.2-2.4.7c-.6.4-.9,1.1-.9,1.8s.2,1,.5,1.4c.3.3.7.6,1.2.8.5.2,1.1.3,1.7.4.6.1,1.2.3,1.9.4.6.2,1.2.4,1.7.7.5.3.9.7,1.2,1.2s.5,1.2.5,2c0,1.3-.5,2.3-1.4,3-.9.8-2.2,1.1-3.8,1.1Z"/>
          <path class="cls-4" d="M238.4,233.2v-14.6h1.7v6.7h-.6c0-1.4.2-2.7.6-3.7.4-1,1-1.8,1.8-2.4.8-.6,1.7-.8,2.8-.8s1.5.1,2.1.4c.6.2,1.1.6,1.6,1.1.4.5.7,1.1,1,1.9.2.8.3,1.6.3,2.7h-.9c.1-1.3.4-2.4.9-3.3.5-.9,1.1-1.6,2-2,.8-.5,1.7-.7,2.7-.7s1.6.1,2.2.4c.6.3,1.2.6,1.6,1.1s.8,1.2,1,1.9c.2.8.3,1.7.3,2.7v8.6h-1.7v-8c0-1,0-1.9-.3-2.6-.2-.7-.4-1.2-.8-1.6-.3-.4-.7-.7-1.2-.8-.5-.2-1-.2-1.5-.2s-1.4.2-2.1.7c-.6.4-1.2,1.2-1.6,2.1-.4,1-.6,2.2-.6,3.8v6.6h-1.7v-8c0-1,0-1.9-.3-2.5-.2-.7-.4-1.2-.7-1.6-.3-.4-.7-.7-1.2-.8-.5-.2-1-.2-1.5-.2s-1.4.2-2.1.7c-.6.4-1.2,1.2-1.6,2.1-.4,1-.6,2.2-.6,3.8v6.6h-1.7Z"/>
          <path class="cls-4" d="M269.6,233.4c-1,0-1.9-.2-2.7-.5s-1.5-.9-2.1-1.5-1-1.5-1.3-2.4c-.3-.9-.5-1.9-.5-3s.3-2.8.8-3.9,1.3-2,2.3-2.6c1-.6,2.2-.9,3.5-.9s1.8.2,2.6.5c.8.3,1.5.9,2,1.5.6.7,1,1.4,1.3,2.4.3.9.5,1.9.5,3.1s-.3,2.9-.8,4c-.5,1.1-1.3,2-2.3,2.6-1,.6-2.1.9-3.4.9ZM269.9,232c1,0,1.9-.3,2.7-.8.8-.5,1.4-1.2,1.8-2.1.4-.9.6-2,.6-3.2s-.1-1.7-.4-2.5c-.2-.7-.6-1.4-1.1-1.9-.5-.5-1-.9-1.6-1.2-.6-.3-1.3-.4-2.1-.4s-2,.3-2.7.8c-.8.5-1.4,1.2-1.8,2.1-.4.9-.6,2-.6,3.2s.2,2.2.6,3.1c.4.9,1,1.6,1.8,2.1.8.5,1.7.8,2.7.8ZM275.1,233.2v-6l.4-1.3-.4-2.2v-5h1.7v14.6h-1.7Z"/>
          <path class="cls-4" d="M281.5,233.2v-14.6h1.7v7.3h-.5c0-1.6.3-2.9.7-4,.4-1.1,1.1-1.9,1.9-2.5.8-.6,1.8-.9,3-.9h.4c.1,0,.3,0,.4,0v1.7c-.9,0-1.7,0-2.5.3-.7.2-1.4.5-1.9,1-.5.5-.9,1.2-1.2,2.1-.3.9-.4,2-.4,3.4v6.2h-1.7Z"/>
          <path class="cls-4" d="M290.2,220v-1.4h10.2v1.4h-10.2ZM297.6,233.5c-.8,0-1.4,0-2-.2-.6-.1-1-.4-1.4-.8-.4-.4-.6-.9-.8-1.5-.2-.6-.3-1.4-.3-2.4v-15.5h1.7v15.5c0,.9.1,1.6.3,2.1.2.5.5.8.9,1,.4.2,1,.2,1.7.2s.8,0,1.3-.1c.5,0,.9-.3,1.3-.5v1.7c-.3.1-.6.2-.9.3-.3,0-.7.1-1,.2-.3,0-.6,0-.9,0Z"/>
          <path class="cls-4" d="M303.4,238.2l.9-5h-1v-2.5h2.4v2.3l-1.4,5.1h-1Z"/>
          <path class="cls-4" d="M47,268.2c-1.5,0-2.7-.3-3.8-1-1.1-.6-1.9-1.5-2.5-2.6-.6-1.1-.8-2.4-.8-3.9s.3-2.7.8-3.9c.6-1.1,1.3-2,2.4-2.7,1-.6,2.3-1,3.7-1s2.6.3,3.6,1c1,.6,1.8,1.5,2.3,2.6.5,1.1.8,2.4.8,3.8v.6h-12.6v-1.4h11.4l-.4.6c0-1.1-.2-2.1-.6-3-.4-.9-1-1.6-1.8-2s-1.7-.7-2.7-.7-1.9.2-2.7.7c-.8.5-1.4,1.2-1.8,2-.4.9-.7,2-.7,3.2s.2,2.3.7,3.2c.4.9,1.1,1.6,1.9,2.1.8.5,1.7.7,2.8.7s1.5-.1,2.2-.4c.6-.3,1.2-.6,1.6-1.1.4-.5.7-1,.9-1.6h1.7c-.2.9-.5,1.6-1.1,2.3s-1.3,1.2-2.2,1.6c-.9.4-1.9.6-3,.6Z"/>
          <path class="cls-4" d="M57.3,268v-14.6h1.7v6.7h-.6c0-1.4.2-2.7.7-3.7s1.1-1.8,2-2.4c.9-.6,1.9-.8,3.1-.8s1.7.1,2.3.4c.7.2,1.2.6,1.7,1.1.5.5.8,1.2,1,1.9.2.8.3,1.7.3,2.7v8.6h-1.7v-8c0-1,0-1.9-.3-2.5-.2-.7-.5-1.2-.8-1.6-.4-.4-.8-.7-1.3-.8-.5-.2-1.1-.2-1.8-.2s-1.6.2-2.3.7-1.3,1.2-1.7,2.1c-.4,1-.6,2.2-.6,3.8v6.6h-1.7Z"/>
          <path class="cls-4" d="M78.5,268.2c-1.2,0-2.2-.2-3-.6-.8-.4-1.5-.9-1.9-1.5-.4-.7-.7-1.4-.7-2.3h1.7c0,.6.1,1.1.4,1.5.3.4.7.8,1.3,1,.6.3,1.3.4,2.1.4s2-.2,2.6-.7c.6-.5.9-1.1.9-1.9s-.2-1-.5-1.4-.7-.6-1.2-.8c-.5-.2-1.1-.4-1.7-.5-.6-.1-1.2-.3-1.9-.4-.6-.2-1.2-.4-1.7-.7-.5-.3-.9-.7-1.2-1.2-.3-.5-.5-1.1-.5-1.9,0-1.2.4-2.2,1.3-2.9.9-.7,2.1-1.1,3.6-1.1s1.9.2,2.7.5,1.4.8,1.8,1.5c.4.6.7,1.4.7,2.2h-1.7c0-.8-.3-1.5-1-2-.6-.5-1.5-.8-2.4-.8s-1.8.2-2.4.7c-.6.4-.9,1.1-.9,1.8s.2,1,.5,1.4c.3.3.7.6,1.2.8.5.2,1.1.3,1.7.4s1.2.3,1.9.4c.6.2,1.2.4,1.7.7.5.3.9.7,1.2,1.2s.5,1.2.5,2c0,1.3-.5,2.3-1.4,3-.9.8-2.2,1.1-3.8,1.1Z"/>
          <path class="cls-4" d="M92.5,268.2c-.9,0-1.7-.1-2.3-.4-.7-.2-1.2-.6-1.7-1.1-.4-.5-.8-1.1-1-1.9-.2-.8-.3-1.7-.3-2.8v-8.6h1.7v8c0,1,0,1.9.3,2.6s.5,1.2.8,1.6c.4.4.8.7,1.3.8.5.2,1.1.2,1.8.2s1.6-.2,2.3-.7c.7-.4,1.2-1.2,1.7-2.1.4-1,.6-2.2.6-3.8v-6.6h1.7v14.6h-1.7v-6.7h.6c0,1.4-.2,2.7-.7,3.7-.5,1-1.1,1.8-2,2.4-.9.6-1.9.8-3.1.8Z"/>
          <path class="cls-4" d="M104.1,268v-14.6h1.7v7.3h-.5c0-1.6.3-2.9.7-4,.4-1.1,1.1-1.9,1.9-2.5.8-.6,1.8-.9,3-.9h.4c.1,0,.3,0,.4,0v1.7c-.9,0-1.7,0-2.5.3-.7.2-1.4.5-1.9,1-.5.5-.9,1.2-1.2,2.1-.3.9-.4,2-.4,3.4v6.2h-1.7Z"/>
          <path class="cls-4" d="M114.3,249.7v-2.5h2.5v2.5h-2.5ZM114.7,268v-14.6h1.7v14.6h-1.7Z"/>
          <path class="cls-4" d="M121.1,268v-14.6h1.7v6.7h-.6c0-1.4.2-2.7.7-3.7s1.1-1.8,2-2.4c.9-.6,1.9-.8,3.1-.8s1.7.1,2.3.4c.7.2,1.2.6,1.7,1.1.5.5.8,1.2,1,1.9.2.8.3,1.7.3,2.7v8.6h-1.7v-8c0-1,0-1.9-.3-2.5-.2-.7-.5-1.2-.8-1.6-.4-.4-.8-.7-1.3-.8-.5-.2-1.1-.2-1.8-.2s-1.6.2-2.3.7-1.3,1.2-1.7,2.1c-.4,1-.6,2.2-.6,3.8v6.6h-1.7Z"/>
          <path class="cls-4" d="M143.5,268.2c-1,0-1.9-.2-2.7-.5-.8-.4-1.5-.9-2.1-1.5s-1-1.5-1.4-2.4c-.3-.9-.5-1.9-.5-3s.3-2.8.8-3.9c.6-1.1,1.3-2,2.3-2.6,1-.6,2.2-.9,3.5-.9s2.4.3,3.3.9,1.7,1.5,2.2,2.6c.5,1.1.8,2.4.8,4s-.3,2.9-.8,4c-.5,1.1-1.3,2-2.2,2.6-1,.6-2.1.9-3.3.9ZM144.2,274.5c-1.4,0-2.5-.2-3.4-.6-.9-.4-1.6-.9-2.1-1.6s-.8-1.5-.9-2.4h1.7c.1.6.3,1.1.7,1.6s.8.9,1.5,1.1c.6.3,1.5.4,2.6.4s1.9-.2,2.6-.5c.7-.3,1.2-.8,1.6-1.5s.5-1.5.5-2.5v-5.5l.5-2.3-.4-2.2v-5h1.7v15c0,1.3-.3,2.4-.8,3.3-.5.9-1.2,1.6-2.2,2.1s-2.1.7-3.5.7ZM143.7,266.8c1,0,1.9-.3,2.7-.8.8-.5,1.4-1.2,1.8-2.1.4-.9.6-2,.6-3.2s-.1-1.7-.4-2.5c-.2-.7-.6-1.4-1.1-1.9-.5-.5-1-.9-1.6-1.2-.6-.3-1.3-.4-2.1-.4s-2,.3-2.7.8c-.8.5-1.4,1.2-1.8,2.1-.4.9-.6,2-.6,3.2s.2,2.2.6,3.1c.4.9,1,1.6,1.8,2.1.8.5,1.7.8,2.7.8Z"/>
          <path class="cls-4" d="M166.1,268.5l-6.2-15h1.9l5.2,13-.9,2.1ZM162.9,274.3l3.2-7.9v-.4c.1,0,5.3-12.6,5.3-12.6h1.9l-8.6,20.9h-1.8Z"/>
          <path class="cls-4" d="M182.1,268.2c-1.4,0-2.7-.3-3.8-1-1.1-.6-2-1.5-2.6-2.6-.6-1.1-.9-2.4-.9-3.9s.3-2.8.9-3.9c.6-1.1,1.5-2,2.6-2.6,1.1-.6,2.4-1,3.8-1s2.8.3,3.8,1c1.1.6,1.9,1.5,2.5,2.6.6,1.1.9,2.4.9,3.9s-.3,2.8-.9,3.9c-.6,1.1-1.4,2-2.5,2.6-1.1.6-2.4,1-3.8,1ZM182.1,266.7c1.1,0,2.1-.3,2.9-.8.8-.5,1.4-1.2,1.9-2.1.4-.9.7-1.9.7-3.1s-.1-1.6-.4-2.4c-.2-.7-.6-1.4-1.1-1.9-.5-.5-1.1-1-1.7-1.2s-1.4-.4-2.3-.4-2.1.3-2.9.8c-.8.5-1.5,1.2-1.9,2.1-.4.9-.7,1.9-.7,3.1s.2,2.2.7,3.1c.4.9,1.1,1.6,1.9,2.1.8.5,1.8.8,2.9.8Z"/>
          <path class="cls-4" d="M198.1,268.2c-.9,0-1.7-.1-2.3-.4-.7-.2-1.2-.6-1.7-1.1-.4-.5-.8-1.1-1-1.9-.2-.8-.3-1.7-.3-2.8v-8.6h1.7v8c0,1,0,1.9.3,2.6s.5,1.2.8,1.6c.4.4.8.7,1.3.8.5.2,1.1.2,1.8.2s1.6-.2,2.3-.7c.7-.4,1.2-1.2,1.7-2.1.4-1,.6-2.2.6-3.8v-6.6h1.7v14.6h-1.7v-6.7h.6c0,1.4-.2,2.7-.7,3.7-.5,1-1.1,1.8-2,2.4-.9.6-1.9.8-3.1.8Z"/>
          <path class="cls-4" d="M216.3,268v-21.9h1.7v14.1h-.6c0-1.4.2-2.7.7-3.7s1.1-1.8,2-2.4c.9-.6,1.9-.8,3.1-.8s1.7.1,2.3.4c.7.2,1.2.6,1.7,1.1.5.5.8,1.2,1,1.9.2.8.3,1.7.3,2.7v8.6h-1.7v-8c0-1,0-1.9-.3-2.5-.2-.7-.5-1.2-.8-1.6-.4-.4-.8-.7-1.3-.8-.5-.2-1.1-.2-1.8-.2s-1.6.2-2.3.7-1.3,1.2-1.7,2.1c-.4,1-.6,2.2-.6,3.8v6.6h-1.7Z"/>
          <path class="cls-4" d="M238.6,268.2c-1,0-1.9-.2-2.7-.5s-1.5-.9-2.1-1.5-1-1.5-1.3-2.4c-.3-.9-.5-1.9-.5-3s.3-2.8.8-3.9,1.3-2,2.3-2.6c1-.6,2.2-.9,3.5-.9s1.8.2,2.6.5,1.5.9,2,1.5c.6.7,1,1.4,1.3,2.4.3.9.5,1.9.5,3.1s-.3,2.9-.8,4c-.5,1.1-1.3,2-2.3,2.6-1,.6-2.1.9-3.4.9ZM238.9,266.8c1,0,1.9-.3,2.7-.8.8-.5,1.4-1.2,1.8-2.1.4-.9.6-2,.6-3.2s-.1-1.7-.4-2.5c-.2-.7-.6-1.4-1.1-1.9-.5-.5-1-.9-1.6-1.2-.6-.3-1.3-.4-2.1-.4s-2,.3-2.7.8c-.8.5-1.4,1.2-1.8,2.1-.4.9-.6,2-.6,3.2s.2,2.2.6,3.1c.4.9,1,1.6,1.8,2.1.8.5,1.7.8,2.7.8ZM244.1,268v-6l.4-1.3-.4-2.2v-5h1.7v14.6h-1.7Z"/>
          <path class="cls-4" d="M254.6,268.1l-6.2-14.6h1.9l5,12.1,5-12.1h1.9l-6.3,14.6h-1.2Z"/>
          <path class="cls-4" d="M270.8,268.2c-1.5,0-2.7-.3-3.8-1-1.1-.6-1.9-1.5-2.5-2.6-.6-1.1-.8-2.4-.8-3.9s.3-2.7.8-3.9c.6-1.1,1.3-2,2.4-2.7,1-.6,2.3-1,3.7-1s2.6.3,3.6,1c1,.6,1.8,1.5,2.3,2.6.5,1.1.8,2.4.8,3.8v.6h-12.6v-1.4h11.4l-.4.6c0-1.1-.2-2.1-.6-3-.4-.9-1-1.6-1.8-2s-1.7-.7-2.7-.7-1.9.2-2.7.7c-.8.5-1.4,1.2-1.8,2-.4.9-.7,2-.7,3.2s.2,2.3.7,3.2c.4.9,1.1,1.6,1.9,2.1.8.5,1.7.7,2.8.7s1.5-.1,2.2-.4c.6-.3,1.2-.6,1.6-1.1.4-.5.7-1,.9-1.6h1.7c-.2.9-.5,1.6-1.1,2.3s-1.3,1.2-2.2,1.6c-.9.4-1.9.6-3,.6Z"/>
          <path class="cls-4" d="M47,303c-1.5,0-2.7-.3-3.8-1-1.1-.6-1.9-1.5-2.5-2.6-.6-1.1-.8-2.4-.8-3.9s.3-2.7.8-3.9c.6-1.1,1.3-2,2.4-2.7,1-.6,2.3-1,3.7-1s2.6.3,3.6,1c1,.6,1.8,1.5,2.3,2.6.5,1.1.8,2.4.8,3.8v.6h-12.6v-1.4h11.4l-.4.6c0-1.1-.2-2.1-.6-3-.4-.9-1-1.6-1.8-2s-1.7-.7-2.7-.7-1.9.2-2.7.7c-.8.5-1.4,1.2-1.8,2-.4.9-.7,2-.7,3.2s.2,2.3.7,3.2c.4.9,1.1,1.6,1.9,2.1.8.5,1.7.7,2.8.7s1.5-.1,2.2-.4c.6-.3,1.2-.6,1.6-1.1.4-.5.7-1,.9-1.6h1.7c-.2.9-.5,1.6-1.1,2.3s-1.3,1.2-2.2,1.6c-.9.4-1.9.6-3,.6Z"/>
          <path class="cls-4" d="M61.9,303c-1.2,0-2.2-.2-3-.6-.8-.4-1.5-.9-1.9-1.5-.4-.7-.7-1.4-.7-2.3h1.7c0,.6.1,1.1.4,1.5.3.4.7.8,1.3,1,.6.3,1.3.4,2.1.4s2-.2,2.6-.7c.6-.5.9-1.1.9-1.9s-.2-1-.5-1.4-.7-.6-1.2-.8c-.5-.2-1.1-.4-1.7-.5-.6-.1-1.2-.3-1.9-.4-.6-.2-1.2-.4-1.7-.7-.5-.3-.9-.7-1.2-1.2-.3-.5-.5-1.1-.5-1.9,0-1.2.4-2.2,1.3-2.9.9-.7,2.1-1.1,3.6-1.1s1.9.2,2.7.5,1.4.8,1.8,1.5c.4.6.7,1.4.7,2.2h-1.7c0-.8-.3-1.5-1-2-.6-.5-1.5-.8-2.4-.8s-1.8.2-2.4.7c-.6.4-.9,1.1-.9,1.8s.2,1,.5,1.4c.3.3.7.6,1.2.8.5.2,1.1.3,1.7.4s1.2.3,1.9.4c.6.2,1.2.4,1.7.7.5.3.9.7,1.2,1.2s.5,1.2.5,2c0,1.3-.5,2.3-1.4,3-.9.8-2.2,1.1-3.8,1.1Z"/>
          <path class="cls-4" d="M75.5,303c-1.2,0-2.2-.2-3-.6-.8-.4-1.5-.9-1.9-1.5-.4-.7-.7-1.4-.7-2.3h1.7c0,.6.1,1.1.4,1.5.3.4.7.8,1.3,1,.6.3,1.3.4,2.1.4s2-.2,2.6-.7c.6-.5.9-1.1.9-1.9s-.2-1-.5-1.4-.7-.6-1.2-.8c-.5-.2-1.1-.4-1.7-.5-.6-.1-1.2-.3-1.9-.4-.6-.2-1.2-.4-1.7-.7-.5-.3-.9-.7-1.2-1.2-.3-.5-.5-1.1-.5-1.9,0-1.2.4-2.2,1.3-2.9.9-.7,2.1-1.1,3.6-1.1s1.9.2,2.7.5,1.4.8,1.8,1.5c.4.6.7,1.4.7,2.2h-1.7c0-.8-.3-1.5-1-2-.6-.5-1.5-.8-2.4-.8s-1.8.2-2.4.7c-.6.4-.9,1.1-.9,1.8s.2,1,.5,1.4c.3.3.7.6,1.2.8.5.2,1.1.3,1.7.4s1.2.3,1.9.4c.6.2,1.2.4,1.7.7.5.3.9.7,1.2,1.2s.5,1.2.5,2c0,1.3-.5,2.3-1.4,3-.9.8-2.2,1.1-3.8,1.1Z"/>
          <path class="cls-4" d="M90.6,303c-1.5,0-2.7-.3-3.8-1-1.1-.6-1.9-1.5-2.5-2.6-.6-1.1-.8-2.4-.8-3.9s.3-2.7.8-3.9c.6-1.1,1.3-2,2.4-2.7,1-.6,2.3-1,3.7-1s2.6.3,3.6,1c1,.6,1.8,1.5,2.3,2.6.5,1.1.8,2.4.8,3.8v.6h-12.6v-1.4h11.4l-.4.6c0-1.1-.2-2.1-.6-3-.4-.9-1-1.6-1.8-2s-1.7-.7-2.7-.7-1.9.2-2.7.7c-.8.5-1.4,1.2-1.8,2-.4.9-.7,2-.7,3.2s.2,2.3.7,3.2c.4.9,1.1,1.6,1.9,2.1.8.5,1.7.7,2.8.7s1.5-.1,2.2-.4c.6-.3,1.2-.6,1.6-1.1.4-.5.7-1,.9-1.6h1.7c-.2.9-.5,1.6-1.1,2.3s-1.3,1.2-2.2,1.6c-.9.4-1.9.6-3,.6Z"/>
          <path class="cls-4" d="M100.9,302.8v-14.6h1.7v6.7h-.6c0-1.4.2-2.7.7-3.7s1.1-1.8,2-2.4c.9-.6,1.9-.8,3.1-.8s1.7.1,2.3.4c.7.2,1.2.6,1.7,1.1.5.5.8,1.2,1,1.9.2.8.3,1.7.3,2.7v8.6h-1.7v-8c0-1,0-1.9-.3-2.5-.2-.7-.5-1.2-.8-1.6-.4-.4-.8-.7-1.3-.8-.5-.2-1.1-.2-1.8-.2s-1.6.2-2.3.7-1.3,1.2-1.7,2.1c-.4,1-.6,2.2-.6,3.8v6.6h-1.7Z"/>
          <path class="cls-4" d="M115.6,289.6v-1.4h10.2v1.4h-10.2ZM122.9,303.1c-.8,0-1.4,0-2-.2-.6-.1-1-.4-1.4-.8-.4-.4-.6-.9-.8-1.5-.2-.6-.3-1.4-.3-2.4v-15.5h1.7v15.5c0,.9.1,1.6.3,2.1.2.5.5.8.9,1,.4.2,1,.2,1.7.2s.8,0,1.3-.1c.5,0,.9-.3,1.3-.5v1.7c-.3.1-.6.2-.9.3-.3,0-.7.1-1,.2-.3,0-.6,0-.9,0Z"/>
          <path class="cls-4" d="M128.7,284.5v-2.5h2.5v2.5h-2.5ZM129.1,302.8v-14.6h1.7v14.6h-1.7Z"/>
          <path class="cls-4" d="M141.2,303c-1,0-1.9-.2-2.7-.5s-1.5-.9-2.1-1.5-1-1.5-1.3-2.4c-.3-.9-.5-1.9-.5-3s.3-2.8.8-3.9,1.3-2,2.3-2.6c1-.6,2.2-.9,3.5-.9s1.8.2,2.6.5,1.5.9,2,1.5c.6.7,1,1.4,1.3,2.4.3.9.5,1.9.5,3.1s-.3,2.9-.8,4c-.5,1.1-1.3,2-2.3,2.6-1,.6-2.1.9-3.4.9ZM141.5,301.6c1,0,1.9-.3,2.7-.8.8-.5,1.4-1.2,1.8-2.1.4-.9.6-2,.6-3.2s-.1-1.7-.4-2.5c-.2-.7-.6-1.4-1.1-1.9-.5-.5-1-.9-1.6-1.2-.6-.3-1.3-.4-2.1-.4s-2,.3-2.7.8c-.8.5-1.4,1.2-1.8,2.1-.4.9-.6,2-.6,3.2s.2,2.2.6,3.1c.4.9,1,1.6,1.8,2.1.8.5,1.7.8,2.7.8ZM146.7,302.8v-6l.4-1.3-.4-2.2v-5h1.7v14.6h-1.7Z"/>
          <path class="cls-4" d="M153.1,302.8v-21.9h1.7v21.9h-1.7Z"/>
          <path class="cls-4" d="M164.1,303c-1.2,0-2.2-.2-3-.6-.8-.4-1.5-.9-1.9-1.5-.4-.7-.7-1.4-.7-2.3h1.7c0,.6.1,1.1.4,1.5.3.4.7.8,1.3,1,.6.3,1.3.4,2.1.4s2-.2,2.6-.7c.6-.5.9-1.1.9-1.9s-.2-1-.5-1.4-.7-.6-1.2-.8c-.5-.2-1.1-.4-1.7-.5-.6-.1-1.2-.3-1.9-.4-.6-.2-1.2-.4-1.7-.7-.5-.3-.9-.7-1.2-1.2-.3-.5-.5-1.1-.5-1.9,0-1.2.4-2.2,1.3-2.9.9-.7,2.1-1.1,3.6-1.1s1.9.2,2.7.5,1.4.8,1.8,1.5c.4.6.7,1.4.7,2.2h-1.7c0-.8-.3-1.5-1-2-.6-.5-1.5-.8-2.4-.8s-1.8.2-2.4.7c-.6.4-.9,1.1-.9,1.8s.2,1,.5,1.4c.3.3.7.6,1.2.8.5.2,1.1.3,1.7.4s1.2.3,1.9.4c.6.2,1.2.4,1.7.7.5.3.9.7,1.2,1.2s.5,1.2.5,2c0,1.3-.5,2.3-1.4,3-.9.8-2.2,1.1-3.8,1.1Z"/>
          <path class="cls-4" d="M172.6,307.8l.9-5h-1v-2.5h2.4v2.3l-1.4,5.1h-1Z"/>
          <path class="cls-4" d="M43.5,337.7l-4.8-14.6h1.8l3.7,11.8,4.3-11.9h1.3l4.3,11.7,3.7-11.7h1.8l-4.8,14.6h-1.2l-4.4-11.9-4.3,11.9h-1.3Z"/>
          <path class="cls-4" d="M68.2,337.8c-1.5,0-2.7-.3-3.8-1s-1.9-1.5-2.5-2.6c-.6-1.1-.8-2.4-.8-3.9s.3-2.7.8-3.9,1.3-2,2.4-2.7c1-.6,2.3-1,3.7-1s2.6.3,3.6,1c1,.6,1.8,1.5,2.3,2.6.5,1.1.8,2.4.8,3.8v.6h-12.6v-1.4h11.4l-.4.6c0-1.1-.2-2.1-.6-3-.4-.9-1-1.6-1.8-2-.8-.5-1.7-.7-2.7-.7s-1.9.2-2.7.7c-.8.5-1.4,1.2-1.8,2-.4.9-.7,2-.7,3.2s.2,2.3.7,3.2c.4.9,1.1,1.6,1.9,2.1.8.5,1.7.7,2.8.7s1.5-.1,2.2-.4c.6-.3,1.2-.6,1.6-1.1.4-.5.7-1,.9-1.6h1.7c-.2.9-.5,1.6-1.1,2.3s-1.3,1.2-2.2,1.6c-.9.4-1.9.6-3,.6Z"/>
          <path class="cls-4" d="M84.2,337.8c-1,0-1.9-.2-2.7-.5-.8-.4-1.5-.9-2.1-1.5s-1-1.5-1.3-2.4c-.3-.9-.5-1.9-.5-3s.3-2.8.8-3.9c.6-1.1,1.3-2,2.3-2.6,1-.6,2.2-.9,3.5-.9s1.8.2,2.6.5c.8.3,1.5.9,2,1.5.6.7,1,1.4,1.3,2.4s.5,1.9.5,3.1-.3,2.9-.8,4c-.5,1.1-1.3,2-2.3,2.6-1,.6-2.1.9-3.4.9ZM84.5,336.3c1,0,1.9-.3,2.7-.8.8-.5,1.4-1.2,1.8-2.1.4-.9.6-2,.6-3.2s-.1-1.7-.4-2.5c-.2-.7-.6-1.4-1.1-1.9-.5-.5-1-.9-1.6-1.2-.6-.3-1.3-.4-2.1-.4s-2,.3-2.7.8-1.4,1.2-1.8,2.1c-.4.9-.6,2-.6,3.2s.2,2.2.6,3.1c.4.9,1,1.6,1.8,2.1.8.5,1.7.8,2.7.8ZM89.7,337.6v-6l.4-1.3-.4-2.2v-5h1.7v14.6h-1.7Z"/>
          <path class="cls-4" d="M94.1,324.4v-1.4h10.2v1.4h-10.2ZM101.5,337.9c-.8,0-1.4,0-2-.2-.6-.1-1-.4-1.4-.8-.4-.4-.6-.9-.8-1.5s-.3-1.4-.3-2.4v-15.5h1.7v15.5c0,.9.1,1.6.3,2.1.2.5.5.8.9,1,.4.2,1,.2,1.7.2s.8,0,1.3-.1c.5,0,.9-.3,1.3-.5v1.7c-.3.1-.6.2-.9.3-.3,0-.7.1-1,.2-.3,0-.6,0-.9,0Z"/>
          <path class="cls-4" d="M107.6,337.6v-21.9h1.7v14.1h-.6c0-1.4.2-2.7.7-3.7.5-1,1.1-1.8,2-2.4.9-.6,1.9-.8,3.1-.8s1.7.1,2.3.4c.7.2,1.2.6,1.7,1.1.5.5.8,1.2,1,1.9.2.8.3,1.7.3,2.7v8.6h-1.7v-8c0-1,0-1.9-.3-2.5-.2-.7-.5-1.2-.8-1.6-.4-.4-.8-.7-1.3-.8-.5-.2-1.1-.2-1.8-.2s-1.6.2-2.3.7c-.7.4-1.3,1.2-1.7,2.1-.4,1-.6,2.2-.6,3.8v6.6h-1.7Z"/>
          <path class="cls-4" d="M130.4,337.8c-1.5,0-2.7-.3-3.8-1s-1.9-1.5-2.5-2.6c-.6-1.1-.8-2.4-.8-3.9s.3-2.7.8-3.9,1.3-2,2.4-2.7c1-.6,2.3-1,3.7-1s2.6.3,3.6,1c1,.6,1.8,1.5,2.3,2.6.5,1.1.8,2.4.8,3.8v.6h-12.6v-1.4h11.4l-.4.6c0-1.1-.2-2.1-.6-3-.4-.9-1-1.6-1.8-2-.8-.5-1.7-.7-2.7-.7s-1.9.2-2.7.7c-.8.5-1.4,1.2-1.8,2-.4.9-.7,2-.7,3.2s.2,2.3.7,3.2c.4.9,1.1,1.6,1.9,2.1.8.5,1.7.7,2.8.7s1.5-.1,2.2-.4c.6-.3,1.2-.6,1.6-1.1.4-.5.7-1,.9-1.6h1.7c-.2.9-.5,1.6-1.1,2.3s-1.3,1.2-2.2,1.6c-.9.4-1.9.6-3,.6Z"/>
          <path class="cls-4" d="M140.7,337.6v-14.6h1.7v7.3h-.5c0-1.6.3-2.9.7-4,.4-1.1,1.1-1.9,1.9-2.5.8-.6,1.8-.9,3-.9h.4c.1,0,.3,0,.4,0v1.7c-.9,0-1.7,0-2.5.3-.7.2-1.4.5-1.9,1-.5.5-.9,1.2-1.2,2.1-.3.9-.4,2-.4,3.4v6.2h-1.7Z"/>
          <path class="cls-4" d="M150.8,330.1v-1.7h8.4v1.7h-8.4Z"/>
          <path class="cls-4" d="M169.1,337.8c-1,0-1.9-.2-2.7-.5-.8-.4-1.5-.9-2.1-1.5s-1-1.5-1.3-2.4c-.3-.9-.5-1.9-.5-3s.3-2.8.8-3.9c.6-1.1,1.3-2,2.3-2.6,1-.6,2.2-.9,3.5-.9s1.8.2,2.6.5c.8.3,1.5.9,2,1.5.6.7,1,1.4,1.3,2.4s.5,1.9.5,3.1-.3,2.9-.8,4c-.5,1.1-1.3,2-2.3,2.6-1,.6-2.1.9-3.4.9ZM169.4,336.3c1,0,1.9-.3,2.7-.8.8-.5,1.4-1.2,1.8-2.1.4-.9.6-2,.6-3.2s-.1-1.7-.4-2.5c-.2-.7-.6-1.4-1.1-1.9-.5-.5-1-.9-1.6-1.2-.6-.3-1.3-.4-2.1-.4s-2,.3-2.7.8-1.4,1.2-1.8,2.1c-.4.9-.6,2-.6,3.2s.2,2.2.6,3.1c.4.9,1,1.6,1.8,2.1.8.5,1.7.8,2.7.8ZM174.6,337.6v-6l.4-1.3-.4-2.2v-5h1.7v14.6h-1.7Z"/>
          <path class="cls-4" d="M181,343.9v-20.9h1.7v4.7l-.4,2.5.5,2v11.6h-1.7ZM188.2,337.8c-1.3,0-2.4-.3-3.4-.9-1-.6-1.7-1.5-2.3-2.6-.5-1.1-.8-2.4-.8-4s.3-2.9.8-4c.5-1.1,1.3-2,2.3-2.6,1-.6,2.1-.9,3.4-.9s1.9.2,2.7.5c.8.4,1.5.9,2.1,1.5s1,1.5,1.4,2.4c.3.9.5,1.9.5,3s-.3,2.8-.8,3.9c-.6,1.1-1.3,2-2.3,2.6s-2.2.9-3.5.9ZM187.9,336.3c1,0,2-.3,2.7-.8.8-.5,1.4-1.2,1.8-2.1.4-.9.7-2,.7-3.1s-.2-2.3-.7-3.2c-.4-.9-1-1.6-1.8-2.1s-1.7-.8-2.7-.8-1.9.3-2.7.8-1.4,1.2-1.8,2.1c-.4.9-.7,2-.7,3.2s.1,1.7.4,2.5c.3.7.6,1.4,1.1,1.9.5.5,1,.9,1.6,1.2.6.3,1.3.4,2.1.4Z"/>
          <path class="cls-4" d="M198.6,343.9v-20.9h1.7v4.7l-.4,2.5.5,2v11.6h-1.7ZM205.8,337.8c-1.3,0-2.4-.3-3.4-.9-1-.6-1.7-1.5-2.3-2.6-.5-1.1-.8-2.4-.8-4s.3-2.9.8-4c.5-1.1,1.3-2,2.3-2.6,1-.6,2.1-.9,3.4-.9s1.9.2,2.7.5c.8.4,1.5.9,2.1,1.5s1,1.5,1.4,2.4c.3.9.5,1.9.5,3s-.3,2.8-.8,3.9c-.6,1.1-1.3,2-2.3,2.6s-2.2.9-3.5.9ZM205.5,336.3c1,0,2-.3,2.7-.8.8-.5,1.4-1.2,1.8-2.1.4-.9.7-2,.7-3.1s-.2-2.3-.7-3.2c-.4-.9-1-1.6-1.8-2.1s-1.7-.8-2.7-.8-1.9.3-2.7.8-1.4,1.2-1.8,2.1c-.4.9-.7,2-.7,3.2s.1,1.7.4,2.5c.3.7.6,1.4,1.1,1.9.5.5,1,.9,1.6,1.2.6.3,1.3.4,2.1.4Z"/>
          <path class="cls-4" d="M216.1,337.6v-14.6h1.7v7.3h-.5c0-1.6.3-2.9.7-4,.4-1.1,1.1-1.9,1.9-2.5.8-.6,1.8-.9,3-.9h.4c.1,0,.3,0,.4,0v1.7c-.9,0-1.7,0-2.5.3-.7.2-1.4.5-1.9,1-.5.5-.9,1.2-1.2,2.1-.3.9-.4,2-.4,3.4v6.2h-1.7Z"/>
          <path class="cls-4" d="M232.9,337.8c-1.4,0-2.7-.3-3.8-1-1.1-.6-2-1.5-2.6-2.6-.6-1.1-.9-2.4-.9-3.9s.3-2.8.9-3.9c.6-1.1,1.5-2,2.6-2.6,1.1-.6,2.4-1,3.8-1s2.8.3,3.8,1c1.1.6,1.9,1.5,2.5,2.6.6,1.1.9,2.4.9,3.9s-.3,2.8-.9,3.9c-.6,1.1-1.4,2-2.5,2.6-1.1.6-2.4,1-3.8,1ZM232.9,336.3c1.1,0,2.1-.3,2.9-.8.8-.5,1.4-1.2,1.9-2.1.4-.9.7-1.9.7-3.1s-.1-1.6-.4-2.4c-.2-.7-.6-1.4-1.1-1.9s-1.1-1-1.7-1.2-1.4-.4-2.3-.4-2.1.3-2.9.8c-.8.5-1.5,1.2-1.9,2.1-.4.9-.7,1.9-.7,3.1s.2,2.2.7,3.1c.4.9,1.1,1.6,1.9,2.1.8.5,1.8.8,2.9.8Z"/>
          <path class="cls-4" d="M243.9,343.9v-20.9h1.7v4.7l-.4,2.5.5,2v11.6h-1.7ZM251.1,337.8c-1.3,0-2.4-.3-3.4-.9-1-.6-1.7-1.5-2.3-2.6-.5-1.1-.8-2.4-.8-4s.3-2.9.8-4c.5-1.1,1.3-2,2.3-2.6,1-.6,2.1-.9,3.4-.9s1.9.2,2.7.5c.8.4,1.5.9,2.1,1.5s1,1.5,1.4,2.4c.3.9.5,1.9.5,3s-.3,2.8-.8,3.9c-.6,1.1-1.3,2-2.3,2.6s-2.2.9-3.5.9ZM250.8,336.3c1,0,2-.3,2.7-.8.8-.5,1.4-1.2,1.8-2.1.4-.9.7-2,.7-3.1s-.2-2.3-.7-3.2c-.4-.9-1-1.6-1.8-2.1s-1.7-.8-2.7-.8-1.9.3-2.7.8-1.4,1.2-1.8,2.1c-.4.9-.7,2-.7,3.2s.1,1.7.4,2.5c.3.7.6,1.4,1.1,1.9.5.5,1,.9,1.6,1.2.6.3,1.3.4,2.1.4Z"/>
          <path class="cls-4" d="M261.4,337.6v-14.6h1.7v7.3h-.5c0-1.6.3-2.9.7-4,.4-1.1,1.1-1.9,1.9-2.5.8-.6,1.8-.9,3-.9h.4c.1,0,.3,0,.4,0v1.7c-.9,0-1.7,0-2.5.3-.7.2-1.4.5-1.9,1-.5.5-.9,1.2-1.2,2.1-.3.9-.4,2-.4,3.4v6.2h-1.7Z"/>
          <path class="cls-4" d="M271.7,319.3v-2.5h2.5v2.5h-2.5ZM272.1,337.6v-14.6h1.7v14.6h-1.7Z"/>
          <path class="cls-4" d="M284.2,337.8c-1,0-1.9-.2-2.7-.5-.8-.4-1.5-.9-2.1-1.5s-1-1.5-1.3-2.4c-.3-.9-.5-1.9-.5-3s.3-2.8.8-3.9c.6-1.1,1.3-2,2.3-2.6,1-.6,2.2-.9,3.5-.9s1.8.2,2.6.5c.8.3,1.5.9,2,1.5.6.7,1,1.4,1.3,2.4s.5,1.9.5,3.1-.3,2.9-.8,4c-.5,1.1-1.3,2-2.3,2.6-1,.6-2.1.9-3.4.9ZM284.5,336.3c1,0,1.9-.3,2.7-.8.8-.5,1.4-1.2,1.8-2.1.4-.9.6-2,.6-3.2s-.1-1.7-.4-2.5c-.2-.7-.6-1.4-1.1-1.9-.5-.5-1-.9-1.6-1.2-.6-.3-1.3-.4-2.1-.4s-2,.3-2.7.8-1.4,1.2-1.8,2.1c-.4.9-.6,2-.6,3.2s.2,2.2.6,3.1c.4.9,1,1.6,1.8,2.1.8.5,1.7.8,2.7.8ZM289.7,337.6v-6l.4-1.3-.4-2.2v-5h1.7v14.6h-1.7Z"/>
          <path class="cls-4" d="M294.1,324.4v-1.4h10.2v1.4h-10.2ZM301.5,337.9c-.8,0-1.4,0-2-.2-.6-.1-1-.4-1.4-.8-.4-.4-.6-.9-.8-1.5s-.3-1.4-.3-2.4v-15.5h1.7v15.5c0,.9.1,1.6.3,2.1.2.5.5.8.9,1,.4.2,1,.2,1.7.2s.8,0,1.3-.1c.5,0,.9-.3,1.3-.5v1.7c-.3.1-.6.2-.9.3-.3,0-.7.1-1,.2-.3,0-.6,0-.9,0Z"/>
          <path class="cls-4" d="M313.8,337.8c-1.5,0-2.7-.3-3.8-1s-1.9-1.5-2.5-2.6c-.6-1.1-.8-2.4-.8-3.9s.3-2.7.8-3.9,1.3-2,2.4-2.7c1-.6,2.3-1,3.7-1s2.6.3,3.6,1c1,.6,1.8,1.5,2.3,2.6.5,1.1.8,2.4.8,3.8v.6h-12.6v-1.4h11.4l-.4.6c0-1.1-.2-2.1-.6-3-.4-.9-1-1.6-1.8-2-.8-.5-1.7-.7-2.7-.7s-1.9.2-2.7.7c-.8.5-1.4,1.2-1.8,2-.4.9-.7,2-.7,3.2s.2,2.3.7,3.2c.4.9,1.1,1.6,1.9,2.1.8.5,1.7.7,2.8.7s1.5-.1,2.2-.4c.6-.3,1.2-.6,1.6-1.1.4-.5.7-1,.9-1.6h1.7c-.2.9-.5,1.6-1.1,2.3s-1.3,1.2-2.2,1.6c-.9.4-1.9.6-3,.6Z"/>
          <path class="cls-4" d="M46.7,372.6c-1.5,0-2.7-.3-3.8-1-1-.6-1.8-1.5-2.3-2.6-.5-1.1-.8-2.4-.8-3.9s.3-2.7.8-3.9c.5-1.1,1.3-2,2.3-2.7,1-.6,2.3-1,3.7-1s2.1.2,2.9.6c.9.4,1.6,1,2.2,1.7.6.7,1,1.5,1.1,2.5h-1.7c-.2-.7-.5-1.2-.9-1.7-.4-.5-.9-.9-1.6-1.1-.6-.3-1.3-.4-2.1-.4-1.1,0-2,.3-2.8.8s-1.3,1.2-1.7,2.1c-.4.9-.6,1.9-.6,3.1s.2,2.2.6,3.1.9,1.6,1.7,2.1c.7.5,1.7.8,2.8.8s2.2-.3,3-.9c.8-.6,1.3-1.5,1.6-2.7h1.7c-.2,1.1-.5,2-1.1,2.7-.6.8-1.3,1.3-2.1,1.7-.9.4-1.9.6-3,.6Z"/>
          <path class="cls-4" d="M56.4,372.4v-21.9h1.7v21.9h-1.7Z"/>
          <path class="cls-4" d="M69.2,372.6c-1.4,0-2.7-.3-3.8-1-1.1-.6-2-1.5-2.6-2.6-.6-1.1-.9-2.4-.9-3.9s.3-2.8.9-3.9c.6-1.1,1.5-2,2.6-2.6,1.1-.6,2.4-1,3.8-1s2.8.3,3.8,1c1.1.6,1.9,1.5,2.5,2.6.6,1.1.9,2.4.9,3.9s-.3,2.8-.9,3.9c-.6,1.1-1.4,2-2.5,2.6-1.1.6-2.4,1-3.8,1ZM69.2,371.1c1.1,0,2.1-.3,2.9-.8.8-.5,1.4-1.2,1.9-2.1.4-.9.7-1.9.7-3.1s-.1-1.6-.4-2.4c-.2-.7-.6-1.4-1.1-1.9s-1.1-1-1.7-1.2-1.4-.4-2.3-.4-2.1.3-2.9.8c-.8.5-1.5,1.2-1.9,2.1-.4.9-.7,1.9-.7,3.1s.2,2.2.7,3.1c.4.9,1.1,1.6,1.9,2.1.8.5,1.8.8,2.9.8Z"/>
          <path class="cls-4" d="M78.2,359.2v-1.4h10.2v1.4h-10.2ZM85.6,372.7c-.8,0-1.4,0-2-.2-.6-.1-1-.4-1.4-.8-.4-.4-.6-.9-.8-1.5s-.3-1.4-.3-2.4v-15.5h1.7v15.5c0,.9.1,1.6.3,2.1.2.5.5.8.9,1,.4.2,1,.2,1.7.2s.8,0,1.3-.1c.5,0,.9-.3,1.3-.5v1.7c-.3.1-.6.2-.9.3-.3,0-.7.1-1,.2-.3,0-.6,0-.9,0Z"/>
          <path class="cls-4" d="M91.7,372.4v-21.9h1.7v14.1h-.6c0-1.4.2-2.7.7-3.7.5-1,1.1-1.8,2-2.4.9-.6,1.9-.8,3.1-.8s1.7.1,2.3.4c.7.2,1.2.6,1.7,1.1.5.5.8,1.2,1,1.9.2.8.3,1.7.3,2.7v8.6h-1.7v-8c0-1,0-1.9-.3-2.5-.2-.7-.5-1.2-.8-1.6-.4-.4-.8-.7-1.3-.8-.5-.2-1.1-.2-1.8-.2s-1.6.2-2.3.7c-.7.4-1.3,1.2-1.7,2.1-.4,1-.6,2.2-.6,3.8v6.6h-1.7Z"/>
          <path class="cls-4" d="M108,354.1v-2.5h2.5v2.5h-2.5ZM108.3,372.4v-14.6h1.7v14.6h-1.7Z"/>
          <path class="cls-4" d="M114.8,372.4v-14.6h1.7v6.7h-.6c0-1.4.2-2.7.7-3.7.5-1,1.1-1.8,2-2.4.9-.6,1.9-.8,3.1-.8s1.7.1,2.3.4c.7.2,1.2.6,1.7,1.1.5.5.8,1.2,1,1.9.2.8.3,1.7.3,2.7v8.6h-1.7v-8c0-1,0-1.9-.3-2.5-.2-.7-.5-1.2-.8-1.6-.4-.4-.8-.7-1.3-.8-.5-.2-1.1-.2-1.8-.2s-1.6.2-2.3.7c-.7.4-1.3,1.2-1.7,2.1-.4,1-.6,2.2-.6,3.8v6.6h-1.7Z"/>
          <path class="cls-4" d="M137.1,372.6c-1,0-1.9-.2-2.7-.5-.8-.4-1.5-.9-2.1-1.5s-1-1.5-1.4-2.4c-.3-.9-.5-1.9-.5-3s.3-2.8.8-3.9c.6-1.1,1.3-2,2.3-2.6,1-.6,2.2-.9,3.5-.9s2.4.3,3.3.9c1,.6,1.7,1.5,2.2,2.6.5,1.1.8,2.4.8,4s-.3,2.9-.8,4c-.5,1.1-1.3,2-2.2,2.6-1,.6-2.1.9-3.3.9ZM137.8,378.9c-1.4,0-2.5-.2-3.4-.6s-1.6-.9-2.1-1.6c-.5-.7-.8-1.5-.9-2.4h1.7c.1.6.3,1.1.7,1.6.3.5.8.9,1.5,1.1s1.5.4,2.6.4,1.9-.2,2.6-.5c.7-.3,1.2-.8,1.6-1.5.3-.7.5-1.5.5-2.5v-5.5l.5-2.3-.4-2.2v-5h1.7v15c0,1.3-.3,2.4-.8,3.3-.5.9-1.2,1.6-2.2,2.1s-2.1.7-3.5.7ZM137.4,371.1c1,0,1.9-.3,2.7-.8.8-.5,1.4-1.2,1.8-2.1.4-.9.6-2,.6-3.2s-.1-1.7-.4-2.5c-.2-.7-.6-1.4-1.1-1.9-.5-.5-1-.9-1.6-1.2-.6-.3-1.3-.4-2.1-.4s-2,.3-2.7.8-1.4,1.2-1.8,2.1c-.4.9-.6,2-.6,3.2s.2,2.2.6,3.1c.4.9,1,1.6,1.8,2.1.8.5,1.7.8,2.7.8Z"/>
          <path class="cls-4" d="M161.3,372.6c-1,0-1.9-.2-2.7-.5-.8-.4-1.5-.9-2.1-1.5s-1-1.5-1.3-2.4c-.3-.9-.5-1.9-.5-3s.3-2.8.8-3.9c.6-1.1,1.3-2,2.3-2.6,1-.6,2.2-.9,3.5-.9s1.8.2,2.6.5c.8.3,1.5.9,2,1.5.6.7,1,1.4,1.3,2.4s.5,1.9.5,3.1-.3,2.9-.8,4c-.5,1.1-1.3,2-2.3,2.6-1,.6-2.1.9-3.4.9ZM161.6,371.1c1,0,1.9-.3,2.7-.8.8-.5,1.4-1.2,1.8-2.1.4-.9.6-2,.6-3.2s-.1-1.7-.4-2.5c-.2-.7-.6-1.4-1.1-1.9-.5-.5-1-.9-1.6-1.2-.6-.3-1.3-.4-2.1-.4s-2,.3-2.7.8-1.4,1.2-1.8,2.1c-.4.9-.6,2-.6,3.2s.2,2.2.6,3.1c.4.9,1,1.6,1.8,2.1.8.5,1.7.8,2.7.8ZM166.8,372.4v-6l.4-1.3-.4-2.2v-5h1.7v14.6h-1.7Z"/>
          <path class="cls-4" d="M173.2,372.4v-14.6h1.7v6.7h-.6c0-1.4.2-2.7.7-3.7.5-1,1.1-1.8,2-2.4.9-.6,1.9-.8,3.1-.8s1.7.1,2.3.4c.7.2,1.2.6,1.7,1.1.5.5.8,1.2,1,1.9.2.8.3,1.7.3,2.7v8.6h-1.7v-8c0-1,0-1.9-.3-2.5-.2-.7-.5-1.2-.8-1.6-.4-.4-.8-.7-1.3-.8-.5-.2-1.1-.2-1.8-.2s-1.6.2-2.3.7c-.7.4-1.3,1.2-1.7,2.1-.4,1-.6,2.2-.6,3.8v6.6h-1.7Z"/>
          <path class="cls-4" d="M195.5,372.6c-1,0-1.9-.2-2.7-.5-.8-.4-1.5-.9-2.1-1.5s-1-1.5-1.3-2.4c-.3-.9-.5-1.9-.5-3s.3-2.8.8-3.9c.6-1.1,1.3-2,2.3-2.6,1-.6,2.2-.9,3.5-.9s1.8.2,2.6.5c.8.3,1.5.9,2,1.5.6.7,1,1.4,1.3,2.4s.5,1.9.5,3.1-.3,2.9-.8,4c-.5,1.1-1.3,2-2.3,2.6-1,.6-2.1.9-3.4.9ZM195.8,371.1c1,0,1.9-.3,2.7-.8.8-.5,1.4-1.2,1.8-2.1.4-.9.6-2,.6-3.2s-.1-1.7-.4-2.5c-.2-.7-.6-1.4-1.1-1.9-.5-.5-1-.9-1.6-1.2-.6-.3-1.3-.4-2.1-.4s-2,.3-2.7.8-1.4,1.2-1.8,2.1c-.4.9-.6,2-.6,3.2s.2,2.2.6,3.1c.4.9,1,1.6,1.8,2.1.8.5,1.7.8,2.7.8ZM201,372.4v-5l.5-2.4-.5-1.9v-12.6h1.7v21.9h-1.7Z"/>
          <path class="cls-4" d="M218.6,372.6c-1.2,0-2.2-.2-3-.6-.8-.4-1.5-.9-1.9-1.5-.4-.7-.7-1.4-.7-2.3h1.7c0,.6.1,1.1.4,1.5.3.4.7.8,1.3,1,.6.3,1.3.4,2.1.4s2-.2,2.6-.7c.6-.5.9-1.1.9-1.9s-.2-1-.5-1.4c-.3-.3-.7-.6-1.2-.8-.5-.2-1.1-.4-1.7-.5-.6-.1-1.2-.3-1.9-.4-.6-.2-1.2-.4-1.7-.7-.5-.3-.9-.7-1.2-1.2-.3-.5-.5-1.1-.5-1.9,0-1.2.4-2.2,1.3-2.9.9-.7,2.1-1.1,3.6-1.1s1.9.2,2.7.5c.8.3,1.4.8,1.8,1.5.4.6.7,1.4.7,2.2h-1.7c0-.8-.3-1.5-1-2-.6-.5-1.5-.8-2.4-.8s-1.8.2-2.4.7c-.6.4-.9,1.1-.9,1.8s.2,1,.5,1.4c.3.3.7.6,1.2.8.5.2,1.1.3,1.7.4.6.1,1.2.3,1.9.4.6.2,1.2.4,1.7.7.5.3.9.7,1.2,1.2.3.5.5,1.2.5,2,0,1.3-.5,2.3-1.4,3-.9.8-2.2,1.1-3.8,1.1Z"/>
          <path class="cls-4" d="M233.8,372.6c-1.5,0-2.7-.3-3.8-1s-1.9-1.5-2.5-2.6c-.6-1.1-.8-2.4-.8-3.9s.3-2.7.8-3.9,1.3-2,2.4-2.7c1-.6,2.3-1,3.7-1s2.6.3,3.6,1c1,.6,1.8,1.5,2.3,2.6.5,1.1.8,2.4.8,3.8v.6h-12.6v-1.4h11.4l-.4.6c0-1.1-.2-2.1-.6-3-.4-.9-1-1.6-1.8-2-.8-.5-1.7-.7-2.7-.7s-1.9.2-2.7.7c-.8.5-1.4,1.2-1.8,2-.4.9-.7,2-.7,3.2s.2,2.3.7,3.2c.4.9,1.1,1.6,1.9,2.1.8.5,1.7.7,2.8.7s1.5-.1,2.2-.4c.6-.3,1.2-.6,1.6-1.1.4-.5.7-1,.9-1.6h1.7c-.2.9-.5,1.6-1.1,2.3s-1.3,1.2-2.2,1.6c-.9.4-1.9.6-3,.6Z"/>
          <path class="cls-4" d="M250,372.6c-1.5,0-2.7-.3-3.8-1-1-.6-1.8-1.5-2.3-2.6-.5-1.1-.8-2.4-.8-3.9s.3-2.7.8-3.9c.5-1.1,1.3-2,2.3-2.7,1-.6,2.3-1,3.7-1s2.1.2,2.9.6c.9.4,1.6,1,2.2,1.7.6.7,1,1.5,1.1,2.5h-1.7c-.2-.7-.5-1.2-.9-1.7-.4-.5-.9-.9-1.6-1.1-.6-.3-1.3-.4-2.1-.4-1.1,0-2,.3-2.8.8s-1.3,1.2-1.7,2.1c-.4.9-.6,1.9-.6,3.1s.2,2.2.6,3.1.9,1.6,1.7,2.1c.7.5,1.7.8,2.8.8s2.2-.3,3-.9c.8-.6,1.3-1.5,1.6-2.7h1.7c-.2,1.1-.5,2-1.1,2.7-.6.8-1.3,1.3-2.1,1.7-.9.4-1.9.6-3,.6Z"/>
          <path class="cls-4" d="M264.7,372.6c-.9,0-1.7-.1-2.3-.4-.7-.2-1.2-.6-1.7-1.1-.4-.5-.8-1.1-1-1.9-.2-.8-.3-1.7-.3-2.8v-8.6h1.7v8c0,1,0,1.9.3,2.6s.5,1.2.8,1.6c.4.4.8.7,1.3.8.5.2,1.1.2,1.8.2s1.6-.2,2.3-.7c.7-.4,1.2-1.2,1.7-2.1.4-1,.6-2.2.6-3.8v-6.6h1.7v14.6h-1.7v-6.7h.6c0,1.4-.2,2.7-.7,3.7s-1.1,1.8-2,2.4c-.9.6-1.9.8-3.1.8Z"/>
          <path class="cls-4" d="M276.2,372.4v-14.6h1.7v7.3h-.5c0-1.6.3-2.9.7-4,.4-1.1,1.1-1.9,1.9-2.5.8-.6,1.8-.9,3-.9h.4c.1,0,.3,0,.4,0v1.7c-.9,0-1.7,0-2.5.3-.7.2-1.4.5-1.9,1-.5.5-.9,1.2-1.2,2.1-.3.9-.4,2-.4,3.4v6.2h-1.7Z"/>
          <path class="cls-4" d="M292.8,372.6c-1.5,0-2.7-.3-3.8-1s-1.9-1.5-2.5-2.6c-.6-1.1-.8-2.4-.8-3.9s.3-2.7.8-3.9,1.3-2,2.4-2.7c1-.6,2.3-1,3.7-1s2.6.3,3.6,1c1,.6,1.8,1.5,2.3,2.6.5,1.1.8,2.4.8,3.8v.6h-12.6v-1.4h11.4l-.4.6c0-1.1-.2-2.1-.6-3-.4-.9-1-1.6-1.8-2-.8-.5-1.7-.7-2.7-.7s-1.9.2-2.7.7c-.8.5-1.4,1.2-1.8,2-.4.9-.7,2-.7,3.2s.2,2.3.7,3.2c.4.9,1.1,1.6,1.9,2.1.8.5,1.7.7,2.8.7s1.5-.1,2.2-.4c.6-.3,1.2-.6,1.6-1.1.4-.5.7-1,.9-1.6h1.7c-.2.9-.5,1.6-1.1,2.3s-1.3,1.2-2.2,1.6c-.9.4-1.9.6-3,.6Z"/>
          <path class="cls-4" d="M45.4,407.4c-1.2,0-2.2-.2-3-.6-.8-.4-1.5-.9-1.9-1.5-.4-.7-.7-1.4-.7-2.3h1.7c0,.6.1,1.1.4,1.5.3.4.7.8,1.3,1,.6.3,1.3.4,2.1.4s2-.2,2.6-.7c.6-.5.9-1.1.9-1.9s-.2-1-.5-1.4c-.3-.3-.7-.6-1.2-.8-.5-.2-1.1-.4-1.7-.5-.6-.1-1.2-.3-1.9-.4-.6-.2-1.2-.4-1.7-.7-.5-.3-.9-.7-1.2-1.2-.3-.5-.5-1.1-.5-1.9,0-1.2.4-2.2,1.3-2.9.9-.7,2.1-1.1,3.6-1.1s1.9.2,2.7.5c.8.3,1.4.8,1.8,1.5.4.6.7,1.4.7,2.2h-1.7c0-.8-.3-1.5-1-2-.6-.5-1.5-.8-2.4-.8s-1.8.2-2.4.7c-.6.4-.9,1.1-.9,1.8s.2,1,.5,1.4c.3.3.7.6,1.2.8.5.2,1.1.3,1.7.4.6.1,1.2.3,1.9.4.6.2,1.2.4,1.7.7.5.3.9.7,1.2,1.2.3.5.5,1.2.5,2,0,1.3-.5,2.3-1.4,3-.9.8-2.2,1.1-3.8,1.1Z"/>
          <path class="cls-4" d="M52.4,394v-1.4h10.2v1.4h-10.2ZM59.8,407.5c-.8,0-1.4,0-2-.2-.6-.1-1-.4-1.4-.8-.4-.4-.6-.9-.8-1.5s-.3-1.4-.3-2.4v-15.5h1.7v15.5c0,.9.1,1.6.3,2.1.2.5.5.8.9,1,.4.2,1,.2,1.7.2s.8,0,1.3-.1c.5,0,.9-.3,1.3-.5v1.7c-.3.1-.6.2-.9.3-.3,0-.7.1-1,.2-.3,0-.6,0-.9,0Z"/>
          <path class="cls-4" d="M72.3,407.4c-1.4,0-2.7-.3-3.8-1-1.1-.6-2-1.5-2.6-2.6-.6-1.1-.9-2.4-.9-3.9s.3-2.8.9-3.9c.6-1.1,1.5-2,2.6-2.6,1.1-.6,2.4-1,3.8-1s2.8.3,3.8,1c1.1.6,1.9,1.5,2.5,2.6.6,1.1.9,2.4.9,3.9s-.3,2.8-.9,3.9c-.6,1.1-1.4,2-2.5,2.6-1.1.6-2.4,1-3.8,1ZM72.3,405.9c1.1,0,2.1-.3,2.9-.8.8-.5,1.4-1.2,1.9-2.1.4-.9.7-1.9.7-3.1s-.1-1.6-.4-2.4c-.2-.7-.6-1.4-1.1-1.9s-1.1-1-1.7-1.2-1.4-.4-2.3-.4-2.1.3-2.9.8c-.8.5-1.5,1.2-1.9,2.1-.4.9-.7,1.9-.7,3.1s.2,2.2.7,3.1c.4.9,1.1,1.6,1.9,2.1.8.5,1.8.8,2.9.8Z"/>
          <path class="cls-4" d="M83.3,407.2v-14.6h1.7v7.3h-.5c0-1.6.3-2.9.7-4,.4-1.1,1.1-1.9,1.9-2.5.8-.6,1.8-.9,3-.9h.4c.1,0,.3,0,.4,0v1.7c-.9,0-1.7,0-2.5.3-.7.2-1.4.5-1.9,1-.5.5-.9,1.2-1.2,2.1-.3.9-.4,2-.4,3.4v6.2h-1.7Z"/>
          <path class="cls-4" d="M99.4,407.4c-1,0-1.9-.2-2.7-.5-.8-.4-1.5-.9-2.1-1.5s-1-1.5-1.3-2.4c-.3-.9-.5-1.9-.5-3s.3-2.8.8-3.9c.6-1.1,1.3-2,2.3-2.6,1-.6,2.2-.9,3.5-.9s1.8.2,2.6.5c.8.3,1.5.9,2,1.5.6.7,1,1.4,1.3,2.4s.5,1.9.5,3.1-.3,2.9-.8,4c-.5,1.1-1.3,2-2.3,2.6-1,.6-2.1.9-3.4.9ZM99.7,405.9c1,0,1.9-.3,2.7-.8.8-.5,1.4-1.2,1.8-2.1.4-.9.6-2,.6-3.2s-.1-1.7-.4-2.5c-.2-.7-.6-1.4-1.1-1.9-.5-.5-1-.9-1.6-1.2-.6-.3-1.3-.4-2.1-.4s-2,.3-2.7.8-1.4,1.2-1.8,2.1c-.4.9-.6,2-.6,3.2s.2,2.2.6,3.1c.4.9,1,1.6,1.8,2.1.8.5,1.7.8,2.7.8ZM104.9,407.2v-6l.4-1.3-.4-2.2v-5h1.7v14.6h-1.7Z"/>
          <path class="cls-4" d="M117,407.4c-1,0-1.9-.2-2.7-.5-.8-.4-1.5-.9-2.1-1.5s-1-1.5-1.4-2.4c-.3-.9-.5-1.9-.5-3s.3-2.8.8-3.9c.6-1.1,1.3-2,2.3-2.6,1-.6,2.2-.9,3.5-.9s2.4.3,3.3.9c1,.6,1.7,1.5,2.2,2.6.5,1.1.8,2.4.8,4s-.3,2.9-.8,4c-.5,1.1-1.3,2-2.2,2.6-1,.6-2.1.9-3.3.9ZM117.7,413.7c-1.4,0-2.5-.2-3.4-.6s-1.6-.9-2.1-1.6c-.5-.7-.8-1.5-.9-2.4h1.7c.1.6.3,1.1.7,1.6.3.5.8.9,1.5,1.1s1.5.4,2.6.4,1.9-.2,2.6-.5c.7-.3,1.2-.8,1.6-1.5.3-.7.5-1.5.5-2.5v-5.5l.5-2.3-.4-2.2v-5h1.7v15c0,1.3-.3,2.4-.8,3.3-.5.9-1.2,1.6-2.2,2.1s-2.1.7-3.5.7ZM117.2,405.9c1,0,1.9-.3,2.7-.8.8-.5,1.4-1.2,1.8-2.1.4-.9.6-2,.6-3.2s-.1-1.7-.4-2.5c-.2-.7-.6-1.4-1.1-1.9-.5-.5-1-.9-1.6-1.2-.6-.3-1.3-.4-2.1-.4s-2,.3-2.7.8-1.4,1.2-1.8,2.1c-.4.9-.6,2-.6,3.2s.2,2.2.6,3.1c.4.9,1,1.6,1.8,2.1.8.5,1.7.8,2.7.8Z"/>
          <path class="cls-4" d="M135,407.4c-1.5,0-2.7-.3-3.8-1s-1.9-1.5-2.5-2.6c-.6-1.1-.8-2.4-.8-3.9s.3-2.7.8-3.9,1.3-2,2.4-2.7c1-.6,2.3-1,3.7-1s2.6.3,3.6,1c1,.6,1.8,1.5,2.3,2.6.5,1.1.8,2.4.8,3.8v.6h-12.6v-1.4h11.4l-.4.6c0-1.1-.2-2.1-.6-3-.4-.9-1-1.6-1.8-2-.8-.5-1.7-.7-2.7-.7s-1.9.2-2.7.7c-.8.5-1.4,1.2-1.8,2-.4.9-.7,2-.7,3.2s.2,2.3.7,3.2c.4.9,1.1,1.6,1.9,2.1.8.5,1.7.7,2.8.7s1.5-.1,2.2-.4c.6-.3,1.2-.6,1.6-1.1.4-.5.7-1,.9-1.6h1.7c-.2.9-.5,1.6-1.1,2.3s-1.3,1.2-2.2,1.6c-.9.4-1.9.6-3,.6Z"/>
          <path class="cls-4" d="M150.1,394v-1.4h9.3v1.4h-9.3ZM152.8,407.2v-16.7c0-1.3.2-2.3.5-3.1.3-.8.9-1.4,1.5-1.8.7-.4,1.5-.6,2.6-.6s.6,0,.8,0c.3,0,.5,0,.7.1.2,0,.4.1.5.2v1.6c-.3-.2-.6-.3-1-.4-.4,0-.7-.1-1.1-.1-1,0-1.7.3-2.2,1-.5.7-.7,1.7-.7,3v16.6h-1.7Z"/>
          <path class="cls-4" d="M168,407.4c-1.4,0-2.7-.3-3.8-1-1.1-.6-2-1.5-2.6-2.6-.6-1.1-.9-2.4-.9-3.9s.3-2.8.9-3.9c.6-1.1,1.5-2,2.6-2.6,1.1-.6,2.4-1,3.8-1s2.8.3,3.8,1c1.1.6,1.9,1.5,2.5,2.6.6,1.1.9,2.4.9,3.9s-.3,2.8-.9,3.9c-.6,1.1-1.4,2-2.5,2.6-1.1.6-2.4,1-3.8,1ZM168,405.9c1.1,0,2.1-.3,2.9-.8.8-.5,1.4-1.2,1.9-2.1.4-.9.7-1.9.7-3.1s-.1-1.6-.4-2.4c-.2-.7-.6-1.4-1.1-1.9s-1.1-1-1.7-1.2-1.4-.4-2.3-.4-2.1.3-2.9.8c-.8.5-1.5,1.2-1.9,2.1-.4.9-.7,1.9-.7,3.1s.2,2.2.7,3.1c.4.9,1.1,1.6,1.9,2.1.8.5,1.8.8,2.9.8Z"/>
          <path class="cls-4" d="M179,407.2v-14.6h1.7v7.3h-.5c0-1.6.3-2.9.7-4,.4-1.1,1.1-1.9,1.9-2.5.8-.6,1.8-.9,3-.9h.4c.1,0,.3,0,.4,0v1.7c-.9,0-1.7,0-2.5.3-.7.2-1.4.5-1.9,1-.5.5-.9,1.2-1.2,2.1-.3.9-.4,2-.4,3.4v6.2h-1.7Z"/>
          <path class="cls-4" d="M200.4,407.3l-6.2-14.6h1.9l5,12.1,5-12.1h1.9l-6.3,14.6h-1.2Z"/>
          <path class="cls-4" d="M216.1,407.4c-1,0-1.9-.2-2.7-.5-.8-.4-1.5-.9-2.1-1.5s-1-1.5-1.3-2.4c-.3-.9-.5-1.9-.5-3s.3-2.8.8-3.9c.6-1.1,1.3-2,2.3-2.6,1-.6,2.2-.9,3.5-.9s1.8.2,2.6.5c.8.3,1.5.9,2,1.5.6.7,1,1.4,1.3,2.4s.5,1.9.5,3.1-.3,2.9-.8,4c-.5,1.1-1.3,2-2.3,2.6-1,.6-2.1.9-3.4.9ZM216.4,405.9c1,0,1.9-.3,2.7-.8.8-.5,1.4-1.2,1.8-2.1.4-.9.6-2,.6-3.2s-.1-1.7-.4-2.5c-.2-.7-.6-1.4-1.1-1.9-.5-.5-1-.9-1.6-1.2-.6-.3-1.3-.4-2.1-.4s-2,.3-2.7.8-1.4,1.2-1.8,2.1c-.4.9-.6,2-.6,3.2s.2,2.2.6,3.1c.4.9,1,1.6,1.8,2.1.8.5,1.7.8,2.7.8ZM221.6,407.2v-6l.4-1.3-.4-2.2v-5h1.7v14.6h-1.7Z"/>
          <path class="cls-4" d="M228,407.2v-21.9h1.7v21.9h-1.7Z"/>
          <path class="cls-4" d="M239.4,407.4c-.9,0-1.7-.1-2.3-.4-.7-.2-1.2-.6-1.7-1.1-.4-.5-.8-1.1-1-1.9-.2-.8-.3-1.7-.3-2.8v-8.6h1.7v8c0,1,0,1.9.3,2.6s.5,1.2.8,1.6c.4.4.8.7,1.3.8.5.2,1.1.2,1.8.2s1.6-.2,2.3-.7c.7-.4,1.2-1.2,1.7-2.1.4-1,.6-2.2.6-3.8v-6.6h1.7v14.6h-1.7v-6.7h.6c0,1.4-.2,2.7-.7,3.7s-1.1,1.8-2,2.4c-.9.6-1.9.8-3.1.8Z"/>
          <path class="cls-4" d="M256.7,407.4c-1,0-1.9-.2-2.7-.5-.8-.4-1.5-.9-2.1-1.5s-1-1.5-1.3-2.4c-.3-.9-.5-1.9-.5-3s.3-2.8.8-3.9c.6-1.1,1.3-2,2.3-2.6,1-.6,2.2-.9,3.5-.9s1.8.2,2.6.5c.8.3,1.5.9,2,1.5.6.7,1,1.4,1.3,2.4s.5,1.9.5,3.1-.3,2.9-.8,4c-.5,1.1-1.3,2-2.3,2.6-1,.6-2.1.9-3.4.9ZM257,405.9c1,0,1.9-.3,2.7-.8.8-.5,1.4-1.2,1.8-2.1.4-.9.6-2,.6-3.2s-.1-1.7-.4-2.5c-.2-.7-.6-1.4-1.1-1.9-.5-.5-1-.9-1.6-1.2-.6-.3-1.3-.4-2.1-.4s-2,.3-2.7.8-1.4,1.2-1.8,2.1c-.4.9-.6,2-.6,3.2s.2,2.2.6,3.1c.4.9,1,1.6,1.8,2.1.8.5,1.7.8,2.7.8ZM262.1,407.2v-6l.4-1.3-.4-2.2v-5h1.7v14.6h-1.7Z"/>
          <path class="cls-4" d="M268.5,407.2v-21.9h1.7v12.6l-.6,2,.5,2.4v4.9h-1.7ZM275.8,407.4c-1,0-1.9-.2-2.7-.5-.8-.3-1.5-.9-2-1.5-.6-.7-1-1.4-1.3-2.4-.3-.9-.5-1.9-.5-3.1s.3-2.9.8-4c.5-1.1,1.3-2,2.3-2.6,1-.6,2.1-.9,3.4-.9s1.9.2,2.7.5c.8.4,1.5.9,2.1,1.5s1,1.5,1.4,2.4c.3.9.5,1.9.5,3s-.3,2.8-.8,3.9c-.6,1.1-1.3,2-2.3,2.6-1,.6-2.2.9-3.5.9ZM275.5,405.9c1,0,2-.3,2.7-.8.8-.5,1.4-1.2,1.8-2.1.4-.9.7-2,.7-3.1s-.2-2.3-.7-3.2c-.4-.9-1-1.6-1.8-2.1s-1.7-.8-2.7-.8-1.9.3-2.7.8-1.4,1.2-1.8,2.1c-.4.9-.7,2-.7,3.2s.1,1.7.4,2.5c.3.7.6,1.4,1.1,1.9.5.5,1,.9,1.6,1.2.6.3,1.3.4,2.1.4Z"/>
          <path class="cls-4" d="M286.1,407.2v-21.9h1.7v21.9h-1.7Z"/>
          <path class="cls-4" d="M298.7,407.4c-1.5,0-2.7-.3-3.8-1s-1.9-1.5-2.5-2.6c-.6-1.1-.8-2.4-.8-3.9s.3-2.7.8-3.9,1.3-2,2.4-2.7c1-.6,2.3-1,3.7-1s2.6.3,3.6,1c1,.6,1.8,1.5,2.3,2.6.5,1.1.8,2.4.8,3.8v.6h-12.6v-1.4h11.4l-.4.6c0-1.1-.2-2.1-.6-3-.4-.9-1-1.6-1.8-2-.8-.5-1.7-.7-2.7-.7s-1.9.2-2.7.7c-.8.5-1.4,1.2-1.8,2-.4.9-.7,2-.7,3.2s.2,2.3.7,3.2c.4.9,1.1,1.6,1.9,2.1.8.5,1.7.7,2.8.7s1.5-.1,2.2-.4c.6-.3,1.2-.6,1.6-1.1.4-.5.7-1,.9-1.6h1.7c-.2.9-.5,1.6-1.1,2.3s-1.3,1.2-2.2,1.6c-.9.4-1.9.6-3,.6Z"/>
          <path class="cls-4" d="M313.6,407.4c-1.2,0-2.2-.2-3-.6-.8-.4-1.5-.9-1.9-1.5-.4-.7-.7-1.4-.7-2.3h1.7c0,.6.1,1.1.4,1.5.3.4.7.8,1.3,1,.6.3,1.3.4,2.1.4s2-.2,2.6-.7c.6-.5.9-1.1.9-1.9s-.2-1-.5-1.4c-.3-.3-.7-.6-1.2-.8-.5-.2-1.1-.4-1.7-.5-.6-.1-1.2-.3-1.9-.4-.6-.2-1.2-.4-1.7-.7-.5-.3-.9-.7-1.2-1.2-.3-.5-.5-1.1-.5-1.9,0-1.2.4-2.2,1.3-2.9.9-.7,2.1-1.1,3.6-1.1s1.9.2,2.7.5c.8.3,1.4.8,1.8,1.5.4.6.7,1.4.7,2.2h-1.7c0-.8-.3-1.5-1-2-.6-.5-1.5-.8-2.4-.8s-1.8.2-2.4.7c-.6.4-.9,1.1-.9,1.8s.2,1,.5,1.4c.3.3.7.6,1.2.8.5.2,1.1.3,1.7.4.6.1,1.2.3,1.9.4.6.2,1.2.4,1.7.7.5.3.9.7,1.2,1.2.3.5.5,1.2.5,2,0,1.3-.5,2.3-1.4,3-.9.8-2.2,1.1-3.8,1.1Z"/>
          <path class="cls-4" d="M322.1,407.2v-2.5h2.4v2.5h-2.4Z"/>
        </g>
      </g>
    </g>
  </g>
</svg>