<?xml version="1.0" encoding="UTF-8"?>
<svg xmlns="http://www.w3.org/2000/svg" version="1.1" viewBox="0 0 841.9 595.3">
  <defs>
    <style>
      .cls-1 {
        fill: #f8f6f3;
      }

      .cls-2 {
        fill: none;
        stroke: #004647;
        stroke-miterlimit: 10;
        stroke-width: 4px;
      }

      .cls-3 {
        font-size: 50px;
      }

      .cls-3, .cls-4 {
        font-family: SofiaProSoftBold, 'Sofia Pro Soft';
      }

      .cls-3, .cls-4, .cls-5 {
        fill: #004647;
      }

      .cls-4 {
        font-size: 34px;
      }
    </style>
  </defs>
  <!-- Generator: Adobe Illustrator 28.7.2, SVG Export Plug-In . SVG Version: 1.2.0 Build 154)  -->
  <g>
    <g id="Layer_1">
      <path class="cls-5" d="M313.8,87.6h-2.9v-8c0-7.4-6-13.4-13.4-13.4h-8c-7.4,0-13.4,6-13.4,13.4v8h-2.9c-5.9,0-10.7,4.8-10.7,10.7v48.3c0,5.4,4.1,9.9,9.3,10.6-.1.5-.2,1-.2,1.4,0,3.7,3,6.7,6.7,6.7s6.7-3,6.7-6.7,0-.9-.1-1.3h17.3c0,.4-.1.9-.1,1.3,0,3.7,3,6.7,6.7,6.7s6.7-3,6.7-6.7,0-1-.2-1.4c5.2-.7,9.3-5.2,9.3-10.6v-48.3c0-5.9-4.8-10.7-10.7-10.7ZM281.4,79.6c0-4.4,3.6-8,8-8h8c4.4,0,8,3.6,8,8v8h-24.1v-8ZM281.4,158.7c0,1.7-1.4,3.1-3.1,3.1s-3.1-1.4-3.1-3.1.1-.9.3-1.3h5.6c.2.4.3.9.3,1.3ZM308.6,161.8c-1.7,0-3.1-1.4-3.1-3.1s.1-.9.3-1.3h5.6c.2.4.3.9.3,1.3,0,1.7-1.4,3.1-3.1,3.1Z"/>
      <rect class="cls-1" x="286" y="132.8" width="15.2" height="8" rx="4" ry="4"/>
      <path class="cls-2" d="M328.3,115.8h286.1c6.7,0,12.1,5.4,12.1,12.1v386.9c0,6.7-5.4,12.1-12.1,12.1H227.6c-6.7,0-12.1-5.4-12.1-12.1V127.9c0-6.7,5.4-12.1,12.1-12.1h29.6"/>
      <text class="cls-3" transform="translate(359.9 185.2)"><tspan x="0" y="0">LUGGAGE</tspan></text>
      <text class="cls-4" transform="translate(255.2 259.3)"><tspan x="0" y="0">It’s important to pack </tspan><tspan x="49.7" y="40.8">light yet smart, </tspan><tspan x="25.7" y="81.6">ensuring you have </tspan><tspan x="85.2" y="122.4">essentials, </tspan><tspan x="-.6" y="163.2">weather-appropriate </tspan><tspan x="9.5" y="204">clothing, and secure </tspan><tspan x="-4.1" y="244.8">storage for valuables.</tspan></text>
    </g>
  </g>
</svg>