<?xml version="1.0" encoding="UTF-8"?>
<svg xmlns="http://www.w3.org/2000/svg" version="1.1" viewBox="0 0 415 462.7">
  <defs>
    <style>
      .cls-1 {
        fill: #f8f6f3;
      }

      .cls-2 {
        isolation: isolate;
      }

      .cls-3 {
        fill: #004647;
      }

      .cls-4 {
        fill: #004647;
      }
    </style>
  </defs>
  <!-- Generator: Adobe Illustrator 28.7.2, SVG Export Plug-In . SVG Version: 1.2.0 Build 154)  -->
  <g>
    <g id="Layer_1">
      <g id="Layer_1-2" data-name="Layer_1">
        <g>
          <path class="cls-1" d="M58.2,96.1c-10.9,0-20.2-6.2-20.2-13.4s9.2-13.4,20.2-13.4,20.2,6.2,20.2,13.4-9.2,13.4-20.2,13.4Z"/>
          <path class="cls-3" d="M58.2,72.3c8.1,0,17.1,4.2,17.1,10.3s-9,10.3-17.1,10.3-17.1-4.2-17.1-10.3,9-10.3,17.1-10.3M58.2,66.1c-12.8,0-23.3,7.4-23.3,16.5s10.4,16.5,23.3,16.5,23.3-7.4,23.3-16.5-10.4-16.5-23.3-16.5h0Z"/>
        </g>
        <g>
          <path class="cls-1" d="M58.2,79.6c-10.9,0-20.2-6.2-20.2-13.4s9.2-13.4,20.2-13.4,20.2,6.2,20.2,13.4-9.2,13.4-20.2,13.4Z"/>
          <path class="cls-3" d="M58.2,55.8c8.1,0,17.1,4.2,17.1,10.3s-9,10.3-17.1,10.3-17.1-4.2-17.1-10.3,9-10.3,17.1-10.3M58.2,49.6c-12.8,0-23.3,7.4-23.3,16.5s10.4,16.5,23.3,16.5,23.3-7.4,23.3-16.5-10.4-16.5-23.3-16.5h0Z"/>
        </g>
        <g>
          <path class="cls-1" d="M58.2,63c-10.9,0-20.2-6.2-20.2-13.4s9.2-13.4,20.2-13.4,20.2,6.2,20.2,13.4-9.2,13.4-20.2,13.4Z"/>
          <path class="cls-3" d="M58.2,39.3c8.1,0,17.1,4.2,17.1,10.3s-9,10.3-17.1,10.3-17.1-4.2-17.1-10.3,9-10.3,17.1-10.3M58.2,33.1c-12.8,0-23.3,7.4-23.3,16.5s10.4,16.5,23.3,16.5,23.3-7.4,23.3-16.5-10.4-16.5-23.3-16.5h0Z"/>
        </g>
        <g>
          <path class="cls-1" d="M58.2,46.5c-10.9,0-20.2-6.2-20.2-13.4s9.2-13.4,20.2-13.4,20.2,6.2,20.2,13.4-9.2,13.4-20.2,13.4Z"/>
          <path class="cls-3" d="M58.2,22.7c8.1,0,17.1,4.2,17.1,10.3s-9,10.3-17.1,10.3-17.1-4.2-17.1-10.3,9-10.3,17.1-10.3M58.2,16.5c-12.8,0-23.3,7.4-23.3,16.5s10.4,16.5,23.3,16.5,23.3-7.4,23.3-16.5-10.4-16.5-23.3-16.5h0Z"/>
        </g>
        <g>
          <path class="cls-1" d="M58.2,30c-10.9,0-20.2-6.2-20.2-13.4S47.2,3.2,58.2,3.2s20.2,6.2,20.2,13.4-9.2,13.4-20.2,13.4Z"/>
          <path class="cls-3" d="M58.2,6.2c8.1,0,17.1,4.2,17.1,10.3s-9,10.3-17.1,10.3-17.1-4.2-17.1-10.3,9-10.3,17.1-10.3M58.2,0c-12.8,0-23.3,7.4-23.3,16.5s10.4,16.5,23.3,16.5,23.3-7.4,23.3-16.5S71.1,0,58.2,0h0Z"/>
        </g>
        <g>
          <path class="cls-1" d="M101.6,96.1c-10.9,0-20.2-6.2-20.2-13.4s9.2-13.4,20.2-13.4,20.2,6.2,20.2,13.4-9.2,13.4-20.2,13.4Z"/>
          <path class="cls-3" d="M101.6,72.3c8.1,0,17.1,4.2,17.1,10.3s-9,10.3-17.1,10.3-17.1-4.2-17.1-10.3,9-10.3,17.1-10.3M101.6,66.1c-12.8,0-23.3,7.4-23.3,16.5s10.4,16.5,23.3,16.5,23.3-7.4,23.3-16.5-10.4-16.5-23.3-16.5h0Z"/>
        </g>
        <g>
          <path class="cls-1" d="M101.6,79.6c-10.9,0-20.2-6.2-20.2-13.4s9.2-13.4,20.2-13.4,20.2,6.2,20.2,13.4-9.2,13.4-20.2,13.4Z"/>
          <path class="cls-3" d="M101.6,55.8c8.1,0,17.1,4.2,17.1,10.3s-9,10.3-17.1,10.3-17.1-4.2-17.1-10.3,9-10.3,17.1-10.3M101.6,49.6c-12.8,0-23.3,7.4-23.3,16.5s10.4,16.5,23.3,16.5,23.3-7.4,23.3-16.5-10.4-16.5-23.3-16.5h0Z"/>
        </g>
        <g>
          <path class="cls-1" d="M101.6,63c-10.9,0-20.2-6.2-20.2-13.4s9.2-13.4,20.2-13.4,20.2,6.2,20.2,13.4-9.2,13.4-20.2,13.4Z"/>
          <path class="cls-3" d="M101.6,39.3c8.1,0,17.1,4.2,17.1,10.3s-9,10.3-17.1,10.3-17.1-4.2-17.1-10.3,9-10.3,17.1-10.3M101.6,33.1c-12.8,0-23.3,7.4-23.3,16.5s10.4,16.5,23.3,16.5,23.3-7.4,23.3-16.5-10.4-16.5-23.3-16.5h0Z"/>
        </g>
        <path class="cls-3" d="M400.9,462.7H14.1c-7.8,0-14.1-6.3-14.1-14.1V61.7c0-7.8,6.3-14.1,14.1-14.1h15v4h-15c-5.6,0-10.1,4.5-10.1,10.1v386.9c0,5.6,4.5,10.1,10.1,10.1h386.8c5.6,0,10.1-4.5,10.1-10.1V61.7c0-5.6-4.5-10.1-10.1-10.1H129.6v-4h271.3c7.8,0,14.1,6.3,14.1,14.1v386.9c0,7.8-6.3,14.1-14.1,14.1Z"/>
        <g class="cls-2">
          <g class="cls-2">
            <path class="cls-3" d="M37.4,167l1-25.9h6.1l6.5,22.4h-1.6c0,0,6.1-22.4,6.1-22.4h6l1.1,25.9h-4.5l-1-22.2.7.7-6,21.5h-3.8l-6.2-21.5.7-.6-.9,22.1h-4.3Z"/>
            <path class="cls-3" d="M75.9,167.3c-1.6,0-3.1-.3-4.4-.9-1.3-.6-2.4-1.5-3.3-2.6-.9-1.2-1.6-2.6-2.1-4.2-.5-1.7-.7-3.5-.7-5.6s.4-5.2,1.3-7.1c.8-2,2-3.5,3.6-4.5,1.6-1,3.4-1.6,5.6-1.6s3.1.3,4.4.9,2.4,1.5,3.3,2.6c.9,1.1,1.6,2.5,2.1,4.2.5,1.6.7,3.5.7,5.6s-.4,5.2-1.3,7.2c-.8,2-2,3.5-3.6,4.6-1.6,1.1-3.4,1.6-5.6,1.6ZM75.9,163.3c1.2,0,2.3-.4,3.1-1.1.9-.7,1.5-1.8,1.9-3.2s.7-3.1.7-5.1-.1-2.8-.4-3.9c-.3-1.1-.6-2.1-1.1-2.9-.5-.8-1.1-1.4-1.8-1.8-.7-.4-1.5-.6-2.4-.6s-2.2.4-3.1,1.1c-.8.7-1.5,1.7-1.9,3.1-.4,1.4-.7,3-.7,5s.1,2.8.4,4c.2,1.2.6,2.1,1.1,2.9.5.8,1.1,1.4,1.8,1.8s1.5.6,2.4.6Z"/>
            <path class="cls-3" d="M89.9,167v-25.9h4.5l9.8,19-1,.3v-19.3h4.3v25.9h-4.2l-10.1-20,.9-.3v20.3h-4.3Z"/>
            <path class="cls-3" d="M112,167v-25.9h13.5v3.9h-9v7.1h8.1v3.6h-8.1v7.4h9v3.9h-13.5Z"/>
            <path class="cls-3" d="M134.7,157.6l-7.3-16.5h5.1l4.4,11.6,4.6-11.6h4.8l-7.4,16.5h-4.3ZM134.6,167v-12h4.7v12h-4.7Z"/>
          </g>
        </g>
        <g class="cls-2">
          <g>
            <path class="cls-4" d="M37.6,236.3v-20.3h1.8v20.3h-1.8Z"/>
            <path class="cls-4" d="M42.4,223.1v-1.4h10.2v1.4h-10.2ZM49.8,236.6c-.8,0-1.4,0-2-.2-.6-.1-1-.4-1.4-.8-.4-.4-.6-.9-.8-1.5-.2-.6-.3-1.4-.3-2.4v-15.5h1.7v15.5c0,.9.1,1.6.3,2.1.2.5.5.8.9,1,.4.2,1,.2,1.7.2s.8,0,1.3-.1c.5,0,.9-.3,1.3-.5v1.7c-.3.1-.6.2-.9.3-.3,0-.7.1-1,.2-.3,0-.6,0-.9,0Z"/>
            <path class="cls-4" d="M62.2,218v-2.5h2.5v2.5h-2.5ZM62.6,236.3v-14.6h1.7v14.6h-1.7Z"/>
            <path class="cls-4" d="M73.6,236.5c-1.2,0-2.2-.2-3-.6-.8-.4-1.5-.9-1.9-1.5-.4-.7-.7-1.4-.7-2.3h1.7c0,.6.1,1.1.4,1.5.3.4.7.8,1.3,1,.6.3,1.3.4,2.1.4s2-.2,2.6-.7c.6-.5.9-1.1.9-1.9s-.2-1-.5-1.4c-.3-.3-.7-.6-1.2-.8-.5-.2-1.1-.4-1.7-.5-.6-.1-1.2-.3-1.9-.4s-1.2-.4-1.7-.7c-.5-.3-.9-.7-1.2-1.2-.3-.5-.5-1.1-.5-1.9,0-1.2.4-2.2,1.3-2.9.9-.7,2.1-1.1,3.6-1.1s1.9.2,2.7.5c.8.3,1.4.8,1.8,1.5.4.6.7,1.4.7,2.2h-1.7c0-.8-.3-1.5-1-2-.6-.5-1.5-.8-2.4-.8s-1.8.2-2.4.7c-.6.4-.9,1.1-.9,1.8s.2,1,.5,1.4c.3.3.7.6,1.2.8.5.2,1.1.3,1.7.4.6.1,1.2.3,1.9.4.6.2,1.2.4,1.7.7.5.3.9.7,1.2,1.2s.5,1.2.5,2c0,1.3-.5,2.3-1.4,3-.9.8-2.2,1.1-3.8,1.1Z"/>
            <path class="cls-4" d="M88.9,218v-2.5h2.5v2.5h-2.5ZM89.3,236.3v-14.6h1.7v14.6h-1.7Z"/>
            <path class="cls-4" d="M95.7,236.3v-14.6h1.7v6.7h-.6c0-1.4.2-2.7.6-3.7.4-1,1-1.8,1.8-2.4.8-.6,1.7-.8,2.8-.8s1.5.1,2.1.4c.6.2,1.1.6,1.6,1.1.4.5.7,1.1,1,1.9.2.8.3,1.6.3,2.7h-.9c.1-1.3.4-2.4.9-3.3.5-.9,1.1-1.6,2-2,.8-.5,1.7-.7,2.7-.7s1.6.1,2.2.4c.6.3,1.2.6,1.6,1.1s.8,1.2,1,1.9c.2.8.3,1.7.3,2.7v8.6h-1.7v-8c0-1,0-1.9-.3-2.6-.2-.7-.4-1.2-.8-1.6-.3-.4-.7-.7-1.2-.8-.5-.2-1-.2-1.5-.2s-1.4.2-2.1.7c-.6.4-1.2,1.2-1.6,2.1-.4,1-.6,2.2-.6,3.8v6.6h-1.7v-8c0-1,0-1.9-.3-2.5-.2-.7-.4-1.2-.7-1.6-.3-.4-.7-.7-1.2-.8-.5-.2-1-.2-1.5-.2s-1.4.2-2.1.7c-.6.4-1.2,1.2-1.6,2.1-.4,1-.6,2.2-.6,3.8v6.6h-1.7Z"/>
            <path class="cls-4" d="M121.2,242.6v-20.9h1.7v4.7l-.4,2.5.5,2v11.6h-1.7ZM128.5,236.5c-1.3,0-2.4-.3-3.4-.9-1-.6-1.7-1.5-2.3-2.6-.5-1.1-.8-2.4-.8-4s.3-2.9.8-4c.5-1.1,1.3-2,2.3-2.6,1-.6,2.1-.9,3.4-.9s1.9.2,2.7.5c.8.4,1.5.9,2.1,1.5s1,1.5,1.4,2.4c.3.9.5,1.9.5,3s-.3,2.8-.8,3.9c-.6,1.1-1.3,2-2.3,2.6-1,.6-2.2.9-3.5.9ZM128.1,235.1c1,0,2-.3,2.7-.8.8-.5,1.4-1.2,1.8-2.1.4-.9.7-2,.7-3.1s-.2-2.3-.7-3.2c-.4-.9-1-1.6-1.8-2.1-.8-.5-1.7-.8-2.7-.8s-1.9.3-2.7.8c-.8.5-1.4,1.2-1.8,2.1-.4.9-.7,2-.7,3.2s.1,1.7.4,2.5c.3.7.6,1.4,1.1,1.9.5.5,1,.9,1.6,1.2.6.3,1.3.4,2.1.4Z"/>
            <path class="cls-4" d="M145.1,236.5c-1.4,0-2.7-.3-3.8-1-1.1-.6-2-1.5-2.6-2.6-.6-1.1-.9-2.4-.9-3.9s.3-2.8.9-3.9c.6-1.1,1.5-2,2.6-2.6,1.1-.6,2.4-1,3.8-1s2.8.3,3.8,1c1.1.6,1.9,1.5,2.5,2.6.6,1.1.9,2.4.9,3.9s-.3,2.8-.9,3.9c-.6,1.1-1.4,2-2.5,2.6-1.1.6-2.4,1-3.8,1ZM145.1,235c1.1,0,2.1-.3,2.9-.8.8-.5,1.4-1.2,1.9-2.1.4-.9.7-1.9.7-3.1s-.1-1.6-.4-2.4c-.2-.7-.6-1.4-1.1-1.9-.5-.5-1.1-1-1.7-1.2s-1.4-.4-2.3-.4-2.1.3-2.9.8c-.8.5-1.5,1.2-1.9,2.1-.4.9-.7,1.9-.7,3.1s.2,2.2.7,3.1c.4.9,1.1,1.6,1.9,2.1.8.5,1.8.8,2.9.8Z"/>
            <path class="cls-4" d="M156.1,236.3v-14.6h1.7v7.3h-.5c0-1.6.3-2.9.7-4,.4-1.1,1.1-1.9,1.9-2.5.8-.6,1.8-.9,3-.9h.4c.1,0,.3,0,.4,0v1.7c-.9,0-1.7,0-2.5.3-.7.2-1.4.5-1.9,1-.5.5-.9,1.2-1.2,2.1-.3.9-.4,2-.4,3.4v6.2h-1.7Z"/>
            <path class="cls-4" d="M164.8,223.1v-1.4h10.2v1.4h-10.2ZM172.2,236.6c-.8,0-1.4,0-2-.2-.6-.1-1-.4-1.4-.8-.4-.4-.6-.9-.8-1.5-.2-.6-.3-1.4-.3-2.4v-15.5h1.7v15.5c0,.9.1,1.6.3,2.1.2.5.5.8.9,1,.4.2,1,.2,1.7.2s.8,0,1.3-.1c.5,0,.9-.3,1.3-.5v1.7c-.3.1-.6.2-.9.3-.3,0-.7.1-1,.2-.3,0-.6,0-.9,0Z"/>
            <path class="cls-4" d="M184,236.5c-1,0-1.9-.2-2.7-.5s-1.5-.9-2.1-1.5-1-1.5-1.3-2.4c-.3-.9-.5-1.9-.5-3s.3-2.8.8-3.9,1.3-2,2.3-2.6c1-.6,2.2-.9,3.5-.9s1.8.2,2.6.5c.8.3,1.5.9,2,1.5.6.7,1,1.4,1.3,2.4.3.9.5,1.9.5,3.1s-.3,2.9-.8,4c-.5,1.1-1.3,2-2.3,2.6-1,.6-2.1.9-3.4.9ZM184.3,235.1c1,0,1.9-.3,2.7-.8.8-.5,1.4-1.2,1.8-2.1.4-.9.6-2,.6-3.2s-.1-1.7-.4-2.5c-.2-.7-.6-1.4-1.1-1.9-.5-.5-1-.9-1.6-1.2-.6-.3-1.3-.4-2.1-.4s-2,.3-2.7.8c-.8.5-1.4,1.2-1.8,2.1-.4.9-.6,2-.6,3.2s.2,2.2.6,3.1c.4.9,1,1.6,1.8,2.1.8.5,1.7.8,2.7.8ZM189.5,236.3v-6l.4-1.3-.4-2.2v-5h1.7v14.6h-1.7Z"/>
            <path class="cls-4" d="M195.9,236.3v-14.6h1.7v6.7h-.6c0-1.4.2-2.7.7-3.7.5-1,1.1-1.8,2-2.4.9-.6,1.9-.8,3.1-.8s1.7.1,2.3.4,1.2.6,1.7,1.1c.5.5.8,1.2,1,1.9.2.8.3,1.7.3,2.7v8.6h-1.7v-8c0-1,0-1.9-.3-2.5-.2-.7-.5-1.2-.8-1.6-.4-.4-.8-.7-1.3-.8-.5-.2-1.1-.2-1.8-.2s-1.6.2-2.3.7c-.7.4-1.3,1.2-1.7,2.1-.4,1-.6,2.2-.6,3.8v6.6h-1.7Z"/>
            <path class="cls-4" d="M210.5,223.1v-1.4h10.2v1.4h-10.2ZM217.9,236.6c-.8,0-1.4,0-2-.2-.6-.1-1-.4-1.4-.8-.4-.4-.6-.9-.8-1.5-.2-.6-.3-1.4-.3-2.4v-15.5h1.7v15.5c0,.9.1,1.6.3,2.1.2.5.5.8.9,1,.4.2,1,.2,1.7.2s.8,0,1.3-.1c.5,0,.9-.3,1.3-.5v1.7c-.3.1-.6.2-.9.3-.3,0-.7.1-1,.2-.3,0-.6,0-.9,0Z"/>
            <path class="cls-4" d="M228.7,223.1v-1.4h10.2v1.4h-10.2ZM236.1,236.6c-.8,0-1.4,0-2-.2-.6-.1-1-.4-1.4-.8-.4-.4-.6-.9-.8-1.5-.2-.6-.3-1.4-.3-2.4v-15.5h1.7v15.5c0,.9.1,1.6.3,2.1.2.5.5.8.9,1,.4.2,1,.2,1.7.2s.8,0,1.3-.1c.5,0,.9-.3,1.3-.5v1.7c-.3.1-.6.2-.9.3-.3,0-.7.1-1,.2-.3,0-.6,0-.9,0Z"/>
            <path class="cls-4" d="M248.6,236.5c-1.4,0-2.7-.3-3.8-1-1.1-.6-2-1.5-2.6-2.6-.6-1.1-.9-2.4-.9-3.9s.3-2.8.9-3.9c.6-1.1,1.5-2,2.6-2.6,1.1-.6,2.4-1,3.8-1s2.8.3,3.8,1c1.1.6,1.9,1.5,2.5,2.6.6,1.1.9,2.4.9,3.9s-.3,2.8-.9,3.9c-.6,1.1-1.4,2-2.5,2.6-1.1.6-2.4,1-3.8,1ZM248.6,235c1.1,0,2.1-.3,2.9-.8.8-.5,1.4-1.2,1.9-2.1.4-.9.7-1.9.7-3.1s-.1-1.6-.4-2.4c-.2-.7-.6-1.4-1.1-1.9-.5-.5-1.1-1-1.7-1.2s-1.4-.4-2.3-.4-2.1.3-2.9.8c-.8.5-1.5,1.2-1.9,2.1-.4.9-.7,1.9-.7,3.1s.2,2.2.7,3.1c.4.9,1.1,1.6,1.9,2.1.8.5,1.8.8,2.9.8Z"/>
            <path class="cls-4" d="M272.1,236.5c-1.5,0-2.7-.3-3.8-1-1-.6-1.8-1.5-2.3-2.6-.5-1.1-.8-2.4-.8-3.9s.3-2.7.8-3.9c.5-1.1,1.3-2,2.3-2.7,1-.6,2.3-1,3.7-1s2.1.2,2.9.6c.9.4,1.6,1,2.2,1.7.6.7,1,1.5,1.1,2.5h-1.7c-.2-.7-.5-1.2-.9-1.7-.4-.5-.9-.9-1.6-1.1-.6-.3-1.3-.4-2.1-.4-1.1,0-2,.3-2.8.8s-1.3,1.2-1.7,2.1c-.4.9-.6,1.9-.6,3.1s.2,2.2.6,3.1c.4.9.9,1.6,1.7,2.1.7.5,1.7.8,2.8.8s2.2-.3,3-.9,1.3-1.5,1.6-2.7h1.7c-.2,1.1-.5,2-1.1,2.7s-1.3,1.3-2.1,1.7c-.9.4-1.9.6-3,.6Z"/>
            <path class="cls-4" d="M287.5,236.5c-1,0-1.9-.2-2.7-.5s-1.5-.9-2.1-1.5-1-1.5-1.3-2.4c-.3-.9-.5-1.9-.5-3s.3-2.8.8-3.9,1.3-2,2.3-2.6c1-.6,2.2-.9,3.5-.9s1.8.2,2.6.5c.8.3,1.5.9,2,1.5.6.7,1,1.4,1.3,2.4.3.9.5,1.9.5,3.1s-.3,2.9-.8,4c-.5,1.1-1.3,2-2.3,2.6-1,.6-2.1.9-3.4.9ZM287.8,235.1c1,0,1.9-.3,2.7-.8.8-.5,1.4-1.2,1.8-2.1.4-.9.6-2,.6-3.2s-.1-1.7-.4-2.5c-.2-.7-.6-1.4-1.1-1.9-.5-.5-1-.9-1.6-1.2-.6-.3-1.3-.4-2.1-.4s-2,.3-2.7.8c-.8.5-1.4,1.2-1.8,2.1-.4.9-.6,2-.6,3.2s.2,2.2.6,3.1c.4.9,1,1.6,1.8,2.1.8.5,1.7.8,2.7.8ZM293,236.3v-6l.4-1.3-.4-2.2v-5h1.7v14.6h-1.7Z"/>
            <path class="cls-4" d="M299.4,236.3v-14.6h1.7v7.3h-.5c0-1.6.3-2.9.7-4,.4-1.1,1.1-1.9,1.9-2.5.8-.6,1.8-.9,3-.9h.4c.1,0,.3,0,.4,0v1.7c-.9,0-1.7,0-2.5.3-.7.2-1.4.5-1.9,1-.5.5-.9,1.2-1.2,2.1-.3.9-.4,2-.4,3.4v6.2h-1.7Z"/>
            <path class="cls-4" d="M310,236.3v-14.6h1.7v7.3h-.5c0-1.6.3-2.9.7-4,.4-1.1,1.1-1.9,1.9-2.5.8-.6,1.8-.9,3-.9h.4c.1,0,.3,0,.4,0v1.7c-.9,0-1.7,0-2.5.3-.7.2-1.4.5-1.9,1-.5.5-.9,1.2-1.2,2.1-.3.9-.4,2-.4,3.4v6.2h-1.7Z"/>
            <path class="cls-4" d="M324.8,236.8l-6.2-15h1.9l5.2,13-.9,2.1ZM321.6,242.7l3.2-7.9v-.4c.1,0,5.3-12.6,5.3-12.6h1.9l-8.6,20.9h-1.8Z"/>
            <path class="cls-4" d="M346.9,236.5c-1,0-1.9-.2-2.7-.5s-1.5-.9-2.1-1.5-1-1.5-1.3-2.4c-.3-.9-.5-1.9-.5-3s.3-2.8.8-3.9,1.3-2,2.3-2.6c1-.6,2.2-.9,3.5-.9s1.8.2,2.6.5c.8.3,1.5.9,2,1.5.6.7,1,1.4,1.3,2.4.3.9.5,1.9.5,3.1s-.3,2.9-.8,4c-.5,1.1-1.3,2-2.3,2.6-1,.6-2.1.9-3.4.9ZM347.2,235.1c1,0,1.9-.3,2.7-.8.8-.5,1.4-1.2,1.8-2.1.4-.9.6-2,.6-3.2s-.1-1.7-.4-2.5c-.2-.7-.6-1.4-1.1-1.9-.5-.5-1-.9-1.6-1.2-.6-.3-1.3-.4-2.1-.4s-2,.3-2.7.8c-.8.5-1.4,1.2-1.8,2.1-.4.9-.6,2-.6,3.2s.2,2.2.6,3.1c.4.9,1,1.6,1.8,2.1.8.5,1.7.8,2.7.8ZM352.4,236.3v-6l.4-1.3-.4-2.2v-5h1.7v14.6h-1.7Z"/>
            <path class="cls-4" d="M37.3,271.1v-14.6h1.7v6.7h-.6c0-1.4.2-2.7.6-3.7.4-1,1-1.8,1.8-2.4.8-.6,1.7-.8,2.8-.8s1.5.1,2.1.4c.6.2,1.1.6,1.6,1.1.4.5.7,1.1,1,1.9.2.8.3,1.6.3,2.7h-.9c.1-1.3.4-2.4.9-3.3.5-.9,1.1-1.6,2-2,.8-.5,1.7-.7,2.7-.7s1.6.1,2.2.4c.6.3,1.2.6,1.6,1.1.4.5.8,1.2,1,1.9.2.8.3,1.7.3,2.7v8.6h-1.7v-8c0-1,0-1.9-.3-2.6-.2-.7-.4-1.2-.8-1.6s-.7-.7-1.2-.8-1-.2-1.5-.2-1.4.2-2.1.7c-.6.4-1.2,1.2-1.6,2.1s-.6,2.2-.6,3.8v6.6h-1.7v-8c0-1,0-1.9-.3-2.5-.2-.7-.4-1.2-.7-1.6-.3-.4-.7-.7-1.2-.8s-1-.2-1.5-.2-1.4.2-2.1.7c-.6.4-1.2,1.2-1.6,2.1-.4,1-.6,2.2-.6,3.8v6.6h-1.7Z"/>
            <path class="cls-4" d="M62.5,252.8v-2.5h2.5v2.5h-2.5ZM62.9,271.1v-14.6h1.7v14.6h-1.7Z"/>
            <path class="cls-4" d="M67.6,271.1l5.7-7.9v1.3s-5.7-7.9-5.7-7.9h2.1l4.8,6.8h-.9l4.8-6.8h2.1l-5.7,7.9v-1.3s5.8,7.9,5.8,7.9h-2.1l-4.9-6.8h.8l-4.9,6.8h-2.1Z"/>
            <path class="cls-4" d="M96.8,271.3c-1.4,0-2.7-.3-3.8-1-1.1-.6-2-1.5-2.6-2.6-.6-1.1-.9-2.4-.9-3.9s.3-2.8.9-3.9c.6-1.1,1.5-2,2.6-2.6,1.1-.6,2.4-1,3.8-1s2.8.3,3.8,1c1.1.6,1.9,1.5,2.5,2.6.6,1.1.9,2.4.9,3.9s-.3,2.8-.9,3.9c-.6,1.1-1.4,2-2.5,2.6-1.1.6-2.4,1-3.8,1ZM96.8,269.8c1.1,0,2.1-.3,2.9-.8.8-.5,1.4-1.2,1.9-2.1.4-.9.7-1.9.7-3.1s-.1-1.6-.4-2.4c-.2-.7-.6-1.4-1.1-1.9s-1.1-1-1.7-1.2-1.4-.4-2.3-.4-2.1.3-2.9.8c-.8.5-1.5,1.2-1.9,2.1-.4.9-.7,1.9-.7,3.1s.2,2.2.7,3.1c.4.9,1.1,1.6,1.9,2.1.8.5,1.8.8,2.9.8Z"/>
            <path class="cls-4" d="M105.9,257.9v-1.4h9.3v1.4h-9.3ZM108.6,271.1v-16.7c0-1.3.2-2.3.5-3.1.3-.8.9-1.4,1.5-1.8.7-.4,1.5-.6,2.6-.6s.6,0,.8,0c.3,0,.5,0,.7.1.2,0,.4.1.5.2v1.6c-.3-.2-.6-.3-1-.4-.4,0-.7-.1-1.1-.1-1,0-1.7.3-2.2,1-.5.7-.7,1.7-.7,3v16.6h-1.7Z"/>
            <path class="cls-4" d="M124.4,277.4v-20.9h1.7v4.7l-.4,2.5.5,2v11.6h-1.7ZM131.7,271.3c-1.3,0-2.4-.3-3.4-.9-1-.6-1.7-1.5-2.3-2.6-.5-1.1-.8-2.4-.8-4s.3-2.9.8-4c.5-1.1,1.3-2,2.3-2.6,1-.6,2.1-.9,3.4-.9s1.9.2,2.7.5c.8.4,1.5.9,2.1,1.5s1,1.5,1.4,2.4c.3.9.5,1.9.5,3s-.3,2.8-.8,3.9-1.3,2-2.3,2.6c-1,.6-2.2.9-3.5.9ZM131.3,269.9c1,0,2-.3,2.7-.8.8-.5,1.4-1.2,1.8-2.1.4-.9.7-2,.7-3.1s-.2-2.3-.7-3.2c-.4-.9-1-1.6-1.8-2.1s-1.7-.8-2.7-.8-1.9.3-2.7.8-1.4,1.2-1.8,2.1c-.4.9-.7,2-.7,3.2s.1,1.7.4,2.5.6,1.4,1.1,1.9c.5.5,1,.9,1.6,1.2.6.3,1.3.4,2.1.4Z"/>
            <path class="cls-4" d="M147.7,271.3c-1,0-1.9-.2-2.7-.5s-1.5-.9-2.1-1.5-1-1.5-1.3-2.4c-.3-.9-.5-1.9-.5-3s.3-2.8.8-3.9,1.3-2,2.3-2.6c1-.6,2.2-.9,3.5-.9s1.8.2,2.6.5c.8.3,1.5.9,2,1.5.6.7,1,1.4,1.3,2.4s.5,1.9.5,3.1-.3,2.9-.8,4c-.5,1.1-1.3,2-2.3,2.6-1,.6-2.1.9-3.4.9ZM148,269.9c1,0,1.9-.3,2.7-.8.8-.5,1.4-1.2,1.8-2.1.4-.9.6-2,.6-3.2s-.1-1.7-.4-2.5c-.2-.7-.6-1.4-1.1-1.9-.5-.5-1-.9-1.6-1.2-.6-.3-1.3-.4-2.1-.4s-2,.3-2.7.8-1.4,1.2-1.8,2.1c-.4.9-.6,2-.6,3.2s.2,2.2.6,3.1c.4.9,1,1.6,1.8,2.1.8.5,1.7.8,2.7.8ZM153.2,271.1v-6l.4-1.3-.4-2.2v-5h1.7v14.6h-1.7Z"/>
            <path class="cls-4" d="M163.7,271.6l-6.2-15h1.9l5.2,13-.9,2.1ZM160.5,277.5l3.2-7.9v-.4c.1,0,5.3-12.6,5.3-12.6h1.9l-8.6,20.9h-1.8Z"/>
            <path class="cls-4" d="M173.5,271.1v-14.6h1.7v6.7h-.6c0-1.4.2-2.7.6-3.7.4-1,1-1.8,1.8-2.4.8-.6,1.7-.8,2.8-.8s1.5.1,2.1.4c.6.2,1.1.6,1.6,1.1.4.5.7,1.1,1,1.9.2.8.3,1.6.3,2.7h-.9c.1-1.3.4-2.4.9-3.3.5-.9,1.1-1.6,2-2,.8-.5,1.7-.7,2.7-.7s1.6.1,2.2.4c.6.3,1.2.6,1.6,1.1.4.5.8,1.2,1,1.9.2.8.3,1.7.3,2.7v8.6h-1.7v-8c0-1,0-1.9-.3-2.6-.2-.7-.4-1.2-.8-1.6s-.7-.7-1.2-.8-1-.2-1.5-.2-1.4.2-2.1.7c-.6.4-1.2,1.2-1.6,2.1s-.6,2.2-.6,3.8v6.6h-1.7v-8c0-1,0-1.9-.3-2.5-.2-.7-.4-1.2-.7-1.6-.3-.4-.7-.7-1.2-.8s-1-.2-1.5-.2-1.4.2-2.1.7c-.6.4-1.2,1.2-1.6,2.1-.4,1-.6,2.2-.6,3.8v6.6h-1.7Z"/>
            <path class="cls-4" d="M205.1,271.3c-1.5,0-2.7-.3-3.8-1s-1.9-1.5-2.5-2.6c-.6-1.1-.8-2.4-.8-3.9s.3-2.7.8-3.9,1.3-2,2.4-2.7,2.3-1,3.7-1,2.6.3,3.6,1,1.8,1.5,2.3,2.6c.5,1.1.8,2.4.8,3.8v.6h-12.6v-1.4h11.4l-.4.6c0-1.1-.2-2.1-.6-3-.4-.9-1-1.6-1.8-2s-1.7-.7-2.7-.7-1.9.2-2.7.7c-.8.5-1.4,1.2-1.8,2-.4.9-.7,2-.7,3.2s.2,2.3.7,3.2c.4.9,1.1,1.6,1.9,2.1.8.5,1.7.7,2.8.7s1.5-.1,2.2-.4,1.2-.6,1.6-1.1c.4-.5.7-1,.9-1.6h1.7c-.2.9-.5,1.6-1.1,2.3-.6.7-1.3,1.2-2.2,1.6-.9.4-1.9.6-3,.6Z"/>
            <path class="cls-4" d="M215.5,271.1v-14.6h1.7v6.7h-.6c0-1.4.2-2.7.7-3.7.5-1,1.1-1.8,2-2.4.9-.6,1.9-.8,3.1-.8s1.7.1,2.3.4c.7.2,1.2.6,1.7,1.1.5.5.8,1.2,1,1.9.2.8.3,1.7.3,2.7v8.6h-1.7v-8c0-1,0-1.9-.3-2.5s-.5-1.2-.8-1.6c-.4-.4-.8-.7-1.3-.8-.5-.2-1.1-.2-1.8-.2s-1.6.2-2.3.7c-.7.4-1.3,1.2-1.7,2.1-.4,1-.6,2.2-.6,3.8v6.6h-1.7Z"/>
            <path class="cls-4" d="M230.1,257.9v-1.4h10.2v1.4h-10.2ZM237.5,271.4c-.8,0-1.4,0-2-.2-.6-.1-1-.4-1.4-.8-.4-.4-.6-.9-.8-1.5s-.3-1.4-.3-2.4v-15.5h1.7v15.5c0,.9.1,1.6.3,2.1.2.5.5.8.9,1,.4.2,1,.2,1.7.2s.8,0,1.3-.1c.5,0,.9-.3,1.3-.5v1.7c-.3.1-.6.2-.9.3-.3,0-.7.1-1,.2-.3,0-.6,0-.9,0Z"/>
            <path class="cls-4" d="M250.3,271.1v-14.6h1.7v6.7h-.6c0-1.4.2-2.7.6-3.7.4-1,1-1.8,1.8-2.4.8-.6,1.7-.8,2.8-.8s1.5.1,2.1.4c.6.2,1.1.6,1.6,1.1.4.5.7,1.1,1,1.9.2.8.3,1.6.3,2.7h-.9c.1-1.3.4-2.4.9-3.3.5-.9,1.1-1.6,2-2,.8-.5,1.7-.7,2.7-.7s1.6.1,2.2.4c.6.3,1.2.6,1.6,1.1.4.5.8,1.2,1,1.9.2.8.3,1.7.3,2.7v8.6h-1.7v-8c0-1,0-1.9-.3-2.6-.2-.7-.4-1.2-.8-1.6s-.7-.7-1.2-.8-1-.2-1.5-.2-1.4.2-2.1.7c-.6.4-1.2,1.2-1.6,2.1s-.6,2.2-.6,3.8v6.6h-1.7v-8c0-1,0-1.9-.3-2.5-.2-.7-.4-1.2-.7-1.6-.3-.4-.7-.7-1.2-.8s-1-.2-1.5-.2-1.4.2-2.1.7c-.6.4-1.2,1.2-1.6,2.1-.4,1-.6,2.2-.6,3.8v6.6h-1.7Z"/>
            <path class="cls-4" d="M282,271.3c-1.5,0-2.7-.3-3.8-1s-1.9-1.5-2.5-2.6c-.6-1.1-.8-2.4-.8-3.9s.3-2.7.8-3.9,1.3-2,2.4-2.7,2.3-1,3.7-1,2.6.3,3.6,1,1.8,1.5,2.3,2.6c.5,1.1.8,2.4.8,3.8v.6h-12.6v-1.4h11.4l-.4.6c0-1.1-.2-2.1-.6-3-.4-.9-1-1.6-1.8-2s-1.7-.7-2.7-.7-1.9.2-2.7.7c-.8.5-1.4,1.2-1.8,2-.4.9-.7,2-.7,3.2s.2,2.3.7,3.2c.4.9,1.1,1.6,1.9,2.1.8.5,1.7.7,2.8.7s1.5-.1,2.2-.4,1.2-.6,1.6-1.1c.4-.5.7-1,.9-1.6h1.7c-.2.9-.5,1.6-1.1,2.3-.6.7-1.3,1.2-2.2,1.6-.9.4-1.9.6-3,.6Z"/>
            <path class="cls-4" d="M290.3,257.9v-1.4h10.2v1.4h-10.2ZM297.7,271.4c-.8,0-1.4,0-2-.2-.6-.1-1-.4-1.4-.8-.4-.4-.6-.9-.8-1.5s-.3-1.4-.3-2.4v-15.5h1.7v15.5c0,.9.1,1.6.3,2.1.2.5.5.8.9,1,.4.2,1,.2,1.7.2s.8,0,1.3-.1c.5,0,.9-.3,1.3-.5v1.7c-.3.1-.6.2-.9.3-.3,0-.7.1-1,.2-.3,0-.6,0-.9,0Z"/>
            <path class="cls-4" d="M303.8,271.1v-21.9h1.7v14.1h-.6c0-1.4.2-2.7.7-3.7.5-1,1.1-1.8,2-2.4.9-.6,1.9-.8,3.1-.8s1.7.1,2.3.4c.7.2,1.2.6,1.7,1.1.5.5.8,1.2,1,1.9.2.8.3,1.7.3,2.7v8.6h-1.7v-8c0-1,0-1.9-.3-2.5s-.5-1.2-.8-1.6c-.4-.4-.8-.7-1.3-.8-.5-.2-1.1-.2-1.8-.2s-1.6.2-2.3.7c-.7.4-1.3,1.2-1.7,2.1-.4,1-.6,2.2-.6,3.8v6.6h-1.7Z"/>
            <path class="cls-4" d="M326.7,271.3c-1.4,0-2.7-.3-3.8-1-1.1-.6-2-1.5-2.6-2.6-.6-1.1-.9-2.4-.9-3.9s.3-2.8.9-3.9c.6-1.1,1.5-2,2.6-2.6,1.1-.6,2.4-1,3.8-1s2.8.3,3.8,1c1.1.6,1.9,1.5,2.5,2.6.6,1.1.9,2.4.9,3.9s-.3,2.8-.9,3.9c-.6,1.1-1.4,2-2.5,2.6-1.1.6-2.4,1-3.8,1ZM326.7,269.8c1.1,0,2.1-.3,2.9-.8.8-.5,1.4-1.2,1.9-2.1.4-.9.7-1.9.7-3.1s-.1-1.6-.4-2.4c-.2-.7-.6-1.4-1.1-1.9s-1.1-1-1.7-1.2-1.4-.4-2.3-.4-2.1.3-2.9.8c-.8.5-1.5,1.2-1.9,2.1-.4.9-.7,1.9-.7,3.1s.2,2.2.7,3.1c.4.9,1.1,1.6,1.9,2.1.8.5,1.8.8,2.9.8Z"/>
            <path class="cls-4" d="M343.4,271.3c-1,0-1.9-.2-2.7-.5-.8-.4-1.5-.9-2.1-1.5s-1-1.5-1.3-2.4c-.3-.9-.5-1.9-.5-3s.3-2.8.8-3.9,1.3-2,2.3-2.6c1-.6,2.2-.9,3.5-.9s1.8.2,2.6.5c.8.3,1.5.9,2,1.5.6.7,1,1.4,1.3,2.4s.5,1.9.5,3.1-.3,2.9-.8,4c-.5,1.1-1.3,2-2.3,2.6-1,.6-2.1.9-3.4.9ZM343.7,269.9c1,0,1.9-.3,2.7-.8.8-.5,1.4-1.2,1.8-2.1.4-.9.6-2,.6-3.2s-.1-1.7-.4-2.5c-.2-.7-.6-1.4-1.1-1.9-.5-.5-1-.9-1.6-1.2-.6-.3-1.3-.4-2.1-.4s-2,.3-2.7.8-1.4,1.2-1.8,2.1c-.4.9-.6,2-.6,3.2s.2,2.2.6,3.1c.4.9,1,1.6,1.8,2.1.8.5,1.7.8,2.7.8ZM348.9,271.1v-5l.5-2.4-.5-1.9v-12.6h1.7v21.9h-1.7Z"/>
            <path class="cls-4" d="M359.9,271.3c-1.2,0-2.2-.2-3-.6s-1.5-.9-1.9-1.5c-.4-.7-.7-1.4-.7-2.3h1.7c0,.6.1,1.1.4,1.5.3.4.7.8,1.3,1s1.3.4,2.1.4,2-.2,2.6-.7c.6-.5.9-1.1.9-1.9s-.2-1-.5-1.4c-.3-.3-.7-.6-1.2-.8-.5-.2-1.1-.4-1.7-.5-.6-.1-1.2-.3-1.9-.4-.6-.2-1.2-.4-1.7-.7-.5-.3-.9-.7-1.2-1.2s-.5-1.2-.5-1.9c0-1.2.4-2.2,1.3-2.9s2.1-1.1,3.6-1.1,1.9.2,2.7.5c.8.3,1.4.8,1.8,1.5.4.6.7,1.4.7,2.2h-1.7c0-.8-.3-1.5-1-2-.6-.5-1.5-.8-2.4-.8s-1.8.2-2.4.7c-.6.4-.9,1.1-.9,1.8s.2,1,.5,1.4c.3.3.7.6,1.2.8.5.2,1.1.3,1.7.4.6.1,1.2.3,1.9.4.6.2,1.2.4,1.7.7.5.3.9.7,1.2,1.2s.5,1.2.5,2c0,1.3-.5,2.3-1.4,3-.9.8-2.2,1.1-3.8,1.1Z"/>
            <path class="cls-4" d="M368.3,271.1v-2.5h2.4v2.5h-2.4Z"/>
            <path class="cls-4" d="M37.6,305.9v-20.3h6c1.4,0,2.6.2,3.5.6.9.4,1.6,1,2.1,1.8.5.7.7,1.6.7,2.6s-.2,1.9-.7,2.6-1.2,1.3-2,1.7c-.9.4-1.9.6-3.2.6l-.3-.5c1.4,0,2.6.2,3.6.5,1,.4,1.8.9,2.4,1.7.6.8.8,1.7.8,2.9s-.2,2-.7,2.9c-.5.9-1.3,1.6-2.3,2.1-1.1.5-2.5.8-4.3.8h-5.4ZM39.4,304.9l-.4-.5h4.3c1.8,0,3.2-.4,4-1.2.9-.8,1.3-1.8,1.3-3.1s-.4-2.4-1.3-3-2.2-1-4.1-1h-4.2v-1.5h4.4c1.7,0,2.9-.3,3.6-1,.7-.7,1-1.6,1-2.8s-.3-2-1-2.7c-.7-.7-1.8-1-3.4-1h-4.5l.3-.3v18Z"/>
            <path class="cls-4" d="M60.1,306.1c-1.5,0-2.7-.3-3.8-1s-1.9-1.5-2.5-2.6c-.6-1.1-.8-2.4-.8-3.9s.3-2.7.8-3.9,1.3-2,2.4-2.7c1-.6,2.3-1,3.7-1s2.6.3,3.6,1c1,.6,1.8,1.5,2.3,2.6.5,1.1.8,2.4.8,3.8v.6h-12.6v-1.4h11.4l-.4.6c0-1.1-.2-2.1-.6-3-.4-.9-1-1.6-1.8-2-.8-.5-1.7-.7-2.7-.7s-1.9.2-2.7.7c-.8.5-1.4,1.2-1.8,2-.4.9-.7,2-.7,3.2s.2,2.3.7,3.2c.4.9,1.1,1.6,1.9,2.1.8.5,1.7.7,2.8.7s1.5-.1,2.2-.4c.6-.3,1.2-.6,1.6-1.1.4-.5.7-1,.9-1.6h1.7c-.2.9-.5,1.6-1.1,2.3s-1.3,1.2-2.2,1.6c-.9.4-1.9.6-3,.6Z"/>
            <path class="cls-4" d="M82.8,306.1c-1,0-1.9-.2-2.7-.5-.8-.4-1.5-.9-2.1-1.5s-1-1.5-1.3-2.4c-.3-.9-.5-1.9-.5-3s.3-2.8.8-3.9c.6-1.1,1.3-2,2.3-2.6,1-.6,2.2-.9,3.5-.9s1.8.2,2.6.5c.8.3,1.5.9,2,1.5.6.7,1,1.4,1.3,2.4s.5,1.9.5,3.1-.3,2.9-.8,4c-.5,1.1-1.3,2-2.3,2.6-1,.6-2.1.9-3.4.9ZM83.1,304.7c1,0,1.9-.3,2.7-.8.8-.5,1.4-1.2,1.8-2.1.4-.9.6-2,.6-3.2s-.1-1.7-.4-2.5c-.2-.7-.6-1.4-1.1-1.9-.5-.5-1-.9-1.6-1.2-.6-.3-1.3-.4-2.1-.4s-2,.3-2.7.8-1.4,1.2-1.8,2.1c-.4.9-.6,2-.6,3.2s.2,2.2.6,3.1c.4.9,1,1.6,1.8,2.1.8.5,1.7.8,2.7.8ZM88.3,305.9v-6l.4-1.3-.4-2.2v-5h1.7v14.6h-1.7Z"/>
            <path class="cls-4" d="M97.4,306l-4.8-14.6h1.8l3.7,11.8,4.3-11.9h1.3l4.3,11.7,3.7-11.7h1.8l-4.8,14.6h-1.2l-4.4-11.9-4.3,11.9h-1.3Z"/>
            <path class="cls-4" d="M121.6,306.1c-1,0-1.9-.2-2.7-.5-.8-.4-1.5-.9-2.1-1.5s-1-1.5-1.3-2.4c-.3-.9-.5-1.9-.5-3s.3-2.8.8-3.9c.6-1.1,1.3-2,2.3-2.6,1-.6,2.2-.9,3.5-.9s1.8.2,2.6.5c.8.3,1.5.9,2,1.5.6.7,1,1.4,1.3,2.4s.5,1.9.5,3.1-.3,2.9-.8,4c-.5,1.1-1.3,2-2.3,2.6-1,.6-2.1.9-3.4.9ZM121.9,304.7c1,0,1.9-.3,2.7-.8.8-.5,1.4-1.2,1.8-2.1.4-.9.6-2,.6-3.2s-.1-1.7-.4-2.5c-.2-.7-.6-1.4-1.1-1.9-.5-.5-1-.9-1.6-1.2-.6-.3-1.3-.4-2.1-.4s-2,.3-2.7.8-1.4,1.2-1.8,2.1c-.4.9-.6,2-.6,3.2s.2,2.2.6,3.1c.4.9,1,1.6,1.8,2.1.8.5,1.7.8,2.7.8ZM127,305.9v-6l.4-1.3-.4-2.2v-5h1.7v14.6h-1.7Z"/>
            <path class="cls-4" d="M133.5,305.9v-14.6h1.7v7.3h-.5c0-1.6.3-2.9.7-4,.4-1.1,1.1-1.9,1.9-2.5.8-.6,1.8-.9,3-.9h.4c.1,0,.3,0,.4,0v1.7c-.9,0-1.7,0-2.5.3-.7.2-1.4.5-1.9,1-.5.5-.9,1.2-1.2,2.1-.3.9-.4,2-.4,3.4v6.2h-1.7Z"/>
            <path class="cls-4" d="M150,306.1c-1.5,0-2.7-.3-3.8-1s-1.9-1.5-2.5-2.6c-.6-1.1-.8-2.4-.8-3.9s.3-2.7.8-3.9,1.3-2,2.4-2.7c1-.6,2.3-1,3.7-1s2.6.3,3.6,1c1,.6,1.8,1.5,2.3,2.6.5,1.1.8,2.4.8,3.8v.6h-12.6v-1.4h11.4l-.4.6c0-1.1-.2-2.1-.6-3-.4-.9-1-1.6-1.8-2-.8-.5-1.7-.7-2.7-.7s-1.9.2-2.7.7c-.8.5-1.4,1.2-1.8,2-.4.9-.7,2-.7,3.2s.2,2.3.7,3.2c.4.9,1.1,1.6,1.9,2.1.8.5,1.7.7,2.8.7s1.5-.1,2.2-.4c.6-.3,1.2-.6,1.6-1.1.4-.5.7-1,.9-1.6h1.7c-.2.9-.5,1.6-1.1,2.3s-1.3,1.2-2.2,1.6c-.9.4-1.9.6-3,.6Z"/>
            <path class="cls-4" d="M173.3,306.1c-1.4,0-2.7-.3-3.8-1-1.1-.6-2-1.5-2.6-2.6-.6-1.1-.9-2.4-.9-3.9s.3-2.8.9-3.9c.6-1.1,1.5-2,2.6-2.6,1.1-.6,2.4-1,3.8-1s2.8.3,3.8,1c1.1.6,1.9,1.5,2.5,2.6.6,1.1.9,2.4.9,3.9s-.3,2.8-.9,3.9c-.6,1.1-1.4,2-2.5,2.6-1.1.6-2.4,1-3.8,1ZM173.3,304.6c1.1,0,2.1-.3,2.9-.8.8-.5,1.4-1.2,1.9-2.1.4-.9.7-1.9.7-3.1s-.1-1.6-.4-2.4c-.2-.7-.6-1.4-1.1-1.9s-1.1-1-1.7-1.2-1.4-.4-2.3-.4-2.1.3-2.9.8c-.8.5-1.5,1.2-1.9,2.1-.4.9-.7,1.9-.7,3.1s.2,2.2.7,3.1c.4.9,1.1,1.6,1.9,2.1.8.5,1.8.8,2.9.8Z"/>
            <path class="cls-4" d="M182.4,292.7v-1.4h9.3v1.4h-9.3ZM185.1,305.9v-16.7c0-1.3.2-2.3.5-3.1.3-.8.9-1.4,1.5-1.8.7-.4,1.5-.6,2.6-.6s.6,0,.8,0c.3,0,.5,0,.7.1.2,0,.4.1.5.2v1.6c-.3-.2-.6-.3-1-.4-.4,0-.7-.1-1.1-.1-1,0-1.7.3-2.2,1-.5.7-.7,1.7-.7,3v16.6h-1.7Z"/>
            <path class="cls-4" d="M207.1,306.1c-1.5,0-2.7-.3-3.8-1s-1.9-1.5-2.5-2.6c-.6-1.1-.8-2.4-.8-3.9s.3-2.7.8-3.9,1.3-2,2.4-2.7c1-.6,2.3-1,3.7-1s2.6.3,3.6,1c1,.6,1.8,1.5,2.3,2.6.5,1.1.8,2.4.8,3.8v.6h-12.6v-1.4h11.4l-.4.6c0-1.1-.2-2.1-.6-3-.4-.9-1-1.6-1.8-2-.8-.5-1.7-.7-2.7-.7s-1.9.2-2.7.7c-.8.5-1.4,1.2-1.8,2-.4.9-.7,2-.7,3.2s.2,2.3.7,3.2c.4.9,1.1,1.6,1.9,2.1.8.5,1.7.7,2.8.7s1.5-.1,2.2-.4c.6-.3,1.2-.6,1.6-1.1.4-.5.7-1,.9-1.6h1.7c-.2.9-.5,1.6-1.1,2.3s-1.3,1.2-2.2,1.6c-.9.4-1.9.6-3,.6Z"/>
            <path class="cls-4" d="M215.5,305.9l5.7-7.9v1.3s-5.7-7.9-5.7-7.9h2.1l4.8,6.8h-.9l4.8-6.8h2.1l-5.7,7.9v-1.3s5.8,7.9,5.8,7.9h-2.1l-4.9-6.8h.8l-4.9,6.8h-2.1Z"/>
            <path class="cls-4" d="M237.3,306.1c-1.5,0-2.7-.3-3.8-1-1-.6-1.8-1.5-2.3-2.6-.5-1.1-.8-2.4-.8-3.9s.3-2.7.8-3.9c.5-1.1,1.3-2,2.3-2.7,1-.6,2.3-1,3.7-1s2.1.2,2.9.6c.9.4,1.6,1,2.2,1.7.6.7,1,1.5,1.1,2.5h-1.7c-.2-.7-.5-1.2-.9-1.7-.4-.5-.9-.9-1.6-1.1-.6-.3-1.3-.4-2.1-.4-1.1,0-2,.3-2.8.8s-1.3,1.2-1.7,2.1c-.4.9-.6,1.9-.6,3.1s.2,2.2.6,3.1.9,1.6,1.7,2.1c.7.5,1.7.8,2.8.8s2.2-.3,3-.9c.8-.6,1.3-1.5,1.6-2.7h1.7c-.2,1.1-.5,2-1.1,2.7-.6.8-1.3,1.3-2.1,1.7-.9.4-1.9.6-3,.6Z"/>
            <path class="cls-4" d="M247,305.9v-21.9h1.7v14.1h-.6c0-1.4.2-2.7.7-3.7.5-1,1.1-1.8,2-2.4.9-.6,1.9-.8,3.1-.8s1.7.1,2.3.4c.7.2,1.2.6,1.7,1.1.5.5.8,1.2,1,1.9.2.8.3,1.7.3,2.7v8.6h-1.7v-8c0-1,0-1.9-.3-2.5-.2-.7-.5-1.2-.8-1.6-.4-.4-.8-.7-1.3-.8-.5-.2-1.1-.2-1.8-.2s-1.6.2-2.3.7c-.7.4-1.3,1.2-1.7,2.1-.4,1-.6,2.2-.6,3.8v6.6h-1.7Z"/>
            <path class="cls-4" d="M269.3,306.1c-1,0-1.9-.2-2.7-.5-.8-.4-1.5-.9-2.1-1.5s-1-1.5-1.3-2.4c-.3-.9-.5-1.9-.5-3s.3-2.8.8-3.9c.6-1.1,1.3-2,2.3-2.6,1-.6,2.2-.9,3.5-.9s1.8.2,2.6.5c.8.3,1.5.9,2,1.5.6.7,1,1.4,1.3,2.4s.5,1.9.5,3.1-.3,2.9-.8,4c-.5,1.1-1.3,2-2.3,2.6-1,.6-2.1.9-3.4.9ZM269.6,304.7c1,0,1.9-.3,2.7-.8.8-.5,1.4-1.2,1.8-2.1.4-.9.6-2,.6-3.2s-.1-1.7-.4-2.5c-.2-.7-.6-1.4-1.1-1.9-.5-.5-1-.9-1.6-1.2-.6-.3-1.3-.4-2.1-.4s-2,.3-2.7.8-1.4,1.2-1.8,2.1c-.4.9-.6,2-.6,3.2s.2,2.2.6,3.1c.4.9,1,1.6,1.8,2.1.8.5,1.7.8,2.7.8ZM274.8,305.9v-6l.4-1.3-.4-2.2v-5h1.7v14.6h-1.7Z"/>
            <path class="cls-4" d="M281.2,305.9v-14.6h1.7v6.7h-.6c0-1.4.2-2.7.7-3.7.5-1,1.1-1.8,2-2.4.9-.6,1.9-.8,3.1-.8s1.7.1,2.3.4c.7.2,1.2.6,1.7,1.1.5.5.8,1.2,1,1.9.2.8.3,1.7.3,2.7v8.6h-1.7v-8c0-1,0-1.9-.3-2.5-.2-.7-.5-1.2-.8-1.6-.4-.4-.8-.7-1.3-.8-.5-.2-1.1-.2-1.8-.2s-1.6.2-2.3.7c-.7.4-1.3,1.2-1.7,2.1-.4,1-.6,2.2-.6,3.8v6.6h-1.7Z"/>
            <path class="cls-4" d="M303.6,306.1c-1,0-1.9-.2-2.7-.5-.8-.4-1.5-.9-2.1-1.5s-1-1.5-1.4-2.4c-.3-.9-.5-1.9-.5-3s.3-2.8.8-3.9c.6-1.1,1.3-2,2.3-2.6,1-.6,2.2-.9,3.5-.9s2.4.3,3.3.9c1,.6,1.7,1.5,2.2,2.6.5,1.1.8,2.4.8,4s-.3,2.9-.8,4c-.5,1.1-1.3,2-2.2,2.6-1,.6-2.1.9-3.3.9ZM304.3,312.4c-1.4,0-2.5-.2-3.4-.6s-1.6-.9-2.1-1.6c-.5-.7-.8-1.5-.9-2.4h1.7c.1.6.3,1.1.7,1.6.3.5.8.9,1.5,1.1s1.5.4,2.6.4,1.9-.2,2.6-.5c.7-.3,1.2-.8,1.6-1.5.3-.7.5-1.5.5-2.5v-5.5l.5-2.3-.4-2.2v-5h1.7v15c0,1.3-.3,2.4-.8,3.3-.5.9-1.2,1.6-2.2,2.1s-2.1.7-3.5.7ZM303.8,304.7c1,0,1.9-.3,2.7-.8.8-.5,1.4-1.2,1.8-2.1.4-.9.6-2,.6-3.2s-.1-1.7-.4-2.5c-.2-.7-.6-1.4-1.1-1.9-.5-.5-1-.9-1.6-1.2-.6-.3-1.3-.4-2.1-.4s-2,.3-2.7.8-1.4,1.2-1.8,2.1c-.4.9-.6,2-.6,3.2s.2,2.2.6,3.1c.4.9,1,1.6,1.8,2.1.8.5,1.7.8,2.7.8Z"/>
            <path class="cls-4" d="M321.6,306.1c-1.5,0-2.7-.3-3.8-1s-1.9-1.5-2.5-2.6c-.6-1.1-.8-2.4-.8-3.9s.3-2.7.8-3.9,1.3-2,2.4-2.7c1-.6,2.3-1,3.7-1s2.6.3,3.6,1c1,.6,1.8,1.5,2.3,2.6.5,1.1.8,2.4.8,3.8v.6h-12.6v-1.4h11.4l-.4.6c0-1.1-.2-2.1-.6-3-.4-.9-1-1.6-1.8-2-.8-.5-1.7-.7-2.7-.7s-1.9.2-2.7.7c-.8.5-1.4,1.2-1.8,2-.4.9-.7,2-.7,3.2s.2,2.3.7,3.2c.4.9,1.1,1.6,1.9,2.1.8.5,1.7.7,2.8.7s1.5-.1,2.2-.4c.6-.3,1.2-.6,1.6-1.1.4-.5.7-1,.9-1.6h1.7c-.2.9-.5,1.6-1.1,2.3s-1.3,1.2-2.2,1.6c-.9.4-1.9.6-3,.6Z"/>
            <path class="cls-4" d="M37.3,340.7v-14.6h1.7v7.3h-.5c0-1.6.3-2.9.7-4,.4-1.1,1.1-1.9,1.9-2.5.8-.6,1.8-.9,3-.9h.4c.1,0,.3,0,.4,0v1.7c-.9,0-1.7,0-2.5.3-.7.2-1.4.5-1.9,1-.5.5-.9,1.2-1.2,2.1-.3.9-.4,2-.4,3.4v6.2h-1.7Z"/>
            <path class="cls-4" d="M53.4,340.9c-1,0-1.9-.2-2.7-.5-.8-.4-1.5-.9-2.1-1.5s-1-1.5-1.3-2.4c-.3-.9-.5-1.9-.5-3s.3-2.8.8-3.9c.6-1.1,1.3-2,2.3-2.6,1-.6,2.2-.9,3.5-.9s1.8.2,2.6.5c.8.3,1.5.9,2,1.5.6.7,1,1.4,1.3,2.4s.5,1.9.5,3.1-.3,2.9-.8,4c-.5,1.1-1.3,2-2.3,2.6-1,.6-2.1.9-3.4.9ZM53.7,339.5c1,0,1.9-.3,2.7-.8.8-.5,1.4-1.2,1.8-2.1.4-.9.6-2,.6-3.2s-.1-1.7-.4-2.5c-.2-.7-.6-1.4-1.1-1.9-.5-.5-1-.9-1.6-1.2-.6-.3-1.3-.4-2.1-.4s-2,.3-2.7.8-1.4,1.2-1.8,2.1c-.4.9-.6,2-.6,3.2s.2,2.2.6,3.1c.4.9,1,1.6,1.8,2.1.8.5,1.7.8,2.7.8ZM58.9,340.7v-6l.4-1.3-.4-2.2v-5h1.7v14.6h-1.7Z"/>
            <path class="cls-4" d="M63.4,327.5v-1.4h10.2v1.4h-10.2ZM70.7,341c-.8,0-1.4,0-2-.2-.6-.1-1-.4-1.4-.8-.4-.4-.6-.9-.8-1.5s-.3-1.4-.3-2.4v-15.5h1.7v15.5c0,.9.1,1.6.3,2.1.2.5.5.8.9,1,.4.2,1,.2,1.7.2s.8,0,1.3-.1c.5,0,.9-.3,1.3-.5v1.7c-.3.1-.6.2-.9.3-.3,0-.7.1-1,.2-.3,0-.6,0-.9,0Z"/>
            <path class="cls-4" d="M83,340.9c-1.5,0-2.7-.3-3.8-1s-1.9-1.5-2.5-2.6c-.6-1.1-.8-2.4-.8-3.9s.3-2.7.8-3.9,1.3-2,2.4-2.7c1-.6,2.3-1,3.7-1s2.6.3,3.6,1c1,.6,1.8,1.5,2.3,2.6.5,1.1.8,2.4.8,3.8v.6h-12.6v-1.4h11.4l-.4.6c0-1.1-.2-2.1-.6-3-.4-.9-1-1.6-1.8-2-.8-.5-1.7-.7-2.7-.7s-1.9.2-2.7.7c-.8.5-1.4,1.2-1.8,2-.4.9-.7,2-.7,3.2s.2,2.3.7,3.2c.4.9,1.1,1.6,1.9,2.1.8.5,1.7.7,2.8.7s1.5-.1,2.2-.4c.6-.3,1.2-.6,1.6-1.1.4-.5.7-1,.9-1.6h1.7c-.2.9-.5,1.6-1.1,2.3s-1.3,1.2-2.2,1.6c-.9.4-1.9.6-3,.6Z"/>
            <path class="cls-4" d="M97.9,340.9c-1.2,0-2.2-.2-3-.6-.8-.4-1.5-.9-1.9-1.5-.4-.7-.7-1.4-.7-2.3h1.7c0,.6.1,1.1.4,1.5.3.4.7.8,1.3,1,.6.3,1.3.4,2.1.4s2-.2,2.6-.7c.6-.5.9-1.1.9-1.9s-.2-1-.5-1.4c-.3-.3-.7-.6-1.2-.8-.5-.2-1.1-.4-1.7-.5-.6-.1-1.2-.3-1.9-.4-.6-.2-1.2-.4-1.7-.7-.5-.3-.9-.7-1.2-1.2-.3-.5-.5-1.1-.5-1.9,0-1.2.4-2.2,1.3-2.9.9-.7,2.1-1.1,3.6-1.1s1.9.2,2.7.5c.8.3,1.4.8,1.8,1.5.4.6.7,1.4.7,2.2h-1.7c0-.8-.3-1.5-1-2-.6-.5-1.5-.8-2.4-.8s-1.8.2-2.4.7c-.6.4-.9,1.1-.9,1.8s.2,1,.5,1.4c.3.3.7.6,1.2.8.5.2,1.1.3,1.7.4.6.1,1.2.3,1.9.4.6.2,1.2.4,1.7.7.5.3.9.7,1.2,1.2.3.5.5,1.2.5,2,0,1.3-.5,2.3-1.4,3-.9.8-2.2,1.1-3.8,1.1Z"/>
            <path class="cls-4" d="M119.3,340.9c-1,0-1.9-.2-2.7-.5-.8-.4-1.5-.9-2.1-1.5s-1-1.5-1.3-2.4c-.3-.9-.5-1.9-.5-3s.3-2.8.8-3.9c.6-1.1,1.3-2,2.3-2.6,1-.6,2.2-.9,3.5-.9s1.8.2,2.6.5c.8.3,1.5.9,2,1.5.6.7,1,1.4,1.3,2.4s.5,1.9.5,3.1-.3,2.9-.8,4c-.5,1.1-1.3,2-2.3,2.6-1,.6-2.1.9-3.4.9ZM119.6,339.5c1,0,1.9-.3,2.7-.8.8-.5,1.4-1.2,1.8-2.1.4-.9.6-2,.6-3.2s-.1-1.7-.4-2.5c-.2-.7-.6-1.4-1.1-1.9-.5-.5-1-.9-1.6-1.2-.6-.3-1.3-.4-2.1-.4s-2,.3-2.7.8-1.4,1.2-1.8,2.1c-.4.9-.6,2-.6,3.2s.2,2.2.6,3.1c.4.9,1,1.6,1.8,2.1.8.5,1.7.8,2.7.8ZM124.8,340.7v-6l.4-1.3-.4-2.2v-5h1.7v14.6h-1.7Z"/>
            <path class="cls-4" d="M131.2,340.7v-14.6h1.7v6.7h-.6c0-1.4.2-2.7.7-3.7.5-1,1.1-1.8,2-2.4.9-.6,1.9-.8,3.1-.8s1.7.1,2.3.4c.7.2,1.2.6,1.7,1.1.5.5.8,1.2,1,1.9.2.8.3,1.7.3,2.7v8.6h-1.7v-8c0-1,0-1.9-.3-2.5-.2-.7-.5-1.2-.8-1.6-.4-.4-.8-.7-1.3-.8-.5-.2-1.1-.2-1.8-.2s-1.6.2-2.3.7c-.7.4-1.3,1.2-1.7,2.1-.4,1-.6,2.2-.6,3.8v6.6h-1.7Z"/>
            <path class="cls-4" d="M153.4,340.9c-1,0-1.9-.2-2.7-.5-.8-.4-1.5-.9-2.1-1.5s-1-1.5-1.3-2.4c-.3-.9-.5-1.9-.5-3s.3-2.8.8-3.9c.6-1.1,1.3-2,2.3-2.6,1-.6,2.2-.9,3.5-.9s1.8.2,2.6.5c.8.3,1.5.9,2,1.5.6.7,1,1.4,1.3,2.4s.5,1.9.5,3.1-.3,2.9-.8,4c-.5,1.1-1.3,2-2.3,2.6-1,.6-2.1.9-3.4.9ZM153.8,339.5c1,0,1.9-.3,2.7-.8.8-.5,1.4-1.2,1.8-2.1.4-.9.6-2,.6-3.2s-.1-1.7-.4-2.5c-.2-.7-.6-1.4-1.1-1.9-.5-.5-1-.9-1.6-1.2-.6-.3-1.3-.4-2.1-.4s-2,.3-2.7.8-1.4,1.2-1.8,2.1c-.4.9-.6,2-.6,3.2s.2,2.2.6,3.1c.4.9,1,1.6,1.8,2.1.8.5,1.7.8,2.7.8ZM158.9,340.7v-5l.5-2.4-.5-1.9v-12.6h1.7v21.9h-1.7Z"/>
            <path class="cls-4" d="M170.1,327.5v-1.4h9.3v1.4h-9.3ZM172.8,340.7v-16.7c0-1.3.2-2.3.5-3.1.3-.8.9-1.4,1.5-1.8.7-.4,1.5-.6,2.6-.6s.6,0,.8,0c.3,0,.5,0,.7.1.2,0,.4.1.5.2v1.6c-.3-.2-.6-.3-1-.4-.4,0-.7-.1-1.1-.1-1,0-1.7.3-2.2,1-.5.7-.7,1.7-.7,3v16.6h-1.7Z"/>
            <path class="cls-4" d="M187.9,340.9c-1.5,0-2.7-.3-3.8-1s-1.9-1.5-2.5-2.6c-.6-1.1-.8-2.4-.8-3.9s.3-2.7.8-3.9,1.3-2,2.4-2.7c1-.6,2.3-1,3.7-1s2.6.3,3.6,1c1,.6,1.8,1.5,2.3,2.6.5,1.1.8,2.4.8,3.8v.6h-12.6v-1.4h11.4l-.4.6c0-1.1-.2-2.1-.6-3-.4-.9-1-1.6-1.8-2-.8-.5-1.7-.7-2.7-.7s-1.9.2-2.7.7c-.8.5-1.4,1.2-1.8,2-.4.9-.7,2-.7,3.2s.2,2.3.7,3.2c.4.9,1.1,1.6,1.9,2.1.8.5,1.7.7,2.8.7s1.5-.1,2.2-.4c.6-.3,1.2-.6,1.6-1.1.4-.5.7-1,.9-1.6h1.7c-.2.9-.5,1.6-1.1,2.3s-1.3,1.2-2.2,1.6c-.9.4-1.9.6-3,.6Z"/>
            <path class="cls-4" d="M204.3,340.9c-1.5,0-2.7-.3-3.8-1s-1.9-1.5-2.5-2.6c-.6-1.1-.8-2.4-.8-3.9s.3-2.7.8-3.9,1.3-2,2.4-2.7c1-.6,2.3-1,3.7-1s2.6.3,3.6,1c1,.6,1.8,1.5,2.3,2.6.5,1.1.8,2.4.8,3.8v.6h-12.6v-1.4h11.4l-.4.6c0-1.1-.2-2.1-.6-3-.4-.9-1-1.6-1.8-2-.8-.5-1.7-.7-2.7-.7s-1.9.2-2.7.7c-.8.5-1.4,1.2-1.8,2-.4.9-.7,2-.7,3.2s.2,2.3.7,3.2c.4.9,1.1,1.6,1.9,2.1.8.5,1.7.7,2.8.7s1.5-.1,2.2-.4c.6-.3,1.2-.6,1.6-1.1.4-.5.7-1,.9-1.6h1.7c-.2.9-.5,1.6-1.1,2.3s-1.3,1.2-2.2,1.6c-.9.4-1.9.6-3,.6Z"/>
            <path class="cls-4" d="M219.2,340.9c-1.2,0-2.2-.2-3-.6-.8-.4-1.5-.9-1.9-1.5-.4-.7-.7-1.4-.7-2.3h1.7c0,.6.1,1.1.4,1.5.3.4.7.8,1.3,1,.6.3,1.3.4,2.1.4s2-.2,2.6-.7c.6-.5.9-1.1.9-1.9s-.2-1-.5-1.4c-.3-.3-.7-.6-1.2-.8-.5-.2-1.1-.4-1.7-.5-.6-.1-1.2-.3-1.9-.4-.6-.2-1.2-.4-1.7-.7-.5-.3-.9-.7-1.2-1.2-.3-.5-.5-1.1-.5-1.9,0-1.2.4-2.2,1.3-2.9.9-.7,2.1-1.1,3.6-1.1s1.9.2,2.7.5c.8.3,1.4.8,1.8,1.5.4.6.7,1.4.7,2.2h-1.7c0-.8-.3-1.5-1-2-.6-.5-1.5-.8-2.4-.8s-1.8.2-2.4.7c-.6.4-.9,1.1-.9,1.8s.2,1,.5,1.4c.3.3.7.6,1.2.8.5.2,1.1.3,1.7.4.6.1,1.2.3,1.9.4.6.2,1.2.4,1.7.7.5.3.9.7,1.2,1.2.3.5.5,1.2.5,2,0,1.3-.5,2.3-1.4,3-.9.8-2.2,1.1-3.8,1.1Z"/>
            <path class="cls-4" d="M227.7,345.7l.9-5h-1v-2.5h2.4v2.3l-1.4,5.1h-1Z"/>
            <path class="cls-4" d="M246.8,340.9c-1,0-1.9-.2-2.7-.5-.8-.4-1.5-.9-2.1-1.5s-1-1.5-1.3-2.4c-.3-.9-.5-1.9-.5-3s.3-2.8.8-3.9c.6-1.1,1.3-2,2.3-2.6,1-.6,2.2-.9,3.5-.9s1.8.2,2.6.5c.8.3,1.5.9,2,1.5.6.7,1,1.4,1.3,2.4s.5,1.9.5,3.1-.3,2.9-.8,4c-.5,1.1-1.3,2-2.3,2.6-1,.6-2.1.9-3.4.9ZM247.1,339.5c1,0,1.9-.3,2.7-.8.8-.5,1.4-1.2,1.8-2.1.4-.9.6-2,.6-3.2s-.1-1.7-.4-2.5c-.2-.7-.6-1.4-1.1-1.9-.5-.5-1-.9-1.6-1.2-.6-.3-1.3-.4-2.1-.4s-2,.3-2.7.8-1.4,1.2-1.8,2.1c-.4.9-.6,2-.6,3.2s.2,2.2.6,3.1c.4.9,1,1.6,1.8,2.1.8.5,1.7.8,2.7.8ZM252.3,340.7v-6l.4-1.3-.4-2.2v-5h1.7v14.6h-1.7Z"/>
            <path class="cls-4" d="M258.7,340.7v-14.6h1.7v6.7h-.6c0-1.4.2-2.7.7-3.7.5-1,1.1-1.8,2-2.4.9-.6,1.9-.8,3.1-.8s1.7.1,2.3.4c.7.2,1.2.6,1.7,1.1.5.5.8,1.2,1,1.9.2.8.3,1.7.3,2.7v8.6h-1.7v-8c0-1,0-1.9-.3-2.5-.2-.7-.5-1.2-.8-1.6-.4-.4-.8-.7-1.3-.8-.5-.2-1.1-.2-1.8-.2s-1.6.2-2.3.7c-.7.4-1.3,1.2-1.7,2.1-.4,1-.6,2.2-.6,3.8v6.6h-1.7Z"/>
            <path class="cls-4" d="M280.9,340.9c-1,0-1.9-.2-2.7-.5-.8-.4-1.5-.9-2.1-1.5s-1-1.5-1.3-2.4c-.3-.9-.5-1.9-.5-3s.3-2.8.8-3.9c.6-1.1,1.3-2,2.3-2.6,1-.6,2.2-.9,3.5-.9s1.8.2,2.6.5c.8.3,1.5.9,2,1.5.6.7,1,1.4,1.3,2.4s.5,1.9.5,3.1-.3,2.9-.8,4c-.5,1.1-1.3,2-2.3,2.6-1,.6-2.1.9-3.4.9ZM281.3,339.5c1,0,1.9-.3,2.7-.8.8-.5,1.4-1.2,1.8-2.1.4-.9.6-2,.6-3.2s-.1-1.7-.4-2.5c-.2-.7-.6-1.4-1.1-1.9-.5-.5-1-.9-1.6-1.2-.6-.3-1.3-.4-2.1-.4s-2,.3-2.7.8-1.4,1.2-1.8,2.1c-.4.9-.6,2-.6,3.2s.2,2.2.6,3.1c.4.9,1,1.6,1.8,2.1.8.5,1.7.8,2.7.8ZM286.5,340.7v-5l.5-2.4-.5-1.9v-12.6h1.7v21.9h-1.7Z"/>
            <path class="cls-4" d="M305.2,340.9c-1,0-1.9-.2-2.7-.5-.8-.4-1.5-.9-2.1-1.5s-1-1.5-1.3-2.4c-.3-.9-.5-1.9-.5-3s.3-2.8.8-3.9c.6-1.1,1.3-2,2.3-2.6,1-.6,2.2-.9,3.5-.9s1.8.2,2.6.5c.8.3,1.5.9,2,1.5.6.7,1,1.4,1.3,2.4s.5,1.9.5,3.1-.3,2.9-.8,4c-.5,1.1-1.3,2-2.3,2.6-1,.6-2.1.9-3.4.9ZM305.5,339.5c1,0,1.9-.3,2.7-.8.8-.5,1.4-1.2,1.8-2.1.4-.9.6-2,.6-3.2s-.1-1.7-.4-2.5c-.2-.7-.6-1.4-1.1-1.9-.5-.5-1-.9-1.6-1.2-.6-.3-1.3-.4-2.1-.4s-2,.3-2.7.8-1.4,1.2-1.8,2.1c-.4.9-.6,2-.6,3.2s.2,2.2.6,3.1c.4.9,1,1.6,1.8,2.1.8.5,1.7.8,2.7.8ZM310.7,340.7v-6l.4-1.3-.4-2.2v-5h1.7v14.6h-1.7Z"/>
            <path class="cls-4" d="M317.1,340.7v-21.9h1.7v21.9h-1.7Z"/>
            <path class="cls-4" d="M328.1,340.9c-1.2,0-2.2-.2-3-.6-.8-.4-1.5-.9-1.9-1.5-.4-.7-.7-1.4-.7-2.3h1.7c0,.6.1,1.1.4,1.5.3.4.7.8,1.3,1,.6.3,1.3.4,2.1.4s2-.2,2.6-.7c.6-.5.9-1.1.9-1.9s-.2-1-.5-1.4c-.3-.3-.7-.6-1.2-.8-.5-.2-1.1-.4-1.7-.5-.6-.1-1.2-.3-1.9-.4-.6-.2-1.2-.4-1.7-.7-.5-.3-.9-.7-1.2-1.2-.3-.5-.5-1.1-.5-1.9,0-1.2.4-2.2,1.3-2.9.9-.7,2.1-1.1,3.6-1.1s1.9.2,2.7.5c.8.3,1.4.8,1.8,1.5.4.6.7,1.4.7,2.2h-1.7c0-.8-.3-1.5-1-2-.6-.5-1.5-.8-2.4-.8s-1.8.2-2.4.7c-.6.4-.9,1.1-.9,1.8s.2,1,.5,1.4c.3.3.7.6,1.2.8.5.2,1.1.3,1.7.4.6.1,1.2.3,1.9.4.6.2,1.2.4,1.7.7.5.3.9.7,1.2,1.2.3.5.5,1.2.5,2,0,1.3-.5,2.3-1.4,3-.9.8-2.2,1.1-3.8,1.1Z"/>
            <path class="cls-4" d="M343.4,340.9c-1.4,0-2.7-.3-3.8-1-1.1-.6-2-1.5-2.6-2.6-.6-1.1-.9-2.4-.9-3.9s.3-2.8.9-3.9c.6-1.1,1.5-2,2.6-2.6,1.1-.6,2.4-1,3.8-1s2.8.3,3.8,1c1.1.6,1.9,1.5,2.5,2.6.6,1.1.9,2.4.9,3.9s-.3,2.8-.9,3.9c-.6,1.1-1.4,2-2.5,2.6-1.1.6-2.4,1-3.8,1ZM343.4,339.4c1.1,0,2.1-.3,2.9-.8.8-.5,1.4-1.2,1.9-2.1.4-.9.7-1.9.7-3.1s-.1-1.6-.4-2.4c-.2-.7-.6-1.4-1.1-1.9s-1.1-1-1.7-1.2-1.4-.4-2.3-.4-2.1.3-2.9.8c-.8.5-1.5,1.2-1.9,2.1-.4.9-.7,1.9-.7,3.1s.2,2.2.7,3.1c.4.9,1.1,1.6,1.9,2.1.8.5,1.8.8,2.9.8Z"/>
            <path class="cls-4" d="M37.3,375.5v-21.9h1.7v14.6h0v7.3h-1.7ZM46.7,375.5l-7.7-7v-.3c-.1,0,6.9-7.2,6.9-7.2h2.3l-7.5,7.7-.3-1.1,8.7,8h-2.5Z"/>
            <path class="cls-4" d="M57.9,375.7c-1.5,0-2.7-.3-3.8-1s-1.9-1.5-2.5-2.6c-.6-1.1-.8-2.4-.8-3.9s.3-2.7.8-3.9,1.3-2,2.4-2.7c1-.6,2.3-1,3.7-1s2.6.3,3.6,1c1,.6,1.8,1.5,2.3,2.6.5,1.1.8,2.4.8,3.8v.6h-12.6v-1.4h11.4l-.4.6c0-1.1-.2-2.1-.6-3-.4-.9-1-1.6-1.8-2-.8-.5-1.7-.7-2.7-.7s-1.9.2-2.7.7c-.8.5-1.4,1.2-1.8,2-.4.9-.7,2-.7,3.2s.2,2.3.7,3.2c.4.9,1.1,1.6,1.9,2.1.8.5,1.7.7,2.8.7s1.5-.1,2.2-.4c.6-.3,1.2-.6,1.6-1.1.4-.5.7-1,.9-1.6h1.7c-.2.9-.5,1.6-1.1,2.3s-1.3,1.2-2.2,1.6c-.9.4-1.9.6-3,.6Z"/>
            <path class="cls-4" d="M74.4,375.7c-1.5,0-2.7-.3-3.8-1s-1.9-1.5-2.5-2.6c-.6-1.1-.8-2.4-.8-3.9s.3-2.7.8-3.9,1.3-2,2.4-2.7c1-.6,2.3-1,3.7-1s2.6.3,3.6,1c1,.6,1.8,1.5,2.3,2.6.5,1.1.8,2.4.8,3.8v.6h-12.6v-1.4h11.4l-.4.6c0-1.1-.2-2.1-.6-3-.4-.9-1-1.6-1.8-2-.8-.5-1.7-.7-2.7-.7s-1.9.2-2.7.7c-.8.5-1.4,1.2-1.8,2-.4.9-.7,2-.7,3.2s.2,2.3.7,3.2c.4.9,1.1,1.6,1.9,2.1.8.5,1.7.7,2.8.7s1.5-.1,2.2-.4c.6-.3,1.2-.6,1.6-1.1.4-.5.7-1,.9-1.6h1.7c-.2.9-.5,1.6-1.1,2.3s-1.3,1.2-2.2,1.6c-.9.4-1.9.6-3,.6Z"/>
            <path class="cls-4" d="M84.7,381.8v-20.9h1.7v4.7l-.4,2.5.5,2v11.6h-1.7ZM91.9,375.7c-1.3,0-2.4-.3-3.4-.9-1-.6-1.7-1.5-2.3-2.6-.5-1.1-.8-2.4-.8-4s.3-2.9.8-4c.5-1.1,1.3-2,2.3-2.6,1-.6,2.1-.9,3.4-.9s1.9.2,2.7.5c.8.4,1.5.9,2.1,1.5s1,1.5,1.4,2.4c.3.9.5,1.9.5,3s-.3,2.8-.8,3.9c-.6,1.1-1.3,2-2.3,2.6s-2.2.9-3.5.9ZM91.6,374.3c1,0,2-.3,2.7-.8.8-.5,1.4-1.2,1.8-2.1.4-.9.7-2,.7-3.1s-.2-2.3-.7-3.2c-.4-.9-1-1.6-1.8-2.1s-1.7-.8-2.7-.8-1.9.3-2.7.8-1.4,1.2-1.8,2.1c-.4.9-.7,2-.7,3.2s.1,1.7.4,2.5c.3.7.6,1.4,1.1,1.9.5.5,1,.9,1.6,1.2.6.3,1.3.4,2.1.4Z"/>
            <path class="cls-4" d="M113,376l-6.2-15h1.9l5.2,13-.9,2.1ZM109.8,381.9l3.2-7.9v-.4c.1,0,5.3-12.6,5.3-12.6h1.9l-8.6,20.9h-1.8Z"/>
            <path class="cls-4" d="M129,375.7c-1.4,0-2.7-.3-3.8-1-1.1-.6-2-1.5-2.6-2.6-.6-1.1-.9-2.4-.9-3.9s.3-2.8.9-3.9c.6-1.1,1.5-2,2.6-2.6,1.1-.6,2.4-1,3.8-1s2.8.3,3.8,1c1.1.6,1.9,1.5,2.5,2.6.6,1.1.9,2.4.9,3.9s-.3,2.8-.9,3.9c-.6,1.1-1.4,2-2.5,2.6-1.1.6-2.4,1-3.8,1ZM129,374.2c1.1,0,2.1-.3,2.9-.8.8-.5,1.4-1.2,1.9-2.1.4-.9.7-1.9.7-3.1s-.1-1.6-.4-2.4c-.2-.7-.6-1.4-1.1-1.9s-1.1-1-1.7-1.2-1.4-.4-2.3-.4-2.1.3-2.9.8c-.8.5-1.5,1.2-1.9,2.1-.4.9-.7,1.9-.7,3.1s.2,2.2.7,3.1c.4.9,1.1,1.6,1.9,2.1.8.5,1.8.8,2.9.8Z"/>
            <path class="cls-4" d="M145,375.7c-.9,0-1.7-.1-2.3-.4-.7-.2-1.2-.6-1.7-1.1-.4-.5-.8-1.1-1-1.9-.2-.8-.3-1.7-.3-2.8v-8.6h1.7v8c0,1,0,1.9.3,2.6s.5,1.2.8,1.6c.4.4.8.7,1.3.8.5.2,1.1.2,1.8.2s1.6-.2,2.3-.7c.7-.4,1.2-1.2,1.7-2.1.4-1,.6-2.2.6-3.8v-6.6h1.7v14.6h-1.7v-6.7h.6c0,1.4-.2,2.7-.7,3.7s-1.1,1.8-2,2.4c-.9.6-1.9.8-3.1.8Z"/>
            <path class="cls-4" d="M156.6,375.5v-14.6h1.7v7.3h-.5c0-1.6.3-2.9.7-4,.4-1.1,1.1-1.9,1.9-2.5.8-.6,1.8-.9,3-.9h.4c.1,0,.3,0,.4,0v1.7c-.9,0-1.7,0-2.5.3-.7.2-1.4.5-1.9,1-.5.5-.9,1.2-1.2,2.1-.3.9-.4,2-.4,3.4v6.2h-1.7Z"/>
            <path class="cls-4" d="M173.9,375.5v-14.6h1.7v6.7h-.6c0-1.4.2-2.7.6-3.7.4-1,1-1.8,1.8-2.4.8-.6,1.7-.8,2.8-.8s1.5.1,2.1.4c.6.2,1.1.6,1.6,1.1.4.5.7,1.1,1,1.9.2.8.3,1.6.3,2.7h-.9c.1-1.3.4-2.4.9-3.3.5-.9,1.1-1.6,2-2,.8-.5,1.7-.7,2.7-.7s1.6.1,2.2.4c.6.3,1.2.6,1.6,1.1s.8,1.2,1,1.9c.2.8.3,1.7.3,2.7v8.6h-1.7v-8c0-1,0-1.9-.3-2.6-.2-.7-.4-1.2-.8-1.6s-.7-.7-1.2-.8c-.5-.2-1-.2-1.5-.2s-1.4.2-2.1.7c-.6.4-1.2,1.2-1.6,2.1s-.6,2.2-.6,3.8v6.6h-1.7v-8c0-1,0-1.9-.3-2.5-.2-.7-.4-1.2-.7-1.6-.3-.4-.7-.7-1.2-.8-.5-.2-1-.2-1.5-.2s-1.4.2-2.1.7c-.6.4-1.2,1.2-1.6,2.1-.4,1-.6,2.2-.6,3.8v6.6h-1.7Z"/>
            <path class="cls-4" d="M205.7,375.7c-1.4,0-2.7-.3-3.8-1-1.1-.6-2-1.5-2.6-2.6-.6-1.1-.9-2.4-.9-3.9s.3-2.8.9-3.9c.6-1.1,1.5-2,2.6-2.6,1.1-.6,2.4-1,3.8-1s2.8.3,3.8,1c1.1.6,1.9,1.5,2.5,2.6.6,1.1.9,2.4.9,3.9s-.3,2.8-.9,3.9c-.6,1.1-1.4,2-2.5,2.6-1.1.6-2.4,1-3.8,1ZM205.7,374.2c1.1,0,2.1-.3,2.9-.8.8-.5,1.4-1.2,1.9-2.1.4-.9.7-1.9.7-3.1s-.1-1.6-.4-2.4c-.2-.7-.6-1.4-1.1-1.9s-1.1-1-1.7-1.2-1.4-.4-2.3-.4-2.1.3-2.9.8c-.8.5-1.5,1.2-1.9,2.1-.4.9-.7,1.9-.7,3.1s.2,2.2.7,3.1c.4.9,1.1,1.6,1.9,2.1.8.5,1.8.8,2.9.8Z"/>
            <path class="cls-4" d="M216.7,375.5v-14.6h1.7v6.7h-.6c0-1.4.2-2.7.7-3.7.5-1,1.1-1.8,2-2.4.9-.6,1.9-.8,3.1-.8s1.7.1,2.3.4c.7.2,1.2.6,1.7,1.1.5.5.8,1.2,1,1.9.2.8.3,1.7.3,2.7v8.6h-1.7v-8c0-1,0-1.9-.3-2.5-.2-.7-.5-1.2-.8-1.6-.4-.4-.8-.7-1.3-.8-.5-.2-1.1-.2-1.8-.2s-1.6.2-2.3.7c-.7.4-1.3,1.2-1.7,2.1-.4,1-.6,2.2-.6,3.8v6.6h-1.7Z"/>
            <path class="cls-4" d="M239.5,375.7c-1.5,0-2.7-.3-3.8-1s-1.9-1.5-2.5-2.6c-.6-1.1-.8-2.4-.8-3.9s.3-2.7.8-3.9,1.3-2,2.4-2.7c1-.6,2.3-1,3.7-1s2.6.3,3.6,1c1,.6,1.8,1.5,2.3,2.6.5,1.1.8,2.4.8,3.8v.6h-12.6v-1.4h11.4l-.4.6c0-1.1-.2-2.1-.6-3-.4-.9-1-1.6-1.8-2-.8-.5-1.7-.7-2.7-.7s-1.9.2-2.7.7c-.8.5-1.4,1.2-1.8,2-.4.9-.7,2-.7,3.2s.2,2.3.7,3.2c.4.9,1.1,1.6,1.9,2.1.8.5,1.7.7,2.8.7s1.5-.1,2.2-.4c.6-.3,1.2-.6,1.6-1.1.4-.5.7-1,.9-1.6h1.7c-.2.9-.5,1.6-1.1,2.3s-1.3,1.2-2.2,1.6c-.9.4-1.9.6-3,.6Z"/>
            <path class="cls-4" d="M253.8,376l-6.2-15h1.9l5.2,13-.9,2.1ZM250.6,381.9l3.2-7.9v-.4c.1,0,5.3-12.6,5.3-12.6h1.9l-8.6,20.9h-1.8Z"/>
            <path class="cls-4" d="M274.8,375.7c-1.2,0-2.2-.2-3-.6-.8-.4-1.5-.9-1.9-1.5-.4-.7-.7-1.4-.7-2.3h1.7c0,.6.1,1.1.4,1.5.3.4.7.8,1.3,1,.6.3,1.3.4,2.1.4s2-.2,2.6-.7c.6-.5.9-1.1.9-1.9s-.2-1-.5-1.4c-.3-.3-.7-.6-1.2-.8-.5-.2-1.1-.4-1.7-.5-.6-.1-1.2-.3-1.9-.4-.6-.2-1.2-.4-1.7-.7-.5-.3-.9-.7-1.2-1.2-.3-.5-.5-1.1-.5-1.9,0-1.2.4-2.2,1.3-2.9.9-.7,2.1-1.1,3.6-1.1s1.9.2,2.7.5c.8.3,1.4.8,1.8,1.5.4.6.7,1.4.7,2.2h-1.7c0-.8-.3-1.5-1-2-.6-.5-1.5-.8-2.4-.8s-1.8.2-2.4.7c-.6.4-.9,1.1-.9,1.8s.2,1,.5,1.4c.3.3.7.6,1.2.8.5.2,1.1.3,1.7.4.6.1,1.2.3,1.9.4.6.2,1.2.4,1.7.7.5.3.9.7,1.2,1.2.3.5.5,1.2.5,2,0,1.3-.5,2.3-1.4,3-.9.8-2.2,1.1-3.8,1.1Z"/>
            <path class="cls-4" d="M290,375.7c-1.5,0-2.7-.3-3.8-1s-1.9-1.5-2.5-2.6c-.6-1.1-.8-2.4-.8-3.9s.3-2.7.8-3.9,1.3-2,2.4-2.7c1-.6,2.3-1,3.7-1s2.6.3,3.6,1c1,.6,1.8,1.5,2.3,2.6.5,1.1.8,2.4.8,3.8v.6h-12.6v-1.4h11.4l-.4.6c0-1.1-.2-2.1-.6-3-.4-.9-1-1.6-1.8-2-.8-.5-1.7-.7-2.7-.7s-1.9.2-2.7.7c-.8.5-1.4,1.2-1.8,2-.4.9-.7,2-.7,3.2s.2,2.3.7,3.2c.4.9,1.1,1.6,1.9,2.1.8.5,1.7.7,2.8.7s1.5-.1,2.2-.4c.6-.3,1.2-.6,1.6-1.1.4-.5.7-1,.9-1.6h1.7c-.2.9-.5,1.6-1.1,2.3s-1.3,1.2-2.2,1.6c-.9.4-1.9.6-3,.6Z"/>
            <path class="cls-4" d="M306.1,375.7c-1.5,0-2.7-.3-3.8-1-1-.6-1.8-1.5-2.3-2.6-.5-1.1-.8-2.4-.8-3.9s.3-2.7.8-3.9c.5-1.1,1.3-2,2.3-2.7,1-.6,2.3-1,3.7-1s2.1.2,2.9.6c.9.4,1.6,1,2.2,1.7.6.7,1,1.5,1.1,2.5h-1.7c-.2-.7-.5-1.2-.9-1.7-.4-.5-.9-.9-1.6-1.1-.6-.3-1.3-.4-2.1-.4-1.1,0-2,.3-2.8.8s-1.3,1.2-1.7,2.1c-.4.9-.6,1.9-.6,3.1s.2,2.2.6,3.1.9,1.6,1.7,2.1c.7.5,1.7.8,2.8.8s2.2-.3,3-.9c.8-.6,1.3-1.5,1.6-2.7h1.7c-.2,1.1-.5,2-1.1,2.7-.6.8-1.3,1.3-2.1,1.7-.9.4-1.9.6-3,.6Z"/>
            <path class="cls-4" d="M320.8,375.7c-.9,0-1.7-.1-2.3-.4-.7-.2-1.2-.6-1.7-1.1-.4-.5-.8-1.1-1-1.9-.2-.8-.3-1.7-.3-2.8v-8.6h1.7v8c0,1,0,1.9.3,2.6s.5,1.2.8,1.6c.4.4.8.7,1.3.8.5.2,1.1.2,1.8.2s1.6-.2,2.3-.7c.7-.4,1.2-1.2,1.7-2.1.4-1,.6-2.2.6-3.8v-6.6h1.7v14.6h-1.7v-6.7h.6c0,1.4-.2,2.7-.7,3.7s-1.1,1.8-2,2.4c-.9.6-1.9.8-3.1.8Z"/>
            <path class="cls-4" d="M332.4,375.5v-14.6h1.7v7.3h-.5c0-1.6.3-2.9.7-4,.4-1.1,1.1-1.9,1.9-2.5.8-.6,1.8-.9,3-.9h.4c.1,0,.3,0,.4,0v1.7c-.9,0-1.7,0-2.5.3-.7.2-1.4.5-1.9,1-.5.5-.9,1.2-1.2,2.1-.3.9-.4,2-.4,3.4v6.2h-1.7Z"/>
            <path class="cls-4" d="M349,375.7c-1.5,0-2.7-.3-3.8-1s-1.9-1.5-2.5-2.6c-.6-1.1-.8-2.4-.8-3.9s.3-2.7.8-3.9,1.3-2,2.4-2.7c1-.6,2.3-1,3.7-1s2.6.3,3.6,1c1,.6,1.8,1.5,2.3,2.6.5,1.1.8,2.4.8,3.8v.6h-12.6v-1.4h11.4l-.4.6c0-1.1-.2-2.1-.6-3-.4-.9-1-1.6-1.8-2-.8-.5-1.7-.7-2.7-.7s-1.9.2-2.7.7c-.8.5-1.4,1.2-1.8,2-.4.9-.7,2-.7,3.2s.2,2.3.7,3.2c.4.9,1.1,1.6,1.9,2.1.8.5,1.7.7,2.8.7s1.5-.1,2.2-.4c.6-.3,1.2-.6,1.6-1.1.4-.5.7-1,.9-1.6h1.7c-.2.9-.5,1.6-1.1,2.3s-1.3,1.2-2.2,1.6c-.9.4-1.9.6-3,.6Z"/>
            <path class="cls-4" d="M35.4,397.1v-1.4h10.2v1.4h-10.2ZM42.7,410.6c-.8,0-1.4,0-2-.2-.6-.1-1-.4-1.4-.8-.4-.4-.6-.9-.8-1.5s-.3-1.4-.3-2.4v-15.5h1.7v15.5c0,.9.1,1.6.3,2.1.2.5.5.8.9,1,.4.2,1,.2,1.7.2s.8,0,1.3-.1c.5,0,.9-.3,1.3-.5v1.7c-.3.1-.6.2-.9.3-.3,0-.7.1-1,.2-.3,0-.6,0-.9,0Z"/>
            <path class="cls-4" d="M55.2,410.5c-1.4,0-2.7-.3-3.8-1-1.1-.6-2-1.5-2.6-2.6-.6-1.1-.9-2.4-.9-3.9s.3-2.8.9-3.9c.6-1.1,1.5-2,2.6-2.6,1.1-.6,2.4-1,3.8-1s2.8.3,3.8,1c1.1.6,1.9,1.5,2.5,2.6.6,1.1.9,2.4.9,3.9s-.3,2.8-.9,3.9c-.6,1.1-1.4,2-2.5,2.6-1.1.6-2.4,1-3.8,1ZM55.2,409c1.1,0,2.1-.3,2.9-.8.8-.5,1.4-1.2,1.9-2.1.4-.9.7-1.9.7-3.1s-.1-1.6-.4-2.4c-.2-.7-.6-1.4-1.1-1.9s-1.1-1-1.7-1.2-1.4-.4-2.3-.4-2.1.3-2.9.8c-.8.5-1.5,1.2-1.9,2.1-.4.9-.7,1.9-.7,3.1s.2,2.2.7,3.1c.4.9,1.1,1.6,1.9,2.1.8.5,1.8.8,2.9.8Z"/>
            <path class="cls-4" d="M78.6,410.5c-1,0-1.9-.2-2.7-.5-.8-.4-1.5-.9-2.1-1.5s-1-1.5-1.3-2.4c-.3-.9-.5-1.9-.5-3s.3-2.8.8-3.9c.6-1.1,1.3-2,2.3-2.6,1-.6,2.2-.9,3.5-.9s1.8.2,2.6.5c.8.3,1.5.9,2,1.5.6.7,1,1.4,1.3,2.4s.5,1.9.5,3.1-.3,2.9-.8,4c-.5,1.1-1.3,2-2.3,2.6-1,.6-2.1.9-3.4.9ZM78.8,409.1c1,0,1.9-.3,2.7-.8.8-.5,1.4-1.2,1.8-2.1.4-.9.6-2,.6-3.2s-.1-1.7-.4-2.5c-.2-.7-.6-1.4-1.1-1.9-.5-.5-1-.9-1.6-1.2-.6-.3-1.3-.4-2.1-.4s-2,.3-2.7.8-1.4,1.2-1.8,2.1c-.4.9-.6,2-.6,3.2s.2,2.2.6,3.1c.4.9,1,1.6,1.8,2.1.8.5,1.7.8,2.7.8ZM84,410.3v-6l.4-1.3-.4-2.2v-5h1.7v14.6h-1.7Z"/>
            <path class="cls-4" d="M94.6,410.4l-6.2-14.6h1.9l5,12.1,5-12.1h1.9l-6.3,14.6h-1.2Z"/>
            <path class="cls-4" d="M110.9,410.5c-1.4,0-2.7-.3-3.8-1-1.1-.6-2-1.5-2.6-2.6-.6-1.1-.9-2.4-.9-3.9s.3-2.8.9-3.9c.6-1.1,1.5-2,2.6-2.6,1.1-.6,2.4-1,3.8-1s2.8.3,3.8,1c1.1.6,1.9,1.5,2.5,2.6.6,1.1.9,2.4.9,3.9s-.3,2.8-.9,3.9c-.6,1.1-1.4,2-2.5,2.6-1.1.6-2.4,1-3.8,1ZM110.9,409c1.1,0,2.1-.3,2.9-.8.8-.5,1.4-1.2,1.9-2.1.4-.9.7-1.9.7-3.1s-.1-1.6-.4-2.4c-.2-.7-.6-1.4-1.1-1.9s-1.1-1-1.7-1.2-1.4-.4-2.3-.4-2.1.3-2.9.8c-.8.5-1.5,1.2-1.9,2.1-.4.9-.7,1.9-.7,3.1s.2,2.2.7,3.1c.4.9,1.1,1.6,1.9,2.1.8.5,1.8.8,2.9.8Z"/>
            <path class="cls-4" d="M121.5,392v-2.5h2.5v2.5h-2.5ZM121.9,410.3v-14.6h1.7v14.6h-1.7Z"/>
            <path class="cls-4" d="M134,410.5c-1,0-1.9-.2-2.7-.5-.8-.4-1.5-.9-2.1-1.5s-1-1.5-1.3-2.4c-.3-.9-.5-1.9-.5-3s.3-2.8.8-3.9c.6-1.1,1.3-2,2.3-2.6,1-.6,2.2-.9,3.5-.9s1.8.2,2.6.5c.8.3,1.5.9,2,1.5.6.7,1,1.4,1.3,2.4s.5,1.9.5,3.1-.3,2.9-.8,4c-.5,1.1-1.3,2-2.3,2.6-1,.6-2.1.9-3.4.9ZM134.3,409.1c1,0,1.9-.3,2.7-.8.8-.5,1.4-1.2,1.8-2.1.4-.9.6-2,.6-3.2s-.1-1.7-.4-2.5c-.2-.7-.6-1.4-1.1-1.9-.5-.5-1-.9-1.6-1.2-.6-.3-1.3-.4-2.1-.4s-2,.3-2.7.8-1.4,1.2-1.8,2.1c-.4.9-.6,2-.6,3.2s.2,2.2.6,3.1c.4.9,1,1.6,1.8,2.1.8.5,1.7.8,2.7.8ZM139.5,410.3v-5l.5-2.4-.5-1.9v-12.6h1.7v21.9h-1.7Z"/>
            <path class="cls-4" d="M150.6,397.1v-1.4h10.2v1.4h-10.2ZM158,410.6c-.8,0-1.4,0-2-.2-.6-.1-1-.4-1.4-.8-.4-.4-.6-.9-.8-1.5s-.3-1.4-.3-2.4v-15.5h1.7v15.5c0,.9.1,1.6.3,2.1.2.5.5.8.9,1,.4.2,1,.2,1.7.2s.8,0,1.3-.1c.5,0,.9-.3,1.3-.5v1.7c-.3.1-.6.2-.9.3-.3,0-.7.1-1,.2-.3,0-.6,0-.9,0Z"/>
            <path class="cls-4" d="M164.1,410.3v-21.9h1.7v14.1h-.6c0-1.4.2-2.7.7-3.7.5-1,1.1-1.8,2-2.4.9-.6,1.9-.8,3.1-.8s1.7.1,2.3.4c.7.2,1.2.6,1.7,1.1.5.5.8,1.2,1,1.9.2.8.3,1.7.3,2.7v8.6h-1.7v-8c0-1,0-1.9-.3-2.5-.2-.7-.5-1.2-.8-1.6-.4-.4-.8-.7-1.3-.8-.5-.2-1.1-.2-1.8-.2s-1.6.2-2.3.7c-.7.4-1.3,1.2-1.7,2.1-.4,1-.6,2.2-.6,3.8v6.6h-1.7Z"/>
            <path class="cls-4" d="M186.9,410.5c-1.5,0-2.7-.3-3.8-1s-1.9-1.5-2.5-2.6c-.6-1.1-.8-2.4-.8-3.9s.3-2.7.8-3.9,1.3-2,2.4-2.7c1-.6,2.3-1,3.7-1s2.6.3,3.6,1c1,.6,1.8,1.5,2.3,2.6.5,1.1.8,2.4.8,3.8v.6h-12.6v-1.4h11.4l-.4.6c0-1.1-.2-2.1-.6-3-.4-.9-1-1.6-1.8-2-.8-.5-1.7-.7-2.7-.7s-1.9.2-2.7.7c-.8.5-1.4,1.2-1.8,2-.4.9-.7,2-.7,3.2s.2,2.3.7,3.2c.4.9,1.1,1.6,1.9,2.1.8.5,1.7.7,2.8.7s1.5-.1,2.2-.4c.6-.3,1.2-.6,1.6-1.1.4-.5.7-1,.9-1.6h1.7c-.2.9-.5,1.6-1.1,2.3s-1.3,1.2-2.2,1.6c-.9.4-1.9.6-3,.6Z"/>
            <path class="cls-4" d="M195.3,397.1v-1.4h9.3v1.4h-9.3ZM198,410.3v-16.7c0-1.3.2-2.3.5-3.1.3-.8.9-1.4,1.5-1.8.7-.4,1.5-.6,2.6-.6s.6,0,.8,0c.3,0,.5,0,.7.1.2,0,.4.1.5.2v1.6c-.3-.2-.6-.3-1-.4-.4,0-.7-.1-1.1-.1-1,0-1.7.3-2.2,1-.5.7-.7,1.7-.7,3v16.6h-1.7Z"/>
            <path class="cls-4" d="M205.2,397.1v-1.4h10.2v1.4h-10.2ZM212.6,410.6c-.8,0-1.4,0-2-.2-.6-.1-1-.4-1.4-.8-.4-.4-.6-.9-.8-1.5s-.3-1.4-.3-2.4v-15.5h1.7v15.5c0,.9.1,1.6.3,2.1.2.5.5.8.9,1,.4.2,1,.2,1.7.2s.8,0,1.3-.1c.5,0,.9-.3,1.3-.5v1.7c-.3.1-.6.2-.9.3-.3,0-.7.1-1,.2-.3,0-.6,0-.9,0Z"/>
            <path class="cls-4" d="M218.3,410.3v-2.5h2.4v2.5h-2.4Z"/>
          </g>
        </g>
      </g>
    </g>
  </g>
</svg>