<?xml version="1.0" encoding="UTF-8"?>
<svg xmlns="http://www.w3.org/2000/svg" version="1.1" viewBox="0 0 841.9 595.3">
  <defs>
    <style>
      .cls-1 {
        fill: #f8f6f3;
      }

      .cls-2 {
        isolation: isolate;
      }

      .cls-3 {
        fill: #004647;
      }

      .cls-4 {
        fill: #004647;
      }
    </style>
  </defs>
  <!-- Generator: Adobe Illustrator 28.7.2, SVG Export Plug-In . SVG Version: 1.2.0 Build 154)  -->
  <g>
    <g id="Layer_1">
      <g id="Layer_1-2" data-name="Layer_1">
        <g>
          <path class="cls-1" d="M271.7,162.3c-10.9,0-20.2-6.2-20.2-13.4s9.2-13.4,20.2-13.4,20.2,6.2,20.2,13.4-9.2,13.4-20.2,13.4Z"/>
          <path class="cls-3" d="M271.7,138.5c8.1,0,17.1,4.2,17.1,10.3s-9,10.3-17.1,10.3-17.1-4.2-17.1-10.3,9-10.3,17.1-10.3M271.7,132.3c-12.8,0-23.3,7.4-23.3,16.5s10.4,16.5,23.3,16.5,23.3-7.4,23.3-16.5-10.4-16.5-23.3-16.5h0Z"/>
        </g>
        <g>
          <path class="cls-1" d="M271.7,145.8c-10.9,0-20.2-6.2-20.2-13.4s9.2-13.4,20.2-13.4,20.2,6.2,20.2,13.4-9.2,13.4-20.2,13.4Z"/>
          <path class="cls-3" d="M271.7,122c8.1,0,17.1,4.2,17.1,10.3s-9,10.3-17.1,10.3-17.1-4.2-17.1-10.3,9-10.3,17.1-10.3M271.7,115.8c-12.8,0-23.3,7.4-23.3,16.5s10.4,16.5,23.3,16.5,23.3-7.4,23.3-16.5-10.4-16.5-23.3-16.5h0Z"/>
        </g>
        <g>
          <path class="cls-1" d="M271.7,129.2c-10.9,0-20.2-6.2-20.2-13.4s9.2-13.4,20.2-13.4,20.2,6.2,20.2,13.4-9.2,13.4-20.2,13.4Z"/>
          <path class="cls-3" d="M271.7,105.5c8.1,0,17.1,4.2,17.1,10.3s-9,10.3-17.1,10.3-17.1-4.2-17.1-10.3,9-10.3,17.1-10.3M271.7,99.3c-12.8,0-23.3,7.4-23.3,16.5s10.4,16.5,23.3,16.5,23.3-7.4,23.3-16.5-10.4-16.5-23.3-16.5h0Z"/>
        </g>
        <g>
          <path class="cls-1" d="M271.7,112.7c-10.9,0-20.2-6.2-20.2-13.4s9.2-13.4,20.2-13.4,20.2,6.2,20.2,13.4-9.2,13.4-20.2,13.4Z"/>
          <path class="cls-3" d="M271.7,88.9c8.1,0,17.1,4.2,17.1,10.3s-9,10.3-17.1,10.3-17.1-4.2-17.1-10.3,9-10.3,17.1-10.3M271.7,82.7c-12.8,0-23.3,7.4-23.3,16.5s10.4,16.5,23.3,16.5,23.3-7.4,23.3-16.5-10.4-16.5-23.3-16.5h0Z"/>
        </g>
        <g>
          <path class="cls-1" d="M271.7,96.2c-10.9,0-20.2-6.2-20.2-13.4s9.2-13.4,20.2-13.4,20.2,6.2,20.2,13.4-9.2,13.4-20.2,13.4Z"/>
          <path class="cls-3" d="M271.7,72.4c8.1,0,17.1,4.2,17.1,10.3s-9,10.3-17.1,10.3-17.1-4.2-17.1-10.3,9-10.3,17.1-10.3M271.7,66.2c-12.8,0-23.3,7.4-23.3,16.5s10.4,16.5,23.3,16.5,23.3-7.4,23.3-16.5-10.4-16.5-23.3-16.5h0Z"/>
        </g>
        <g>
          <path class="cls-1" d="M315.1,162.3c-10.9,0-20.2-6.2-20.2-13.4s9.2-13.4,20.2-13.4,20.2,6.2,20.2,13.4-9.2,13.4-20.2,13.4Z"/>
          <path class="cls-3" d="M315.1,138.5c8.1,0,17.1,4.2,17.1,10.3s-9,10.3-17.1,10.3-17.1-4.2-17.1-10.3,9-10.3,17.1-10.3M315.1,132.3c-12.8,0-23.3,7.4-23.3,16.5s10.4,16.5,23.3,16.5,23.3-7.4,23.3-16.5-10.4-16.5-23.3-16.5h0Z"/>
        </g>
        <g>
          <path class="cls-1" d="M315.1,145.8c-10.9,0-20.2-6.2-20.2-13.4s9.2-13.4,20.2-13.4,20.2,6.2,20.2,13.4-9.2,13.4-20.2,13.4Z"/>
          <path class="cls-3" d="M315.1,122c8.1,0,17.1,4.2,17.1,10.3s-9,10.3-17.1,10.3-17.1-4.2-17.1-10.3,9-10.3,17.1-10.3M315.1,115.8c-12.8,0-23.3,7.4-23.3,16.5s10.4,16.5,23.3,16.5,23.3-7.4,23.3-16.5-10.4-16.5-23.3-16.5h0Z"/>
        </g>
        <g>
          <path class="cls-1" d="M315.1,129.2c-10.9,0-20.2-6.2-20.2-13.4s9.2-13.4,20.2-13.4,20.2,6.2,20.2,13.4-9.2,13.4-20.2,13.4Z"/>
          <path class="cls-3" d="M315.1,105.5c8.1,0,17.1,4.2,17.1,10.3s-9,10.3-17.1,10.3-17.1-4.2-17.1-10.3,9-10.3,17.1-10.3M315.1,99.3c-12.8,0-23.3,7.4-23.3,16.5s10.4,16.5,23.3,16.5,23.3-7.4,23.3-16.5-10.4-16.5-23.3-16.5h0Z"/>
        </g>
        <path class="cls-3" d="M614.4,528.9H227.6c-7.8,0-14.1-6.3-14.1-14.1V127.9c0-7.8,6.3-14.1,14.1-14.1h15v4h-15c-5.6,0-10.1,4.5-10.1,10.1v386.9c0,5.6,4.5,10.1,10.1,10.1h386.8c5.6,0,10.1-4.5,10.1-10.1V127.9c0-5.6-4.5-10.1-10.1-10.1h-271.3v-4h271.3c7.8,0,14.1,6.3,14.1,14.1v386.9c0,7.8-6.3,14.1-14.1,14.1Z"/>
        <g class="cls-2">
          <g class="cls-2">
            <path class="cls-3" d="M250.9,233.2l1-25.9h6.1l6.5,22.4h-1.6c0,0,6.1-22.4,6.1-22.4h6l1.1,25.9h-4.5l-1-22.2.7.7-6,21.5h-3.8l-6.2-21.5.7-.6-.9,22.1h-4.3Z"/>
            <path class="cls-3" d="M289.4,233.5c-1.6,0-3.1-.3-4.4-.9-1.3-.6-2.4-1.5-3.3-2.6-.9-1.2-1.6-2.6-2.1-4.2-.5-1.7-.7-3.5-.7-5.6s.4-5.2,1.3-7.1c.8-2,2-3.5,3.6-4.5,1.6-1,3.4-1.6,5.6-1.6s3.1.3,4.4.9,2.4,1.5,3.3,2.6c.9,1.1,1.6,2.5,2.1,4.2.5,1.6.7,3.5.7,5.6s-.4,5.2-1.3,7.2c-.8,2-2,3.5-3.6,4.6-1.6,1.1-3.4,1.6-5.6,1.6ZM289.4,229.5c1.2,0,2.3-.4,3.1-1.1.9-.7,1.5-1.8,1.9-3.2s.7-3.1.7-5.1-.1-2.8-.4-3.9c-.3-1.1-.6-2.1-1.1-2.9-.5-.8-1.1-1.4-1.8-1.8-.7-.4-1.5-.6-2.4-.6s-2.2.4-3.1,1.1c-.8.7-1.5,1.7-1.9,3.1-.4,1.4-.7,3-.7,5s.1,2.8.4,4c.2,1.2.6,2.1,1.1,2.9.5.8,1.1,1.4,1.8,1.8s1.5.6,2.4.6Z"/>
            <path class="cls-3" d="M303.4,233.2v-25.9h4.5l9.8,19-1,.3v-19.3h4.3v25.9h-4.2l-10.1-20,.9-.3v20.3h-4.3Z"/>
            <path class="cls-3" d="M325.5,233.2v-25.9h13.5v3.9h-9v7.1h8.1v3.6h-8.1v7.4h9v3.9h-13.5Z"/>
            <path class="cls-3" d="M348.2,223.8l-7.3-16.5h5.1l4.4,11.6,4.6-11.6h4.8l-7.4,16.5h-4.3ZM348.1,233.2v-12h4.7v12h-4.7Z"/>
          </g>
        </g>
        <g class="cls-2">
          <g>
            <path class="cls-4" d="M251,302.5v-20.3h2.6v20.3h-2.6Z"/>
            <path class="cls-4" d="M256.6,289.9v-1.9h10.4v1.9h-10.4ZM264.2,302.9c-.8,0-1.5,0-2.1-.2-.6-.2-1.1-.4-1.5-.8s-.7-.9-.8-1.6c-.2-.7-.3-1.5-.3-2.6v-15.2h2.4v15.3c0,.9,0,1.6.2,2,.2.5.4.8.8.9.4.2.9.2,1.5.2s.8,0,1.3-.1.9-.3,1.2-.6v2.3c-.2.1-.5.2-.9.3-.4,0-.7.1-1.1.1-.4,0-.7,0-.9,0Z"/>
            <path class="cls-4" d="M276.8,284.7v-3.2h3.2v3.2h-3.2ZM277.2,302.5v-14.6h2.4v14.6h-2.4Z"/>
            <path class="cls-4" d="M289,302.8c-1.2,0-2.3-.2-3.2-.6-.9-.4-1.5-.9-2-1.6-.5-.7-.7-1.5-.7-2.4h2.4c0,.5.1.9.4,1.3s.6.7,1.1.9c.5.2,1.1.3,1.9.3s1.7-.2,2.3-.6c.6-.4.8-.9.8-1.6s-.2-.9-.5-1.2c-.3-.3-.7-.5-1.2-.7-.5-.2-1.1-.3-1.7-.4-.6-.1-1.2-.3-1.8-.4-.6-.2-1.2-.4-1.7-.7-.5-.3-.9-.7-1.2-1.2-.3-.5-.5-1.2-.5-2,0-1.3.5-2.3,1.4-3.1,1-.7,2.2-1.1,3.8-1.1s2,.2,2.9.5c.8.4,1.5.9,1.9,1.5.5.6.7,1.4.7,2.3h-2.3c0-.7-.3-1.2-.8-1.7-.6-.4-1.3-.6-2.2-.6s-1.6.2-2.1.6c-.5.4-.8.9-.8,1.6s.2.9.5,1.2c.3.3.7.5,1.2.6.5.1,1.1.3,1.7.4.6.1,1.2.2,1.8.4.6.2,1.2.4,1.7.7.5.3.9.7,1.2,1.2.3.5.5,1.2.5,2.1,0,1.3-.5,2.4-1.5,3.2-1,.8-2.3,1.2-4,1.2Z"/>
            <path class="cls-4" d="M304.3,284.7v-3.2h3.2v3.2h-3.2ZM304.7,302.5v-14.6h2.4v14.6h-2.4Z"/>
            <path class="cls-4" d="M311.7,302.5v-14.6h2.4v6.7h-.8c0-1.4.2-2.7.6-3.7.4-1,1-1.8,1.8-2.4.8-.6,1.8-.8,2.9-.8s1.6.1,2.2.4c.6.3,1.2.6,1.6,1.2.4.5.7,1.1.9,1.9.2.7.3,1.6.3,2.5h-1.3c.1-1.3.4-2.4,1-3.3.5-.9,1.2-1.5,2-2,.8-.4,1.8-.7,2.8-.7s1.6.1,2.3.4c.6.3,1.2.7,1.6,1.2.4.5.7,1.2,1,1.9.2.8.3,1.6.3,2.6v8.7h-2.4v-7.8c0-1,0-1.8-.2-2.4s-.4-1.1-.7-1.5-.7-.6-1.1-.8c-.4-.2-.9-.2-1.4-.2s-1.3.2-1.8.6c-.6.4-1.1,1-1.4,1.9-.4.9-.6,2.1-.6,3.6v6.6h-2.4v-7.8c0-1,0-1.8-.2-2.4s-.4-1.1-.7-1.5-.6-.6-1-.8c-.4-.2-.9-.2-1.3-.2s-1.3.2-1.9.6c-.6.4-1.1,1-1.4,1.9-.4.9-.6,2.1-.6,3.6v6.6h-2.4Z"/>
            <path class="cls-4" d="M337.6,308.8v-20.9h2.4v4.4l-.5,2.8.6,2.3v11.4h-2.4ZM345.1,302.8c-1.3,0-2.4-.3-3.4-.9-1-.6-1.7-1.5-2.3-2.6-.5-1.1-.8-2.4-.8-4s.3-2.8.8-3.9c.5-1.1,1.3-2,2.3-2.6,1-.6,2.1-.9,3.4-.9s1.9.2,2.7.5c.8.4,1.5.9,2.1,1.5.6.7,1.1,1.5,1.4,2.4.3.9.5,1.9.5,3.1s-.3,2.8-.8,4c-.6,1.1-1.3,2-2.3,2.6-1,.6-2.2.9-3.5.9ZM344.7,300.8c.9,0,1.7-.2,2.4-.7.7-.5,1.2-1.1,1.6-1.9.4-.8.6-1.8.6-2.9s-.2-2.1-.6-2.9c-.4-.8-.9-1.5-1.6-1.9-.7-.5-1.5-.7-2.4-.7s-1.7.2-2.4.7c-.7.5-1.2,1.1-1.6,1.9-.4.8-.6,1.8-.6,2.9s.1,1.6.3,2.3.5,1.3,1,1.8.9.9,1.5,1.1c.6.3,1.2.4,1.9.4Z"/>
            <path class="cls-4" d="M361.9,302.8c-1.5,0-2.8-.3-3.9-1s-2-1.5-2.6-2.7-.9-2.4-.9-3.9.3-2.8.9-3.9,1.5-2,2.6-2.7c1.1-.6,2.4-1,3.9-1s2.8.3,3.9,1c1.1.6,2,1.5,2.6,2.7.6,1.1.9,2.4.9,3.9s-.3,2.8-.9,3.9c-.6,1.1-1.5,2-2.6,2.7s-2.4,1-3.9,1ZM361.9,300.7c1.1,0,2-.2,2.7-.7s1.3-1.1,1.7-1.9c.4-.8.6-1.8.6-2.8s-.1-1.5-.3-2.2-.5-1.3-1-1.8c-.4-.5-.9-.9-1.6-1.1-.6-.3-1.3-.4-2.1-.4s-2,.2-2.7.7c-.7.5-1.3,1.1-1.7,2-.4.8-.6,1.8-.6,2.8s.2,2,.6,2.8c.4.8.9,1.5,1.7,1.9.7.5,1.6.7,2.7.7Z"/>
            <path class="cls-4" d="M373,302.5v-14.6h2.4v7.4h-.7c0-1.6.3-2.9.7-4,.4-1.1,1.1-2,1.9-2.6s1.8-.9,3-.9.3,0,.5,0c.2,0,.3,0,.5,0v2.4c-.9,0-1.8,0-2.5.2s-1.4.4-1.9.9c-.5.4-.9,1-1.1,1.8-.3.8-.4,1.7-.4,2.9v6.4h-2.4Z"/>
            <path class="cls-4" d="M382.5,289.9v-1.9h10.4v1.9h-10.4ZM390.1,302.9c-.8,0-1.5,0-2.1-.2-.6-.2-1.1-.4-1.5-.8s-.7-.9-.8-1.6c-.2-.7-.3-1.5-.3-2.6v-15.2h2.4v15.3c0,.9,0,1.6.2,2,.2.5.4.8.8.9.4.2.9.2,1.5.2s.8,0,1.3-.1.9-.3,1.2-.6v2.3c-.2.1-.5.2-.9.3-.4,0-.7.1-1.1.1-.4,0-.7,0-.9,0Z"/>
            <path class="cls-4" d="M402.2,302.8c-1,0-1.9-.2-2.7-.5-.8-.4-1.5-.9-2.1-1.5-.6-.7-1.1-1.5-1.4-2.4-.3-.9-.5-2-.5-3.1s.3-2.8.8-3.9c.6-1.1,1.3-2,2.3-2.6,1-.6,2.2-.9,3.5-.9s1.9.2,2.7.5c.8.4,1.5.9,2,1.5.6.7,1,1.5,1.3,2.4.3.9.5,1.9.5,3.1s-.3,2.8-.8,4c-.5,1.1-1.3,2-2.2,2.6s-2.1.9-3.4.9ZM402.6,300.8c.9,0,1.7-.2,2.5-.7.7-.5,1.3-1.1,1.6-1.9.4-.8.6-1.8.6-2.9s-.1-1.6-.3-2.3c-.2-.7-.5-1.3-1-1.7-.4-.5-.9-.9-1.5-1.1-.6-.3-1.2-.4-1.9-.4s-1.7.2-2.4.7c-.7.5-1.2,1.1-1.6,1.9-.4.8-.6,1.8-.6,2.9s.2,2.1.6,2.9c.4.8.9,1.5,1.6,1.9.7.5,1.5.7,2.4.7ZM407.3,302.5v-6.2l.5-1.2-.5-2.3v-4.9h2.4v14.6h-2.4Z"/>
            <path class="cls-4" d="M414.3,302.5v-14.6h2.4v6.7h-.8c0-1.4.2-2.7.7-3.7s1.1-1.8,2-2.4c.9-.6,1.9-.8,3.2-.8s1.7.1,2.4.4c.7.3,1.2.7,1.7,1.2.4.5.8,1.2,1,1.9.2.8.3,1.6.3,2.6v8.7h-2.4v-7.8c0-1,0-1.8-.3-2.4s-.4-1.1-.8-1.5c-.3-.4-.7-.6-1.2-.8-.5-.2-1-.2-1.6-.2s-1.4.2-2.1.6c-.6.4-1.1,1-1.5,1.9-.4.9-.6,2.1-.6,3.6v6.6h-2.4Z"/>
            <path class="cls-4" d="M429.6,289.9v-1.9h10.4v1.9h-10.4ZM437.2,302.9c-.8,0-1.5,0-2.1-.2-.6-.2-1.1-.4-1.5-.8s-.7-.9-.8-1.6c-.2-.7-.3-1.5-.3-2.6v-15.2h2.4v15.3c0,.9,0,1.6.2,2,.2.5.4.8.8.9.4.2.9.2,1.5.2s.8,0,1.3-.1.9-.3,1.2-.6v2.3c-.2.1-.5.2-.9.3-.4,0-.7.1-1.1.1-.4,0-.7,0-.9,0Z"/>
            <path class="cls-4" d="M448.5,289.9v-1.9h10.4v1.9h-10.4ZM456.1,302.9c-.8,0-1.5,0-2.1-.2-.6-.2-1.1-.4-1.5-.8s-.7-.9-.8-1.6c-.2-.7-.3-1.5-.3-2.6v-15.2h2.4v15.3c0,.9,0,1.6.2,2,.2.5.4.8.8.9.4.2.9.2,1.5.2s.8,0,1.3-.1.9-.3,1.2-.6v2.3c-.2.1-.5.2-.9.3-.4,0-.7.1-1.1.1-.4,0-.7,0-.9,0Z"/>
            <path class="cls-4" d="M469,302.8c-1.5,0-2.8-.3-3.9-1s-2-1.5-2.6-2.7-.9-2.4-.9-3.9.3-2.8.9-3.9,1.5-2,2.6-2.7c1.1-.6,2.4-1,3.9-1s2.8.3,3.9,1c1.1.6,2,1.5,2.6,2.7.6,1.1.9,2.4.9,3.9s-.3,2.8-.9,3.9c-.6,1.1-1.5,2-2.6,2.7s-2.4,1-3.9,1ZM469,300.7c1.1,0,2-.2,2.7-.7s1.3-1.1,1.7-1.9c.4-.8.6-1.8.6-2.8s-.1-1.5-.3-2.2-.5-1.3-1-1.8c-.4-.5-.9-.9-1.6-1.1-.6-.3-1.3-.4-2.1-.4s-2,.2-2.7.7c-.7.5-1.3,1.1-1.7,2-.4.8-.6,1.8-.6,2.8s.2,2,.6,2.8c.4.8.9,1.5,1.7,1.9.7.5,1.6.7,2.7.7Z"/>
            <path class="cls-4" d="M492.8,302.8c-1.5,0-2.8-.3-3.9-1s-1.8-1.5-2.4-2.7c-.5-1.1-.8-2.4-.8-3.9s.3-2.8.8-3.9c.6-1.1,1.4-2,2.4-2.7,1.1-.6,2.3-1,3.8-1s2.2.2,3.1.6c.9.4,1.7,1,2.3,1.7.6.7,1,1.6,1.2,2.6h-2.4c-.2-.6-.4-1.1-.8-1.5s-.9-.8-1.4-1c-.6-.2-1.2-.4-1.9-.4-1,0-1.8.2-2.5.7-.7.5-1.2,1.1-1.5,2s-.5,1.8-.5,2.8.2,2,.5,2.8c.3.8.8,1.5,1.5,2,.7.5,1.5.7,2.6.7s2-.3,2.7-.9,1.1-1.4,1.4-2.4h2.4c-.2,1.1-.5,2-1.1,2.8-.6.8-1.3,1.4-2.2,1.8-.9.4-2,.6-3.2.6Z"/>
            <path class="cls-4" d="M508.3,302.8c-1,0-1.9-.2-2.7-.5-.8-.4-1.5-.9-2.1-1.5-.6-.7-1.1-1.5-1.4-2.4-.3-.9-.5-2-.5-3.1s.3-2.8.8-3.9c.6-1.1,1.3-2,2.3-2.6,1-.6,2.2-.9,3.5-.9s1.9.2,2.7.5c.8.4,1.5.9,2,1.5.6.7,1,1.5,1.3,2.4.3.9.5,1.9.5,3.1s-.3,2.8-.8,4c-.5,1.1-1.3,2-2.2,2.6s-2.1.9-3.4.9ZM508.7,300.8c.9,0,1.7-.2,2.5-.7.7-.5,1.3-1.1,1.6-1.9.4-.8.6-1.8.6-2.9s-.1-1.6-.3-2.3c-.2-.7-.5-1.3-1-1.7-.4-.5-.9-.9-1.5-1.1-.6-.3-1.2-.4-1.9-.4s-1.7.2-2.4.7c-.7.5-1.2,1.1-1.6,1.9-.4.8-.6,1.8-.6,2.9s.2,2.1.6,2.9c.4.8.9,1.5,1.6,1.9.7.5,1.5.7,2.4.7ZM513.4,302.5v-6.2l.5-1.2-.5-2.3v-4.9h2.4v14.6h-2.4Z"/>
            <path class="cls-4" d="M520.4,302.5v-14.6h2.4v7.4h-.7c0-1.6.3-2.9.7-4,.4-1.1,1.1-2,1.9-2.6s1.8-.9,3-.9.3,0,.5,0c.2,0,.3,0,.5,0v2.4c-.9,0-1.8,0-2.5.2s-1.4.4-1.9.9c-.5.4-.9,1-1.1,1.8-.3.8-.4,1.7-.4,2.9v6.4h-2.4Z"/>
            <path class="cls-4" d="M531.5,302.5v-14.6h2.4v7.4h-.7c0-1.6.3-2.9.7-4,.4-1.1,1.1-2,1.9-2.6s1.8-.9,3-.9.3,0,.5,0c.2,0,.3,0,.5,0v2.4c-.9,0-1.8,0-2.5.2s-1.4.4-1.9.9c-.5.4-.9,1-1.1,1.8-.3.8-.4,1.7-.4,2.9v6.4h-2.4Z"/>
            <path class="cls-4" d="M547,303.3l-6.4-15.3h2.7l4.9,12.4-1.2,2.9ZM543.6,308.8l3.4-8.3.2-.6,4.9-12h2.6l-8.6,20.9h-2.6Z"/>
            <path class="cls-4" d="M569.6,302.8c-1,0-1.9-.2-2.7-.5-.8-.4-1.5-.9-2.1-1.5-.6-.7-1.1-1.5-1.4-2.4-.3-.9-.5-2-.5-3.1s.3-2.8.8-3.9c.6-1.1,1.3-2,2.3-2.6,1-.6,2.2-.9,3.5-.9s1.9.2,2.7.5c.8.4,1.5.9,2,1.5.6.7,1,1.5,1.3,2.4.3.9.5,1.9.5,3.1s-.3,2.8-.8,4c-.5,1.1-1.3,2-2.2,2.6s-2.1.9-3.4.9ZM570,300.8c.9,0,1.7-.2,2.5-.7.7-.5,1.3-1.1,1.6-1.9.4-.8.6-1.8.6-2.9s-.1-1.6-.3-2.3c-.2-.7-.5-1.3-1-1.7-.4-.5-.9-.9-1.5-1.1-.6-.3-1.2-.4-1.9-.4s-1.7.2-2.4.7c-.7.5-1.2,1.1-1.6,1.9-.4.8-.6,1.8-.6,2.9s.2,2.1.6,2.9c.4.8.9,1.5,1.6,1.9.7.5,1.5.7,2.4.7ZM574.7,302.5v-6.2l.5-1.2-.5-2.3v-4.9h2.4v14.6h-2.4Z"/>
            <path class="cls-4" d="M250.8,337.3v-14.6h2.4v6.7h-.8c0-1.4.2-2.7.6-3.7.4-1,1-1.8,1.8-2.4.8-.6,1.8-.8,2.9-.8s1.6.1,2.2.4,1.2.6,1.6,1.2c.4.5.7,1.1.9,1.9.2.7.3,1.6.3,2.5h-1.3c.1-1.3.4-2.4,1-3.3.5-.9,1.2-1.5,2-2,.8-.4,1.8-.7,2.8-.7s1.6.1,2.3.4,1.2.7,1.6,1.2c.4.5.7,1.2,1,1.9s.3,1.6.3,2.6v8.7h-2.4v-7.8c0-1,0-1.8-.2-2.4-.2-.6-.4-1.1-.7-1.5s-.7-.6-1.1-.8c-.4-.2-.9-.2-1.4-.2s-1.3.2-1.8.6-1.1,1-1.4,1.9-.6,2.1-.6,3.6v6.6h-2.4v-7.8c0-1,0-1.8-.2-2.4-.2-.6-.4-1.1-.7-1.5s-.6-.6-1-.8c-.4-.2-.9-.2-1.3-.2s-1.3.2-1.9.6-1.1,1-1.4,1.9-.6,2.1-.6,3.6v6.6h-2.4Z"/>
            <path class="cls-4" d="M276.3,319.5v-3.2h3.2v3.2h-3.2ZM276.7,337.3v-14.6h2.4v14.6h-2.4Z"/>
            <path class="cls-4" d="M281.8,337.3l5.8-8.2v1.8l-5.8-8.2h3l4.6,6.7h-1.2l4.7-6.7h2.9l-5.8,8.2v-1.8l6,8.2h-3l-4.8-6.8h1.3l-4.7,6.8h-2.9Z"/>
            <path class="cls-4" d="M311.9,337.6c-1.5,0-2.8-.3-3.9-1-1.1-.6-2-1.5-2.6-2.7s-.9-2.4-.9-3.9.3-2.8.9-3.9,1.5-2,2.6-2.7,2.4-1,3.9-1,2.8.3,3.9,1,2,1.5,2.6,2.7c.6,1.1.9,2.4.9,3.9s-.3,2.8-.9,3.9c-.6,1.1-1.5,2-2.6,2.7-1.1.6-2.4,1-3.9,1ZM311.9,335.5c1.1,0,2-.2,2.7-.7s1.3-1.1,1.7-1.9c.4-.8.6-1.8.6-2.8s-.1-1.5-.3-2.2-.5-1.3-1-1.8c-.4-.5-.9-.9-1.6-1.1-.6-.3-1.3-.4-2.1-.4s-2,.2-2.7.7c-.7.5-1.3,1.1-1.7,2s-.6,1.8-.6,2.8.2,2,.6,2.8c.4.8.9,1.5,1.7,1.9.7.5,1.6.7,2.7.7Z"/>
            <path class="cls-4" d="M321.3,324.7v-1.9h9.9v1.9h-9.9ZM324,337.3v-16.3c0-1.4.2-2.5.5-3.3.4-.9.9-1.5,1.7-1.9.8-.4,1.7-.6,2.9-.6s.6,0,.9,0c.3,0,.5,0,.8.1.2,0,.4.1.6.2v2.2c-.3-.2-.7-.4-1.2-.5s-.8-.1-1.1-.1c-.9,0-1.6.3-2,1-.4.7-.6,1.6-.6,2.9v16.2h-2.4Z"/>
            <path class="cls-4" d="M340.4,343.6v-20.9h2.4v4.3l-.5,2.8.6,2.3v11.4h-2.4ZM348,337.6c-1.3,0-2.4-.3-3.4-.9-1-.6-1.7-1.5-2.3-2.6-.5-1.1-.8-2.5-.8-4s.3-2.8.8-3.9c.5-1.1,1.3-2,2.3-2.6,1-.6,2.1-.9,3.4-.9s1.9.2,2.7.5c.8.4,1.5.9,2.1,1.5.6.7,1.1,1.5,1.4,2.4.3.9.5,1.9.5,3.1s-.3,2.8-.8,4c-.6,1.1-1.3,2-2.3,2.6-1,.6-2.2.9-3.5.9ZM347.5,335.6c.9,0,1.7-.2,2.4-.7.7-.5,1.2-1.1,1.6-1.9s.6-1.8.6-2.9-.2-2.1-.6-2.9-.9-1.5-1.6-1.9c-.7-.5-1.5-.7-2.4-.7s-1.7.2-2.4.7c-.7.5-1.2,1.1-1.6,1.9-.4.8-.6,1.8-.6,2.9s.1,1.6.3,2.3.5,1.3,1,1.8.9.9,1.5,1.1c.6.3,1.2.4,1.9.4Z"/>
            <path class="cls-4" d="M364,337.6c-1,0-1.9-.2-2.7-.5s-1.5-.9-2.1-1.5c-.6-.7-1.1-1.5-1.4-2.4s-.5-2-.5-3.1.3-2.8.8-3.9,1.3-2,2.3-2.6c1-.6,2.2-.9,3.5-.9s1.9.2,2.7.5c.8.4,1.5.9,2,1.5.6.7,1,1.5,1.3,2.4.3.9.5,1.9.5,3.1s-.3,2.8-.8,4c-.5,1.1-1.3,2-2.2,2.6-1,.6-2.1.9-3.4.9ZM364.5,335.6c.9,0,1.7-.2,2.5-.7.7-.5,1.3-1.1,1.6-1.9s.6-1.8.6-2.9-.1-1.6-.3-2.3c-.2-.7-.5-1.3-1-1.7-.4-.5-.9-.9-1.5-1.1s-1.2-.4-1.9-.4-1.7.2-2.4.7c-.7.5-1.2,1.1-1.6,1.9s-.6,1.8-.6,2.9.2,2.1.6,2.9.9,1.5,1.6,1.9c.7.5,1.5.7,2.4.7ZM369.2,337.3v-6.2l.5-1.2-.5-2.3v-4.9h2.4v14.6h-2.4Z"/>
            <path class="cls-4" d="M380.4,338.1l-6.4-15.3h2.7l4.9,12.4-1.2,2.9ZM377,343.6l3.4-8.3.2-.6,4.9-12h2.6l-8.6,20.9h-2.6Z"/>
            <path class="cls-4" d="M390.6,337.3v-14.6h2.4v6.7h-.8c0-1.4.2-2.7.6-3.7.4-1,1-1.8,1.8-2.4.8-.6,1.8-.8,2.9-.8s1.6.1,2.2.4,1.2.6,1.6,1.2c.4.5.7,1.1.9,1.9.2.7.3,1.6.3,2.5h-1.3c.1-1.3.4-2.4,1-3.3.5-.9,1.2-1.5,2-2,.8-.4,1.8-.7,2.8-.7s1.6.1,2.3.4,1.2.7,1.6,1.2c.4.5.7,1.2,1,1.9s.3,1.6.3,2.6v8.7h-2.4v-7.8c0-1,0-1.8-.2-2.4-.2-.6-.4-1.1-.7-1.5s-.7-.6-1.1-.8c-.4-.2-.9-.2-1.4-.2s-1.3.2-1.8.6-1.1,1-1.4,1.9-.6,2.1-.6,3.6v6.6h-2.4v-7.8c0-1,0-1.8-.2-2.4-.2-.6-.4-1.1-.7-1.5s-.6-.6-1-.8c-.4-.2-.9-.2-1.3-.2s-1.3.2-1.9.6-1.1,1-1.4,1.9-.6,2.1-.6,3.6v6.6h-2.4Z"/>
            <path class="cls-4" d="M422.9,337.6c-1.5,0-2.9-.3-4-1-1.1-.6-1.9-1.5-2.5-2.7s-.9-2.4-.9-3.9.3-2.8.8-3.9c.6-1.1,1.4-2,2.5-2.7,1.1-.6,2.4-1,3.9-1s2.8.3,3.8,1,1.8,1.5,2.3,2.7c.5,1.1.8,2.4.8,3.9v.8h-12.5v-1.9h10.8l-.6.9c0-1-.2-2-.6-2.7s-.9-1.4-1.6-1.8c-.7-.4-1.5-.7-2.5-.7s-1.7.2-2.4.6c-.7.4-1.3,1-1.7,1.8-.4.8-.6,1.8-.6,3.1s.2,2.2.6,3,1,1.5,1.7,1.9c.7.4,1.6.6,2.5.6s1.4-.1,2-.4c.6-.3,1.1-.6,1.4-1s.6-.9.8-1.4h2.4c-.2.9-.6,1.8-1.1,2.5-.6.7-1.3,1.3-2.3,1.7-.9.4-2,.6-3.2.6Z"/>
            <path class="cls-4" d="M433.3,337.3v-14.6h2.4v6.7h-.8c0-1.4.2-2.7.7-3.7s1.1-1.8,2-2.4c.9-.6,1.9-.8,3.2-.8s1.7.1,2.4.4,1.2.7,1.7,1.2c.4.5.8,1.2,1,1.9s.3,1.6.3,2.6v8.7h-2.4v-7.8c0-1,0-1.8-.3-2.4-.2-.6-.4-1.1-.8-1.5-.3-.4-.7-.6-1.2-.8-.5-.2-1-.2-1.6-.2s-1.4.2-2.1.6-1.1,1-1.5,1.9-.6,2.1-.6,3.6v6.6h-2.4Z"/>
            <path class="cls-4" d="M448.7,324.7v-1.9h10.4v1.9h-10.4ZM456.3,337.7c-.8,0-1.5,0-2.1-.2-.6-.2-1.1-.4-1.5-.8-.4-.4-.7-.9-.8-1.6-.2-.7-.3-1.5-.3-2.6v-15.2h2.4v15.3c0,.9,0,1.6.2,2s.4.8.8.9c.4.2.9.2,1.5.2s.8,0,1.3-.1c.5,0,.9-.3,1.2-.6v2.3c-.2.1-.5.2-.9.3-.4,0-.7.1-1.1.1s-.7,0-.9,0Z"/>
            <path class="cls-4" d="M469.2,337.3v-14.6h2.4v6.7h-.8c0-1.4.2-2.7.6-3.7.4-1,1-1.8,1.8-2.4.8-.6,1.8-.8,2.9-.8s1.6.1,2.2.4,1.2.6,1.6,1.2c.4.5.7,1.1.9,1.9.2.7.3,1.6.3,2.5h-1.3c.1-1.3.4-2.4,1-3.3.5-.9,1.2-1.5,2-2,.8-.4,1.8-.7,2.8-.7s1.6.1,2.3.4,1.2.7,1.6,1.2c.4.5.7,1.2,1,1.9s.3,1.6.3,2.6v8.7h-2.4v-7.8c0-1,0-1.8-.2-2.4-.2-.6-.4-1.1-.7-1.5s-.7-.6-1.1-.8c-.4-.2-.9-.2-1.4-.2s-1.3.2-1.8.6-1.1,1-1.4,1.9-.6,2.1-.6,3.6v6.6h-2.4v-7.8c0-1,0-1.8-.2-2.4-.2-.6-.4-1.1-.7-1.5s-.6-.6-1-.8c-.4-.2-.9-.2-1.3-.2s-1.3.2-1.9.6-1.1,1-1.4,1.9-.6,2.1-.6,3.6v6.6h-2.4Z"/>
            <path class="cls-4" d="M501.6,337.6c-1.5,0-2.9-.3-4-1-1.1-.6-1.9-1.5-2.5-2.7s-.9-2.4-.9-3.9.3-2.8.8-3.9c.6-1.1,1.4-2,2.5-2.7,1.1-.6,2.4-1,3.9-1s2.8.3,3.8,1,1.8,1.5,2.3,2.7c.5,1.1.8,2.4.8,3.9v.8h-12.5v-1.9h10.8l-.6.9c0-1-.2-2-.6-2.7s-.9-1.4-1.6-1.8c-.7-.4-1.5-.7-2.5-.7s-1.7.2-2.4.6c-.7.4-1.3,1-1.7,1.8-.4.8-.6,1.8-.6,3.1s.2,2.2.6,3,1,1.5,1.7,1.9c.7.4,1.6.6,2.5.6s1.4-.1,2-.4c.6-.3,1.1-.6,1.4-1s.6-.9.8-1.4h2.4c-.2.9-.6,1.8-1.1,2.5-.6.7-1.3,1.3-2.3,1.7-.9.4-2,.6-3.2.6Z"/>
            <path class="cls-4" d="M510.3,324.7v-1.9h10.4v1.9h-10.4ZM517.9,337.7c-.8,0-1.5,0-2.1-.2-.6-.2-1.1-.4-1.5-.8-.4-.4-.7-.9-.8-1.6-.2-.7-.3-1.5-.3-2.6v-15.2h2.4v15.3c0,.9,0,1.6.2,2s.4.8.8.9c.4.2.9.2,1.5.2s.8,0,1.3-.1c.5,0,.9-.3,1.2-.6v2.3c-.2.1-.5.2-.9.3-.4,0-.7.1-1.1.1s-.7,0-.9,0Z"/>
            <path class="cls-4" d="M524.2,337.3v-21.9h2.4v14h-.8c0-1.4.2-2.7.7-3.7s1.1-1.8,2-2.4c.9-.6,1.9-.8,3.2-.8s1.7.1,2.4.4,1.2.7,1.7,1.2c.4.5.8,1.2,1,1.9s.3,1.6.3,2.6v8.7h-2.4v-7.8c0-1,0-1.8-.3-2.4-.2-.6-.4-1.1-.8-1.5-.3-.4-.7-.6-1.2-.8-.5-.2-1-.2-1.6-.2s-1.4.2-2.1.6-1.1,1-1.5,1.9-.6,2.1-.6,3.6v6.6h-2.4Z"/>
            <path class="cls-4" d="M547.8,337.6c-1.5,0-2.8-.3-3.9-1-1.1-.6-2-1.5-2.6-2.7s-.9-2.4-.9-3.9.3-2.8.9-3.9,1.5-2,2.6-2.7,2.4-1,3.9-1,2.8.3,3.9,1,2,1.5,2.6,2.7c.6,1.1.9,2.4.9,3.9s-.3,2.8-.9,3.9c-.6,1.1-1.5,2-2.6,2.7-1.1.6-2.4,1-3.9,1ZM547.8,335.5c1.1,0,2-.2,2.7-.7s1.3-1.1,1.7-1.9c.4-.8.6-1.8.6-2.8s-.1-1.5-.3-2.2-.5-1.3-1-1.8c-.4-.5-.9-.9-1.6-1.1-.6-.3-1.3-.4-2.1-.4s-2,.2-2.7.7c-.7.5-1.3,1.1-1.7,2s-.6,1.8-.6,2.8.2,2,.6,2.8c.4.8.9,1.5,1.7,1.9.7.5,1.6.7,2.7.7Z"/>
            <path class="cls-4" d="M564.6,337.6c-1,0-1.9-.2-2.7-.5-.8-.4-1.5-.9-2.1-1.5-.6-.7-1-1.5-1.4-2.4s-.5-2-.5-3.1.3-2.8.8-3.9,1.3-2,2.3-2.6c1-.6,2.2-.9,3.5-.9s1.9.2,2.7.5c.8.4,1.5.9,2,1.5.6.7,1,1.5,1.3,2.4.3.9.5,1.9.5,3.1s-.3,2.8-.8,4c-.5,1.1-1.3,2-2.3,2.6-1,.6-2.1.9-3.4.9ZM565.1,335.6c.9,0,1.7-.2,2.5-.7.7-.5,1.3-1.1,1.6-1.9s.6-1.8.6-2.9-.1-1.6-.3-2.3c-.2-.7-.5-1.3-1-1.7-.4-.5-.9-.9-1.5-1.1s-1.2-.4-1.9-.4-1.7.2-2.4.7c-.7.5-1.2,1.1-1.6,1.9s-.6,1.8-.6,2.9.2,2.1.6,2.9.9,1.5,1.6,1.9c.7.5,1.5.7,2.4.7ZM569.8,337.3v-4.8l.6-2.6-.6-2.1v-12.4h2.4v21.9h-2.4Z"/>
            <path class="cls-4" d="M581.6,337.6c-1.2,0-2.3-.2-3.2-.6-.9-.4-1.5-.9-2-1.6-.5-.7-.7-1.5-.7-2.4h2.4c0,.5.1.9.4,1.3s.6.7,1.1.9c.5.2,1.1.3,1.9.3s1.7-.2,2.3-.6c.6-.4.8-.9.8-1.6s-.2-.9-.5-1.2c-.3-.3-.7-.5-1.2-.7-.5-.2-1.1-.3-1.7-.4-.6-.1-1.2-.3-1.8-.4-.6-.2-1.2-.4-1.7-.7-.5-.3-.9-.7-1.2-1.2-.3-.5-.5-1.2-.5-2,0-1.3.5-2.3,1.4-3.1,1-.7,2.2-1.1,3.8-1.1s2,.2,2.9.5c.8.4,1.5.9,1.9,1.5s.7,1.4.7,2.3h-2.3c0-.7-.3-1.2-.8-1.7-.6-.4-1.3-.6-2.2-.6s-1.6.2-2.1.6c-.5.4-.8.9-.8,1.6s.2.9.5,1.2c.3.3.7.5,1.2.6.5.1,1.1.3,1.7.4.6.1,1.2.2,1.8.4.6.2,1.2.4,1.7.7.5.3.9.7,1.2,1.2.3.5.5,1.2.5,2.1,0,1.3-.5,2.4-1.5,3.2-1,.8-2.3,1.2-4,1.2Z"/>
            <path class="cls-4" d="M590.3,337.3v-3.1h3v3.1h-3Z"/>
            <path class="cls-4" d="M251,372.1v-20.3h6.3c1.6,0,2.8.2,3.8.7,1,.4,1.7,1,2.1,1.8s.7,1.6.7,2.6-.2,1.9-.7,2.7-1.2,1.3-2,1.7-1.9.6-3.1.6l-.5-.6c1.3,0,2.5.2,3.6.5,1,.3,1.9.9,2.5,1.6.6.7.9,1.7.9,3s-.2,1.9-.7,2.8c-.5.9-1.2,1.6-2.3,2.1-1.1.6-2.6.8-4.5.8h-5.9ZM253.5,370.6l-.5-.6h4.3c1.5,0,2.7-.3,3.4-1,.7-.7,1.1-1.6,1.1-2.8s-.4-2.1-1.2-2.7-2-.8-3.7-.8h-3.9v-2.1h4.2c1.5,0,2.6-.3,3.1-.9.5-.6.8-1.4.8-2.4s-.3-1.8-.8-2.4c-.6-.6-1.6-.9-3.2-.9h-4.1l.4-.4v17.1Z"/>
            <path class="cls-4" d="M274.3,372.4c-1.5,0-2.9-.3-4-1-1.1-.6-1.9-1.5-2.5-2.7-.6-1.1-.9-2.4-.9-3.9s.3-2.8.8-3.9c.6-1.1,1.4-2,2.5-2.7,1.1-.6,2.4-1,3.9-1s2.8.3,3.8,1c1,.6,1.8,1.5,2.3,2.7.5,1.1.8,2.4.8,3.9v.8h-12.5v-1.9h10.8l-.6.9c0-1-.2-2-.6-2.7s-.9-1.4-1.6-1.8c-.7-.4-1.5-.7-2.5-.7s-1.7.2-2.4.6c-.7.4-1.3,1-1.7,1.8-.4.8-.6,1.8-.6,3.1s.2,2.2.6,3,1,1.5,1.7,1.9c.7.4,1.6.6,2.5.6s1.4-.1,2-.4c.6-.3,1.1-.6,1.4-1,.4-.4.6-.9.8-1.4h2.4c-.2.9-.6,1.8-1.1,2.5s-1.3,1.3-2.3,1.7c-.9.4-2,.6-3.2.6Z"/>
            <path class="cls-4" d="M297.1,372.4c-1,0-1.9-.2-2.7-.5s-1.5-.9-2.1-1.5c-.6-.7-1.1-1.5-1.4-2.4-.3-.9-.5-2-.5-3.1s.3-2.8.8-3.9,1.3-2,2.3-2.6c1-.6,2.2-.9,3.5-.9s1.9.2,2.7.5,1.5.9,2,1.5c.6.7,1,1.5,1.3,2.4s.5,1.9.5,3.1-.3,2.8-.8,4c-.5,1.1-1.3,2-2.2,2.6-1,.6-2.1.9-3.4.9ZM297.6,370.4c.9,0,1.7-.2,2.5-.7.7-.5,1.3-1.1,1.6-1.9.4-.8.6-1.8.6-2.9s-.1-1.6-.3-2.3c-.2-.7-.5-1.3-1-1.7-.4-.5-.9-.9-1.5-1.1-.6-.3-1.2-.4-1.9-.4s-1.7.2-2.4.7c-.7.5-1.2,1.1-1.6,1.9s-.6,1.8-.6,2.9.2,2.1.6,2.9c.4.8.9,1.5,1.6,1.9.7.5,1.5.7,2.4.7ZM302.3,372.1v-6.2l.5-1.2-.5-2.3v-4.9h2.4v14.6h-2.4Z"/>
            <path class="cls-4" d="M312,372.2l-4.8-14.7h2.6l3.3,10.9,4.1-11h1.9l4,10.8,3.3-10.7h2.5l-4.8,14.7h-1.8l-4.2-11-4.2,11h-1.8Z"/>
            <path class="cls-4" d="M336.9,372.4c-1,0-1.9-.2-2.7-.5s-1.5-.9-2.1-1.5c-.6-.7-1.1-1.5-1.4-2.4-.3-.9-.5-2-.5-3.1s.3-2.8.8-3.9,1.3-2,2.3-2.6c1-.6,2.2-.9,3.5-.9s1.9.2,2.7.5,1.5.9,2,1.5c.6.7,1,1.5,1.3,2.4s.5,1.9.5,3.1-.3,2.8-.8,4c-.5,1.1-1.3,2-2.2,2.6-1,.6-2.1.9-3.4.9ZM337.4,370.4c.9,0,1.7-.2,2.5-.7.7-.5,1.3-1.1,1.6-1.9.4-.8.6-1.8.6-2.9s-.1-1.6-.3-2.3c-.2-.7-.5-1.3-1-1.7-.4-.5-.9-.9-1.5-1.1-.6-.3-1.2-.4-1.9-.4s-1.7.2-2.4.7c-.7.5-1.2,1.1-1.6,1.9s-.6,1.8-.6,2.9.2,2.1.6,2.9c.4.8.9,1.5,1.6,1.9.7.5,1.5.7,2.4.7ZM342.1,372.1v-6.2l.5-1.2-.5-2.3v-4.9h2.4v14.6h-2.4Z"/>
            <path class="cls-4" d="M349,372.1v-14.6h2.4v7.4h-.7c0-1.6.3-2.9.7-4,.4-1.1,1.1-2,1.9-2.6s1.8-.9,3-.9.3,0,.5,0c.2,0,.3,0,.5,0v2.4c-.9,0-1.8,0-2.5.2-.7.2-1.4.4-1.9.9-.5.4-.9,1-1.1,1.8-.3.8-.4,1.7-.4,2.9v6.4h-2.4Z"/>
            <path class="cls-4" d="M366.6,372.4c-1.5,0-2.9-.3-4-1-1.1-.6-1.9-1.5-2.5-2.7-.6-1.1-.9-2.4-.9-3.9s.3-2.8.8-3.9c.6-1.1,1.4-2,2.5-2.7,1.1-.6,2.4-1,3.9-1s2.8.3,3.8,1c1,.6,1.8,1.5,2.3,2.7.5,1.1.8,2.4.8,3.9v.8h-12.5v-1.9h10.8l-.6.9c0-1-.2-2-.6-2.7s-.9-1.4-1.6-1.8c-.7-.4-1.5-.7-2.5-.7s-1.7.2-2.4.6c-.7.4-1.3,1-1.7,1.8-.4.8-.6,1.8-.6,3.1s.2,2.2.6,3,1,1.5,1.7,1.9c.7.4,1.6.6,2.5.6s1.4-.1,2-.4c.6-.3,1.1-.6,1.4-1,.4-.4.6-.9.8-1.4h2.4c-.2.9-.6,1.8-1.1,2.5s-1.3,1.3-2.3,1.7c-.9.4-2,.6-3.2.6Z"/>
            <path class="cls-4" d="M390.2,372.4c-1.5,0-2.8-.3-3.9-1-1.1-.6-2-1.5-2.6-2.7-.6-1.1-.9-2.4-.9-3.9s.3-2.8.9-3.9c.6-1.1,1.5-2,2.6-2.7,1.1-.6,2.4-1,3.9-1s2.8.3,3.9,1c1.1.6,2,1.5,2.6,2.7.6,1.1.9,2.4.9,3.9s-.3,2.8-.9,3.9c-.6,1.1-1.5,2-2.6,2.7-1.1.6-2.4,1-3.9,1ZM390.2,370.3c1.1,0,2-.2,2.7-.7.7-.5,1.3-1.1,1.7-1.9.4-.8.6-1.8.6-2.8s-.1-1.5-.3-2.2c-.2-.7-.5-1.3-1-1.8-.4-.5-.9-.9-1.6-1.1-.6-.3-1.3-.4-2.1-.4s-2,.2-2.7.7c-.7.5-1.3,1.1-1.7,2-.4.8-.6,1.8-.6,2.8s.2,2,.6,2.8c.4.8.9,1.5,1.7,1.9.7.5,1.6.7,2.7.7Z"/>
            <path class="cls-4" d="M399.7,359.5v-1.9h9.9v1.9h-9.9ZM402.4,372.1v-16.3c0-1.4.2-2.5.5-3.3s.9-1.5,1.7-1.9,1.7-.6,2.9-.6.6,0,.9,0c.3,0,.5,0,.8.1.2,0,.4.1.6.2v2.2c-.3-.2-.7-.4-1.2-.5s-.8-.1-1.1-.1c-.9,0-1.6.3-2,1-.4.7-.6,1.6-.6,2.9v16.2h-2.4Z"/>
            <path class="cls-4" d="M425.2,372.4c-1.5,0-2.9-.3-4-1-1.1-.6-1.9-1.5-2.5-2.7-.6-1.1-.9-2.4-.9-3.9s.3-2.8.8-3.9c.6-1.1,1.4-2,2.5-2.7,1.1-.6,2.4-1,3.9-1s2.8.3,3.8,1c1,.6,1.8,1.5,2.3,2.7.5,1.1.8,2.4.8,3.9v.8h-12.5v-1.9h10.8l-.6.9c0-1-.2-2-.6-2.7s-.9-1.4-1.6-1.8c-.7-.4-1.5-.7-2.5-.7s-1.7.2-2.4.6c-.7.4-1.3,1-1.7,1.8-.4.8-.6,1.8-.6,3.1s.2,2.2.6,3,1,1.5,1.7,1.9c.7.4,1.6.6,2.5.6s1.4-.1,2-.4c.6-.3,1.1-.6,1.4-1,.4-.4.6-.9.8-1.4h2.4c-.2.9-.6,1.8-1.1,2.5s-1.3,1.3-2.3,1.7c-.9.4-2,.6-3.2.6Z"/>
            <path class="cls-4" d="M433.8,372.1l5.8-8.2v1.8l-5.8-8.2h3l4.6,6.7h-1.2l4.7-6.7h2.9l-5.8,8.2v-1.8l6,8.2h-3l-4.8-6.8h1.3l-4.7,6.8h-2.9Z"/>
            <path class="cls-4" d="M456.7,372.4c-1.5,0-2.8-.3-3.9-1-1-.6-1.8-1.5-2.4-2.7-.5-1.1-.8-2.4-.8-3.9s.3-2.8.8-3.9c.6-1.1,1.4-2,2.4-2.7,1.1-.6,2.3-1,3.8-1s2.2.2,3.1.6c.9.4,1.7,1,2.3,1.7.6.7,1,1.6,1.2,2.6h-2.4c-.2-.6-.4-1.1-.8-1.5-.4-.4-.9-.8-1.4-1-.6-.2-1.2-.4-1.9-.4-1,0-1.8.2-2.5.7-.7.5-1.2,1.1-1.5,2-.3.8-.5,1.8-.5,2.8s.2,2,.5,2.8c.3.8.8,1.5,1.5,2s1.5.7,2.6.7,2-.3,2.7-.9,1.1-1.4,1.4-2.4h2.4c-.2,1.1-.5,2-1.1,2.8-.6.8-1.3,1.4-2.2,1.8-.9.4-2,.6-3.2.6Z"/>
            <path class="cls-4" d="M466.5,372.1v-21.9h2.4v14h-.8c0-1.5.2-2.7.7-3.7s1.1-1.8,2-2.4c.9-.6,1.9-.8,3.2-.8s1.7.1,2.4.4c.7.3,1.2.7,1.7,1.2.4.5.8,1.2,1,1.9s.3,1.6.3,2.6v8.7h-2.4v-7.8c0-1,0-1.8-.3-2.4s-.4-1.1-.8-1.5c-.3-.4-.7-.6-1.2-.8-.5-.2-1-.2-1.6-.2s-1.4.2-2.1.6c-.6.4-1.1,1-1.5,1.9-.4.9-.6,2.1-.6,3.6v6.6h-2.4Z"/>
            <path class="cls-4" d="M489.3,372.4c-1,0-1.9-.2-2.7-.5s-1.5-.9-2.1-1.5c-.6-.7-1.1-1.5-1.4-2.4-.3-.9-.5-2-.5-3.1s.3-2.8.8-3.9,1.3-2,2.3-2.6c1-.6,2.2-.9,3.5-.9s1.9.2,2.7.5,1.5.9,2,1.5c.6.7,1,1.5,1.3,2.4s.5,1.9.5,3.1-.3,2.8-.8,4c-.5,1.1-1.3,2-2.2,2.6-1,.6-2.1.9-3.4.9ZM489.7,370.4c.9,0,1.7-.2,2.5-.7.7-.5,1.3-1.1,1.6-1.9.4-.8.6-1.8.6-2.9s-.1-1.6-.3-2.3c-.2-.7-.5-1.3-1-1.7-.4-.5-.9-.9-1.5-1.1-.6-.3-1.2-.4-1.9-.4s-1.7.2-2.4.7c-.7.5-1.2,1.1-1.6,1.9s-.6,1.8-.6,2.9.2,2.1.6,2.9c.4.8.9,1.5,1.6,1.9.7.5,1.5.7,2.4.7ZM494.4,372.1v-6.2l.5-1.2-.5-2.3v-4.9h2.4v14.6h-2.4Z"/>
            <path class="cls-4" d="M501.4,372.1v-14.6h2.4v6.7h-.8c0-1.5.2-2.7.7-3.7s1.1-1.8,2-2.4c.9-.6,1.9-.8,3.2-.8s1.7.1,2.4.4c.7.3,1.2.7,1.7,1.2.4.5.8,1.2,1,1.9s.3,1.6.3,2.6v8.7h-2.4v-7.8c0-1,0-1.8-.3-2.4s-.4-1.1-.8-1.5c-.3-.4-.7-.6-1.2-.8-.5-.2-1-.2-1.6-.2s-1.4.2-2.1.6c-.6.4-1.1,1-1.5,1.9-.4.9-.6,2.1-.6,3.6v6.6h-2.4Z"/>
            <path class="cls-4" d="M524.3,372.4c-1,0-1.9-.2-2.8-.5-.8-.4-1.5-.9-2.1-1.5s-1.1-1.5-1.4-2.4c-.3-.9-.5-2-.5-3.1s.3-2.8.9-3.9,1.4-2,2.4-2.6c1-.6,2.2-.9,3.6-.9s2.4.3,3.3.9c.9.6,1.7,1.5,2.2,2.6.5,1.1.8,2.4.8,3.9s-.3,2.8-.8,4c-.5,1.1-1.3,2-2.2,2.6-.9.6-2.1.9-3.3.9ZM525,378.7c-1.5,0-2.6-.2-3.6-.6-.9-.4-1.7-.9-2.2-1.6-.5-.7-.8-1.5-.9-2.4h2.4c0,.5.3.9.6,1.3s.7.7,1.3.9c.6.2,1.3.3,2.3.3s1.8-.1,2.4-.4c.6-.3,1.1-.7,1.4-1.3s.4-1.3.4-2.1v-5.3l.6-2.6-.6-2.3v-4.9h2.4v15.1c0,1.3-.3,2.3-.8,3.2-.5.9-1.3,1.6-2.2,2.1-1,.5-2.2.7-3.7.7ZM524.6,370.4c.9,0,1.7-.2,2.5-.7.7-.5,1.3-1.1,1.6-1.9.4-.8.6-1.8.6-2.9s-.1-1.6-.3-2.3c-.2-.7-.5-1.3-1-1.7-.4-.5-.9-.9-1.5-1.1-.6-.3-1.2-.4-1.9-.4s-1.7.2-2.4.7c-.7.5-1.2,1.1-1.6,1.9s-.6,1.8-.6,2.9.2,2.1.6,2.9c.4.8.9,1.5,1.6,1.9.7.5,1.5.7,2.4.7Z"/>
            <path class="cls-4" d="M542.7,372.4c-1.5,0-2.9-.3-4-1-1.1-.6-1.9-1.5-2.5-2.7-.6-1.1-.9-2.4-.9-3.9s.3-2.8.8-3.9c.6-1.1,1.4-2,2.5-2.7,1.1-.6,2.4-1,3.9-1s2.8.3,3.8,1c1,.6,1.8,1.5,2.3,2.7.5,1.1.8,2.4.8,3.9v.8h-12.5v-1.9h10.8l-.6.9c0-1-.2-2-.6-2.7s-.9-1.4-1.6-1.8c-.7-.4-1.5-.7-2.5-.7s-1.7.2-2.4.6c-.7.4-1.3,1-1.7,1.8-.4.8-.6,1.8-.6,3.1s.2,2.2.6,3,1,1.5,1.7,1.9c.7.4,1.6.6,2.5.6s1.4-.1,2-.4c.6-.3,1.1-.6,1.4-1,.4-.4.6-.9.8-1.4h2.4c-.2.9-.6,1.8-1.1,2.5s-1.3,1.3-2.3,1.7c-.9.4-2,.6-3.2.6Z"/>
            <path class="cls-4" d="M250.8,406.9v-14.6h2.4v7.4h-.7c0-1.6.3-2.9.7-4,.4-1.1,1.1-2,1.9-2.6s1.8-.9,3-.9.3,0,.5,0c.2,0,.3,0,.5,0v2.4c-.9,0-1.8,0-2.5.2-.7.2-1.4.4-1.9.9-.5.4-.9,1-1.1,1.8-.3.8-.4,1.7-.4,2.9v6.4h-2.4Z"/>
            <path class="cls-4" d="M267.7,407.2c-1,0-1.9-.2-2.7-.5s-1.5-.9-2.1-1.5c-.6-.7-1.1-1.5-1.4-2.4-.3-.9-.5-2-.5-3.1s.3-2.8.8-3.9,1.3-2,2.3-2.6c1-.6,2.2-.9,3.5-.9s1.9.2,2.7.5,1.5.9,2,1.5c.6.7,1,1.5,1.3,2.4s.5,1.9.5,3.1-.3,2.8-.8,4c-.5,1.1-1.3,2-2.2,2.6-1,.6-2.1.9-3.4.9ZM268.1,405.2c.9,0,1.7-.2,2.5-.7.7-.5,1.3-1.1,1.6-1.9.4-.8.6-1.8.6-2.9s-.1-1.6-.3-2.3c-.2-.7-.5-1.3-1-1.7-.4-.5-.9-.9-1.5-1.1-.6-.3-1.2-.4-1.9-.4s-1.7.2-2.4.7c-.7.5-1.2,1.1-1.6,1.9s-.6,1.8-.6,2.9.2,2.1.6,2.9c.4.8.9,1.5,1.6,1.9.7.5,1.5.7,2.4.7ZM272.8,406.9v-6.2l.5-1.2-.5-2.3v-4.9h2.4v14.6h-2.4Z"/>
            <path class="cls-4" d="M278.1,394.3v-1.9h10.4v1.9h-10.4ZM285.7,407.3c-.8,0-1.5,0-2.1-.2-.6-.2-1.1-.4-1.5-.8s-.7-.9-.8-1.6c-.2-.7-.3-1.5-.3-2.6v-15.2h2.4v15.3c0,.9,0,1.6.2,2s.4.8.8.9c.4.2.9.2,1.5.2s.8,0,1.3-.1c.5,0,.9-.3,1.2-.6v2.3c-.2.1-.5.2-.9.3-.4,0-.7.1-1.1.1s-.7,0-.9,0Z"/>
            <path class="cls-4" d="M298.4,407.2c-1.5,0-2.9-.3-4-1-1.1-.6-1.9-1.5-2.5-2.7-.6-1.1-.9-2.4-.9-3.9s.3-2.8.8-3.9c.6-1.1,1.4-2,2.5-2.7,1.1-.6,2.4-1,3.9-1s2.8.3,3.8,1c1,.6,1.8,1.5,2.3,2.7.5,1.1.8,2.4.8,3.9v.8h-12.5v-1.9h10.8l-.6.9c0-1-.2-2-.6-2.7s-.9-1.4-1.6-1.8c-.7-.4-1.5-.7-2.5-.7s-1.7.2-2.4.6c-.7.4-1.3,1-1.7,1.8-.4.8-.6,1.8-.6,3.1s.2,2.2.6,3,1,1.5,1.7,1.9c.7.4,1.6.6,2.5.6s1.4-.1,2-.4c.6-.3,1.1-.6,1.4-1,.4-.4.6-.9.8-1.4h2.4c-.2.9-.6,1.8-1.1,2.5s-1.3,1.3-2.3,1.7c-.9.4-2,.6-3.2.6Z"/>
            <path class="cls-4" d="M313.7,407.2c-1.2,0-2.3-.2-3.2-.6-.9-.4-1.5-.9-2-1.6-.5-.7-.7-1.5-.7-2.4h2.4c0,.5.1.9.4,1.3s.6.7,1.1.9c.5.2,1.1.3,1.9.3s1.7-.2,2.3-.6c.6-.4.8-.9.8-1.6s-.2-.9-.5-1.2c-.3-.3-.7-.5-1.2-.7-.5-.2-1.1-.3-1.7-.4-.6-.1-1.2-.3-1.8-.4-.6-.2-1.2-.4-1.7-.7-.5-.3-.9-.7-1.2-1.2-.3-.5-.5-1.2-.5-2,0-1.3.5-2.3,1.4-3.1s2.2-1.1,3.8-1.1,2,.2,2.9.5c.8.4,1.5.9,1.9,1.5s.7,1.4.7,2.3h-2.3c0-.7-.3-1.2-.8-1.7-.6-.4-1.3-.6-2.2-.6s-1.6.2-2.1.6c-.5.4-.8.9-.8,1.6s.2.9.5,1.2c.3.3.7.5,1.2.6.5.1,1.1.3,1.7.4.6.1,1.2.2,1.8.4.6.2,1.2.4,1.7.7.5.3.9.7,1.2,1.2.3.5.5,1.2.5,2.1,0,1.3-.5,2.4-1.5,3.2-1,.8-2.3,1.2-4,1.2Z"/>
            <path class="cls-4" d="M335.2,407.2c-1,0-1.9-.2-2.7-.5s-1.5-.9-2.1-1.5c-.6-.7-1.1-1.5-1.4-2.4-.3-.9-.5-2-.5-3.1s.3-2.8.8-3.9,1.3-2,2.3-2.6c1-.6,2.2-.9,3.5-.9s1.9.2,2.7.5,1.5.9,2,1.5c.6.7,1,1.5,1.3,2.4s.5,1.9.5,3.1-.3,2.8-.8,4c-.5,1.1-1.3,2-2.2,2.6-1,.6-2.1.9-3.4.9ZM335.6,405.2c.9,0,1.7-.2,2.5-.7.7-.5,1.3-1.1,1.6-1.9.4-.8.6-1.8.6-2.9s-.1-1.6-.3-2.3c-.2-.7-.5-1.3-1-1.7-.4-.5-.9-.9-1.5-1.1-.6-.3-1.2-.4-1.9-.4s-1.7.2-2.4.7c-.7.5-1.2,1.1-1.6,1.9s-.6,1.8-.6,2.9.2,2.1.6,2.9c.4.8.9,1.5,1.6,1.9.7.5,1.5.7,2.4.7ZM340.3,406.9v-6.2l.5-1.2-.5-2.3v-4.9h2.4v14.6h-2.4Z"/>
            <path class="cls-4" d="M347.2,406.9v-14.6h2.4v6.7h-.8c0-1.5.2-2.7.7-3.7s1.1-1.8,2-2.4c.9-.6,1.9-.8,3.2-.8s1.7.1,2.4.4c.7.3,1.2.7,1.7,1.2.4.5.8,1.2,1,1.9s.3,1.6.3,2.6v8.7h-2.4v-7.8c0-1,0-1.8-.3-2.4s-.4-1.1-.8-1.5c-.3-.4-.7-.6-1.2-.8-.5-.2-1-.2-1.6-.2s-1.4.2-2.1.6c-.6.4-1.1,1-1.5,1.9-.4.9-.6,2.1-.6,3.6v6.6h-2.4Z"/>
            <path class="cls-4" d="M370,407.2c-1,0-1.9-.2-2.7-.5-.8-.4-1.5-.9-2.1-1.5-.6-.7-1-1.5-1.4-2.4-.3-.9-.5-2-.5-3.1s.3-2.8.8-3.9,1.3-2,2.3-2.6c1-.6,2.2-.9,3.5-.9s1.9.2,2.7.5,1.5.9,2,1.5c.6.7,1,1.5,1.3,2.4s.5,1.9.5,3.1-.3,2.8-.8,4c-.5,1.1-1.3,2-2.3,2.6-1,.6-2.1.9-3.4.9ZM370.5,405.2c.9,0,1.7-.2,2.5-.7.7-.5,1.3-1.1,1.6-1.9.4-.8.6-1.8.6-2.9s-.1-1.6-.3-2.3c-.2-.7-.5-1.3-1-1.7-.4-.5-.9-.9-1.5-1.1-.6-.3-1.2-.4-1.9-.4s-1.7.2-2.4.7c-.7.5-1.2,1.1-1.6,1.9s-.6,1.8-.6,2.9.2,2.1.6,2.9c.4.8.9,1.5,1.6,1.9.7.5,1.5.7,2.4.7ZM375.2,406.9v-4.8l.6-2.6-.6-2.1v-12.4h2.4v21.9h-2.4Z"/>
            <path class="cls-4" d="M387.1,394.3v-1.9h9.9v1.9h-9.9ZM389.8,406.9v-16.3c0-1.4.2-2.5.5-3.3s.9-1.5,1.7-1.9,1.7-.6,2.9-.6.6,0,.9,0c.3,0,.5,0,.8.1.2,0,.4.1.6.2v2.2c-.3-.2-.7-.4-1.2-.5s-.8-.1-1.1-.1c-.9,0-1.6.3-2,1-.4.7-.6,1.6-.6,2.9v16.2h-2.4Z"/>
            <path class="cls-4" d="M405.7,407.2c-1.5,0-2.9-.3-4-1-1.1-.6-1.9-1.5-2.5-2.7-.6-1.1-.9-2.4-.9-3.9s.3-2.8.8-3.9c.6-1.1,1.4-2,2.5-2.7,1.1-.6,2.4-1,3.9-1s2.8.3,3.8,1c1,.6,1.8,1.5,2.3,2.7.5,1.1.8,2.4.8,3.9v.8h-12.5v-1.9h10.8l-.6.9c0-1-.2-2-.6-2.7s-.9-1.4-1.6-1.8c-.7-.4-1.5-.7-2.5-.7s-1.7.2-2.4.6c-.7.4-1.3,1-1.7,1.8-.4.8-.6,1.8-.6,3.1s.2,2.2.6,3,1,1.5,1.7,1.9c.7.4,1.6.6,2.5.6s1.4-.1,2-.4c.6-.3,1.1-.6,1.4-1,.4-.4.6-.9.8-1.4h2.4c-.2.9-.6,1.8-1.1,2.5s-1.3,1.3-2.3,1.7c-.9.4-2,.6-3.2.6Z"/>
            <path class="cls-4" d="M422.6,407.2c-1.5,0-2.9-.3-4-1-1.1-.6-1.9-1.5-2.5-2.7-.6-1.1-.9-2.4-.9-3.9s.3-2.8.8-3.9c.6-1.1,1.4-2,2.5-2.7,1.1-.6,2.4-1,3.9-1s2.8.3,3.8,1c1,.6,1.8,1.5,2.3,2.7.5,1.1.8,2.4.8,3.9v.8h-12.5v-1.9h10.8l-.6.9c0-1-.2-2-.6-2.7s-.9-1.4-1.6-1.8c-.7-.4-1.5-.7-2.5-.7s-1.7.2-2.4.6c-.7.4-1.3,1-1.7,1.8-.4.8-.6,1.8-.6,3.1s.2,2.2.6,3,1,1.5,1.7,1.9c.7.4,1.6.6,2.5.6s1.4-.1,2-.4c.6-.3,1.1-.6,1.4-1,.4-.4.6-.9.8-1.4h2.4c-.2.9-.6,1.8-1.1,2.5s-1.3,1.3-2.3,1.7c-.9.4-2,.6-3.2.6Z"/>
            <path class="cls-4" d="M437.8,407.2c-1.2,0-2.3-.2-3.2-.6-.9-.4-1.5-.9-2-1.6-.5-.7-.7-1.5-.7-2.4h2.4c0,.5.1.9.4,1.3s.6.7,1.1.9c.5.2,1.1.3,1.9.3s1.7-.2,2.3-.6c.6-.4.8-.9.8-1.6s-.2-.9-.5-1.2c-.3-.3-.7-.5-1.2-.7-.5-.2-1.1-.3-1.7-.4-.6-.1-1.2-.3-1.8-.4-.6-.2-1.2-.4-1.7-.7-.5-.3-.9-.7-1.2-1.2-.3-.5-.5-1.2-.5-2,0-1.3.5-2.3,1.4-3.1s2.2-1.1,3.8-1.1,2,.2,2.9.5c.8.4,1.5.9,1.9,1.5s.7,1.4.7,2.3h-2.3c0-.7-.3-1.2-.8-1.7-.6-.4-1.3-.6-2.2-.6s-1.6.2-2.1.6c-.5.4-.8.9-.8,1.6s.2.9.5,1.2c.3.3.7.5,1.2.6.5.1,1.1.3,1.7.4.6.1,1.2.2,1.8.4.6.2,1.2.4,1.7.7.5.3.9.7,1.2,1.2.3.5.5,1.2.5,2.1,0,1.3-.5,2.4-1.5,3.2-1,.8-2.3,1.2-4,1.2Z"/>
            <path class="cls-4" d="M446.5,412.1l1.1-5.2h-1.1v-3.1h3v3l-1.7,5.4h-1.3Z"/>
            <path class="cls-4" d="M466.1,407.2c-1,0-1.9-.2-2.7-.5s-1.5-.9-2.1-1.5c-.6-.7-1.1-1.5-1.4-2.4-.3-.9-.5-2-.5-3.1s.3-2.8.8-3.9,1.3-2,2.3-2.6c1-.6,2.2-.9,3.5-.9s1.9.2,2.7.5,1.5.9,2,1.5c.6.7,1,1.5,1.3,2.4s.5,1.9.5,3.1-.3,2.8-.8,4c-.5,1.1-1.3,2-2.2,2.6-1,.6-2.1.9-3.4.9ZM466.5,405.2c.9,0,1.7-.2,2.5-.7.7-.5,1.3-1.1,1.6-1.9.4-.8.6-1.8.6-2.9s-.1-1.6-.3-2.3c-.2-.7-.5-1.3-1-1.7-.4-.5-.9-.9-1.5-1.1-.6-.3-1.2-.4-1.9-.4s-1.7.2-2.4.7c-.7.5-1.2,1.1-1.6,1.9s-.6,1.8-.6,2.9.2,2.1.6,2.9c.4.8.9,1.5,1.6,1.9.7.5,1.5.7,2.4.7ZM471.2,406.9v-6.2l.5-1.2-.5-2.3v-4.9h2.4v14.6h-2.4Z"/>
            <path class="cls-4" d="M478.2,406.9v-14.6h2.4v6.7h-.8c0-1.5.2-2.7.7-3.7s1.1-1.8,2-2.4c.9-.6,1.9-.8,3.2-.8s1.7.1,2.4.4c.7.3,1.2.7,1.7,1.2.4.5.8,1.2,1,1.9s.3,1.6.3,2.6v8.7h-2.4v-7.8c0-1,0-1.8-.3-2.4s-.4-1.1-.8-1.5c-.3-.4-.7-.6-1.2-.8-.5-.2-1-.2-1.6-.2s-1.4.2-2.1.6c-.6.4-1.1,1-1.5,1.9-.4.9-.6,2.1-.6,3.6v6.6h-2.4Z"/>
            <path class="cls-4" d="M500.9,407.2c-1,0-1.9-.2-2.7-.5-.8-.4-1.5-.9-2.1-1.5-.6-.7-1-1.5-1.4-2.4-.3-.9-.5-2-.5-3.1s.3-2.8.8-3.9,1.3-2,2.3-2.6c1-.6,2.2-.9,3.5-.9s1.9.2,2.7.5,1.5.9,2,1.5c.6.7,1,1.5,1.3,2.4s.5,1.9.5,3.1-.3,2.8-.8,4c-.5,1.1-1.3,2-2.3,2.6-1,.6-2.1.9-3.4.9ZM501.4,405.2c.9,0,1.7-.2,2.5-.7.7-.5,1.3-1.1,1.6-1.9.4-.8.6-1.8.6-2.9s-.1-1.6-.3-2.3c-.2-.7-.5-1.3-1-1.7-.4-.5-.9-.9-1.5-1.1-.6-.3-1.2-.4-1.9-.4s-1.7.2-2.4.7c-.7.5-1.2,1.1-1.6,1.9s-.6,1.8-.6,2.9.2,2.1.6,2.9c.4.8.9,1.5,1.6,1.9.7.5,1.5.7,2.4.7ZM506.1,406.9v-4.8l.6-2.6-.6-2.1v-12.4h2.4v21.9h-2.4Z"/>
            <path class="cls-4" d="M525.4,407.2c-1,0-1.9-.2-2.7-.5s-1.5-.9-2.1-1.5c-.6-.7-1.1-1.5-1.4-2.4-.3-.9-.5-2-.5-3.1s.3-2.8.8-3.9,1.3-2,2.3-2.6c1-.6,2.2-.9,3.5-.9s1.9.2,2.7.5,1.5.9,2,1.5c.6.7,1,1.5,1.3,2.4s.5,1.9.5,3.1-.3,2.8-.8,4c-.5,1.1-1.3,2-2.2,2.6-1,.6-2.1.9-3.4.9ZM525.9,405.2c.9,0,1.7-.2,2.5-.7.7-.5,1.3-1.1,1.6-1.9.4-.8.6-1.8.6-2.9s-.1-1.6-.3-2.3c-.2-.7-.5-1.3-1-1.7-.4-.5-.9-.9-1.5-1.1-.6-.3-1.2-.4-1.9-.4s-1.7.2-2.4.7c-.7.5-1.2,1.1-1.6,1.9s-.6,1.8-.6,2.9.2,2.1.6,2.9c.4.8.9,1.5,1.6,1.9.7.5,1.5.7,2.4.7ZM530.6,406.9v-6.2l.5-1.2-.5-2.3v-4.9h2.4v14.6h-2.4Z"/>
            <path class="cls-4" d="M537.5,406.9v-21.9h2.4v21.9h-2.4Z"/>
            <path class="cls-4" d="M549.3,407.2c-1.2,0-2.3-.2-3.2-.6-.9-.4-1.5-.9-2-1.6-.5-.7-.7-1.5-.7-2.4h2.4c0,.5.1.9.4,1.3s.6.7,1.1.9c.5.2,1.1.3,1.9.3s1.7-.2,2.3-.6c.6-.4.8-.9.8-1.6s-.2-.9-.5-1.2c-.3-.3-.7-.5-1.2-.7-.5-.2-1.1-.3-1.7-.4-.6-.1-1.2-.3-1.8-.4-.6-.2-1.2-.4-1.7-.7-.5-.3-.9-.7-1.2-1.2-.3-.5-.5-1.2-.5-2,0-1.3.5-2.3,1.4-3.1s2.2-1.1,3.8-1.1,2,.2,2.9.5c.8.4,1.5.9,1.9,1.5s.7,1.4.7,2.3h-2.3c0-.7-.3-1.2-.8-1.7-.6-.4-1.3-.6-2.2-.6s-1.6.2-2.1.6c-.5.4-.8.9-.8,1.6s.2.9.5,1.2c.3.3.7.5,1.2.6.5.1,1.1.3,1.7.4.6.1,1.2.2,1.8.4.6.2,1.2.4,1.7.7.5.3.9.7,1.2,1.2.3.5.5,1.2.5,2.1,0,1.3-.5,2.4-1.5,3.2-1,.8-2.3,1.2-4,1.2Z"/>
            <path class="cls-4" d="M564.9,407.2c-1.5,0-2.8-.3-3.9-1-1.1-.6-2-1.5-2.6-2.7-.6-1.1-.9-2.4-.9-3.9s.3-2.8.9-3.9c.6-1.1,1.5-2,2.6-2.7,1.1-.6,2.4-1,3.9-1s2.8.3,3.9,1c1.1.6,2,1.5,2.6,2.7.6,1.1.9,2.4.9,3.9s-.3,2.8-.9,3.9c-.6,1.1-1.5,2-2.6,2.7-1.1.6-2.4,1-3.9,1ZM564.9,405.1c1.1,0,2-.2,2.7-.7.7-.5,1.3-1.1,1.7-1.9.4-.8.6-1.8.6-2.8s-.1-1.5-.3-2.2c-.2-.7-.5-1.3-1-1.8-.4-.5-.9-.9-1.6-1.1-.6-.3-1.3-.4-2.1-.4s-2,.2-2.7.7c-.7.5-1.3,1.1-1.7,2-.4.8-.6,1.8-.6,2.8s.2,2,.6,2.8c.4.8.9,1.5,1.7,1.9.7.5,1.6.7,2.7.7Z"/>
            <path class="cls-4" d="M250.8,441.7v-21.9h2.4v21.9h-2.4ZM260,441.7l-6.8-6.9-.2-.5,6.2-7.2h3.1l-6.8,7.8-.4-1.5,8.3,8.3h-3.4Z"/>
            <path class="cls-4" d="M272.1,442c-1.5,0-2.9-.3-4-1-1.1-.6-1.9-1.5-2.5-2.7-.6-1.1-.9-2.4-.9-3.9s.3-2.8.8-3.9c.6-1.1,1.4-2,2.5-2.7,1.1-.6,2.4-1,3.9-1s2.8.3,3.8,1c1,.6,1.8,1.5,2.3,2.7.5,1.1.8,2.4.8,3.9v.8h-12.5v-1.9h10.8l-.6.9c0-1-.2-2-.6-2.7s-.9-1.4-1.6-1.8c-.7-.4-1.5-.7-2.5-.7s-1.7.2-2.4.6c-.7.4-1.3,1-1.7,1.8-.4.8-.6,1.8-.6,3.1s.2,2.2.6,3,1,1.5,1.7,1.9c.7.4,1.6.6,2.5.6s1.4-.1,2-.4c.6-.3,1.1-.6,1.4-1,.4-.4.6-.9.8-1.4h2.4c-.2.9-.6,1.8-1.1,2.5s-1.3,1.3-2.3,1.7c-.9.4-2,.6-3.2.6Z"/>
            <path class="cls-4" d="M288.9,442c-1.5,0-2.9-.3-4-1-1.1-.6-1.9-1.5-2.5-2.7-.6-1.1-.9-2.4-.9-3.9s.3-2.8.8-3.9c.6-1.1,1.4-2,2.5-2.7,1.1-.6,2.4-1,3.9-1s2.8.3,3.8,1c1,.6,1.8,1.5,2.3,2.7.5,1.1.8,2.4.8,3.9v.8h-12.5v-1.9h10.8l-.6.9c0-1-.2-2-.6-2.7s-.9-1.4-1.6-1.8c-.7-.4-1.5-.7-2.5-.7s-1.7.2-2.4.6c-.7.4-1.3,1-1.7,1.8-.4.8-.6,1.8-.6,3.1s.2,2.2.6,3,1,1.5,1.7,1.9c.7.4,1.6.6,2.5.6s1.4-.1,2-.4c.6-.3,1.1-.6,1.4-1,.4-.4.6-.9.8-1.4h2.4c-.2.9-.6,1.8-1.1,2.5s-1.3,1.3-2.3,1.7c-.9.4-2,.6-3.2.6Z"/>
            <path class="cls-4" d="M299.3,448v-20.9h2.4v4.3l-.5,2.8.6,2.3v11.4h-2.4ZM306.9,442c-1.3,0-2.4-.3-3.4-.9-1-.6-1.7-1.5-2.3-2.6-.5-1.1-.8-2.5-.8-4s.3-2.8.8-3.9c.5-1.1,1.3-2,2.3-2.6,1-.6,2.1-.9,3.4-.9s1.9.2,2.7.5c.8.4,1.5.9,2.1,1.5.6.7,1.1,1.5,1.4,2.4s.5,1.9.5,3.1-.3,2.8-.8,4c-.6,1.1-1.3,2-2.3,2.6-1,.6-2.2.9-3.5.9ZM306.4,440c.9,0,1.7-.2,2.4-.7.7-.5,1.2-1.1,1.6-1.9.4-.8.6-1.8.6-2.9s-.2-2.1-.6-2.9-.9-1.5-1.6-1.9c-.7-.5-1.5-.7-2.4-.7s-1.7.2-2.4.7c-.7.5-1.2,1.1-1.6,1.9-.4.8-.6,1.8-.6,2.9s.1,1.6.3,2.3.5,1.3,1,1.8c.4.5.9.9,1.5,1.1.6.3,1.2.4,1.9.4Z"/>
            <path class="cls-4" d="M328.1,442.5l-6.4-15.3h2.7l4.9,12.4-1.2,2.9ZM324.7,448l3.4-8.3.2-.6,4.9-12h2.6l-8.6,20.9h-2.6Z"/>
            <path class="cls-4" d="M344.9,442c-1.5,0-2.8-.3-3.9-1-1.1-.6-2-1.5-2.6-2.7-.6-1.1-.9-2.4-.9-3.9s.3-2.8.9-3.9c.6-1.1,1.5-2,2.6-2.7,1.1-.6,2.4-1,3.9-1s2.8.3,3.9,1c1.1.6,2,1.5,2.6,2.7.6,1.1.9,2.4.9,3.9s-.3,2.8-.9,3.9c-.6,1.1-1.5,2-2.6,2.7-1.1.6-2.4,1-3.9,1ZM344.9,439.9c1.1,0,2-.2,2.7-.7.7-.5,1.3-1.1,1.7-1.9.4-.8.6-1.8.6-2.8s-.1-1.5-.3-2.2c-.2-.7-.5-1.3-1-1.8-.4-.5-.9-.9-1.6-1.1-.6-.3-1.3-.4-2.1-.4s-2,.2-2.7.7c-.7.5-1.3,1.1-1.7,2-.4.8-.6,1.8-.6,2.8s.2,2,.6,2.8c.4.8.9,1.5,1.7,1.9.7.5,1.6.7,2.7.7Z"/>
            <path class="cls-4" d="M361,442c-.9,0-1.7-.1-2.4-.4s-1.2-.7-1.7-1.2c-.4-.5-.8-1.2-1-1.9s-.3-1.6-.3-2.6v-8.7h2.4v7.8c0,1,0,1.8.3,2.4s.4,1.1.8,1.5c.3.4.7.6,1.2.8.5.2,1,.2,1.6.2s1.4-.2,2.1-.6c.6-.4,1.1-1,1.5-1.9s.6-2.1.6-3.6v-6.6h2.4v14.6h-2.4v-6.7h.8c0,1.5-.2,2.7-.7,3.7-.4,1-1.1,1.8-2,2.4s-1.9.8-3.2.8Z"/>
            <path class="cls-4" d="M372.9,441.7v-14.6h2.4v7.4h-.7c0-1.6.3-2.9.7-4,.4-1.1,1.1-2,1.9-2.6s1.8-.9,3-.9.3,0,.5,0c.2,0,.3,0,.5,0v2.4c-.9,0-1.8,0-2.5.2-.7.2-1.4.4-1.9.9-.5.4-.9,1-1.1,1.8-.3.8-.4,1.7-.4,2.9v6.4h-2.4Z"/>
            <path class="cls-4" d="M390.7,441.7v-14.6h2.4v6.7h-.8c0-1.5.2-2.7.6-3.7.4-1,1-1.8,1.8-2.4.8-.6,1.8-.8,2.9-.8s1.6.1,2.2.4c.6.3,1.2.6,1.6,1.2.4.5.7,1.1.9,1.9.2.7.3,1.6.3,2.5h-1.3c.1-1.3.4-2.4,1-3.3.5-.9,1.2-1.5,2-2,.8-.4,1.8-.7,2.8-.7s1.6.1,2.3.4c.6.3,1.2.7,1.6,1.2.4.5.7,1.2,1,1.9s.3,1.6.3,2.6v8.7h-2.4v-7.8c0-1,0-1.8-.2-2.4s-.4-1.1-.7-1.5-.7-.6-1.1-.8c-.4-.2-.9-.2-1.4-.2s-1.3.2-1.8.6c-.6.4-1.1,1-1.4,1.9-.4.9-.6,2.1-.6,3.6v6.6h-2.4v-7.8c0-1,0-1.8-.2-2.4s-.4-1.1-.7-1.5-.6-.6-1-.8c-.4-.2-.9-.2-1.3-.2s-1.3.2-1.9.6c-.6.4-1.1,1-1.4,1.9-.4.9-.6,2.1-.6,3.6v6.6h-2.4Z"/>
            <path class="cls-4" d="M423.2,442c-1.5,0-2.8-.3-3.9-1-1.1-.6-2-1.5-2.6-2.7-.6-1.1-.9-2.4-.9-3.9s.3-2.8.9-3.9c.6-1.1,1.5-2,2.6-2.7,1.1-.6,2.4-1,3.9-1s2.8.3,3.9,1c1.1.6,2,1.5,2.6,2.7.6,1.1.9,2.4.9,3.9s-.3,2.8-.9,3.9c-.6,1.1-1.5,2-2.6,2.7-1.1.6-2.4,1-3.9,1ZM423.2,439.9c1.1,0,2-.2,2.7-.7.7-.5,1.3-1.1,1.7-1.9.4-.8.6-1.8.6-2.8s-.1-1.5-.3-2.2c-.2-.7-.5-1.3-1-1.8-.4-.5-.9-.9-1.6-1.1-.6-.3-1.3-.4-2.1-.4s-2,.2-2.7.7c-.7.5-1.3,1.1-1.7,2-.4.8-.6,1.8-.6,2.8s.2,2,.6,2.8c.4.8.9,1.5,1.7,1.9.7.5,1.6.7,2.7.7Z"/>
            <path class="cls-4" d="M434.2,441.7v-14.6h2.4v6.7h-.8c0-1.5.2-2.7.7-3.7s1.1-1.8,2-2.4c.9-.6,1.9-.8,3.2-.8s1.7.1,2.4.4c.7.3,1.2.7,1.7,1.2.4.5.8,1.2,1,1.9s.3,1.6.3,2.6v8.7h-2.4v-7.8c0-1,0-1.8-.3-2.4s-.4-1.1-.8-1.5c-.3-.4-.7-.6-1.2-.8-.5-.2-1-.2-1.6-.2s-1.4.2-2.1.6c-.6.4-1.1,1-1.5,1.9-.4.9-.6,2.1-.6,3.6v6.6h-2.4Z"/>
            <path class="cls-4" d="M457.7,442c-1.5,0-2.9-.3-4-1-1.1-.6-1.9-1.5-2.5-2.7-.6-1.1-.9-2.4-.9-3.9s.3-2.8.8-3.9c.6-1.1,1.4-2,2.5-2.7,1.1-.6,2.4-1,3.9-1s2.8.3,3.8,1c1,.6,1.8,1.5,2.3,2.7.5,1.1.8,2.4.8,3.9v.8h-12.5v-1.9h10.8l-.6.9c0-1-.2-2-.6-2.7s-.9-1.4-1.6-1.8c-.7-.4-1.5-.7-2.5-.7s-1.7.2-2.4.6c-.7.4-1.3,1-1.7,1.8-.4.8-.6,1.8-.6,3.1s.2,2.2.6,3,1,1.5,1.7,1.9c.7.4,1.6.6,2.5.6s1.4-.1,2-.4c.6-.3,1.1-.6,1.4-1,.4-.4.6-.9.8-1.4h2.4c-.2.9-.6,1.8-1.1,2.5s-1.3,1.3-2.3,1.7c-.9.4-2,.6-3.2.6Z"/>
            <path class="cls-4" d="M472.4,442.5l-6.4-15.3h2.7l4.9,12.4-1.2,2.9ZM469,448l3.4-8.3.2-.6,4.9-12h2.6l-8.6,20.9h-2.6Z"/>
            <path class="cls-4" d="M494.1,442c-1.2,0-2.3-.2-3.2-.6-.9-.4-1.5-.9-2-1.6-.5-.7-.7-1.5-.7-2.4h2.4c0,.5.1.9.4,1.3s.6.7,1.1.9c.5.2,1.1.3,1.9.3s1.7-.2,2.3-.6c.6-.4.8-.9.8-1.6s-.2-.9-.5-1.2c-.3-.3-.7-.5-1.2-.7-.5-.2-1.1-.3-1.7-.4-.6-.1-1.2-.3-1.8-.4-.6-.2-1.2-.4-1.7-.7-.5-.3-.9-.7-1.2-1.2-.3-.5-.5-1.2-.5-2,0-1.3.5-2.3,1.4-3.1s2.2-1.1,3.8-1.1,2,.2,2.9.5c.8.4,1.5.9,1.9,1.5s.7,1.4.7,2.3h-2.3c0-.7-.3-1.2-.8-1.7-.6-.4-1.3-.6-2.2-.6s-1.6.2-2.1.6c-.5.4-.8.9-.8,1.6s.2.9.5,1.2c.3.3.7.5,1.2.6.5.1,1.1.3,1.7.4.6.1,1.2.2,1.8.4.6.2,1.2.4,1.7.7.5.3.9.7,1.2,1.2.3.5.5,1.2.5,2.1,0,1.3-.5,2.4-1.5,3.2-1,.8-2.3,1.2-4,1.2Z"/>
            <path class="cls-4" d="M509.6,442c-1.5,0-2.9-.3-4-1-1.1-.6-1.9-1.5-2.5-2.7-.6-1.1-.9-2.4-.9-3.9s.3-2.8.8-3.9c.6-1.1,1.4-2,2.5-2.7,1.1-.6,2.4-1,3.9-1s2.8.3,3.8,1c1,.6,1.8,1.5,2.3,2.7.5,1.1.8,2.4.8,3.9v.8h-12.5v-1.9h10.8l-.6.9c0-1-.2-2-.6-2.7s-.9-1.4-1.6-1.8c-.7-.4-1.5-.7-2.5-.7s-1.7.2-2.4.6c-.7.4-1.3,1-1.7,1.8-.4.8-.6,1.8-.6,3.1s.2,2.2.6,3,1,1.5,1.7,1.9c.7.4,1.6.6,2.5.6s1.4-.1,2-.4c.6-.3,1.1-.6,1.4-1,.4-.4.6-.9.8-1.4h2.4c-.2.9-.6,1.8-1.1,2.5s-1.3,1.3-2.3,1.7c-.9.4-2,.6-3.2.6Z"/>
            <path class="cls-4" d="M526.1,442c-1.5,0-2.8-.3-3.9-1-1-.6-1.8-1.5-2.4-2.7-.5-1.1-.8-2.4-.8-3.9s.3-2.8.8-3.9c.6-1.1,1.4-2,2.4-2.7,1.1-.6,2.3-1,3.8-1s2.2.2,3.1.6c.9.4,1.7,1,2.3,1.7.6.7,1,1.6,1.2,2.6h-2.4c-.2-.6-.4-1.1-.8-1.5-.4-.4-.9-.8-1.4-1-.6-.2-1.2-.4-1.9-.4-1,0-1.8.2-2.5.7-.7.5-1.2,1.1-1.5,2-.3.8-.5,1.8-.5,2.8s.2,2,.5,2.8c.3.8.8,1.5,1.5,2s1.5.7,2.6.7,2-.3,2.7-.9,1.1-1.4,1.4-2.4h2.4c-.2,1.1-.5,2-1.1,2.8-.6.8-1.3,1.4-2.2,1.8-.9.4-2,.6-3.2.6Z"/>
            <path class="cls-4" d="M540.9,442c-.9,0-1.7-.1-2.4-.4s-1.2-.7-1.7-1.2c-.4-.5-.8-1.2-1-1.9s-.3-1.6-.3-2.6v-8.7h2.4v7.8c0,1,0,1.8.3,2.4s.4,1.1.8,1.5c.3.4.7.6,1.2.8.5.2,1,.2,1.6.2s1.4-.2,2.1-.6c.6-.4,1.1-1,1.5-1.9s.6-2.1.6-3.6v-6.6h2.4v14.6h-2.4v-6.7h.8c0,1.5-.2,2.7-.7,3.7-.4,1-1.1,1.8-2,2.4s-1.9.8-3.2.8Z"/>
            <path class="cls-4" d="M552.9,441.7v-14.6h2.4v7.4h-.7c0-1.6.3-2.9.7-4,.4-1.1,1.1-2,1.9-2.6s1.8-.9,3-.9.3,0,.5,0c.2,0,.3,0,.5,0v2.4c-.9,0-1.8,0-2.5.2-.7.2-1.4.4-1.9.9-.5.4-.9,1-1.1,1.8-.3.8-.4,1.7-.4,2.9v6.4h-2.4Z"/>
            <path class="cls-4" d="M570.5,442c-1.5,0-2.9-.3-4-1-1.1-.6-1.9-1.5-2.5-2.7-.6-1.1-.9-2.4-.9-3.9s.3-2.8.8-3.9c.6-1.1,1.4-2,2.5-2.7,1.1-.6,2.4-1,3.9-1s2.8.3,3.8,1c1,.6,1.8,1.5,2.3,2.7.5,1.1.8,2.4.8,3.9v.8h-12.5v-1.9h10.8l-.6.9c0-1-.2-2-.6-2.7s-.9-1.4-1.6-1.8c-.7-.4-1.5-.7-2.5-.7s-1.7.2-2.4.6c-.7.4-1.3,1-1.7,1.8-.4.8-.6,1.8-.6,3.1s.2,2.2.6,3,1,1.5,1.7,1.9c.7.4,1.6.6,2.5.6s1.4-.1,2-.4c.6-.3,1.1-.6,1.4-1,.4-.4.6-.9.8-1.4h2.4c-.2.9-.6,1.8-1.1,2.5s-1.3,1.3-2.3,1.7c-.9.4-2,.6-3.2.6Z"/>
            <path class="cls-4" d="M249.1,463.9v-1.9h10.4v1.9h-10.4ZM256.7,476.9c-.8,0-1.5,0-2.1-.2-.6-.2-1.1-.4-1.5-.8s-.7-.9-.8-1.6c-.2-.7-.3-1.5-.3-2.6v-15.2h2.4v15.3c0,.9,0,1.6.2,2s.4.8.8.9c.4.2.9.2,1.5.2s.8,0,1.3-.1c.5,0,.9-.3,1.2-.6v2.3c-.2.1-.5.2-.9.3-.4,0-.7.1-1.1.1s-.7,0-.9,0Z"/>
            <path class="cls-4" d="M269.6,476.8c-1.5,0-2.8-.3-3.9-1-1.1-.6-2-1.5-2.6-2.7-.6-1.1-.9-2.4-.9-3.9s.3-2.8.9-3.9c.6-1.1,1.5-2,2.6-2.7,1.1-.6,2.4-1,3.9-1s2.8.3,3.9,1c1.1.6,2,1.5,2.6,2.7.6,1.1.9,2.4.9,3.9s-.3,2.8-.9,3.9c-.6,1.1-1.5,2-2.6,2.7-1.1.6-2.4,1-3.9,1ZM269.6,474.7c1.1,0,2-.2,2.7-.7.7-.5,1.3-1.1,1.7-1.9.4-.8.6-1.8.6-2.8s-.1-1.5-.3-2.2c-.2-.7-.5-1.3-1-1.8-.4-.5-.9-.9-1.6-1.1-.6-.3-1.3-.4-2.1-.4s-2,.2-2.7.7c-.7.5-1.3,1.1-1.7,2-.4.8-.6,1.8-.6,2.8s.2,2,.6,2.8c.4.8.9,1.5,1.7,1.9.7.5,1.6.7,2.7.7Z"/>
            <path class="cls-4" d="M293,476.8c-1,0-1.9-.2-2.7-.5s-1.5-.9-2.1-1.5c-.6-.7-1.1-1.5-1.4-2.4-.3-.9-.5-2-.5-3.1s.3-2.8.8-3.9,1.3-2,2.3-2.6c1-.6,2.2-.9,3.5-.9s1.9.2,2.7.5,1.5.9,2,1.5c.6.7,1,1.5,1.3,2.4s.5,1.9.5,3.1-.3,2.8-.8,4c-.5,1.1-1.3,2-2.2,2.6-1,.6-2.1.9-3.4.9ZM293.5,474.8c.9,0,1.7-.2,2.5-.7.7-.5,1.3-1.1,1.6-1.9.4-.8.6-1.8.6-2.9s-.1-1.6-.3-2.3c-.2-.7-.5-1.3-1-1.7-.4-.5-.9-.9-1.5-1.1-.6-.3-1.2-.4-1.9-.4s-1.7.2-2.4.7c-.7.5-1.2,1.1-1.6,1.9s-.6,1.8-.6,2.9.2,2.1.6,2.9c.4.8.9,1.5,1.6,1.9.7.5,1.5.7,2.4.7ZM298.2,476.5v-6.2l.5-1.2-.5-2.3v-4.9h2.4v14.6h-2.4Z"/>
            <path class="cls-4" d="M309.3,476.6l-6.2-14.7h2.7l4.5,11.3,4.6-11.3h2.6l-6.3,14.7h-1.8Z"/>
            <path class="cls-4" d="M326.3,476.8c-1.5,0-2.8-.3-3.9-1-1.1-.6-2-1.5-2.6-2.7-.6-1.1-.9-2.4-.9-3.9s.3-2.8.9-3.9c.6-1.1,1.5-2,2.6-2.7,1.1-.6,2.4-1,3.9-1s2.8.3,3.9,1c1.1.6,2,1.5,2.6,2.7.6,1.1.9,2.4.9,3.9s-.3,2.8-.9,3.9c-.6,1.1-1.5,2-2.6,2.7-1.1.6-2.4,1-3.9,1ZM326.3,474.7c1.1,0,2-.2,2.7-.7.7-.5,1.3-1.1,1.7-1.9.4-.8.6-1.8.6-2.8s-.1-1.5-.3-2.2c-.2-.7-.5-1.3-1-1.8-.4-.5-.9-.9-1.6-1.1-.6-.3-1.3-.4-2.1-.4s-2,.2-2.7.7c-.7.5-1.3,1.1-1.7,2-.4.8-.6,1.8-.6,2.8s.2,2,.6,2.8c.4.8.9,1.5,1.7,1.9.7.5,1.6.7,2.7.7Z"/>
            <path class="cls-4" d="M337,458.7v-3.2h3.2v3.2h-3.2ZM337.4,476.5v-14.6h2.4v14.6h-2.4Z"/>
            <path class="cls-4" d="M350.1,476.8c-1,0-1.9-.2-2.7-.5-.8-.4-1.5-.9-2.1-1.5-.6-.7-1-1.5-1.4-2.4-.3-.9-.5-2-.5-3.1s.3-2.8.8-3.9,1.3-2,2.3-2.6c1-.6,2.2-.9,3.5-.9s1.9.2,2.7.5,1.5.9,2,1.5c.6.7,1,1.5,1.3,2.4s.5,1.9.5,3.1-.3,2.8-.8,4c-.5,1.1-1.3,2-2.3,2.6-1,.6-2.1.9-3.4.9ZM350.6,474.8c.9,0,1.7-.2,2.5-.7.7-.5,1.3-1.1,1.6-1.9.4-.8.6-1.8.6-2.9s-.1-1.6-.3-2.3c-.2-.7-.5-1.3-1-1.7-.4-.5-.9-.9-1.5-1.1-.6-.3-1.2-.4-1.9-.4s-1.7.2-2.4.7c-.7.5-1.2,1.1-1.6,1.9s-.6,1.8-.6,2.9.2,2.1.6,2.9c.4.8.9,1.5,1.6,1.9.7.5,1.5.7,2.4.7ZM355.3,476.5v-4.8l.6-2.6-.6-2.1v-12.4h2.4v21.9h-2.4Z"/>
            <path class="cls-4" d="M367.1,463.9v-1.9h10.4v1.9h-10.4ZM374.8,476.9c-.8,0-1.5,0-2.1-.2-.6-.2-1.1-.4-1.5-.8s-.7-.9-.8-1.6c-.2-.7-.3-1.5-.3-2.6v-15.2h2.4v15.3c0,.9,0,1.6.2,2s.4.8.8.9c.4.2.9.2,1.5.2s.8,0,1.3-.1c.5,0,.9-.3,1.2-.6v2.3c-.2.1-.5.2-.9.3-.4,0-.7.1-1.1.1s-.7,0-.9,0Z"/>
            <path class="cls-4" d="M381.1,476.5v-21.9h2.4v14h-.8c0-1.5.2-2.7.7-3.7s1.1-1.8,2-2.4c.9-.6,1.9-.8,3.2-.8s1.7.1,2.4.4c.7.3,1.2.7,1.7,1.2.4.5.8,1.2,1,1.9s.3,1.6.3,2.6v8.7h-2.4v-7.8c0-1,0-1.8-.3-2.4s-.4-1.1-.8-1.5c-.3-.4-.7-.6-1.2-.8-.5-.2-1-.2-1.6-.2s-1.4.2-2.1.6c-.6.4-1.1,1-1.5,1.9-.4.9-.6,2.1-.6,3.6v6.6h-2.4Z"/>
            <path class="cls-4" d="M404.5,476.8c-1.5,0-2.9-.3-4-1-1.1-.6-1.9-1.5-2.5-2.7-.6-1.1-.9-2.4-.9-3.9s.3-2.8.8-3.9c.6-1.1,1.4-2,2.5-2.7,1.1-.6,2.4-1,3.9-1s2.8.3,3.8,1c1,.6,1.8,1.5,2.3,2.7.5,1.1.8,2.4.8,3.9v.8h-12.5v-1.9h10.8l-.6.9c0-1-.2-2-.6-2.7s-.9-1.4-1.6-1.8c-.7-.4-1.5-.7-2.5-.7s-1.7.2-2.4.6c-.7.4-1.3,1-1.7,1.8-.4.8-.6,1.8-.6,3.1s.2,2.2.6,3,1,1.5,1.7,1.9c.7.4,1.6.6,2.5.6s1.4-.1,2-.4c.6-.3,1.1-.6,1.4-1,.4-.4.6-.9.8-1.4h2.4c-.2.9-.6,1.8-1.1,2.5s-1.3,1.3-2.3,1.7c-.9.4-2,.6-3.2.6Z"/>
            <path class="cls-4" d="M413.4,463.9v-1.9h9.9v1.9h-9.9ZM416.1,476.5v-16.3c0-1.4.2-2.5.5-3.3s.9-1.5,1.7-1.9,1.7-.6,2.9-.6.6,0,.9,0c.3,0,.5,0,.8.1.2,0,.4.1.6.2v2.2c-.3-.2-.7-.4-1.2-.5s-.8-.1-1.1-.1c-.9,0-1.6.3-2,1-.4.7-.6,1.6-.6,2.9v16.2h-2.4Z"/>
            <path class="cls-4" d="M424.1,463.9v-1.9h10.4v1.9h-10.4ZM431.7,476.9c-.8,0-1.5,0-2.1-.2-.6-.2-1.1-.4-1.5-.8s-.7-.9-.8-1.6c-.2-.7-.3-1.5-.3-2.6v-15.2h2.4v15.3c0,.9,0,1.6.2,2s.4.8.8.9c.4.2.9.2,1.5.2s.8,0,1.3-.1c.5,0,.9-.3,1.2-.6v2.3c-.2.1-.5.2-.9.3-.4,0-.7.1-1.1.1s-.7,0-.9,0Z"/>
            <path class="cls-4" d="M437.7,476.5v-3.1h3v3.1h-3Z"/>
          </g>
        </g>
      </g>
    </g>
  </g>
</svg>