<?xml version="1.0" encoding="UTF-8"?>
<svg id="Layer_1" xmlns="http://www.w3.org/2000/svg" version="1.1" viewBox="0 0 595.3 841.9">
  <!-- Generator: Adobe Illustrator 29.5.0, SVG Export Plug-In . SVG Version: 2.1.0 Build 137)  -->
  <defs>
    <style>
      .st0 {
        fill: none;
        opacity: .5;
        stroke: #9fcbd0;
        stroke-miterlimit: 10;
        stroke-width: 1.4px;
      }
    </style>
  </defs>
  <path class="st0" d="M39,468.8s97-66.5,102.3-72.9c5.4-6.4,33.1-38.7,38.5-38.7s26.2,16.2,30,16.2,43.1-48.5,47.7-48.5,16.9,20,26.2,20,35.4-29.2,38.5-29.2,80,76.9,86.2,76.6c6.2-.4,21.5-6.5,26.2-6.5s23.9,25.4,27.7,26.2c3.8.8,90.8,46.2,90.8,50.8s-58.5,3.8-65.4.8-22.3-5.4-22.3-5.4c0,0-10-13.9-15.4-13.9s-22.3,1.5-22.3,1.5c0,0-20.8-2.3-29.2-8.5-8.5-6.2,21.5-20.8,21.5-20.8,0,0-10-11.5-18.5-11.5s-30,17.7-32.3,30.8c-2.3,13.1-40,9.2-40,9.2,0,0-55.4-10-56.2-13.1s27.7-16.9,30.8-19.2c3.1-2.3-7.7-14.6-7.7-23.9s14.6-16.9,14.6-16.9c0,0,4.6-26.9,8.5-34.6,3.8-7.7-42.3,31.5-47.7,39.2-5.4,7.7-3.1,17.4-9.2,19.5-6.2,2.1-29.2,11.3-36.2,19.8-6.9,8.5-15.4-5.4-7.7-15.4,7.7-10,22.3-.8,24.6-8.1s13.9-48.1,12.3-51.9-20.8,32.3-27.7,35.4c-6.9,3.1-31.5,9.2-44.6,2.3-13.1-6.9-20,33.1-20,33.1,0,0,33.1-9.2,37.7-7.7l4.6,1.5s-30,40-97.7,58.5c0,0-7.7-3.1-13.9-3.1s-10.8,20.8-54.6,8.5Z"/>
</svg>