<?xml version="1.0" encoding="UTF-8"?>
<svg xmlns="http://www.w3.org/2000/svg" version="1.1" viewBox="0 0 1417.3 1984.3">
  <defs>
    <style>
      .cls-1 {
        fill: #004647;
      }
    </style>
  </defs>
  <!-- Generator: Adobe Illustrator 28.7.2, SVG Export Plug-In . SVG Version: 1.2.0 Build 154)  -->
  <g>
    <g id="Layer_1">
      <path class="cls-1" d="M1084.6,950.9l-210.4-124.3c-6.3-3.7-13.9-3.8-20.4-.2-6.4,3.6-10.3,10.2-10.4,17.5l-.8,83.5-428.7.7c-22.1,0-40,18-39.9,40.1,0,22.1,17.9,39.9,40,39.9s0,0,0,0l427.8-.7-.8,80.9c0,7.4,3.7,14,10,17.7,3.2,1.9,6.8,2.9,10.3,2.9s6.9-.9,10-2.7l212.8-120.1c6.4-3.6,10.3-10.2,10.3-17.5,0-7.4-3.7-14-10-17.7Z"/>
    </g>
  </g>
</svg>